<mxfile host="65bd71144e">
    <diagram id="J2LZLwA55LZYGtPQgqAi" name="Page-1">
        <mxGraphModel dx="1936" dy="548" grid="1" gridSize="10" guides="1" tooltips="1" connect="1" arrows="1" fold="1" page="1" pageScale="1" pageWidth="850" pageHeight="1100" math="0" shadow="0">
            <root>
                <mxCell id="0"/>
                <mxCell id="1" parent="0"/>
                <mxCell id="2" value="" style="shape=image;verticalLabelPosition=bottom;labelBackgroundColor=default;verticalAlign=top;aspect=fixed;imageAspect=0;image=data:image/jpeg,/9j/2wDFAAQFBQkGCQkJCQkKCAkICgsLCgoLCwwKCwoLCgwMDAwNDQwMDAwMDw4PDAwNDw8PDw0OERERDhEQEBETERMREQ0BBAYGCgkKCwoKCwsMDAwLDxASEhAPEhAREREQEh4iHBERHCIeF2oaExpqFxofDw8fGioRHxEqPC4uPA8PDw8PdAIEBAQIBggHCAgHCAYIBggICAcHCAgJBwcHBwcJCgkICAgICQoJCAgGCAgJCQkKCgkJCggJCAoKCgoKDhAODg53/8IAEQgD0QLgAwEiAAIRAQMRAv/EAPIAAAEEAwEBAAAAAAAAAAAAAAAEBQYHAQIDCAkBAAEFAQEBAAAAAAAAAAAAAAACAwQFBgEHCBAAAQUAAgEDBQEBAAIDAQAABAECAwUGAAcREiAwEBMUFUAWUAgXGGBwgBEAAgICAgIDAQEBAQEAAAAAAgMBBAAFERIQIBMUMBVABlBgEgACAwACAAcBAAIDAAAAAAADBAECBQAGEBESExQgMBUWQAdQYBMAAQIDBAUKAwYGAgAEBQUAAQACAxEhEjFBURAiMmFxBBMgQlKBkaGx0TDB4SNAYnKC8BQzQ1OSolDxBWNzslSAk8LSJGBw4vL/2gAIAQEAAAAA9+AAAAAAAAAAAAAAAAAAAAAAAAAAAAAAAAAAAAAAAAAAAAAAAAAAAAAAAAAAAAAAAAAAAAAAAAAAAAAAAAAAAAAAAAAAAAAAAAAAYhMkcwDXYAAAAAAAAAAAADnx27bYDIAAAAAAAAAa7YGuB17d0i5plxE3J7AyAAAAAABiMSbbWL6SBob+m2/XrjnnON3/AHAAAAAAAAA51ZaLLQbQ47uk3c0MJcrQpm+No7H5bJAAAAAAASUEyTxPYMEarhXac2uF2Jrpp3Z5A2Pei3IAAAAAAAzV91rSRSBhlD9D2yatTFK1qKKuMclcdtCXAAAAAAAaxjy87zBMy2nYm2WDL5kxrW9gdO7N2fdwAAAAAA1puLQ+2WBzcnyO68lUEXZ78HNa6O8UuJZkAAAAAAxD2+sIXNNYvbtpZwaGQMV9I3PgpjbzIgAAAAEQogk5pSVVp3kavpSavO7Q5116H5STgwsTg38vRroAAAAABpXMkdWDyIpHv0jKc9dg1b1WBHXVmYR6tKWwMgAAAEH10ZeT7AIi9RelajmTBc9Rsrh6GqGx7A6vk+w8Zj0zmZkAAAAxrVNg7dt4nS3ed2ooriyN8IakmEz10pSazE15oUDBaOwAAAEGhdQy+byqlYHA4aqjTnyf+naeURbU4jMQms/sZQzSpWntjcAAAA1p6zm+sLliUWfMTyMO8QsYqhrRW27tjjScwm0ZxsmyjZbnyAAAEAZ67WP7XRCGTWC5XDTPoJtrnzfB26RoLn80ujV6cdH6S1Z0sK7lgAAAYqksbsNcbsCMAqqK7NhFCLCy2VnbTDTFQemq3zaU6b6Un9q5AAA0ppgbuLrVte2TOLHsWkqog1et22OSOwYtra3mP0/payBWmn0e9ObAAADL589GdsY0W7J+QGMcE2qvaKIp1rGfKM+3aJL6DwxeSfarsAAYaIRVZIHWI1pO791pCkUUGDnCo/0U7XN6m8twQmN9z+LSKdxi4HkAADFBWbIuhrC5KifajtrGjBGY9w54lcxcc5inkqWrWuwb3xrSsF9e5AA50xFIzbcLq+JV99CobVdIsHdPHkmUbcmSTL6NS+qmbxm93vOZRArRdJBO9gAAjtT3Mozt3IQqkNaWUkhCBnjE2RNHRPOJwp18tRfD1dVhqBm8Ye1pVkANYHWEfmPGs/ONoeqaf89NOYlH1cyWdUTa1zj3G0SWpPP9zwiyX1zde9Y+x9wAApqdvXU6d9Yny3kHKCotNaeRIMSmbKVNjOHHzw1z96nqmOvXm/PrEAMR+pW5f0hdN1364j3nZq4wdBNbLjDVnuxcd/esn86+d7PcYtZ92PUcj8N9IWXkADXzsvvDbVTnHl+LS6znuOcaAq3cRJUstt+xE9pPOsbQSNyKZuKtfMH0D6ACekZRCF6enKwtK+/PHn9fB2GeTSPKLAVwlbIqeuW8PGiK72V6c7Gspq1jzZc9i9wAiVX3WlXbKd2TzCxSO4e6DzXDZ3HkvHmoWw62LOvHdO4OfBv5x2QQfyz65sMAxBfK89lsWr/zf7Xuf5yMLrCmW4O3qH0W5Z5VfTsT85RRD6bqewZ3U96R+cTFRTfrGVKAAqvvG0lz1fablx8/QZ09GQmF+Y5sna0jUqUqVUC9YXps0sVidIr0cSF+erH9IYAKNpOfTdH4gum0ZN4E052VFbC9yTAANfNNCefpPcNFz91ktlWRXbTtA/fa/AAVEit8NezXBNLHGuiEdO9drmtKXR6tKWjXGyvQE3aaTu+RVJYiNyh9IoPZZkCkqWuVFOvBTvclQ14/18juD3FZYAGMeP8Ax7edGWIqcrTVSxxr5i4eu5rgAKej97Akp+89dOFJWIz07VEw9kOGcZNPJNdqb8tdU5dOLVxqS3YnVVRe/QyFFMKmpuFHtvoejoQlsGH+kPem+AACM/Llp1kt7V41eh3rWB2O0W5aQAFRV96SyY371602H30bKO89e7pbkAOXgdxtq8Fq1RxbIq2TOPVVQ/0P2xkPOSGw0UW8z1wm9D+XZO41t799SbYAANfmpXCFTfNeQb1pKctj5VLp6Js4AKv82+zFcImnXXx3KVV/rOddeQfopvkAMeJXuzLBgaGcsUmfueIvVdDfRbIB51Vv8ViEDo+LeyvFOE6P2P7n2wAAY+aVFv3T3ExNUZkTVZPJFZ9rLQArLyN7QlVQW5jzrze6ylnpLEb8s+1O+wAa+K7jkFiLdWBPlZpmoobTf0SyBjzz0emVt7+b5G3w+tEGHD6vSfIABXHyyj0jsa/1lavrtPXhlgXoa1AAK08sXpeTc5cfGbwoa9PYWK9ifD0J0ANaoh842e5phGg011K+peO+7cgFJQWbM0kavK+8A9T+UH23nKDfQFyAAQ+EfHMkZ/obV9L37xtJ4rlLy9I2HkAINQGfUSrPPyAjVaKb7XSWPxePWROd8NtUp5xJY+TRDH3HlzNID5+k3sHIGlU1lOWVmk8FgnSCyao7E87N9mfRazQCvvKXmpjafYFueGLCsedRl4mHSubNv9xABvomqvTsxCJ+fYq6T9/nMqaaDuBrZ3NQ+9m1Q8SIZPKkU9VSPQjcRo24PRYBpRlfzd9r9NNlXiFysuqYvs/1EyXRcD+kqOFcGhgu30x5kc55NLdj73ivYd7ScAAMUlTV/wBibYMR6DRi3X5I5cOzD3dg1hzk5v8Aig/Okte/ReyiiF9SerbBAMc/JdqySv0ssrytq3gU4UxL0F1hlGoNVadO3uV4rqVTW7dT6q5SzWJnpnIABUdUWnIpbtH33Nduk2g7hJUDS1TDrlvitk7AmgXlGbrLZ6LKTi672bsAMzFA6vsRw3bGNhV1n5tbPTsxrZXXIq5sD65x2rU1uS+4HtuSTp/41T6VnwAANPm+t5t6FkkQ5zJtdYRPN8wFmXtllda+kUtNEqPWm61dbQ3ifn6XXHf2QBBEXTy7IuNuLKy6uPBh8rPNyRCk2m5IJJoXDY9hxuZdctw5hbfw0ZXj13sAAGKUqGHeqZe57GWRDKd+m5Gn6Hc5htmtJc58OfFv8v3hjzO99PZ7kABjWBeYp1JOqZza108qTjBKLmcZYr+86exPBav1mvnExr+dJGmKaM6T0ZZoAAAxeTorM76jtgP8eh1ox5DL9988YZLd9MRVxcdeKeKNu7DT3W6b22AADXzTWLq72qghqxXvLoWmjjRXmbyjnSy2WBW63I+0b6I+SOS+oNgAADFLU3FbQtpPYPca4fLXXtpXU4UZxHmXMn7c00RQ65ofZ29idQAABF5ASuNhyRHCbJjMacZVLGODKkkhXwWLyOQQSaIZGpoGR8fXywAAADXyszMy30E/dHfrgztoxPmuMcIWmmwkiNfUju7ru3r2QgAAGdYz5T7N8qlPGyc17252RHW+UQhBIK4kM/j0IY1s6XeeX/1xIwAAAAQ+S3B8i8zs1c/67YDGOZjTnz0ZY1UdOyF/2dPTcyyAAAAQrzW1TaM2iqm8Sgmu7tsrR1LZ62OObF1Znxm4R/19MMgAAAAIPLC1yTMl8dlbkswI4ukf3XXRJH2ak6+kazO3r+SgAAAAa07T8RtSv5RNIY99ZVEoTOnCGQO0a+abqe6XVs7x6yfsgAAAABzpiOoGqJ+hpGl0Kzh08sDVBw5ODb5wjb0t0mHq1yyAAAAAa86HpnZHwbLefVdVu7jDV6N0mUNY+yNt9K3F1yAAAAAAYhdRoEMJ322UOjqkY2BDzStDVJO/dx9EXZtkAAAAAAG2hqiZ0Mi7x5rcxmeHOS8U8d0t/wBEvYAAAAAAAGlbVqhwi7b68tePDk1xBr2Wdrt9DuYAAAAAAAGNPP1BNXRXlfqma1SK12y6bkUgAAAAAAAAGsRhMeYFyZsSZWdtkTPNphba0yAAAAAAAAFVrnp/rmHsyUXP2bYftwAAAAAAAAAAxhJBmBCiTOLpwfbDU7AAAAAAAAAAAAGMbGDIAAAAAAAAAAABgDBkxnIAAAAAAAAAAGAxpr02zjIAAAAAAAAAABjizcUynRKj4YdJIuyAAAAAAAAAY1aImzsiNiS7O8iflkyc9gAAAAAAAAANWFv0cBwi+ddFmUkRXWE8bZAAAAAAADVFXsZ2lSB6rqrIlyQOUtn78verHWZAAAAAAAAMR9ldVDXFNH+nJSzuzbzUqOaGWzzj2lOwAAAAABwruMO8anUlSnTMWpbPfESbrGl8YmlzdwAAAAAAATwNzVxLWGOsnIJsiXtje39rMlUK0UZkM4cAAAAADDDWbH3udC1yBZpyravEEGeXtWjhubS4MHoeaZyAAAAAANkBkUMh9hrI/tsta2QwsbsWrVlSPjJMJaim9q9AAAAAxAIq4Rxjul+VbJWvjQku1hdcs96pnCv2DPd2um5dgAAAAAwhizBAFr9ZNVvGsiiXXTPZcub2+rpowSupetl6WjMsgAAAYrWtdZLbPZfhlrSx26M1c/7QiuWL1OnjKXjNJPzpaf8AoroAAAAAJa/41ZLZbotjske1NKy1m1lUjwxRbnHHJu1izFavS8lwAAAawCGMfTjac5QJPKs6UWswVNxaIkwt/r+eMO73w4xxspazPQxkAAAAxXauA7uXVU+unHSpE7/qisHVQk3fKsRKU8Xa7Yi7zee4AAGIpCXOWsCGQYhMGsirq7su5/PD7XUcSq/Xbu48Wvo3szZQEtvu0MgAAAERQV9hY/KZvF1VRqszGGcXpzp6+1UBdXNVGomitJb5wtydT7IAAcaefqdmktb4zFbRSNFhUtT8lqKYyqBJbFu6VLqkb5dmlSc1hNPWjhgAAAE9fpK5fO0imytDTsxgfGVwCfJa7ljPczPHNZHpFLQr2sekikV99AAAgrfCFji07szOhkSG7G7zfWcmq2FrZf6R83u99WDJlvFiqCr2ywrpvrIAABiGcqfk/B2mDhBZLAG60qdjdz1zAZS5Ri0p/S6pwJrG6ZnCOP2nM7EyABrWsbi9tV2xuHCMIWVxbLhVU6kkq2oJyrrlm9aTx0XbNUYoJhjVj+y+wAABzrdDAZmrJPzhljVREi4GelOzBM2t9jF51c+93yX0muQP8Idpte2QAIlDIdcLnAqqTcm9taM2NX1hvq/ze/R5ktnzVa3qSdvpruwUNVCWR+rp/kAABhjdaPK7lJ1zVB7Ooax6DZpnCsOero5OFu1bIN5NDZTXCuZV6wT/ANBuwAYp9OpfIq40qJk6OK3UprNqSrFu88411Kaw9dTZ2UaaVd5yRLma/PR+wAAEVa6/cXFHOecfgi6uXqc0CycsKzpMfTPmd4eXKxoC12FA2LqwSG3LOABLSTtGoW721t5uakEFUWKvrnFxT5XCoVOWVdFrdtJxaqh8yJLokkGis89nbAABrCE9HWPlXL8QJFvDq/8ARfi2SqnXTlaFveZudsSB4a9IhDfStMaV9IZ/6BACBxlhe5ywN/ejvOEKz6NYOs29ivOTCKjI1aHn1RNoNFbJuNmqm/6SrN89cSYAAEsITU7YPN5syH1vwe63rO1aJf8AtNH606+pCeWdUzpm/IBH1LbaVEL26U+rMgFRool3QNUutNj83cKambu8e31QBjFSIawpZ8R2H6crim5hO9q2a7/tAAAGeMoamlK3vbMCq6dw+s2WWwd79iyFHHvN0gl1EStRPOa5vrqalNyVG5+w+oBUPWpJyncI/P62reyl8Hgvpu4dgAy21q7Q2MPdkpo/RUFTSBfILnuUAAI8w8arkDzvMay0jULZFTbcz5emwRSBUcvw+T+yKGZrHiFKShzRKfYbmAU/itXVLErTRRZgaXmvb/8AQSzIAYh/aNs0BdIw0u1h6UJhxf7UvEAAIuwYpeQuDvKY3WQ7sUBR3raM5yGCtajZLSdLDgVSQxUgXuabj6ulABUKbtEUcRmrKxsyDaN6fQxWAAcPKlYPVgpn6sYqpvC1qxq58tC7QAAjEY50pJ3B8nUPaWOKpGBp9ez7IAVfV0OevQneDRpugnSyK3x39RyoDNVcaW9JxKhpZHWJmQPdtpJ5ba8ANWPwzKl7JPE1WsU34TT0ZUsYti2wAAjcKU0TIUvD0EhhTLIGasdbJ9H7AY087wNRLb0iFbOVdYvqhIbJ3j1K9AFasdY1N60e/MjI1pmCaO1K3td9quuQ41DC08tcaGRoIshtGIW/ZyerL2sMAAGuutqg62tVtkyLEaq9JYUGgfqG085ZGatIX0cZhakSitQrLXmPhCcvM39OdQCva9bKijcrvOjYI/8AGZP9eyK6ktn8OMsoWy9cacm7xrxWaMEWueRWRGPUb4AAGlXJIxWcrbpPOHGuWOKbnVLMLC7wqEW7XDgquNfV0SZJnm4fMMcfrYvbIBD6kaoPH5OhmljQbW13qAVbSSG0r4oqawv0JJVKduhyjyjGmtmcr7XOUi9SbAABis+cGreymPV3k6+PVxLInIysZJ2U6Ri6E8zklWuEDaWOQ+lYX51mNq28AHGgGSBshNY/E77mz4ud4PTvKPOtv0U93c69+rHGa0san4tSlhXCls+Q3JkAAMV91ilTO73GJO9OM5rWDv0e4IWSZR5K+vlnukDgr9I6q0hPq9bRC70PJgAxSyesID1WyuH27ZjiuU9NoxpJazdfNHoCUKt8pKkrP07DoBGXN1vV6lgAAAirPtE6umawb5PaSuEwqUcEjH1jVkKZjG4gqh6DRG2Rq5ZhBuvpnIAEMrfehoq6vTRZN1uavtss7sTBYEO8i2LZchWJIfRFhwf1jH4BCnGc3woAAAMVf0QwetZnundXWYSOMShb1iUfdUmK57IHV9RwSJbrp9Mq2uW1wADXz68tkfoqTRx79HOy7vh3j1T+evRtt0VRVn2C8x6meE8m3C3G2oH29JHkAAAENNvK6tInYEmicU7qFEwr+UxVtVppW2x7o8ukVkqTk/LYQl9bKQAAjVIv/GM045Uza9ryDnEW+g4hbc1sm1PN9foXFClkloSXnZaKAzK5dgAAACvYy4uMYhcbfmqRMK1nQdrEhvbaVWqy04o6JYWy97Y7MloXDkAAMV3W7lipKfjMbXuOtnSjpH5HqSCzaqr6ScZBUMvuHLhynlgPIAAAAYpZd2eEVewxvfJBH1LiRrbitd5NXto1jq5RBstjVsd/RnQAAAxAa3WaRfz9Vrdy7WF6ptdipNmzrHfVFVU/YTJMalutivit7TsnIAAAACaiJGrcMxiGwF5UOHOSR5v2ndb3b5+5KN8t0uctH6/VIAAABU9byLXjX9E9LPpCy/U8krjzi0u3Xh7E84c3SFSZcqsa9XAAAAAAMNlISBQ6debLW0JWSjK5tyJ5wgY+bAvlHRMel9gAAAA1omtX5xd+PmqTRRguCzIjCNHTMUtGd0lKUivlb10b5AAAAAAENEOjn2VdMI4VDOKl/ZGtt4XrDurt25yFqvPqAAAAAYrGhHOWOFHcIHZ1fWZaHnaXI9kljTWE7sSz0jK9wAAAAAADlUcQkapao315M0SQPDr1yhc3Fm6zaLWysAAAAAAG2gIDIUlO2JYyeq0yqVKatt92TNcTuC+ewAAAAAAABhnqqMO6hxV7HPmlTnXblx7yxPPloAAAAAAYGapa9YVuTVnw8qZD0Z1slu1zAAAAAAAAAMHKAQuO5ddsd1HY2a1T7ZqzIAAAAAAABjSK15GGJkT7cJ+4v08y7PWcgAAAAAAAAABzYIg3ptOyt/dXVy2AAAAAAAAADGTGM4yggMnkuc5wAAAAAAAAAAAYANToYAAAAAAAAAADGTiwcgN+g6LtsAAAAAAAAAAByj8cbHqLsCVc8u0rlGwAAAAAAAABjDGznZ97cxuc86Jm5z3c9gAAAAAAAAMMkbjyRJpHHlarb2DhttNbTdM5AAAAAAAMawiOSqLykzsxLmd/7Y0QZ58X2W7gAAAAAABhrgnPGRElkOzcnxq6RB5YorJrgk2QAAAAAAGKP7Nz1jbMWlJrmOvffSvJXjMe6WU/gAAAAABjWBRZ6bpGqQIpC3eTvVCjDPBZm4YZo3Xtk36qAAAAAAT172X56bNXVw0RdFja4b8ku7X2y05bJVYeQAAAADDFEoBvOksq3j+IjKJR50sG0E8caq7Wx6vJ5KekV9KSrIAAAAYaK1lfREL+DK+vyNtUOKdTwh7oq5V/M9uaZpU25sAAAAAyVpCZxLGh+UKoxzldf1ddDBMm2QL6+p97TSWr7Ee6S9ByiZ7AAAAM9ZS7bfbo2rsKGxUyyRK+oHZQhYW/pzOaRs5c7syAAAAawiFSpXhWudu1TRezcVhJn9kW9sucVijKnaLQUsFfvNkXVkAAASVJMNuUUkL85MPbG+Nds6MckWKFKJkaevJI1r4LYdmAAABqxoGrTk7LFrrowsMVeUTv0RrM9OSfDQxS1EzRiwIMxz6+8gAAa1XId8m/Tp2bVOM4Gd50TKtxSu7xyJLoyscI4ntmUAAADZV3N4kHfZZ1ZWTK/RFW7DarjWlPPcsm22ltPMCpeTve8Sk93AAADNFXHEOkb1loc90iB0aVDFLm5ac99+zkojTcyK4W+sjZ6PUAAAJafdnyDPkseItW0WfbQxx0Qo9/O63ae2cbKpE71+yrIyi83fQlyAADECV5z279uWunEbGnru/sbVI9GuRbbtMjcou2I+/FFGJLceQADESrWY5aY/YLvojZ+Lg1tbihi3Zy4STZUZ1YJU6R+LuNRbWZewAANkPV4TvPU4Zzqigu3HKiLvq+SKOvSKSR3I4o5IuZBm/0Y4gAYjtdw6XTFWNbVKuKDVti0dbcv6pgm6irLs2zHazmauKWWshleOvq3qABiuHvY6bc87pOrC4MMM6Y6KNeug+yRoeuyh+j7SnT44xORXDkANaj57azFQxQOYSJu00r2hEE2b476BpmY2lVluOCxgekUMWJlj7SMkt60QAOVYvHdtkHdVH925zjD9C4h1bNKMblL48uXpVx2r+1tWobo67iBmvzYAIr5+u2NK5R1qKUTCOxGc8qdgz0rxGJKkaLNkL50anlT0ljSx1imZ2e0PQoAEJ6qcNzuqUt0TkfDRNAmug0A+vWOEarD365uLM9TRmjkFl/OGK2L0vkAIBVNjatk5zjjDIUuVzKmVsScGZdumaGy/GNbOoe0za0EMZT1w9UtYfoSRZAK1kLI98lilU16803PjFYtSk6vye7xWraASeuo0+vDNZ7azom/HOG0X762ACH0xNWKaSDA2VTMcxN+86b2Tj0ZIqpq5MpX+cPUM14RCfS/SKca+m0PiSn1X1AxWUlYpBtsifkMd1cObdiu4z6u6ZDFDtli5QuSyVxtHyiUYmNfUf9ClQAIqWivKwJtgb0awrzhT7n29SyzGtaJLQr7y76KXpd3Z9ZI0k4Yo6v7Z9QTIDSh7Q6dNN1qltT8eMdYeDA3eqNgCjGCYL1yR5X94qqRt7ZC6h9vSQAOHm1xeX6Q6wesHW2ekUiNbln+legAUDWthbIHyVG2mKriyaH2dfM+zg4VrLsG3NYuZ+fFPEeUAS3fYOwGKzqRa42F2Vy9ug6ph5pK3hPrubgAl8kXR3aJvhszVxPVFX15bXofbIAMFaRB1kPBFJ87p6Hnsar+07pnACSu5GoIs8uaPO3JujSLw19Q3PIBjXzBWnoGRsc0lbExJk/GGxuufW89wAJ6aJGzy9BzwnrSJSuZ0FcfoIyAaxqOxUbGO6Xqpt5JozVvDZv6p74yI614ThsSvLBKtYO8MTbwqD2h1AAKIpf0b2Z587xpAh10iEIiPrObgBpUCBtsFc0L2lvwiaI7JG70ntkAg7BUtlyhj5SSnIZdzjq1Vo1W3dxjJxp+wjY1zwdEzdwa8QacWZkADx9bS1UvmDUyJmRbzZaM6+wZGAGKWRPNKXDM2JJ3QwavnNpsizLKzkOXnhBLpq+RVisGCOnDXhXMeZfRVogGtNzhWkbeb9s3SBsaOgliLjbSgDWCxd8h7tPlsYjCPo6wjWu8ez+4AFNROS1w3ehe7WyzHhxzGIRiYdFk2hUSdpS5bxvkr710/SLSvKTiUv92PAAVd1cXHTuyPujpuxNqjTRJFFrxukanVR25yNzjka681CSJcI04eqQAMQLz/ZSKGWr1gTla9bStfzjUFkqeJyTqplKDR/NNBhhEu41bWLg7ev5qAEdq+TSPbXj206p3xrQcWvVewyHXEdcNGmaOsPVxB7V8YY2cUFg3mAAQalHJ+jFqsjTNO3mr0K4aUVKrSYq7tyLp5fngn7aNq3TlzhsEaUbj6ZsAANfP9iOedjXXLW7PrRAJVjnpnib479+yaCylDtGWbr3zVXraTAAEereN6zGHx7lYUtqa4e8VsbGkdriz4+32M5omBOm4R5900hUCjqS3LkngAYgcNsbAwvCZYgWv/ZO3t8MlGcaqGKZc2NO1qodKqckq3pSFk+rNgADFHwKeqJHDIFHPRijish9iSTToxsz5Fq2xY3bRp76N6BpgW0fcLmudcABp50uLbDA+o+avPXq87ZhSzVrlW6JAiZVpH35BUcif6cQ+pLLyAADN53mqRydEtKzfXSaSBmRyfqzbLeCOOvhVkg2QxkIdw6es7AyAAYrCQbt+V2uNES2KcJl16cY847NSrs1cm9/5R9jS0rFJLbnqzYAADFIZ7MT4wwSWq9ZLIE0fk6mF5lPDlyT0JF3C1kXRDDkMYvL1TuAABCcMTask22E6GPy80TqmB+Qxt6cYFtMhJCOvSjYdLJh6elwAAAN1GOnaKJniLWX523vN3ec8aZs131VRvzuoVNcwl6FVWXZs9PWqAAAaVLFaBY/TVob64ZnbOiNTz6ImFe0v7K7doAjc2GlJi/2lduwAAAYgEEUOzxhLX9WYvFWrX788NCFPQ6q+nelEu3SPLeLH7VleAAADFPeaZswXnInPLQtSK8jQ5a6a88Jo+ur/KmnJk8uHqrIAAAAU63dur52SVWl5xKZdu6J3hkUaH+3KrQDbt3d95E0e1OgAAAGKSqBwjcxnmU7emUyF/6cIxFurzJN2uFPUPq2Xv8Av6wUgAAAAYpVErO7lBeOi5hgzO2YWOqqdw+f92pnjejJM5243/kAAAA1oWqVDfDH+1nnzdEJTeatNx1xvKto/wCZlr1In+Weme4AAAAAa1NF3VKi03kW7LH16BH30xHp7zbI0zY4+jWRZOpVkAAAAMUlRrl0RRtmUbom2yLcVlPM7xpD9nl66XRdeQAAAAADEKrBZhvZ+bgqjfVc3sL5HJElQJ9Ek89Fu4GQAAAAAhfm9lU6IWrdXshY1kcZtnZ6f3zpML9kuwAAAAAAGulexFv1j7Zz0a93RM2rgG+a3jNDIGMZyAAAABrWVTxJ1bWbcwnxx10dnnaXXLN84yAAAAAABnBrCYRC2/mn1QJXXGG7tZFrzHYAOafB37AAAAAGGuuY1WUK7q84TbyiYTS1XTIYyAAAAAAAAGNIvDGtpauLo8ucxmGwZABPpjbRaAAAAABgynikcRdpBLF+TIAAAAAAAAAAAYAxnIa68t8HXkYxz1OykAAAAAAAAAAAAAAAAAAAAAAAAASo9O6borS431xr13cQAAAAAAAAAAAAAAAAAAAAAAAADGAyGcGcZAAAAAAAAAAAAAAAAAAAAAAAAAAAAAAAAAAAAAAAAAAAAAAAAAAAAAAAAAAAAAAA/9oACAECEAAAAAAAAAAAAAAAAAAAAAAASoAAAAAAAAAAAAA5DlyafrMiUrvQAAOU0xLr7MacpzgAAAHGMg/KoCPLvO2dkAAANZliwtkD40uQoAAG6Myxd6mklxauFp3XZ4AAIRArbRNlyotXGkKdWABAoWtDOjuJrZjTaKW0k3AAEceqYd82uvG5UKYzNedAI+Yi2FixcHFONoez99mtFIAGI7jDqnEICLPrYb10xJcDmXapt1l72xe4pUOqt4eY7c6EArnuyc7arhTYri3mq+fJaRNBumzEzVuLer47arAcq6CTBv77omEtbvmtrpKyF1+W5ZSOFVLmqHanH6xb91RcnEWpv2oFHpc5P0HSJBmPRKa85j51qRbCxsamFYtvuFZVzLBnQMRFgMJW3kmplhoAr40yVGh29ZUaro3Uy5LsaBY9fKimj7egv1MudAZVEhSqrRvoIFSq5qG7VbVkBCIsx1VbPfINHEmWN5HS70B3sbC2js+1CPk9I7nE3Mddw4NszWkp6246RsrFnaONFt5XOCXa2vpdDFsbEOYnSSGY7Muyhr7Asn6Ju/lwl9ImVr9RVGmo+aWxgOV8jPNR52geAyhfdgodtmICu2iYSp7SHwjRPONI5UWb8+/jNz6KqbtIc3QgEbB6a4SRpzdfKflRicxFeWAZXKz+zZkdqPIu4te/as3joAZzO6yaqLOqrIqnLNbTa5QAJymYetK1ci8ssnaPtT7KQABzMZjSXrijh3hXck2QAAzRU0KPY6CvCbDnXT4AAFLkrO1RH7Jlch9sbDoAADFPAgSY3C6tJ/QAAAap6mC2sen2tm6AAAArrTPFLcAAAAABDCOvrUAAAABErG0cn2iwAAAA5Bgc5FH7iWAAAHKFSH7fTSs5jYeplAAABCoYNToMuNL0WgfmrAAGMxtoXGmYsvTWtZgpF6AABWYWt0uc0eXj31ow1NuL1QAR67b59MuujCZNs/UUbWnAAIOIzdze2mdzNvtYdVHVaXFsAc8+3EbPW97oqSFHkwoXbPO29sACcJnX9PYZtNFpEXFM/JtKvUywKaq1ORZXsDa0cuPByUmJ6P5tqQApcVFse6BmNzM81OTsNdRyLPSAef7prJ9f1FTCp2vR8/JdTt6iolgGNy676jv36WQ03eYyxu0i9c8MeZ+uFZdSsGm4RQtWk12zkVNbcgJwGdsdXh7q0kPrTXV8yuuuwtPZFLk/Y6/OGhyug4FbZv1V9PzNBpOhHwNBd2dKWOptuVedy99NmwkXd6Z9j07JVUbY1zgEexpITuiMfqAIuAz9/ZUSpnoLwY7M6WnYuXLW/KTIerUcB3YRq10ZtJeL5O0GfrNCAz5zSvaiDHc2tryL57G02ema6jt7wheWfRbGPiWdxLpTLvvu81Ws83q7cDnn1Gl+ZFJMrrbzva63vqPR2BzzH1fdVvlb0y2nxMTNVYWVhb+b3DwBlce0mbbQHY6H7B2msHdLValQZjPeheheMPuyZnaSO5J1FfWou+gEXzqKzIal2TMR5kv0P2Mi0AR55U+2zca1bb5jGREXcaNAnOgAZnJv1TUuQ6xa6iniynp1wsAY85gbT1WTgZG87hHE18Gyf6ABzHUD0XsazZnX9e7KsLFYAEfC1O09VwUa82WKpqaXfuAAAcy2YckD612MtMyesAAOUeflVMl68qrqRYdAAAAh0NU05JXJs7NzoAAADEKMqVKd70AAAADjUfjrrnQAAAASd4pPegAAAAiqrnrRqA/bPAAAAR2edTxakuOugAAHKhuc3I46zCiyLdwAAExm+JcG3UiVPyAAAj5ydZUszR1a+xati7lP8ABMZlSUOKFSWW0tTXwAOQ+KkVtbdOpWmNF7eOtABHb42rvUrVxRGWt90A5BQvmJ1kyiv5FnTrU06pQAmNzrfXBK+cHEMNWLnQIlHajyUtokKsIbljj9BFclARkIktdU2hnr6uSIaZkhIcyjeha625kqLWuabnExbtqqsw5H60Oc7HiyG49mPNoedUDeatJacbfphxr2JLclckjiXECEsoc4o5L51hyFIQp1fOiclE10bqc0blSOwai4lFrWvNjfENi0NzVg2lDiOyU86J82ttR2E5ndDbByM0/KbmNtcGmnIwIemANtC0dksuhzz68tFpsK/tgEZHXLWuXLh9G462+kaUOuJbbWKckRXQMzGj6Nc6I4jsOSO9ZfdUtJyvfTxziXWeJdYdalSHorgFNWQ7azu6a6p2MdukqOPyYUlIVz60xpK0MK4lrsqQtpagGPNbulvWNKmwrJSHldcmcjrAbZbV1Lp1DDrb6+wlzwDmGqLd60lclW9H2ij7NUGw4AEbG6OcsRzvED66tNwoAGfNIEu1srXq49XNfnd5asgAUWctrVTMpZ3seNy3dAAIvm9Ta2MVcBeprF2N5bNoAA5VZlpap87vWkTbVYAADeQyMVWlTPq+2+jsAAAAbq6uHxb0qfYu9AAAOdapaatmosre1UAAAABxPFKAAAAAAAAAAAAAAAAAAAAAAAAAAAAAAAAAAAAAAAAAP/2gAIAQMQAAAAAAAAAAAAAAAAAAAAAAB5kAAAAAAOdDpwAAAAJDcDWQHE8gSYQAAHZK50WMp1lLPecAAAJrewbqr7nYzkSvoOgAAPerrrfOu9QODKEAAEx6beyIFBPeToo2RQiCAAD5qd75/nonbKCh1fW44AF9pK1NV2G9pSC67Z5p/KgATo6bHsF1i6jIak2vaPlb0CTth3PIrbKRCbmS29XhdNmaQAlPxutymHZ8mK1D9L01b5FbVMMDVSb/KyXq6GsjzLaPo2XaHF9AtIqGLHhex7RyBTTPSshkHbzIdJWjl2+Pi2NdfT3W6d05p6W3xNECrWE0i7ZmbC/dYrc1lm+E/QYhAjS3S6V7L6qFnu2mzx9g/pMVpY2GCbaQmW7CLe+nUucc0VPgq6RaQ7+oqSxs2bOXjHuQOhOspFhLkdr8GFjMqkEuPoNV5dwleg5GpYmWEpvOmgubHEaSpj1sfoF05Psqa/ydGsn6vNQdhqfO2J2cDmpr2VNN6OJnC207rEKilxqvoPSUTvW8g3W48JXonnfPe3/NcpZ5+MWTtMuR00tXSFjuG+564rauHG7KsIj97qsNbowgd9HxkO601RnY09LMiPBYXYxdfmInH9utF7TUEy5y9VZMvr2D1M9jK8ObWTkH2+txnn+Nw19VZ2ErFg7beiZmURHoUJpEW3um35EPzzoEv13BUCOPxeyUtNSeOT9NkargG912Ms6uRHn8bhS3ew7LAQwDmy2OFpm34cttE5cCbczK/IgAr0XR12VvWGorGjivPVOVqwADcaPPZuMklMpctNdIzeKSAA/rNdKXl4lm9WvWtfhK0AAC820ep7YNR239KvC5fgAAEvXaS2jzyiq8vngAAAHNBfWsh3nYmfyUMAAABHJM11huF0AAAAAcku8jxFAAAAByRPcUuFXcAAAAAffJLyithAAAAWveorc5CvthPzUUAAAH50m8q9V2Y5nqhuijgADtziLzjmjumvPMnb+mQc2AABK1FvnbWBcSquPqZLmb8+bAB1eM1amJ++0Gt858oiXWsRjwACRpdDnYcXTPMZuXc2Vi1l8cAGoykq1iQqXVel6fxyJoo8PQ5Si6AGj1dbmJekTbV0nMWLdhE0/mVUBPdhel2Nt4zzH37D19a1ui869H856AT9jyocRbuTNVDyOgrKbYtZ/wA/Dmozb3t1pzw7QzdHE843eFiys9Pk14BfayBn9I89spfImE09CxYSZfkUUe1+AXpyo3i8avRO2GLahRL+yx4HdRraLMblNnbwquFatZ66hztL5hmS2u/LbbaVkPb+fiS0jpeq4+r0GBAd1GrztZotV3I+fK1upuvPrR3QScJhi375j7TvLzwiPE4Epjc71nxdW1886D+t2eUptjLuvFYAbzWeZ6rVQJOV8/LPXeceoepSvlmU2ySYlb9F6Cs+f7q5xADuz20TBWF3Y4PM9meqM+f7pyh3fnGQJXqHgkn1lzEVDVg56Dm4mk1XiGY9Ll5kA1u7Zq6jWPRm4suop3dXXZz0TyqmD0fzfB3vrVVWVsG09cxLTdQzm/T8tHALvaWjdFntH24bj5t3XxLzzbU+YIDQ32Qwn0FlI0axofWolVofIndJHynAB/ZaCXW9ra6RbNWEmgte0kPGgK3tn5Tc7xjO+ds7XXysSnlhSxgAL66XsnI0dudTZq9mWlVAwLAA96HPqPNq7YxsUbZ9yzczkAAANXOZ0Ny7SWMCj0S6+rxcUACV6PPxXm3pTmfwu7vtFBwsYAAA1F5GasZwuBC7WZ2OAAHdLqH7B9jJ2tNVUHAAAAJmitXeI63XZ2M0AAABMtZxX1cbnAAAAAOSJfW4rQAAABxbvOrSIa50AAABVldvvP8AarNxAAAAVZTRSHeJm8raVIAABZ3CVJtYTpMjZCKAAEu1UlyK+ymWuYlvNRwACw1UOEl2n1FK5q7YoMzUIACXcqYYW4RkxJVm/LXimQAd0C4VZa3lZIc41cyIxXYwA7oHGW+OqWz3kaPeS5zODAO7NiDA1jDFxDtMje19Bso/cMAWFkiK4ubdRJlZETGYun5WcowLTVVXYkmXaLcYztlHzuu5aYulAvusNyn5+ojPJZzKKO2su9xIL2zdRdVs613SYHcRxuOqFdNYYJVkllua9b6WspJujykanfuXHcB0k7iLTL07sq7zdPs4HaJ7GaSZ3GQCzfS21YSbe68mDdsNU7ttLsvMknfSGc3ec7umPFG573olbBqrap1mYyqrGQplqdcX+EpQ02uzlBOsps7zdo7u41c7qU3PnOeBzXW0XP2aNDjaItnm1RrCZeeesBYayPm7uY9M87aDczaVqUnRZjKnNXZVCa3SypnnsblpObQiNbuLpoz1zIqJNg9NZ8+Dm/sikZrLWwZblMQXi6h20fzRArW1p1MK27IOojqsXpSqLJhzX3sa0zNDbZu/uWaOXNeXNnRvN2gvuLS5GhOWvY3Jdg7Z8aw1eBL9Ep7axz0GviWHdFXTHbFuPjqQCTeTq1T3Y6JLzve2smRmMV0A19tIl9gVcasvHNjbZyLzP4pQBfeuYygbfS4p1xFxPK3ztkAHd0Q9BMrI/be3pnVVjWUoOgHNj6HErZKqmTb1Ee37T+fRAACTtLDgaCxZrYz0jK0FRFAANN6HPkch17jo1lMSyAAAvT6i4dQpMztf5/lgAADj2m0WhkKYqc3l4AAAAA5d6O5cTV53Nt9AAAAOdecaaAAAAAAAAAAAAAAAAAAAAAAAAAAAAAAAAAAAAAAAAAP/2gAIAQEAAQIA/wD4nXlldVhft8/8hZPyUIR3/C9XPPmytz+xgr8W7RzyG2fr9V5eVNwi+fPn+ZV/0yLxzptKzRDGmaT982JKJM43Orn/APOrQJSfifmQ37X/ANj3EX7Jbm3tNJFWwUQmRIuRLGIxzrOoz9hcVUBABrD7fQkWVJbfylwX1VUa5nY9XePItL6QgANSFmVbAyAr0LH9niF2Wvic2jIJFOT+gq4tewCtGlMBZGWrBUCEsrS2rxfsWB9SOysKhE0GiPztjDBCXnOVld/N4va3U1mYYKk/LPmEIRnp8WtVV1PFVOeHNj6//H++wgylU9j/AOVVrjJqqotCXvkFJGpFNLaGXOSPZnuMjQhETgoknBCh3yMDK8/y2+iEzfZodeW1XJYF9bsT6+F9y8NtwbmSH1IRLX1F7/AaaIY9W3znDjTRyQUBKgQulu9pqM9r/wD2fv7/AAbtB27WdpCLSXctlJoS0/cy3pd/X7WuO/j8nXdTSLJoKQyIeylswqfPQJxOI30+j0ryM3x9DH08XFSQdktrSU+kRfm2Dso/RWFVan3McdpYpFHYXXY913CbbldfZfTZDJ6+/sQszix26DtA8lB00lRKlSyqZSy01ePTahF/gV5Z4QTnNTzdZ87Jh11XTQDekEhPqYabpKOkXipzsa0ylWnF+jmv5Z1lVfer5dfyt0t0Z9usYdzSVp+ts93jswZUW7DpB+tGdSC9Z0eTvLorG9aZesGzUesr8ZQX3YYurktoLivmsnUm2avzLy7tggrYGLBeDraVg9nIYKVe66puyBvWshGusyH01ST6jrb1aO2B1TZCNEloLoH6QWa5Fx2o+XXFtzsgw4URVpNrt/X9xWlMyuoujIwaf6GWdr2fod5JdzWNppcrgdrvctotd2XisyBYNcEZBy8vm12b2Qpny7/V9d51eNReWkeXzrmy5qypaessqtuOb9PBYf8AiEavLE41sbbqhsc2RqsaJYSuKzZaNKE31D1zufPxOW8MK0lnYiAxushe6ROvgRHYkBz9dol7IteyCTVjRPMs8FtUatvJIB6Br9dS5GIMi7tRgq2wShzR7XfHc2udqPV4XjnQHovl6+eeeeePnWySxZL6tDBnqz6agyiSU0xSXddFL9LAa4SpsvgVW29jfl2v4X6z7ApE2nvsOLQ2tFe63Rb+muEj8eqSSxu1tW3DJHJ19m7frgga2osnf3XYeWKbQPCRn5szaaL4l5tbWjqY2/SUcnLgQV93wM76OeTclWj3+XKhAuhDseefVrBRJYDVkmmw8S/R7d1QdN6hPgkYfWlJVt9axaDR9qxYkI4C2vLHsyxtftDjFWEt6lopciPBdXyD46nzdLLPUZfs8O+qcNl4ivy2NsCK2KxhxF/5+HQXGHpWcT6N4iKmnJpQOUFHwkkkpUuoMZJ+ORA/gjmi1lmORxyarOsgUCrr64IeX6WkOpr8tf8AvXmlbd14CACXEtXldfJ1eDNa6zVlFJyaYu4VwYcGYSj/AE0lLJVSR4XWUe9P0Fc3uIwdLkKK7o5iSmUY8zrHHXrV+HYkDztT6MTi8t9ELowtFyWQohfo7gN/N3D/AO42dn1eqYqTDmgncljvsCLTCzxSCxct7yXnYNb1Fde5Vsbq2PLmzcUk9mFudvk6wurt7M2Rz5pii1WkzLYytAt62zkNmtPWFX5fJT0+x7CPv6CDtu66uBATPMbKYMabq6TrzQIvvc4CXXM+icT6KpzTCEFxZluRyR2g7NlGbRPpHUjqx4lHfUG0XkBtKRx6E5NmNFqOebZeXA1RKx3tmS3q87X6mevNMS3o+1L3pELTSXh7jGcsTJJs1SWN0+tEUTCm4IwSprzsFbVeV7cZ2xrtNVU5VDQg9Lj051fZusSXODsa/P2Yemhn92tsaERGlHMfxvPF2Y58nPyMRXnuVdxpausfBOi8d9IXThnhYvWtr2L5JLDKTkkbm8DoV5cJrA+vLX2+NhpMwxJZOWh1vcZqh6+pr2svGx8YJqqSjrDS6aky/R9fV88Sw3PV15kpkuqcsYBlvra8mhnwvKgk6EbR0upY+SwGnlyEMPu7DdTrcFiYgeA+4rjeSxaHLPyddhQxSH6qxiFAWUpzpZ33EZXiGSdCIMwaictqvJUsxKvtrSsM+lym+g6UP93c0dITUxsbfVemXHidLMvtVLOi3k1UcEJm8vl8t7nJu+v7sSKXD5Luu5EePJpjrHJU5UY1/RCWtgXayhS+PdsHZaf6q2Ntue7SQzNReWbgNZ2A6NvK0Ko6Wres20J/X9p0la42OU4fryzzZ3LiSlxT6KdtjENCRZ+Lfm4i6oP93ZXKTP1U1bPOwmq7U0eR5rtBU1L6XTEYd5s2AyHj3qnYOanE651EksWBiC7Ji6yJyo9Oe+1Koy0/V4grz7tEuXk+pkWfv/HociobkKGi0VJ2Rxi43HgV/j2OZ2P19DP18udnbxjY08TL4mlHb6rdmthyc/u189aLc6Z1hJaX01VUWZWs1TuOZPnMRJ05RN+LS0lPHOOiU2hqewt7Z9daS7IGfa0o1UXS2A3WMvvvm1JSL9Wp5stX+2GXitsIt3ESTlKH3uZdVmGbRTIjVY/krXc03M6Fy15sXV7vdtx8eTPRtAlK7NBrtfUD67Nq7Kw9j62iK/8AH+Nvx3tdaubxvOpqje8DizQtYJZzHo155uf2WK2Xu0EY5gknCbny3k019oX3lX2CEdxzbAPMBpxPevO+ZMNnx4bQD9QXX1+qZ2FUXq8Xni0P3iRr7t7Nkatl6af+dsDtZmKGEoF8nqcyWD/xo0CL8K80NtMf6h5+uaY2pF18l3Hqg9CJGALav6qhgD92r5ZPpTOWvPHNVfxX+ghfzr+3+loNuBYZ096rv6560McSIjmjUZtUID9ZZN0R6PavNDVUdlJnSKAQHTJiaYrZdd3nbWao6FGrzN6DP6RPh7D1d0YHGVPkxJTcsTSCTDhZyDJkTZwuyn6tb79s29Fwth5kreTcq5+LNI6ByKvLq3ZTUNy13t87LX0NEBWlQZfQcXksi8Xnnz6iQdLNTie7soRSMvHaHhRaumt39o0mRy90Odc4JkvSOe6wpu/K6w95Zva2oRII3v6h66733eAvbCbzmobC4ub3NO01n17Ai+7bQbYDAkDS/ReXVXGV96NA4aazLv0hsYLGGvmqN01/FU+zstXSZkenjbp87lc3ycuK4cvq88e57ln6/F8exebYmKajXQoPNW31jN3cH2E4LH1sOU64PtTjSI+vO08b2R7dNub631NwMIYV0r1j2d2IPk6HrKtEIzjLILND5kwUirEmr4vdYDhRZmekJ8/TQ5y2z6XUT6wKIYCl8W3Bwo6c6iixbKGPNpnrIbPH6C1ojPHLW609iUTT6Zfre3BskEXT4XtclxUPDqZ7aGcNj5i4otrpCbna6HU9h0mA12CusPKF9qh7tB/8ov8A5QT/APkXfdiwWhVhJMQT07it32xF3NXdpZuxqYoFmd48X7KyMQL3+IxtwBmDGr9V4dnyceotFTzFwWnIh+W9vVEr9V5SU+kpaQTi87ImhT9JWROJjIR17X355xHX9N7nsfSNJlTRczkpoGhs7TK002gLyGj0PdnXNDq8aPkqtliVx0jXPmc+SYDOU2RM7W1HZFHjoMcAIbSUxssnpVL+bqyuT4d6NoOZmUW9a5FM0LH8s7ekqfMtGNTekk5dMZRQw/SwIoeIn0XkkunqQGSWVKqzNmjI2OsKt6SvRPbZ2btLfk0BcGikt4663rKMdIfx9h1idAseKWTW3G20sxFCBkpByz25+HHfiWHYNncg11TRCLTV0pk1gRANM02wNtTcHSfDa14NafF1wXVzry9zmWrOR1acrSEcnPTd5JuGGmQmCJUv3Z+q4rlkfLxy6HFxhVMreedRoRIYYOqar3GgyY6rp9PUsr4ZaJ5xs6OYbXty2txOg61oB2lldabQuhTtkq7p8ZldDbzXEvGQwVrs3W1VSEGNKBKGRVRQSx/boq1vxLzapoohDYCgi+ePot2BUJxFR/q4/PMjPuM6V5+793Z39ZYK5VcqqYkEXHOONHHUWuB+DxuMzTW9nDSWRdlUxNHtS81Osp501CTaWfZbO4uqgewp8wRW2V5TmUgdLkutKjOVOYOiJrw5TphWws/CKgnk69zXx3tU2IiHG38br3dUl9zQC5fDudNeV195RfV5e52ajiXirzR0VXX8VV5K8gmRjW6gmGB8nVueanw+OxM8NZVJkQ4gplLY5vP2OjPHuTVLinoJOrhMmd1rT4I4SKgIpoiDwyCv2cRMU1ZYF3I9GOhx/nAZ9E+NU7Dzr+Gg5PYSB0eYZMnPNmG/L19WnGtVS7seTnnzcWC2bbocryqyylmJxVnPfc8zNBGz4zQ7ijjgC0VbMLa2pD5QaEqCmLDEzTkaQGNIeJEKOVGdYHxcq4588QLIjbSMdVvX8qKcQT5XN12fVCaGo2FNoF4wqKXnlPojncZR8VfPmaInFj4VjPM85Rug1Z1/TvsHxxig5+i+RU0OfKGOrX1oBHrUuvMLHgmspMoc+f8AZPjXltNNBU8bJFXRsnt/wpq4wOvsSCLmcSHP0PzmhXtCJKrZ87XbRVDm+iezz61k8qqr6uKpVlLLrdjFCMFH9AqbL5VPn1mZu3Uq/rILyHNVKo+/AYWs8Y88DbaI6xsjg6Cye2vp7kx6rkLc3SuY4g+trMtlv4Tgb/JhF+SB6PTeppTLiM/zzzOYTYNKHs/UvFdKQdYsH0+3ErIYOJyqEz1B/A9HYTUOYKPpbm/ydwRsf9dHOOwQTVyBrV2lkAQxZlLLtpLykKlns5bGxKsM/kaSh/jfHbYiJHcsQKm/oL2StdT/AK58Vp2EvcNbuIXyVrglY0SGsub/AEm8BHjnapJebw1fWon8PiSLQ9VFyzDrC+JJaBUiSfS3VPVSLBYOmm4+ULZ6CsimmMkIEmy3XLW/yq2+ylgixvQ3Ox3i9g/vv8sHlkqyKGTEyY10kfZc3YZFwLQpxvI+AR5Tq5Gp/NYV1t1JagxEyspNQdsK61Bu5tEa54w96Y3N6A8W2vpDwHU3TlRS/wBLm2eCsakNk2fSBp35jjFOU5xikfdMr580oEbGj141H1FXVqf1PZrKOyrRypbGKb7CJyZr0ilUKc+r6wpen4Bv7VS4x82HJe69ZXS0kla4VoLan9N+nJEDOgxYPVYYPhP7JetI+uq3JzBWfVcvSMnSK9LM6Tj6MF6SE68qqJrf+CqKhIJfW8nVr+v3YhcRXYkvBx9Wh9YwC+P+N4ROePHj/keP+T58+fUsv5CP8/8AF8yTSXS2X3mgSiLWyU34iXEWoEsPP93qPu5N1PqP25D3n/s0shY4YG3ke0AtfV/eriLv7ra1rXuVXPQBwH5LjEImBKpQ7eK6Rf6VUs8zbSsCyzKNAXA2/Vx+IWFYZKwWoH1VPsZK2a3B3opnn+pVOu1igh4VZE6+v0G0PZo2BPsQHTTIXHMszJyCaZ8tpJpBdM138k0x+ngpyaqDdVmjWOeBsfE5d5g7NRNVvi0oQ7Op2xAH4tT2RDN/RPNPbCAueXq4g5q9gA8W9R1aLMWD+1UabPfoIoqnOTKd2UNvG3w1kyyBN/hXlncEIVdUt0qyDT54EJwv4b4tXpAX3emn0TWCGq2cU+kqbuv1FtWVNrnNYn8x572xMsNbLzOUt1oVrPA8O4dWCMXwqRyqMiVFRq+xPsJSEDVOhnFiOhMik+fzotKFSkZMjPvdm2tgbGnJZ3WDyqYgR88tzG6R9pIBAPc0ZtZNSin/ALthNB2C1f4zTnz2l2WVCGMLYEgCOb5qA9eVCJHXKG2rABdmaIDdXINFVNLG/wAZY0VXftkon5p/n5r7Qq5Zq/sWM37LGSOJmH3TipB9RypHbO5tpORNYpg3X6STKrJQcbX5CyEsq7K7Fjv4SSGvt7EQdopIkT9goToamKlLILlUhx7LCsaokZGeeNXl1Lw7M2IgEqUUQ2qmMugjPkXmkvGCzAsbLBmq9EGfKVKGzQNgrLLbRjT/AJhz7CR/C48NDPO7FRYeJshCqY6xr4YcJqfPzqppCr+EIM5nrWuK5W10uimvb7S09iyRyPkpoGXBvMlyjIkEtQGx1cOgEVLEPJZps2esGr8S80V3WgUL2umzItTUWB2jm3F02ivdjkM/taS0DPrWFDTnOdGlfFkueIC5Z5z3SFlK+20lJrCBsHpU+e9Mhj0tpHZDPLEDHiFrgbeSUaPOWFGJSRzyPqK7YXNK++Px7bVldfX8z6+5nnjijo8zpLwIkoXH3PxTSDPdyXNgmC3DCX6+oKicRFBkIptjkCGh6/X0lF2qRfF2UBdJVhWw9ithaa8AFJYD9Jlc3mnZqpvEMAN+WecZLqypx5hYRwZq0SUwF0l6ZTftb23tdQ2emzd5uAntgubfHybQKg5WWH7xCft1FNq+wRZzhstZSlxv+HWPij1d5U3x5qFJXtpnkylMNzfZAxJ5uvz74s/aa7JRPbNhSjJEqR35oAeuhBQaYSYCxyQsdpW0Vt1laefkvZk5YkmUo4wTaJtsY+SjXR0OJ1dxQWmYHqM9kdxsAKlOW9r4xFxoGQrFHCkU2bi32lqM4IRBAWP5xFj8DlW2vrjN5Ncvr6mKaOwNsCuTyTS01FERX3qpcZ8cCHbWfWJuHqsUnKy3NBy1mkcESM9JApQ27r5WVrQ7eJ/xvcK6+scs+XlWoUgM14r1rWC6DdUGc7CF3Nn2Xod7Z3sc1Vp3Gn1T1ANqXojU/Hz82hQ+9YlMfbkZY+qJT4NPagDV0C2LCd+N9xxDyXPVTyG1ABIK1myNu4xgAIC3YRlRWE31djZadIHRtkbHxWmw76rAmKaxMHaefivJYWayeqaRY+kEI4c0wmbPGdjg48++pxQLsFXtISJrwT7C5o6XcFVzpzk4+MG01lIx40ToJm+gx9UZ77qe8mrryekKxQiSySI5srOVVsjRI94D+C2pkTwxR5zq4GXRZrPxUb2th4vER66PeW+noYiYI3dZWCfHaSctYI+CEwJX8nNOsomXR+i0mBj7ErKu1Nt3DJGx6OWLLUQIux0o00MjFz7tDBm7c/MMjLIAsry3AJ6+K9xU9CpkiZyyrazsUbT29POhG5L7fk29jWY3Vk7uexBGqelx+kndPG9XuLGIvq2lE1QlLPENFFZ6G57ZvtPX1OcorPA2EdNX1RjV+FVmcqhSNWIX0pViVdzyp5NWaPHt09hPA0JvqeKyvfFR9fqXsOwM3mx8zWPMydGuwklsaK9YVd1Y1LYxjPwJfu25gTLG2r96LdWOOBohgdhPbmrxkIUM9KYJh+vqmm8fReGCXfXNDISHo4gNj/7MstbDXUmOBqC8TYY+qQ7LVbEgy53wkPbwx2f5JH9qkG8W0xsgDtCzQ2pceDsYGwwxFQY6my/oP7I0F1lcLeX0/FArbSss72aaOG2yBB8IFl9qmlp5vdvHPWw5JyasjmB3kNzYzWuYsunL3C5q0K5ns+OP79/SV11tzBSJsa3rTNddjA7yrg09f2L+xGbqoQOdczfDcOk4Y2gZKR+RTkpLdzHWI8k+bPtGQ5EW1rKDKUuf8EglZHZ9c57I2lhJKG161zjMnTaqyzx4Gbye1vwp644HhEsbvbfqVDPcJpk0M2Tq6KHQ6uwW8p9da30eK0AHVWf+A8nLZ+8rh6IztnN7v8yc8+tvM6qjECbOKUBvXT/hv3SK7lYsbRB6/jqy8cl6M1ocsYNrLdXtR19XJ7NHWJP2SNAAK0gYGAJmjyYm+H7IvezfXSjJX07bmSsn9tny2I0FZ5IHApyD4Y54lSaifpEsbHgK/BsF+459/mAuq9BtDjIbpNPntZfYO5ztPGja5vXq/Do1Vz1rHCkWLM/BboU4+tCsqO61tUcJbRZmuztCnt8dlgV3HNHDzxS8vCD3SZWDPko2O0UHhrMs72m8vovtEVq89cEqSSzyluNzuj11pltaLP8ABLFvNc3tsPaO0Lo3cmfJMG3JbtrbLDyxV6YJnw6TiOLdSyCuPtv2ph09LaC60uuuSnGSaN3X83v7OL8vdXi04htnZ2gVNXRnm5Crlyl88dYW5NPbZRFcr9PXmWePtEfyXk08srpsNpjzKhYJADvcrri8spYowWXlhSFTXxpkrsi606+xW+ZJuQ69uBi+HRIrn8rlRxkVZNVk21hIRJSREGQHF2YPTVsjvZ6nLo7M4kOuooYG2MJE4tvESPlv1+k7Int2cEZSQe295JJsqfM32a3egqLBxBL5CJLI/HSWlMeF1Voqkyss/P1mldcabF0WDTAVuI3dSHalHTyumz8Wd237SFZGVDsJB8NnCxIX2A8RB1eI2rngdLTiQUsN8/M1t0aYfjt+i+eW9h+BqLY7lbU09lmQ05eTz5x8gU2WLs4aIURHujCjb7dc0qaV7YLGmz3Y8ct9hmSC5q2xeXwRMdrTYPE6C3682z9Y/U/6SE3W7AOwhbKNNEJY67NStkmr1Mi0Dq3ggsN23YjtoxPhelOicvjKV6QPUEahSA42cGoe0t0JwkZqUeyi7Df2LcaAWurL+3rBa6vqKsMsp2jub6uA1Q/Vcyt29PWIOPWw+PbrRTXNfdxLysKPqcx2eTQXEuYyVaSWJFkb3tI2vbW0fYDSzR6+/wAhW1vEdFHZAAWt9a32euYYOH7j88BtNAZHALWiNT4V41llFoayinptCfJVFGmgFm1dGLaQFBXoVYWWNCsegTSN0Ml5OlNdVoK8LNvbsV1sIe61Pp9G7mrqh+U8OCi90sdbEXFpnPSOUUq6zVLsK6aORjmNZzRY0qqPzjqi4yNJY9g4TKxBK3icV9nVmkJJa5iTGXWOIraangjrYYsf1/WJ8SprIy2Obch10WlidzOhV1XWsQA/KPWDJOqpqsaqcmcqrABrIxxqkWRxx8yuBJgoYwLuugrcwfZT2QBs2bqvcvL8csbRBwTIg06E6sXEFCqxGc9bEmh/GiAWs/wGurMhbiERyIqqnCnlPGsQibPN22Tpq8njHBkZtvxmC00pUNvXVVvRzXYtJdVFzU3MBi8LCmDNqyIDBRIjqVkAgjcREPaX4mknqraZUQOvt4h2R9fH/ftFpRPg11PVnmwEZ99kDYsfpDMhbwRs4xyyMexycOp010RdhZ2gFVphi4TPVOYbYX2gyFZnLaQeYTVVYcaLkxIIfjXmphfIrdNQ1pjI1c0WqqZrELQRmzjJawTryRZpKV9bfvtSLZRlbTwuu7HMkMckEplnkA5ZUL67p/gXlsIvPs21JYgLy+GwF6FYRnNMUxTo1sb/AFvYdURlNUaDogHSha+Gw/POt7vU0tZTCa2k6v0szHumEpxc+D8pYle7ipo8jT2mgorA6PT1jYKtptJKbX0pliSWejmHSlDWMeTMgVTtEflsy2y0cGXkwIOINtD53AjQfDoaOpMf9NFVVRruWUNDu6/QwWsdyduJe3NBoFblgHLmdncVVmBNS/u5t2yO0zWe1Q6V5JdA8rmnipK1PmXmtpa82N0brzLD3DimrYxwaL7gFqccSGSXS6e3Qatr8vhQD5SOXdSWCbpRSTuS19QSPUTyxx4GmT4vGvy1ZYO+mlxJ1PGROyG9ZrxLweiFeZmV6/VOLyn1xwJte+ZRGOjfrMvi9OkeY0enjydjdB1Vf86poQGOjka4wGwq5qdDg5gABmgWFVaaCwVvmRk99j5ux7Sv2gNpfw059zY+iMUAAo6IWhpmM+Pxd5WAri8t6LR5EqF/PEYectqbKQgy19zTLzwqQXFRa6nJUNhKNJZwRabIZm0WGJ1DTMHRP4CIJh+Rzsle0qjsKd6R3jbFHOZnzLIP7aRy1jeX9cXYI0kj0qqRgxSOKfR5weD5thQ1l0jlSSO3xFrlQRyqW3p+vt2Nbsntry/rGExDvz+QsiStbmqQsqrxF9bchq3vyTa8P+JeWVbPGkjHxyrxUOqLDJycHIjeyvsq9r2cJIVMddbPOMFgrFSGhiCe29blssxvzqmxwldbJYjn8lg/DNtjCvTj9C6PRUtadEP5V1hBib4kQ4GaNlUzjpc5gGs/lNBs6wY1rkIZL9CAjMURU1miUttn9yWynnjiz+htKWIOIfw7gddW5+OP+FU1eDLkTgRXNcHAGysd17cYHPa54+yoKa5tBXTgVbKcCf7UxExNHUZ/LIn872W2IHt2EsmZM13FVeG082FTDj45ovPtk1oVxNQvEHBhEWUIT+Q+ututGWbCrF5FBi6tELisKiuPVxYwTIhKiv8AApF4TARQdXxRf1eLSnNxf57ZIy4z2kfc9ayLPIQvGoicligcJsV4mYEC/ns6U/qw+rgslT1JK+R8LGQERSel5Jd5QOjpga/++SKywZOUmOHt/TxEZE1vhOK51v8Aii9fiBeP61bbZEnqUnreXLTBpyWNsMGMvaYXqmrxlhk6ul/4foPzcnWz8A7GNyaY5mJCx6ZkWrRP+D48ePHpOAXO09D/AMhfqvF4n/Hkmk0n+i/b/nflIX+yS9HsEX/hSSzaE/Tst1CPHkNdcjaCPYRb2u1CO/tXnk28W5/WxZyKD8lTvzo79DvzvzHzLCPM2y9X9thcyW5PHFq37RUg2jR45JlVJWwEziCSA9hV9t5/pc6y1dbYCxW8TX/W9HDda0kTPH0IKdx8kcoelR39Hk60NuRgXkx17qYitTNCVko7ayelRrNeWA56wmDyV1fu6PTef5jrqyijgFq+eeeKGbi88cuRh38XjxyCWPVL4oIynvP5nOO0bp2QxjRBfaLYDcfaskCuByPoaG8SoK/z0lHLQGUJwtF2OMT/ABzzz3ggCcb9T60ATiRnuFITn5jERHLGR6Cq9eKlvVBimV1FrPP8K8IsLi8KvYgaqo5FE7hZBINOKDKk2vy3XarXSAuLsDzNLTbDsJo1aIZX6R2XrrTN6Xz/AAWlq1jW+C5QC5JRiyYhJmjzNcUyNBmRIM+C0pgwF4jtM9efccjksK2i0vn+C2LtzFqA62EcgkYfjBjGZmxcftHVWljnqqcq8R4xKRHYrQ5+vjz4EzL+DPHWLTnV/YAGxR3y2lsOMn08pxEsK6GOUnghz5a+sjWytVJIOFIWOQQ6tDAkgdH6FSZ4x9kDldQi/MrpV/z0ASTOghgjjiGc/bGV03n1W2Foav1OghkVWTRWmwts2ALZnW49VG1eHiyWNRaZSxT5CiR0RvpliZQADws/HhNlka7x48JxUetLasmYW2dHShTQzSuXkrWgoloDjLn5F5+xOlnuUf8AiwjcghYyaWaexCqcvZ2TLkcyWQJ/GyfkKvpDE0t7nsR/hCXEE1bio5QAwa+JPjdy7ma3iJ58elrvyFC8cXnngNjzzGNxOI9krJpGEjRmzEWJ9dZvecjX0Nz8doRWS2Z8AsbfUnIoSzJLuWzgsFVeGhmCsuylZzWbBl1Dt6zRtqVog8sGW12kqDm0AcyGw08GKOT47U8MP6XItXVq1vLUZicLWonc+ecA+jAVXT+fLJ/KKySKaSOUEgUGnfDJlCRHcQyCb4ioq1x9e9wtnBdRSQu0AxB5FvQHInlZFkcOaSebWVQwTdHms19E5DIKTLGUNK+KKwk0VoFNXHfCvLKD6N56Y3LH9HcTiuLJ/LjKrq/1k2biRZz1z9cjvKLaQ1Q0zH8NmGgfz1TiyswNm34V4ZZuvYTAZLGoYDVhI9XvYTWD1nCjW2jZijrg7WyBwNzSIPP9ZJU1NPqlHPeaTX1vYDwedZG/DZnVkM8c41ZWpxrSTJWN55490hquV7C1PrQfWOZEb95HebHWDkQziXF/Qq1yub6PBjzHVxvwXEtsQlHkVEh9CcOtKstVe57/AFWBcLC9snYsW+MGMZYbKpsrUfP2qfXRAzQU+UYVIMGLzRQCceXDJ715fSKvnxxnEhIm5CT6hbRyHPea6VXMRI0evPV94A1eBUica6KvVDIVR/PPmSA2Hr0r3uWyv8vw2PPoM5eHm2lhnQVWZ/F4fYaywr6septKaqtqV2lCwMop1zVV0MTuEEVw+hN8RY0sWG4euklenXFl75ZKFDwH8qOIkbHNhrYSxBXcCpn8OmYHYHhbzQbg2VMvDRQa9ex852WDOi+UsRnHVk8Tke2yrURzimY5U9+nMvG145/D5IkXn7OlzqqTa/6dj3qBzS0orOLy2pqMu1ghfW246NkjlnnghTjeCQHRSNNoMo7sQOhM65n9+wKFh54eeiQo9FcOA7i8XkykOdzf8SJqjLGbJK5p1PeD0nJ7PzW1NbYpwlp75y04vLOmbJkrNPfuUIisDokAj+nh7iDrC4MoMuYqlmxzHiMcVdwg0dVeFw2rof2xl9W6CCDQzxz56xBW0a/j0lbpKvNVoLae/wDdeuRTa9jYxk5AsnHcXi8cq8kQiunZt4s51fUdfxwujssja9VTvhq0gq8yTcotRVx8M47knHv4vLgmtMT366KBRoILIJPPnhw5NZUUB7AmSWGor6sBHZTrumznjdUz4DqaqrD6oyXJ1HCIXUIg9etryT6HQuVptv2CDbxP9oqpywtGc8+XmI93LeYBy8crznlHTWkbOePr47cDydenPBtVGyLkPNI+PknLKhW5NI9TeCye4yLMxaM6LPZUjz5V0xcRvqs43t8tVvKOTKCfRzbHAC9ewwbW3zVOFKqSFDltUGezLlPW1ggOt4pzw6GHGEexy1dOxnpTjo0bFxyP47jl5Yz/AGpBXuSBqe3shBp2XMZvqSONZ1k5NZvV3CBblsTHczU3unWuu8rWXDaYDirezGgVN+x8LzBtI8VllBnqJjfdp3Wsw0xt0l3VDyy1BMhCcVLM0MOatAbiocJ7ZlynF54+kksD14RKqu5K56LzRa6imymVT2rzsKpCM4E1iciRjS3OrlW3LrbK6kuJo48M/wBxXNZVZvliPnDPPJWEDW+ZpruM6VuvhEd1yN499rRafCAkNqx60i0Hnaz0LyTgOIv4kXxgm4pnsK5kuTkovCasQOJr68utXjuGcVxT4B68L3LxU7IxeF0oICLS3AiLwpz+OV30uJTow1wPvIQYTFPnloBOQyXcA5L+aSojOB10rmCdYy+9VfeFmD5ZgpoH6/OV1kQVoaW4d9LWDwdDiquGL2FJkX6oVrT46/krgEcQ0tjDyhLCwfNHb0Tfh7tN6drFZwCprWTvlleqvVeWo+mLhZhme56U/K51WHCT5sIa6wJqFfIA+sdoP93MzMDIqe63Ihuro4IOrrrhwFp+JubsGsrq3nmwle+wb1LH7ZW5t3sVUWUSKCVjkXjq8sSwr8lovg7fKoaZ56LCwaMud6ucRX8klLlvpWszcPuXiNEZZTs01FeLwsD96+8lubmoktKyOwzeavMwf6vUi+eSS6PQfaracYBVIksuPMrmO558ySWdmj7gjrET2ryBosvC5q82ojTic/ft5PH+OiKkw9pnqrZwy+xVs9NX1K8rqmniAGKIlkgFtLWts+a8SN+krnQwx++/borymIOp1dDN5LNSeWFefZVpwhVMfol7BiuB9bPqSuwSGjjQDNVT7C1RkY0747obQ+VW8szbcmNpFOz3amGGY2w5FEnC7hF8QPljIYn1XksKUYe0b2GnYb9pNEDXyT8iYKLNNLMZcFEDzrwiWaZrtUzPB/Bogb8Olmv2X7K6Myzkvqis9Wss68nj0sIjLEUKfOQ1o1JNysa6seDBbJ9F545ZVU+WrIbC3lX8f8PKNxMvu0VZmjouNXy7kkHlHMkhmc2YdU9VpHWVsjqin8fS6JAOs66rtR3WkIYDlvakJnh7rSwV9FV6V3WgXwaXhaURd1GSHG4548Mbvv2B1YNx/EjCySNv5a+H02jBGoiRk14wnH8U3y1j2cvRWpo0bzEjYD3ryygg4ntROWFnXkvaWGHlfTx3ETkvE+iI2McewDJJH1SumI9R1jIYxnHv/PzVV8GgEIy9qgEyBlTO1LtdQ3U0VdkORcF1SBfr3111VZ8VG3wwbGDMinbJx0SvcszmPc5eaEuN1sXZTB1mEZ79hX58v6x3csoxvqIDZyGTjx5A3QmHePHhzIg9OMFAasckqBgI4nKq25s4W8al7e5SrT4V5vJqwGygFMkjNrbCqrixSHTfsGvtc3RIkjiEfbE544okMS7GA0A9m2Ukr0MjIiinkuzr+aSOMZKfOCZYIP3vS6FY/wClhS8hCnanPMc8tykySKltWWkdZLZxxyuKkJdOVPV2vqlYJRpwwi6r6/iQavTVo/X1F8VxW5hR5n8YsR81fqaytsYrEvQUSItjaR6WIn79oIGKvHvfx+fRZJyu0o7lSHEzwtY1SNZXa18mEzqfC7nYAEDHOlMGLVfo50FgvNPWA571JL99z7OtGgjis7AaeR1dZQCB3XHyE2sjHQW2+lsqWozdK1PiVNjWvaxo5TuGhLYOEiHaOHYo84X/AD0EfLTX57ROcvHL6iytNd/pKGWKykJUD8XUQw1RNbhc+1Pi2AYhZhP3Bpmv55niBq783zySUM+WWstvJZ+jKrSFXSzYqVX8JneS36b68iqKymm5ls98lgCDxeEDTU8GLlxATXP0W1qdxG4Ow8o4lsWKqqdeel4V1bPMRsovI21vHSFFQsXn2+sYPjc2WvN0Gl1I82Q1Mb1+iq4r6KsAruR88li1mcs5qLRTMoqtzPNucIqcv7qrCDryCeuM0ifIvNhQVxz4xzPVwkUyunotJXZaK2GCLavrV3mW1W9P01lZDRZ/PWdx+m/Mbol2rI+TS0hGTC+XsnC1dc2tA4EdDZpIvJK50iHNdzy3nn1LK5/nyUSJfWliqtc8os4GvVcdnU/g1dGEXJHCSyVOFQwB6Kk1uhzWy0t4H2QvYruxItmTvCdmtfA4WMzbynpOQBFJ9yN081Xlq0GNvzbvHDHo56AbOOdTnGyTKkBkN5FOvJJS7p5DTgDUeqmHvaystrWwLqwnyZ3NjjfwKmhzQR/j1R2Mc5sZDqujsMyAClZPTLUpTsqB4CKwYaMAWvmGfWnfR7JyaQHX6zO1Hzrzb4kYxHz1kodd2JWaKd+n3LDKrsSIj9jJMv08skDOKPelmXFVRD14BhucwsUX8SpoMfX2i8kjVCJgoGu5agqsUMtAuZjoyLGNsILOPlINms3uSMEfKde2WFHBpqtP4F5sev4TV42YgWbOpQSV/wCoIoAUq+xBI1q3i2HaX/sobscjsU+4hgGr4a9S8n1v4/k8X+UL5HO5Jo5WNKZdpeTW9lc/vn2aEsill/ayWD5Xx/bILpuuauo9Pjx4/i0mQt8sKZ5VHjuYkrOeJw20PqJDUBgENJCFHXiiTE1WEoM3/OqK2yw9gLCTLCRAruPbFKPS/qn3zRfqvJjq3DZ3Hont8+rz/A5LzriwxTJFpDAEb9E45FRUVEZDUR1sElfgM/i0Rf61bZ4orGFHMllC8OaO4gJGKniY8F1R1rTY5Pf5WZZvvtd/D4sKgnrU3G2VHLawn+vz6vvsLFiEw9f1VX1Pj+/wrbDISdWz9cyYN+F/wI/W8XV8XU9diWs8ePe/n21Z6U/l8eJYC8VN1SvTsPUI+AGr/HhP+T48fVyskWdJfvOm9STfe+6svocxGNd/9NIRkfFYjPDG+hvF49Eb6Wscn/01URFb6fHjxzx44n/5/wD/2gAIAQIRAQIA/wDYif8AyZlFkS5fc+4y3WsgXbn8pyLkW2OU3ux9W5254/Wckkj2g2Y94WK9xdtLatj8yx+SVScYCl+LNlTe349nWHXWMhdbX00nrFpNbK8OXbiwqz+PMy9PwIVYsdZwLcwlXw8doL3fhJWVE3XsLJcdfw1BUbzNXQRb9yPk32KYJrneq8tFNe3cMfnN3ccAvWXXLSpTVPByth51gPj6zh5cF11Qp9mmAY45fJZ2794L6sZbzlIzBCBejUbDFtXhKroHIGZg+zcTYArZNYvK7/WcnB8SqCMsBkFBZBNX9dSsFg+hyeXCo1zd9cY5ZY+b5gu9gWWbA6QWRkkbSJ8FOvbgYU5q4MmP+YSgwdZARgPFWu/BnwuHJauqBZGVAssXW44ZWAYIcuKrWiuWq2vyI8WSr5GDFm3XQmvaQUpqDriokusXKIAq7OzIDzfdBfywHAdDmerlx5tVyEsoR5uZVyMUyw2tdY6xNGvx4MIxTInGTQAsT52UIwl1lXbHI4I+vXPlZn8hY17RT4uZRZfaOWjlizMafq3BH+esfFdyvNsYkp+yilTkzEvbu42EjOlf0eNWZGMMZitjCrIg/BGIgEzzGDhAvy/G5C6yMLOgszjzywrDOitiZ1x8zB4ucNcV4lIrZxxhx4tNquxC2RHllm88bVa1sGo24K2DqVechXMZ/O7PdlUcUPps1JswWWl9ooANxtW1cbrlZy2vW1vWZ9DRaqNXVN5AkGMYGDjioXm3S2ttohKyq1E+thWJdABFmv8Aa7Gu2KQgjKcjFO5wI9dlU4EwWT8MjttsgiqB59ZY1a+LD22NRT69mCkVVcuLiMtoqjxktJqw9pizTgRQMC/7gNEfiAoZ3ZlNyle8xdoRNS4Jc5x2jOe3c2xK1/gxT9c5gkYip6RYm5Rt2bXYEKV+VqixCLw3Cuzei+NuHS43RikR+bEnqj1vR1uC6/AuoqpEfoa26w6JKzjgZAF1AX+olJyPwfX+EV/4pD6/1frfH/hOye2/p/0o269kJf4GWzuqKWkXzBfVZ/SZdslUi1YprXFbY8saG1p07ZFj9LFltgSZarYDAYTQZXpLaNgT/BrWxU1kxk4ZGI2KtwX29Lb0tbY/latstG95NxQsLoNekljxStiGjPs52tX9fOSrEMxI8KxNstg+69FC7+FqwwugPfSBexuiWsXJSFuvB5ThL/Wcv261WzYnYU7I2vi+k1EKIeGWIavL9DX2faStWDZVirTKWoXiaxGmxcTXtMdVqMcJV2+myfq9ZYLuwYkFV3tejaOv0T2toVfEStWRr9ti5mNVRjaOIQYevc8YMKFvqJdzKMqN9Ni7HqkZxKfku3/6H2Bt626/AGIINMvfa6sz12DGyyULuDYsGsAimVL60K70oruOpE9lF4cdYVuMxrJ0Jpu200xqHStarXA4QVK0Wfn3D6DPQpsSWV1vUqXZrW9RXCJaSzuqizNWy9c5RLxtS1CJe57MqbA7nwej8S4yZYoObq79OjPo+WTErDZNTBTRMV8cORsSkawdl13N41s+Nvmhetl1xZ11mEj0+ANfYsYA17m3uU/Wxk5yBXF/H8iREPO5lbUS8yhFY413najSs/HZzlYL11vWAXhjadpmzPIxS2pMKo+joODBqktJHyrKrbyZOxacC2gWU0mbC1w+La5zUtt0XVfkRf8Av/yWVGVPnGYwlLVVplm1s0o9Jy2LyaKGGUpasRDZntk3zrpry2cqE0SymPiYtp/5OywGyeBAEvZztHPCYnmvYNda9evqJS/XZKMFipf2DD4frfWYtdRcGODkCBSoR87arS2Gr/6a0qYFkHyhFgGIGfkSlONG5lNPtYUwDWKPr/KqxNhtkLI2iRWOc+oNeCqr9CG/TWdT/o72pZp511cEFZrurzUGoiGg3JxY++yqDMwwBLgFyztVxzW1sjIwEgPq5Nynzrd/r9m5VhNSyomKsLLCmxsAetX47CgJ8Egw4wQPHAOQArWuPwcm3reP+Zs27D96DamxW/Z33PNiawL/ACmLurIBLOnX44Whhp+Na+v4zFjVlRtbHlbSYm7OClVWI/V1ZmpKpkEMxgilUB+xpKh/MHXAiF/45VNSKkV4X/g7du0l25j/AAEbb5bBV74CrExd8G/qTO+czHEeIntB/o+6KRWSQATwsOt9Fbls/Hki8DMxGFPHbgS5AvxYxzq9WB2zKxIp9c4nLeLs/Gs/cpwy5mRIoAcWc50LIwcgvecZg+Ii8nXpq7AiyMnGqCnRsc+5zOcmXr1zkhAcHAn1nJyZiXlLK2Tn8nEV3Vc7TihjCZ6lPnnrxMRkQWdcjDngZAfWw6nd4EOZnJP58FqUTgC0XbMcuKQz0MuxQOc8+O02IdBlkYsS8DEekzdbr6/GGxbedgXy62x8ta1JZOIpKI4R6Tk5GcsgR8NwKv0yqgJRi8KOOPQ8+ussLPojD3/KjSqoPqIrrZOAPORgpKPBYENkPHHjr6ThFE5wuGek5csaocNgsYOzPVqjx1nFjZ2NY85KueF5KexTEzPM4bBH0E+BwsjFw70LIyh5IRZtU631MfjDFpkWWGx5PxycQXUAIY9D8DORgYMlPmchXzAU51Rr7K63oR+Bkb3YYOPJxkZOCuYApjmGdu5EWDkyRRgwXrYG+GmaZhJoxaO8N+5x45wcPFFPmcEsgZzmImeSWU9y8c5Aj73VTlBn3Fles9juFC8dnXiM4jAg4Thejo8iQz4CSMUGTMXIxkSbI9WgbCUyrrHs3A4ewhnJAWciXIgOWMGPQ4zt4568QMwGTk5xGERMUPtuKtWyVmrZbCWsrDliOYyzdqs6QRmM+zROzWfkeJzmY68EnjlrAER9mruUxOCWVAF2IsQ47LLqkfYG0WBBj73aYSu8DiaL+3aPHP2DeAgH4Pr26MHUtWblV1uv2EVLIggIrjhT+Fii1MF2iQsjbm19j5xFdcR/Iwt6V1ft3p2P58GdgCQlNX9DWzXnQlEDxECkKYK/Y1u1B6ItR8I6teoTroj/AA9fj6//AHv/2gAIAQMSAQIA/wC4uD/V8/Dy8vL9zrWBSV82+YvmMIaSIwsZ/wCUckIkVMtxD0VEdP2rD9Ux5fmiocPrHMhBKybKs5hl2rbBY/OlMJSoe0C86EuTwXWIG1Jp+HxV1UwJrWqQuxxbVbNDds++cdP47KHn+EU513sFuw7+0IU2rwqFbGL79eTW4vunf5EqauZVIjnzwUDyBmcrorcNntt6uFaPsNf0iDdmGCDAWBrMu6KaYuCTzMd/I9xtWJ+gFEss5avS5TmmqorNyMw4FivFeWvl5zrW1b6prtscFWAKKRyghZ8ZRsz5POgi+D2WY5mlfT8fNBnPlaCDUUOS97MVHK0pq0hO1MmjCjVT5MfWvhbwoUZwAFW61VpGcTAMfWp2/Y0rTSukDxTCMqdHKOBRdPfiObbOGiziRUrgRRG1bOKBvSyfEdNWnpvNeWsSQUzcgQSVsNjOsIk+/LcQ8zkySnhea6CjD3DiLfbYy1tDsFuRxPY9y9Pm+by/xMtruI/HPqZlx9kq6lyENklrV/fJ3UHcFmtwBaH5ehxTTLvti8MkRBToybhkmc4lo+mc8xCXDBzGfJcHai+OXzYFyZEIylYxr9r1reKbpWNIV48wRpmQt2bx6zzRqqJrVTpUjRGZ+nn7sRUARV7MQmrlDjwzOdoVRFaM7q6GXrZipewm8bcWu8eNShCTxdbs3hHMW5xGOplMsP1pY4Y+gA1g9UOCrqMh5u38UiadYmspWGLuNRcOUyk8iFlDNmNFaxPI5m83reGZVrgS+1YSnCcuO4fbgQky89QF81N3Ray0RdhfmfCLZl3R8y93/LXWiXvAjlL6x3LbhiLW9JiZlXjcng1Ug0ziGTXeCSia3tEpDMxfk7AV0g/GPCQdVrxnnWnX8Iw7DXLaLOXLnkYEsJ4vpqO4q09KCOgXxofG1RmbS+ZZkZAjMe/F6vKCzKZeUWSVOO20/H1QYDTRz7UtwJfizSl1INaKir5cIqOtKarc/XrWqel+fIANRcjS3PjGb9JhlHbjupe7zn1nnWtdxbQQkdeFbnitptHFSNW8l1qZSufqv/Yd8jb0DGMatLM50JBqRi4xIRz2NPK09L7xzF3bxoZZQyL0xSi0j8qgVVUR89jVJf7gZyex5yhsppNk2Qx/OPj7mZmYaqOhrP6k/khtKvtY18SuJGQTFnH/AJYcRRJkmj2Dz/JR5Puwey0ollDrarVT9ie7Jaf0GZXsa27Rutue57p9Nztjeh+th1GM9Nj+8TWYf/0fKhaaX9edcj82/wBAatMb+V/L/iFybR/oUXqtflQQP2ozWc/9QZRX415YbQcyAsp9qT3zYTSX6AWGGyo823GeGGGlwM6x8u+KdX8AhDd7cqTleYaDgAdE7V1f4+d2XJ7RqYH5LLLZYwrVFcPAks7TReOAdtw6uioUf2AHdYA/XnkNulusTTKQV/5ElrMHjqZue7u4v4LLr0YbkQHrRm5UB1q/EofK0JjO5vt6+T9lF29FfPjIazfg/IzN/F7I52LTetVbrxMljOydXezfuovYD8ONJLhZbE6RdBtZIjKIVmNlPG0Ba6f0zg6mplgtn5iRcVyG0VwMYw0n6YGOzoQ/m7Pb6E++eLNF8vSvkBzbNZa2+hi6FE+diyCcIPPBawDbedHjPEV/ZznFrCHp6hQ5PXP8ZIgRTcyTjZt61bdwY6T2HVV+qA62BBr4/Ov5ue0zS7VWXCVIwpsXMMG0sJgboPBcTtiBDCm233QruJhavZjbwN9HtG2xnFOKg26WB01LtQPpELV0ONWAS1ccvYsz3DaZ+xDzrOnxnx5ANHMzjjv20HhiRqtDURz0sNnHWVNp8jxTISK1opojX3uvaHZafQMCh6pS467IctXYq7sXtUim5gUNd59ZcraKIb91H4YvNxQ4eq5KaZM3tap2p+gmLaXXMXMrrdTfzOrIb9o+ivK1cGUKBFnBolM4349TrpotRj8Udd1Va90nwybQgTnUGk1Gmt3siesYPguq9nhw89NFPd1vfWLvm+gZrPrz9FtULtM0b2/iciq6GYB55Wy49XQwlhU7Yx4IkVjsNM/Xyu8PaGjlCzrbAmQE1sM1fR1rsu73JrVNbrSHYyfVImPVI+mqCUn0HrPvdWB1djrxH39EWeCz+fjNmLum8PPLd/5CUXOjDAi2vQuTGVli7IvetalyxGczc7Je40b655stx+rjLOes7XXruA7Etos9jZZVHFVBhswldshPHCady9vpGG1uhKvK41Gc7Ptk6b+AvimnToubGjcemfqqYPMrWZb/AKB84uGHISxT9ebxBzpBV4DXJq+z2VqPpS+a/arHR+u9wtt/229HSOq4m8j3AnbnziKClbtG++S6UYHlTMI+u7VFZDpQnlJtVDbh7sPNM/Vc+c1QmngbmQq4AjyRRrnTMCa0V68/nsv/AIRzM0CLjKlvq8KOvCHSXyzENdg77Drbf3Tczdk4e3LZKCnUWlNDBaW69iohVW0dxpr8onP2bL3BHAaY9CrUaL94fs0V5pn8Ysh2cGolgVWsKVnsWoSuv9gmf1UfB2OjEowt7MxezD5XCG/SIBoi7PXuNu3m1yu+v/SG1XYnbtp3P+3nWPYmnpgXp9mwZjz/AFpQOUvgkxFw+3bGY6s0h+larpnDblRUtUs1jlhWAfItX8vJXMoL3KG+W4nYglLvh1mcVtH8VU618pi01YtNTwaOVv5UIdVlX8EUhKGaIVcvyW9Mz9Ky6odQ8BYl/HIP7Jq24OhJqb0xy9vYMp6BOCLFqcsoyv8AaBJxeSnsXME/drPGOZjnsDdHue1SdEP1rX0hpeYiK1oMdaUpMegwBkqethTqZ31ryZ9Bw0qn111SsBf9rQfV3PffGAnzolxafqkPluX5FeKA+GTNGiwqTkCaopYRK2C3uJ/TOSeRqy0yRYMxUaX8322lnn4k9l1EscpFCbqnj5Vr6ZtS1aiqjS9ZtVOyrCNq0AzK9h1mr9PEY217lvIq+RFskKxve0VWRauVUflFP7ehzPLvL+KNPKYLwXPcjmcQcaHaLdvW7VJ7+GjRS3uUuyKI8Ep0KFFMUqPgrY6dxaXb1e2Cec0dFcF9EtJpwl2iaCfhm1t4FkXIIuOqJeT444rgnjtUuCtW163r4V4vXTcic/KfzssuRGxpFJ5RpY67/KoMjElE5urMb3inHlSpoHFeIVVpo7fjgajJr10JQ4Pi9Zsz41441NvQvZVtzGwHO0T4i5jsyXSLOyAuahXm2eI5nUkvqi1+UNVhVllfxyhHNe01FHkGa8PPh5hqDPOGoqFY2ULdjVjxBkNtKE0I/wAcGMI549ePDJIUEcmJpQtCUk/CZXwR5i69buNJLCF5DhknjPOtVSNu1UQ0qrugMbQ/ntYAc8zFlaxAxxAKidqWPCl7l8o55SH1Lm5W0RPJI00msK1RjBN9o/jPOvaF4IQWY4vkqeQVFmtYwykeAzWYpWqkFu7dn6ZRI4PwiDikdGobqaWrVApTnnnUY5Xmm19EWHCFEjsbK0ZfnbItmjSAoG/xhJVUjPi0kd2J+iRBhIjERFRQWR+mOQAIrVrUatC2Hsv/AGxHrQOnyFJfzKEJKvKQMmbjHsbhWh822Ptl6QeauZcPPa9ECrWeWib5iphVG66wf7AMk4ZWIy9B27OVOSTNWw1sp66OSwuOjb+0b79d3vI+TZVarOTOMtlQu8oujdWBv6Dr/wCCrSjvtVSm9WQbVdwuuU8mEOB62sVh0/3nmR2RR6lx8twqts0eZZCAmY0uxHY/IZU99ZoFv5hc6KezVeQvaup2iZ/LyCdTtivbKaPq8ysM7jfanNT9hFV7Er3APa/7t+1n7s92spf38vOrXzrmn/3v/9oACAEBAwM/Av8A5KDOy3C85K20HP8A5AZoZ/8AENhCbjIKGAZEuOAsu9kx5DZ0NXHtHJNNLuIloATcxp5qVJzQiCn3xk5T9vHoNw1uFUMWuHcg6oKY3rdwr6JztmG7v1fqorsWs4ayOMRx8k3eeJKh9kKH2QofZCZl8lk5w7/dPHXnxHsni9k+B9038p30+/m0DOTZyG/epoQx6Iunae6XZZT6oxBSDTtPdL3UUYt8C7zURjrY2uA906dlzQUQMf3vU+qmDUNAbk9lLTnDCvkjCMjORQitl4HIosM7ns2h2h+7kHgEYoGkxNWdUVccE/AjwVsZEXj7taBGaiihbbZ+H5hFlGu/S/8Ac1mw9xX8WSKtY28ZlNhjAK1dRA1P6hcHD3TW7IA6FgIlwz9B0ZJkO81yQiDMFBuzNvp4KzVB1xn95a28qy6QAc2U5zXPCTZjtfhC/ijad/LbRounvX8Ns7GV9lB1+scr0HGTmyBHihD3b/dToaOTrruCkZlBBit6xxQHtOngrQXN6ru7epyeBUUO8fRc3MHZNQcs0X7r5ZzTLNxnwM5qI6cwHVzqEQS40pKX3iG4faBpG9NtAQ7TARO+/gCubEghislRWoY3U8OhblWUlze8m89JloudN0zORu6ANRquzCsAW/HD7xIu3mhXO2jdI+CMJ3CnEH90QsTZ4KGNp9s9lv0TjsNEMb7/AAVmtScyh1pVzVm+ZbgRtNVqeIwOawFc9ypmnOddXAXpwkJXYTR/sp5/pgd6MxbBldmiKS4Lqz+iFwuGOCmjBdaGOGf7wQcJjH7vZNlotvy91aNqKbbsuq3gFZex2BFn2UtM6eK+zn2iT8R7DW7D/tB245aCECnQ6w+9mHchE3EXtN4+4hgmUHCY0FzhLZJlx38NBcbIuB2tyDRZCtXUDb3+3urR1BKGPFyDbgFJAKE4bTZtqELMyZw88W8dyhbLSCTQDMr+Ehhs9eJ47yufqw2WjaKhcm1YX2jsXYeOKtGZdrHdTwUR4nZs5DEoPxuv3LIWpXqlNrJWaXud+yUXABgkLs/HJPGLfD6ons03owgQCzEy/ZQeARiPuropsQsNp+DeGZTYIp3nE6BGYWnFOg0f/l7rIrN3ujEvFlnm5Sb8AGgPQAFbkyKTZtNsnx6EkIlRqvFzgq83E1X4ZP4e33DVH5m+q2/zfILq3C9xyCY3WcQLWwNy542W3eq5sZKdSbMMXntcE6NeLMIXNz4oMxHimQsZnIJ7tkWfNPiXuLlFYwvcAAMJ1XMnNhvCY2O2KHDm5Fw45J3K4pIrgwblEgap1bV4n6qJynYFO0blyb/wyrjzsb09lH5WbLdQOoGtx4lDkLWsZV5TmNBOq83yzX9xs/xNvC6zDzs757SacL0w9VvgmdlvgE3KSsGcM8RgfqucNktLXfc3cpJYwyYNt+e5qEISAkB0BE4po2mDwTW3ABF3BS0SicSR0A2pXOGQnwHzKLam/IYdDZZhed+QVhtdp1T0ZJscSP1B3J0JwhRbzsP7f1+Pqj8wTYXOdq1d3BGNQ3Eie+f7oFOI49mTG916snWxucqawtBB0rNotb1PZMh3wiDv9ym/2mp3LIsrmjaOQUGDGeHWnsZdLHiU2I/7Fjg3s3y9VymLqkRHDKR9lyh10J3ouVS/ln/Ie65VCNpsMgjeE4RLUdjj4VO+qjPFlsoLchf4ojehCDo7+rs/MpsOfK4/W2G7sO8qL/4jFt7MJv7lxUTkjpW5jCuHBRousfsx2rioUHVDjFdxoFDsgtcCDdKpTtzBvvTomr2jfcbOKq6VzZBWRaxbcqhsSU3bLsD9xMd/MwzQfzHZDIb0IYDRQBc40tmWzxCiM2I0vH30B2oDrFFm0CN4uVO23zQYdgS3IOqE2CQDOuSbFE2lHnLsQdL2O1gOF3ncufOqJnEEyknskf8A24IkVEtAZfo+1kQ0FlWzE5zyQufq78DoFzZvO7DvTuyP8kCbJ1XZFDCqt1uQjNsP8cjmja5iL/Mbce23P4wlZ61CAOKGs45fuaBsWNes3S97lzQk52s4k2W1JmgwV2D/AK/RWCKzB2T8kYdGHXzwCJkIkMP4e1VAiFrTCfDfE2cPQkL+GaOT8nrFfVzuyMXn5BQWbc4rt93gmQGmQDGgToJIvisedp5J/KwC7zHfoa29wChMxtLnDO7RNc4xrJWWt807lb5WnWG3k4DIJvJW8zycCYpPBv1QhRC+KOc41M86qJyimwzsj5o8pdZnZAqSoHJtSFJz+PqVbq8z3YD3UmmJi6jPkuZZ+6lOi6ueHzKt2QcAR4Iw9SL3P90HXGfxuaFlu07/AFGa5lkztPqeg6ybN65upv0MnOUuFEH7pLm8ZzTYgk4TUSC6cMz408egHUImgCCHObLDTYE0TIXuf5DQ2MJOHuFGg3fbM/2+qBo20DkCR5LmoTQ69TcVao7C44goRRUC02h0l7bTaRIdWn5IcqZ+Nu0Pi828lpDi7q4+KtS1bzK/HeE+613AWfO9cw6TjMm4qVJOcDuT9my6RIAoaTKDY1LrDVC5PCESYc9w4kbgubnGe37V2qxnoPdNaCZ2ojjOId+XAYaBFIhNM8X8BcO8oQnPIFo7IykL/NRYnWlwTjj0JIJ8JrmtMg/RNcmhQbb9ZxGdZ5AaIb4DIsIABv78QVEisyBxKaHCbrVgd24SRcd5uGX7xQhCbr/3RW3DvXOgzuwXMO3XO4YH4ohNLjgjyiIXPwM3ccG93RabiD8KSbmm56SZEVs4I1e683bhpsQ3nJqsSRdeUMFRfaEZs9D0DyGPzjLnXjMdYfMIRGhzah1fhNrUUVu7VbniVPVhUzd+/VWW06tUHuM8k0yaDrt2T+71yiIMMcZXdxXKGxocN+oHOFL5jiv4rlVdiG1s95rRMbc1o7ghElmNk5IwHVq4dYdYb0+LjLguahvdPXeZDPo5J2aPFNd+E+Scz90TuV/haL3JhZJgkRcfdC4hYt8E2EdcF4wGE+CiRLtVuQ901zRK4psPXXOGZvwbgOKbDx1pINAxTXATm01F1Nb6ohrQb5V+JbdZFbHm83eC5lgbjiczj0JiSyl3j5rm21M5Yq2btBfH4THh0BxRzkp79MlK+qDrj0LcKIM2lXabVF9o52AAZ33noc405ireIVh3NHZdVm44j4UpNd+k4GWH0Vsm31ep78VWZ6yAbuVJklrRQYOIyRZYs3tNruRaWcohuLWxhgSNb/pOjxod5daBma3I3ivfJOhCZZE7tZO6tofmki9TUkAsgiUVPSQokd1hlc8gEIDQ0YaG23xHCdp1NwQsB+IIE9xUqhHlBIuY28/JQ4JDWFWjK8mUlKjdrrOyVqbGXdZ2aoFNjhuK56GDiKO4/D5lhdkiXWndX/3uv8LuncM1ZqbzoLXucd8t8zosq1omx3BTaRk71r0ck5t9VPT/AA5J/pnHscdytXVTuCLqNxvfgOGZQhgAXBT6BhRKUnrt44oR4bXjG/ccfg29TO9FoNZiUp4qRpgJZrH6yTW1K/iTzhNlu7FF7zDa4uhQybPfenNiAgXDE2Z+6i9lvr7Jw1XO/Tps3ondoLrgsyghoI0fwj7Uph1HBQo41XDgaFWpKbRJWYQbi5w8lcCmcnY1rjYa65o+ZFVBFIYmeHujmGzvd7K39nD2RtOXN8FZmqTwXMRfwxKHjgfh24jGYN13fJBsmzFp2GfTZDvvyvKY4EzlLNMdj400SU+hB5Na+1Dpm4Vu4KHg157vqmn+m/yUM3te3un6KHEueOBofPSWq1ommsMwKHEUTRhPiZ6JqQ0CFvUwptniwz7sVZe6Hg/WHHH4AZS92SmdbXdg1v79UXQ3BwqPkphxGJ9FZoKlMh60Z9r8OHgosWGbDbEK6d00XyaLyuZAa/Xh4Oxb+8CokEbU2YOx/V7qZJNSbyanRZVrRaq671QaMgmZz4VWTXeCPYPktxXdo5xzW3WiAmwxqCWbsXIJ/JXljQDQGuCfFfbeZn0U3jcQmxiyyZ2Z+atxv0lbTTgVNtKSwWCvCm0DxQaL65LnoY7TaHu+FzjnO/uxJD8rf+kRGhnOUuM+mbbp32j9PJTdwop3olpF9l0u5YaTdCH6z8gnx6ucXcbvC5BNW9Fbk6DdUZG5NiUOo7yPDQcDZGaLmgnS111Ee0gzfp5x3E2e4X6JzBuK5qI0/wBt30+BEhsJpS8ipdv+aa1uqbU+tfNWLtp3orDGyHd5rnCLJImKkJr4lhuG068oTEFuyy9Au4BRCbLJASvKHJNW3zrTtMxHD2QLiG1bgflomdFrWNylqtq7yCnV5teinRgLtzRP0XKHf0Xd5A+ajs/pOPCRRZtNcziCEImNFDddqHMeyfAOtdg4J8GjvtG59b6qA8T5wDcaFfxEVzxdcOAToxk0TQgw5OfrmVEHEg4gr7R/5fmg6JE/MfVc04HA3pr7tAKNKWwN8iocImxEMMm8OH79U7EBwzb7KfT5uG87lZdCb2Wk/L56Ay8gdGwxxyCqSZnfetYokINZMG1b1plV0c6bA2Bf+I+ytcF3DpAqVFa1H7XVPaHuh9MNIbUmQQcJgzHRDTPw3aKr7Rw7QmudgwzjKR4inTEBta2qBPh6zL8Z3Fc4Z9qXcP8ApTFLw+noubFpuybx2T+71/CQyT/MifvyTuUxLOdSd2KbDivDLmtA71bCk48dFshs5WijAMjjcVzjpYYrqMvxPZCc42IbbTv3UlNFYx5w9nqj3TYYk1oaNwlpmoEWtmw7tN1SovJq/wA2Hn128RimxW9ppXMGze07J+WjWEzIE1OSbydoZBbeNuVOIz4ouJJMyVJ7VzcaNwJ85rXBzPqiR8wnN+at0dfoAVmO04WvIqGa2ZHdq+ilTp6rG9t48qoGIcw0eajOJEnAbvdOdtU/2PiVZEslEgurVqtgEY6Jp7CbAtNNwxaoj6uaRlLBRX0JstxpVBgAFwVVYhuOMqd+iWkC8yTe0PFA3EaJK0F3EXFc41rjSd+kRW2T/wBJ0G1NwLTdhVS0WeJuVsT6FWHiPmqRGZOn/l0/sZ5PCtgM7R8lNxs1Ipw3n2WGTgFeRWd4zRLjbMy2iHI4Biu2n3f/AGhfZOeb3uJJRcHWdkA62fD3U9EmocuhWHbbf2CuabIbRMu9F55qHtGr35b/AGTOTtstHE4n4FicWCPzs7W8b0I8My4jiphfxMZrML3cAg6I1jf6Q9cFLQ6HEcRS231QZDhPFZymUMQTvwQyRbrsrmFLgfJfQrHKqmAcx8CcWCMrR8l9vFH4WfPpWBOU0TjLgCU8mgceNBpNk2ZWsFIyiX44EcQtQb3D30vjGUJtvfc0d6n/ADYh/KzVHjeuTw7oTeJ1j5zTOw3wCgPvhM8JJn9N7oe7ab5+6jQdpsx2m1HuNE1Rw7Jp3qcxocGmwJuwUaK8PikgCt9e4CgUzMnuVEXOliacApCWSa0ynU6dQbnD2VmPLts9OnaMJhuLjPwRhOtTsNYTXMcE52sdVmAxO8qjD23E+qmFzkexnEkfFW32BswvVWOTt5z7Ngr+bj7KJygEhpZBGdLSdFqJAZlQ2bUXw/ZTSNWZ4ohxcL2jxzQtteKlwoN9wX8MyXXdV53/AAv4V/ON/lxDrfhcceBUi/c8qHySHFiE/aGjW4n9lF5mTVxqeKiXgBw3FFpAcJcVVhzBXPwHQz1Pnciam5nr9Fzut1cBwXZE/Ja1oEMneLwrIs2g7dktXiFagwz+H4H27PyFf/qov5G9CYIFCQokN/NvBvln3zy6MaIdZ4l3+lFzLZTmmvkSAVqN/OPno/i3GdITL/xHLghDEmiQGA6ZhTjQqtvfD+bfZBwBFxVYu6XzWt05VXOPG82u4XafsnfvFWY8E/il4jptt23f05ho7RK5z7WIdUXNwHHepza0Xi/6KILImdS704qJ2n+KcH2pm1fPFOjGTanH3JTYQbzz+cc0arBdTd8yn8o/CzL30ygmI6gOyO1NVI3LneUOdhC/9x+GI8N7D1gpuig33HiKKR0Pg7J7sE54rDB7/dWrI5uxiuYiZh4lLfh5rmmiGBacauAyvcg0zGzF9fqg1pMzIYbygbMxjIzTLrIGNFZCnAb3+p+B9uP/AE/mpcs4sl4dOzdKRMk52Z4BUrpovsnbpHwKpTG7vQgQ2sGArxx+D/DR3wuq7XZunev5hzPyWtuGPT1PCfBGrjS1dwGn7I93qvtIX/qN6cov6FSycbkN570MAubMnGmfutYvbs3GWBTobS1tJmc8Vzj+OKDYFBdI6GGIOcMm3+C59wDdhl29WHjwWpGP/m/Escq5QPxDzqtY6bbzkAjzhpIdWeIRJFmZdhK9G90+c6071c3suJ7sFbdIXC9ScD+6K1a8Ebi4p0BsmvFkdpvzX8RMGUxkadP7Vp/CV9ux34yPFTGiTt05aZXqUQ2a2XTaFHvLrO4Cnmns29duYoR3IPExUHTOYNxX20KGepEkf01HwrMeCfwO8kBDaSNZ2t46C5sgZFRB/TnweVEbr2LMrxamVqzNZCdOsFPq+DghF3EYdAAyWoBm4eVVrM/O316f2n6PmqWj3LIEjBS2nBoyCnRjCJ9Y09alc08GU2xBrfIqzrsqw+Sc5wsCZTjDPOEMFno1iwzeZO+R+IHReURMLcv8aK0Z6Jrm4JOLkzmwYhL4dDLEcCobBKDD+X1Ti6ZdXwRaJCwJ/vNWBhxXOtBPFT5yR2cFqk7l9j3lAXADp68P9QUq9kz8Cp9+ipztj5aTEeQNhnmUcgqTJno5uJzfVfUbiL+hzEaHygXBwET3U6j4P8XywN6sJoteslLuQdXy6DWmYCY69rT3IMuAHDoWjxd5BTLBxPyWuz/1G+vTaH2Tqk7Jz4rm9V9MjggcSBkCmMrLvvKMR3rubl34pohxXnslo9PVOdbb/T7R85KDyMWIDbTs/c4ocoj/AG+v2OyHcFzUZ2T9Yd6MTc0XnSeSRWxW4XjMYpkdtphn8L+Gguf1rmjNxuUhYvltHNymdEGKQ2w8v3J0IbURjR2m0Hl802MyJCth9P8A3exVltb8UDvTX4KG3qoN3Ic48ZhGoyX2DO/1PwP5Zyf6qRcOKnDh5yA0Amcq6ZieZPr0JPhH/wAweem8XevcrW0Kdn3X8G4Q3/ynbDuz+E/L4Fj7OHrRXeDBmUILZXk1ce0Va4JnJteuQGc1zwNLJbePghpMlOKfwtHnVTjwvzz8On/KP4peIRAdS00YO91IEb1OZlRpu+asMni/5rnAIeEpnuu8/RPDeb2WsF3a4psNkAhobNtfIp8a09psiFrWt4qh/wCI8na8SDxdxxCcxnN2ZZnNclcCI5c106OwkoUWsKPPwd6Ickm6JzUXKbpS8aJzYrS9oEKok3DfvQiAOabQNxHwAwEkyAvK5/XuYz+WMyet7aLIU1/DNtv/AJj/APUZe6n9g3Cr/kPdcxFYcDQ8CgXvldoomsvIQiYHirMQZGYUucAF5v4qzAh8PX4E4Z3SPgVc7Nap/C7yNVMdDmYjm56w4HTNW4gyhVPHJSoVK4T0tIk6UjmovJdn7aH2Ttt4HFQ4tLVl3Zdqnz6DYYm4gDenxaQtUf3CP/aFYunM3uN54rPRz7ZTskGYK5gGtouMydACY4yDgTlPpTVoud2nHyorXKR+BpPjTptiQ3SIJhkO8Fqu/N6yW0i0gtrmM5fNWZPbrMFbO/d7IOtxOrMS4f8AabFoWlrnbMwi4wIbRMmcu+QQ5FydnJ27T9rfn4lReTw+cJsjFnFBkN8Y47PD6lROU12W5n5Lk3IRZhtEWLifc/IIxiXP+miJyGm3DN7PbJQeWDUdXFpo4d3SZAptPwYKlReUGcY2WC6GLhvccUY7qbIu91Z0XR4g/I35+y/h22Ga0V2VbO8qM+vNvM9yjTBcyQG8LBHBHZmfyi9POUPzKaPxHegjHuo3NOIDAXPIEpNoBxRAE75V6doEZhc7DkeHeFzcWyetq94uWHQEcVoRcck6FtMJHaZXyvULf4FOibIsDtG/uCDBIK0sXVPlo1Sck7lB9Tg36qymxNtodxVnYiRIfB0x4Gajf/EH/BqedqO88JN9BNMymRiarVMslMSy9CubbNW21v0thStODZq08zk4E0IrRWai8XJkbZPdcegIYqb1Jp4FSCnzsTM2R3dPm9oauDxe2eaMIht4dKTvyoynLaOqjQjBFrecbhtDP6rnJFrdad2BkjaaZCi5yJaIpDFOJv8AJGLHL7rJ1Z5C5ReWuaxzrzcKd6hwnshkTawTsj/UJ8ag+zZkLzxKix9hlO0aBO5JK09pJ6ovQgQWvf8AzImy3IaJXUOYXKoNLfOD8Yn53p3WgeDvohhyd3+X0UQ7MED8zprlEfaiWRkzVHunNqCZ5pzryTpbHfbibEPA9Y+ybBaebm52ctUd6e0arGjfeo8TstA3KLFBc55AOzhRS1sW7W/93qalMjC/fpJ/KMMynRYjGTOsa8Ag0SAl8GxEiNz1h3qTpjj3q21r+0Ok16IuIX7GJVgb0G3mSa646AN2gQ95wCtgOz6JY45YLnWSF+Hci0VvNdNeDD6rLwRzRZEh5l3kb+g6JGqNRsv34qw076eKsglc1BYMbzxPwJxjDF1o0yaa/RW32RdDHn9NBaHYh3kfZAOcJiomFNRGvNl0mBotUnfNCKN4uKPJYot0wnxxXOxHuvmfJcn5O2b4ZiRZ0yHio0SjJQhuqfFfxMcWqgazp4yT+WRbRIZDZQZnMyXJ4Vzeed/l/wD1CbFfa5tsNsKeVSrTicz03xLh3lcnhfzNY77lAhUY213SUTlIs7Lchii7a8E51nVIhZ5+FVaoJIwte/tDd9FYp1TVvstRrcXn1MzppxVp739nVHz+FZsxB1aHgVzg7kObZK6yEDvlTSxhkTIqei1ub5uXWN+AyGh050PFG8m7LQG3kBQ+0EIptWqEfuqlpsgo2pTnSZ6Qe05gGSaDJ1D6oNkBrE/uq1w4yoJAcegbdlh2NrjkjEvwXOxGM3zPBvTsb5r8DvL3XNWntbOLE8gB8liFmgVcRKYKfFkdizPrVPgqPbnWtVSQvFPBQn0iNPfcmWTEguuwvCLTZcLJGGj+E5MYho+MZN4fuZUN3bjGWyBIDjh4p8aTYeoHYC9CBCEMdanuUMCnPs1Dbd01/Dusya8jrBPi0Cfksz4KFCvl31QGyJp0XaPdgi65Bm8pz9Rn6nZJ0IANe6mdU7rNa/yKI2bbe+01UDcyJbkC4nBlB80Mx4qwJq8lczCaMTU8T8LnGluYRkZ9UyKLZgEgHAGilaZ+ocDf5rDRzlRR37vToYNru0NBnKujW4z6HOG0HFp8QnYxT3ABCCLDKyxKdE2a77gFLQ60KEgXcUWzLtp3lu6c6tqOyrGFnuVsyGF+nmW/iNGjeu84qSnainrUb+UfXph4kRMJuFofqKszJNondKi/h4hb1X1b8wg5tuHhe394qdVqoMEyubPOOoXUs7itanWVOCa+uabFEnCYzxCiQqt+0b/sovL7AuZCEpykB9VBYOaFIZ239rv+aew24Dw/IH3uTyRbaWSzTnvawE1ICDXsb2Wp3J7NvriYP7xRjl5DrJbKW9RWOLSLBCeesdE9DoDQXCyD4p0a6je1nwTYYstUggVang1t5z4KE4D7bfgoY/qphuit8Aq3g8Fz8VreqzWd8h8TmnB/VfR3HD2QNVzbg/s+mKnIjFT6LLVi0LWSsun4dJpM1JYNwvKLp1mMD0Hw7AZe6d+5W2h2Y6IxXMR5YOMu418jpPKH2uqKN4fVSRiFsNt7/IYlBjQ0XNEvhfxDJdYVbxRhm13PagPtG7Ltrdv91Z4IDXd+hv7xX9WIa4fhUzNrD36oUtt/6W3+6NRcAKBC7E3KRkfs8yf/ALUYrbLfsofmVB5PssMdwpSst07vBRWRNVggZsz4g/KSbGbZiwrXD6+6D+UTA1WTI9AjEjxJYU8Am8vg8zE/mMFDwuPuonI4t2s3VLc93sjGbaADItmlq8JwJDqHFTu1k2xMtr+L2UNhdEGsR/i3gmxpRIgtE1AwA4LqilryCtTsdX5KYWAvPkE2ISzqs8ysALsVzhyaNrfu9012AAwwnxQhj5ZrmWV231d8QRWFpxRE2O2m0KkubNg7J2dxy0GCRqzbKp9k2MJtPuND3NIYbJzXNazjM4ZD3OjKqtOs07sOkCakkZYKXQ54XyIuK5tobkOhJT02WSxdT3UlJUMZ18TZ3N+vxOadzo2Xbe45owLqsdeFatDDDvVRaM3HH2RbQeae++IeAorAMr1rTAtTb4JpmDrvGVAzvVA2NUG5/vlxVgSNWHrZcfdCbAKC1PwTYpfaaHa3oAoPYl3lfwzjzRDbQxFq5Oc4nnNozuz71FgPD2PBLcM9yhueOUFtWim/93BRYr+dtWT1RkN6ER4L4c3MvGDhmOG9P6sNsMb/AGHuv7jy7dcPAK0bAEmBWGikhdM+yJtdo0BuEkYYvYFU76zuU52dt3+jQi0UoupOyMXT9Fa1W0YP9vpo593Ou2GbG85/G/qt2m7Qzb9EHjRPUffg7P6q1eJpkFxc2dadC2JXJzr30yAkhDu6BvnIYb1MdCxuniU7NpTheAeCtCYx0yU9IYJnBGMbRplw0fxT5f02bRzPZ9/ih4INQUeTusHZOwfkpKzqubbb5hWhOE+1+ErA6p/dyBoSe5OOowc0zHtFNa2zJSEinNaWSLmylwP/AOKsuhjJp+SmHfndotWhjgrSuyxVo2n0A2Rki40ozE5pr5ga0k5rZtOr5tVsT2W9s48FOkMS/Gb1Qkaz8yp3lx75HwUKBdV3ifoi818NILxud66Dyp9gbDdt3yQaABQC74/8K60P5Tz/AIH2Oi1conJqPBczzHDNMjCbDPTPptnPozUI9WXCihjAnvUtElNNg0vd2Qo0T+pY3N91EZUPdPfXyUSLR7pjIU0OjO5tl5vPZGfsmwGhjbh8Zsdtl3/SdBdYffg7Bw90AxjsTf3rEGyc0+JtunZu99ElaCmrBkrMnX2b+BVloB6xPmSgELYrerjvsnRzokwWt+HimwwOdfP8OB7rypzdKVwHALmL6w3bW4nFBxkTds8FJWtj/LBMeS21r32s1zNCP1Xg/veuaLZYivEK0pKvGXiE7lDubZ+p3ZHumwGhrR9fuAeCCJgo8jMr4R2XdncdInab9m7Nvtci2TY1J3PGyeOWiX3CSmrOozaxPZ+q8fXoPi0YO/AJvJxIXnadiT9wHKGEHuOIK+whj8qc65pcrFXvDBkL0C8BgdLHElE36oQDjZM2579ExNDKIh2HeP1RPVa3/Yq4z2a3SUjO9pyzzQiAl9GzlYzTqNA5sOn+ankFJxdeLUiVqEdm7gposcK6onTis9nLtFOibhkFRPZqE2hSuIqtccFLQ7lDrEP9TsG/VN5M2y3vOJP3IPBBEwU7klRN8LzZ9FaGgOEjUFHkxEOIfszsPy3HQRoB6ACnon0JLJEqepCP5n5bhv0S0u5Q6xD/AFPwb9UIDQ1v/f3Iu2iNXYx7yFyiBtn7PtMEpcUHkGZcMTeZJkIShQ+80+qiRNo0yFAg0SOCY3eucMsNExaFRjmECpADtHyC2sBNMbKbrDt4mnxC1wsusz2TfNCokRPaajDdnlvaqUqclGF4cP0qJjNTaPNSVsk/uituJ4BSUTlWcOH2sXcE2A0NYJAfdebNqFjfDwPDJB91CL2m8aBEEnVBUTkWq6cWFges1Q4+w4O9dJGKdmoUOjoo9fRQM3cbK5O/+q3vMvVMdcQe/QQnpx0QuTib3Bvqn8p1WThw8+s72QbcNIbfRP5TV04cLLrP9gmwxJokBh90mhtQTzbsuqU6EbMRtg59U96npkudCMM2m/qGY90Brsqw7Qy3+6BeTg0U70ZDAYk3ngmgasmt7Zx4Jk9SY8pom8k8dD4JrfgcCp7Y7xgrDswbipIuvOh0V1mG22d1w4lBgnEk9/8AqOH3hsWuy8XOF6fC/mtmP7jbu8YLEawzGgXyrmKFRod0U/qk76rlHaZ/j9VyuJ15fpARf/NivibpyChMuY1N7LfBMPUb4KF2JcJhS2Ir2/qK5VDuiuPg71XKR1mni1cqd12jgxR33x390gmiu0cyZ9B0U2YbbZ/1bxKbDNuIecif6t4D7w2IJOAcN6lWC6z+B1W+6iQf5jCPxDWag66ugwhKzNPfdRPgGYrmEBWziTL95KI8/LBOibR7sFJZq0EHjmov6T+8UYLhOuRwP1RiX6HxqQ2F/p43IurGd+hvzKbBFljQ0bvvbTVn2Ts23HiLlEhbbLQ7UP5tTYmy6e7HwR4qz1fgh9/iiLqojDQUYhkxpiHdd3m5F1Yzv0N+ZTYYk0BoyH3zkhOtJr/wbXkrP8uI6Juez5p5MubdPdVAX6vEEeqB39MvMm1J8t61eZiTc6Wq4CpOHArlEXaswR/kfZQmVdOKfxXeFyldT7/DjbTa53HxCiM/lxZ/hfXzvUVm3CPFmuPdQjeQ079X1kmu2T80U7JHJHJFFFWbyBxKDzJpt/lBPncozsGs3kz8gm/1HGLuub4D5oMEgABu+/QySdauFqQ8qqB2PMn5qHDM2sDSgbwCuTxL4YBzGr6KHg+K39U/VHDlDu9rSn//ABH+gT8eUH/AIYx4nkFAF9t/Fx+UlYJsBrASmwhIeOJ/4UOvAPFQHf0wOGr6Jo2YsVn6rQ85qKLuUeLAuU/3of8A9P6rlX96F/8ATPuo4OtFhkbmS+ae66NZGQaPmp7UaK7vs+igN/phxzdreqDbhL/+BRn/AMTJDjwR7PinHFHFxQz80P2UM3DvKeLoh76qI28B3khjqprriD/wLIe04BN6oc/gPdROy1vE+ye7+sP0yQG1FP8AnJQMYgP6yuTdpniuTdpignZcO531Rbc93jNPGR8kBttLd94TYmyQf+CAu1juT3fhQ48dNkIv3BNQ4Kzf4oZoIFY3HMUURv4x4FNunXL74GVJkuw2e80CixNokbm6v1RwsjjUp2bVZOuLR8h3JrsAe5Q3VbqHxCfD6toZtr9dATT1Qnt2HPZ6eajw9tgiDNtCocWgMndl1ChOdxzFFEFzu4rtixvvCDqgzH30Npecgi/a8ApaA28oYAlF7hRWGT3onNRD1fNSvmE6Js3ZqzRxEwhmt6OZRGKneLXqorbqtycnjq+f0X4HeSac28fu0kTsf5FGJXa3u+QVkTc66tAnYtBHgUyL+E5FSU7+gyLfQ5i9c1e2f4hj0A5RYNxmOy73TH0dqO33dx0GHVhsHy8FhF1fxDZ+in95lejE2dVueJQapJou1uCiRbzYGQUimy3oMsyzC1O8JobvTmXOluvVszcZlOlZFN6CacJKVzlE4onbpuCZBGDVDbdN3AK1ss8ws2y80CnCt+5B4mPuYZvOSMQ63+OC7Fd+H1RhUdVufZn8tAOCY7qqzj49CxqN2j5JzazJKcSLQ1dyIMmi03wTtqj/AMpu+SDrv+tE13hPg/ib2T8imRNxyOh0DYu7Ju7sk2PdR2LTf93DBMoxKuuwapLsV34Iv2jP0WKs0FSjtEjRUcVqjiEHNOfQdstkM1ZovNCHxxKkbEO/F2ARiVcS7eUEWe6nR16BRhX1b6Kxri47Xup/cbOqyr/RZuJcbynPG34j5hPZh4aDzbeHSlM5LnCXHE/9IPJHZTJ2ZVTZ3KzdRFrg/wDy3hG/NTMs1zeM5qdyOSiQrjTJ1QsxZ81IjBwuwUzZiUnc7A/dQwTKtXoQ95yTom14YaebbwU6nTjgplo3otqOg7CS3rWP4Udht7r9wQYgJuPVREietVTG1XyUqIso65WlZdY6pEx7K9vZNOB+4Gdhl+J7KwaZAXnElRG1DzwNQpUiNs7wp1QdeOgGusvBhHC1ce9T0ShP4KwrMyBUpg1usm/q0apRs0qJA2fZBp7O4qeid1U5+1qDxKbBuqczehEoQjDNl1Wm4/IrmtV51MHdncfudmpVs2j3Bc22fgib6k3qSEgg0t4rVHFURdKdJIcVJWnzyu0b5KatJuSlTwU7R/ErZLr5lZXHy0Ww0ZXpzbnGSAdN5QcjBMsFbIcME6FEtCrZC0EHiYuPxpajdo/6hSFllXZ/NGHeJaJqy0Ny0HFTnVROTv2i2dxva7imRhzcdoBOPVPA4FROSZxYP+zPohEEwZhfZROCmAejTj81IdwCFxE1CfWz4THooQ6viSmsuAHDTVCICDirw7ChVgiE+47B/wDt9vuXOn8I8zoPKDO5gu371KegulPBZLnWb/mrA3pgxGi3RveVgdGOiQ4ppNkGqpwWpPNCUkCi1246CHi0JZKTuOi0FzUOu05WnO3UXMOkdh934T9fi80MybgrNTVxvKmJ9o6Gm7V4XKyc1StCL0GozkGg96iQnc4243jL6JvKG+rUWAlmszLEfRRIH429n2Ka/XgGy7rwzj7HehFB8xkuaeYLjdVm9v0VmvQtOngz1+i1NElNAUnXLFbipblvTIQJJ7hUlc+55o05K0JLnRZdtsv37/uHVF58gpKeoO/2RlK4btBap6Nd2SnRS1T/ANrV9AuabPFCxVT0WuCsNkLyrLm8VYYVKEzgrDyM6+Ks31Qc3vEkaEXomkpFF3cKqas1df6Lmx+I3BGG6uN6tiWatiydplD7/DkuddbN1zeGehwrhmi3rHvqnupIfmw8FzWIduuPcpzLW0XPOm6oA7gmdZoriubN82OoPwnLgVYeHs1cxgdFnXZ+ofMIUOy4XOCt6sU2HYRG/NRILrZqMHj93rCIO8eygRLnAHwTB1x4rndm7F3sp/lCDaTGht90k59Gare1iUZ7807Mogm1rNyvTX1Yzm/TwUE7Vq1ld4Lk8KtlonmfcptpwadUGiMJwiN6t+9uKDwHC4/Gkp6xvKsDfgrRrirJkppw3hWQgFecyrD63O8lzg34FOhmRwRfKdAm2ZNvPloLquoEyFqtqfRGM4F+KHJ3VFoYLnTPDAL7NqudktbuVme4n10FyJ1AL7zmhD44lWNVlTjkEXm069TXVOF3Bc08P7ncD8OYDR1r+CkrIsjad5b0WtAcJ0wvUNwnjhgqBoNAucOSa2bLRmKqVBRELnIZbmqDnRxcPmEHCYqFJWdduziOz9FNWfsn1huzwRgH8BuKGKahzssHLVIbQyopbW1irFznN4FR4g1qsPa2v3x6U1IyUtdu0PNWgrNqEcKt4Y/GmQ3vOjnXyyoPmrEtBFdFnRqeK5xu8ea/pv8A0n5cUIor3FObfMpzrgfBc3V1T6Iu1GXYuzQ46HOADholNneFOG7gpyIopJt5eBuF6rSct6vcubFlu07yCJqbkAJETGCtIwncEIjeKm2yb2U9vhc4Tk2isUG0bvdGJrE9+JTN/ihCskE7SossFa49Br2TIqS6uN6icjqDNvl35cUIwmO8YhTXMmmyfLcudNlQibNSLpkaqgxMLP5VyZhsnlEimQ9aGbe+c9AjTa+8TqiHht88dyfKvTEORGaxVkkd4Vgsidk14G/405uz9FYafJWTMpz8FKe4LxKluOioVFKIWHuUtfA3ow6P1m54hQndcKEzG0cgoka7UblieKbEaBZkR5KSsDZqjEMzUqw2Zv0EwJuvsLVbjQLMS0SQlTBSjEmspURdRos6A2c1bM811fBWIoyfT2+DzbDmaDiVYbwXPOnn5BMZSYG6aBxCnDP4a6JXdCQToNWz/eYXOtn2rwv4eIRc2Xkob6WhNMtCGb3fv/pNgtJlICpWqP3eo0rAfTz8VLq+aMEzYSxy51odccRvxRgvI7wjHM3YD4FtvCqm1SIOXoVOYzXOQm5ih7viap3qSm4NyqrFydn5KeKmjxWrotMHmpP4j0Q5TCk6/ZcjBcW+G8LnDJNhgNF50nRYM0YhrTcueMsOsVzUF3CQUpSwRfKeGgullJfw767LvJW5PFS3zGi1Rc2wqYRa4YK02YvFfBW2g5j4HORZYQ/UqTSoYpMN409UyJWQO/6rsmXH3CkJPL+/WHihDNjDqnMdFsSKBgLsi7Rgg58MbjNDIJt2ac6he5zctM1bC5l0jsu8jmhGbLHAp0B0j04cKk7Tuy2pTot+qOyPmVO1lNSQmJKy9zO1rD5/EroEi7G1oDWk4/uWiiIyqmnaoVapmjyWRbUG8Fc/ZpKU0YbmunSJMS9CrbZ4sqhCMzkjEM1n0CnR9zRe5NhCQX8TEDRsQ6neehRB0wnQQLX8vPs/RNiazaTxwKMA6w71aJVjBF/ipcCtQt7Bl05CeSnN3aM0bgJlRDe2fenQqttQ/IeyeNoW/Ipjvwzz/ck2O2RqCnwDTWG+9N6zfJN6rVzv8ygyw70wCd3Bc5quItDzQYTZFvfgnPJcbz5BPimTAXndcOJUR38x4ZubXzKhdqIf1S9FDwfEHfNRm7LmxOOqU6CZRGlnHZ8VNWgiIbSVsnuUpaWQtpwC/tstHM0C5RH232B2W0Tod1d31TI4vn2hi1fw4tQ5ub1h8wpg8EBXNWHsdka8D8SczoLnHK1PRaPzQnQzWRkUbyZqqNqkrkIriH3jDduVgWm4Xot5un8s+KttP4gprHRPROjQScgv7p/SPmUGCmq0IxdSHdi7PgiRq3drBNZVxn5Bcmdi3xXYPcjMtNM1QAYV4IgWZTyUTke2Jwz/AK8PZNiN7QK5s/h9FbF6lPcphSiEdoenTswzvopALmzOU6JnWm3iE19zge9Q4mFk5j9yToYs0iM8CE1g60P9+Ce2oLX93sU51/honTNWQBlRMLrlZR5VrO1YXm/6JsIWWANHRDxIiYRZrQf/AKZuPDJc6bNxG0DeEJWUZflKlffuRwb4lRYl7pDIUU1avMh5qE0Ssg8aqE7Z1Du9lFhG03WIuLb+Dmp1nWEiRUK+z/ifkiKESLTJTnwVuGw5j4UgqBUOiStUWsd2iorJVTp2h1b0HBpnIzEiN6iDUdjjmphWocuxT201k0F7sm1XKXf02t/M72QujGTuzcPHFMgjqsCYNmbz4KJHvOr2RcsX9zfdCCN52W5oxavM92AQIkQonJtnXZ2ThwTOUttNMj5jcubBB/8A9aBEFh965uIYYOqbuKmCCi24rnbRKorMWGd8vHpzMNu+fgpIxKATlKaz801yfD2XEd9E4bTbXCh8E3gobpggGnimkTldf9EDsv8AFRYNSJjMVXOCt4UnNX8VFs9RtX+3erIkKAfA1TEh/wAxleIGCEZocMfJczUg61yiRHShsFVyrcOElyk7/wBSLXDnWul/kPJQjc1ngEGt1RZreKKJDxt7ne96adqcI+LfFT60wdEonFqqvs5dlxHwtU6JgqhRlLzVm6s6Kwa56Jom/DFWWCyLRP7qg0Te+z8kXUnMBF1AjCeWnrttDuP1RERwljMcCncofYua3bOW4b0yCLLGho0B14BUNwLbAkVzUrJtAmQGIPFc3V1XeQQhiZ/7RiOtG/0GkSExQ3FOhG3CMjiMCmcp1HCTh1fZOZdrDzRdgZ8EWG27uC5tv4nXaJHitZylZOTm+vTnGG5qmjDiOsyN3cU/JrvJQXbbebPl4hWtZj5/vNTq64ZHa+iFzRcuc3SRh7QmARchFdKcp3b9y5s2XNpmMVCjG3DNg/h+YT4RAddXWC5qFM7UTWPy8vg2QTkEIYoJWjalxTYosuE1B5LrbO8lQhcHO8vVGNswXSzmJKIeqB3/AERG0yfCqbHEmvI3X+RT4V4mO02o71NOh1YZZjArlDjLUHcnOJLzaNFVfzBvHp8LV7xpq7ipoAs3z8VOI7FDgrF//ahgbCc4PLDYDcE+LWRdoMPejzkOIcDLucrdW7Yu3rmXObOdoWid+PRLwJXtMwnf23/veojHQ3uoy6V8uO9UmqjerJlkjgLTXKgmrT5NobwclE5ObEUWt6hHrS40TG3G2dydENt9/opmytQnFp0UVpoOY6X25/KFZaSubLMru/QHJwiNa1xaHXy7IvVZC4KzdisToDqykcxehEaWRNtnWw/ZRhOttwvGYyQ5RCngRMKg4fB+zd+8VIaG8pADpiVxCY01cXZ7lzcgwSaKJxE7RT23OKtbV/bbQhW9R0rWBwcP3gmRKjUdmPmE+DtCmYu0VOjXid3wtXvHQkU4DdOYzVh9cRNSMzcUHapuNx3qyZOuXNTkKEXehTrIY1utngrMqzLkW3r7N3BRTDYaPtNBvslFk3O2jlgOmHcnibmz8FqjgpOpmmjXiFWnGQstlo5p1rA0O7Jc5OeKYUxuCtGQXNO4fNOAcZUd5KgU19mz8o6X2zvyhTY7ghHYJ3OCMO/uOej7X9Hz0WZ1vU9PNPfNpdMCabEfNgkJeaMNzWOP2TjIjLggbqj4M07kJDBrtInXq7lGdswx5lcpN8m8Gp38OC4zfEJqpMqLSBZdUjSTdeKjihGG/EYhBwzCs1h/4+xUiZ00a8Tu+Fq940UOioU3jsgoOitlVDZOKc2gqJ35LnIm4X9yBIA6q5s0kU7lBnK7wTtg4ZqTHcFOBC/I30+BKC4Yv1R+pWRwU1M5qyEGq1QiSDwZ9ytQz2mTVOKc50xcMSgb3OJRh6l4IUlfuaV9lD/KOl9t+nQeSusP/lzoez9E2IMHA+BRvZ/ifdFkVkwWzEq6JdAQYjnOBLSLMxXeuRx+yDvm1QAdSxMcJqxrM725/VB4BFx+A2C0udcEeUPL39a4ZBSU3KYYOzP1VkVKmq6NZPE4kMz1iZC8cM1M2X0d6/VTXW7N/A6P5h3j0+FqHTKm/TIzUxMqY76pzCRncVNpPWb5qE+Q1U2HVjx+WcwUYrxTuU5tIvRaHQH7UOrd7T9fgc/E/BC83fRTRMzlpc0kgAzRcZnDwTWsvqMEWXd6c6zha9MUIYDQrLrLADK8oxnTIlo1HlSY0ZAdKURu9p0WwonJ6ircW/u5MjXHiMQm8obZPccijCdYfR2Bwdw6FjjkhY9UDdonOG6pFRwUSFMSbKZkMaoRBMdGSPKiZTEIY9v6K2JsJNnqG7uQcJl/cMN1UztO8R7JjDamXcVzcTc+o+amFLSG1NE5jnSMwXEyw7lB5Tttsu308HKSn3qnAy8F9nPtEn4U2ngptB0WYjvFYoRmzHcpFXBTc7gE0VyWo49oJk9fJMnqDirIni5WnzFQPNOtB41HM2fqmx6HUidn26FgZk0COL3T3XeCi0hbM74mY3b1YFkKYmSgGkeGmeqLz6INvcfRTQtCdyEV7nC5ol41KmFfO8UVdGq1vaI6crB3y8VVTVkvGTvWqxbquGSiQ/5gL259ZQuWs7Q8HNPyUWDs/at/2Hun/wBt3gorsAzjU+Chw6uc4nzKigWqMGRqUWGThI+qxUS2Imy1uJxTYQmTJQ3NOtUuJkoefkUDsAv9PFEbTJbxVAiYNE2I8Qp6g2yP/am3AXKS6zdryKteylQr+IZLEVacii0lrhZc28aASnPM2toO6aiyrsqqtJ/J/wATck0tmL+zipDerLGjIfDoW9kkKSDLRxLZKnBPZmAVJWuKvM6rqlOGrOi5wnCSlPcnikyNyzRiGQCFzmyI8lFbQG2MnX+IRxhO7iD7L/yonl7qLHlIc0BjOZUWAbTIhdmHXFM5ULLhZdliN4KMMyd3HNNiNvsuxGaleL1JWQgwzIMnSkZIxabLfMq2Q25MawgD/tStt7x6aObfawf5H6rFWiArUVg7Mz07UN26vgpyOeiT/wAzZ+Gkg24ZsPHnxTYupG+zf/qVkZrmgSf+1/Vi7ZuGDUcU2KJOE0IJnZ5wb6lvyPqnPpCaTLFwu/T7p7zN5LjvUqihzCiw9r7UeDk3lrJNeWndQjiFG5KZWj6tPiocRh5xtlwBMp0PBT9ehOoMnC4oRNV4svyz4J3JHDrQ3f6lQ+VtB/xeLwv4c1k7Lehtv/xTnUbqjzTnULiQq6LRA70Arbmt3zPAfEsxXDtAHRzjd+CpJWBIiatGYomt2vFMOwK7kGkAdbFWqu8QrLtxuKk93H6r+IfMUaBemsdJtU1th34ZFNdN8Sk7mqSOS3LcijOeIxQ5Q3m4m167wuYdVpccDu906JKlkA43oNVuiEZkjQhBpAnx3INIsOnvTn3m5NY6GbjskbjoEVpGaopVVovf3Du6c1QsPUJHspLZd2T5HRJWk2LuOai8lNm8dk/JfxsokpNbsg9rPotjV2H9ofNOYZPbwcNkqV7UE+BJ4Mt4vam8sZZeBaF/uE6C1xvavDoiJf3HEKQLI2vDPXy4+6f/AOHu7cF+P7x9VD5U2YkQUIXU7702J+E5hOY6yRX1VnirARNcXfsKl+stpx/KO74lmy/smvAqY0c26eDvVWiBmpFoGWi1MrnGDtBPfqk0xzQlKVFZmb5osuJlig4Ta5GAZls8k583yonOBIuGhkSYO1gjDMj/AN6GluTm1/MEM77swjKUTud+7irFHX4HAouuqVNNIsmhwKAFak3lWnWRhiublWc0XzkuchtOMpHuWC+0O+qstXNMa3IfA5uLPCIJfqCtLVcNymBw0S0AsJxCsw7PZ6U76p0LZ1m9n2UKPWVccCOKpIm0N6LKsddcnReTvDtqzhuRpv6WaEObZWoLr29ne1O5C+mvCfd+If8A5JsZtptQVkuc4i45K+1QjBWjLAX+2i0J5qh3u+JaBGavab2U9tFsSRhmt7cFzj9bFBrqYoQwQaVRbUVDqyWsSaTU9AY4ulQiR3INcCx1HZYKIRIkeCJh2GD5JwYGBp3qFKy4WSrLZ3AeKdFLZzci6gFgBNzKDE269S1X1Z6Isk9mu3zl8023q9avfoDxeQ5CEN+SdGmZ1GCImLs1Jr25GY79GuPyrnYrRgzWPy+DzrDLaFW8QucaD+5qafDnYFpt8riE4XsPqg+7Rqd49VPVzv8AgDa2TmrDgxxFbtBXMPpsuM2nLcp336J6JaJ8EzlEGRM7f+h3J3IYpY/ZN/ycFaUkZWm7TfMKgloe8WbgD3qXxebcImFzuGem1UXhYFS0GU5UTn7guadKc0Cpps5hoJHkmoHQHO/J81zrvws8yp2ndw4BBvefBGITZNloxzKc68zTbNoYbQ+eiIKw6Zz2SoUU2Yg5t/7xTmXa7fNWtBbUUXOYSleVIF3bu4BSU5v8OAVhlo3xK+3wv4eL+CN5P+ukP4rmng50d76LTSmymb8d3RGgQ700tLblzj9wUtR5/K75H3U1e12KMIyP6XZ/VZhBFAXlTvuROs6mQy+q5t020neF/Es/G3ZPyRc3m3bTPT6abBI8O9dY4Ky3jXx+NaBBxVicN17bt7cNNrWbeq2XXhAazbsUAye5ECVmqBc615pxJsXIihvT3zGyCa5qHCFfqU5zpDVyT4d92anUz4yIXgjdOmWiUNobVxuG9RR1fNFu0C3Q4iQ1UObDZa7jf6qM0kNdsYGoTLo0OR7Qr9VDify4ndf9U7tNTW363ogN5yCL9qgy90Yhawdf0xUhLL4QjNLT/wBFGZhv22eYz0860jGVFbaDjjx0GC+bcfNT3HJU0DEprN6iO2Gz34KK46xku9SqcdFjVibODsuPuhEHoVe1wRbs13H3Vm+YU6T8Anvub3uonNk8OtOH7oEItDR3rokvtGxG0cDrfiGmRBzEu9Tk3BtXfcC7Xbts8xiFbExpbF3FPg6jhayKE66uWWgYj6J0qWTvRN95RhTkJzReZuREiQRvTniRcSEJSfTfgU21qGYOGSmC5xstHmU94yG9Se/MaLdHVC5r8puPyTIT2ZX96JeCLhgryDtKZWNyiE0c5HruLu+iDbqLrG4K+Kets7m/X4nO6zaRG3H5K3ucKOGR0zJfDNlxvGBTje4z8FaEjeNDhvTv2UXHWNkbk0fi3mqki7VIo645Ffw5165Zf99A8nvm6Hli3hu3JvKWh7DPIosvC5k12HeSlwUlNS12d/ureq7a9dHOzFxbhuTrM2mUr+CJNlxtZFTbwkfBWB6/ceYdbGw7a3HPoBylfUKWyiL0EHTncL1RNZObS52CtPtRKDqjJNeaDvz0z9k+Vm1TzViIPxCSfDDbJlMyJT27QteR9kzlAI8RiiHAOwFDmFzZTHDV2vDQYpkLkIY0TqaDL3X8UZ/0m/7n2+MHG2KO9Va+e7SIm4rG45ojaEt+GkuuE0WGw+m84fRCdT4IBUsP1mG4/vyKMEyNQbnfI7+g7kjrbNk7TMEzlbJ3g+IUpjqnFGGebd3KaEMydQG44Ka5s2m0E/ArnReJ4rmo1sVpXvQI3FRA63Zm0TG9GJKhAxnT7lOhX8M6yf5Z2TluPRyojiFYK1S3EmvBDSCLDu7eFZdLSyE2ZqVLur4L+JhUxq3irTWjrC9Y3HNOfK06ctNvgrN2gQ9Z/gnco1n6sPs4u4qVBQfHIBewa2IzHug8aZoO2aIw8JehQcJyVhgdmjferMobzTqnLdoDk23zMS5+yc93FOgusz4HMIp5ROKPJon4X+uBQe2q5wU2hci5tRIihXOCRRhFzXTcBdKqPKCMGjxKaMAg3cnkbJA6pOSsCX3QRAWuEwUeTGy6rDsv+R6TX3hFuzreqluUtHOGXnkhDxnO+egdbxyVrGctFn7M47PsrJ5xt3WHzQcKK1dRwwVZYou2vBAaBCZXad+6I8odzkTZwGf09fuRnzkLa6zMHfVT3EXjEaJ6J3qy6I3J590XNDckG1KY+tEHfZuNeqc9ykueYW44HIr+KZzbjKLDunj+8UYeq4SPkdIeucFknWZ5jP3U0/niW3ACYOKc6mxvvKDKDRgBaccAutFqcG4D7uHggiYKdybN0LzZ9ED0g68TTTszaokPeN3srM7jNWr1SRE8tAGKcbmn0TspLnKO2sd6MJ027Jv3ImpMuClps1x9F/EvtO2GXDtHHu+6Njaw1InaHzzToJsxRZODuq7oc2+1hEofzBAi9c++QwvUM9UIMzluKlJsTud76JRaUtifeFP7ONXJ37xRgGtW4O+RVFzxI6ov37kBs0IuVob8Vrv4j0UtD+UbOqzt+ybAFL8TifvVk2oVM2dU8MlWydR2R+A197QUzAuHev8AzCmC+buJQbcJaQdxwKwf44FdnwTh1T6ouwQh8UY5LW3dZ3yCDBIUA+6iIJOEwnQ6wTMf23fIqtlwLHZORXONLXVBUQXEOHgVzQM9p2iY0Ph3GmRuTorw50tW6SDr6rnGuhOrSh3YeCiDqzXNtA8eOiy8fi+SsuO9GIZMaXny8V1oxtHsjZHupffGxRJwmns/lm0Oy73UqOaWHfd43fGmiy40yNyLjJrLZ/Dd4qKeqB3pz9t1Mm+6DBICQH3hsWjmh3FS/lOLNx1m+6iwttlO03WHumuuPSlok5p3y8VZJHf4oJrVzmtlhlxQjvDTUNqUGCTQAN3/AAE0x1RNh/CflcozLi2IN+qfZObtw3t7pjyTXXOHwWzlOZyFVFdsslvfTyvU/wCa4v3XNQZQCQ+/Qo20wH1Teo97O+Y81GFz2O4iz6LlA/ph3B3uoovgv8inf2on+Kd/bif4lPpNjmzpM0WbqrnCxrTJ2d9E3rPe7y9FChbLBxvKa82qtOYxQh3fU/8ACw4m0xp7lD6tpnBxTsIx72gqN/cb/h9VH7bP8T7qL/cb/h9U/GL4NCs3uc7imYifGqay4Ad3/EB4INxTxQEEb70Ie9xvP/7VkoY6w9UMGuPcnf2z5KJ2B/l9FF7Lf8voonYH+X0TuwfEIYhw7kHXH/hJJo38Ko4N8UzrF/n8kImw8+KLL7f+S/8AU81LrxB4+yfhEn4FRB2T5LtMI4VUN9zu67/gWsvNcsU52yzvdRRHbT5bm+6ZjrcTNNbdIIIIJpNmdQgggmpuBLVvmhjT7+1l/gnuu1RvvQxm8ru0gGhk7den3RGTGePgsRVTTX8c8U9t2uN9Cp7jkg68TT4ew/8ASahEfzGS/E2o902IJtIP3wDZFs7rvFc+Jl1OyKfVBlwTrQe3gRu6NppleqBB9biLj0QO/SW3eGCFztU/ewy9Oddq+qlu/eaYd6YVkfmn5tHcp7Ti7/UeSa24S0gp7LiHcfcKW20t33hMjCY7iFYo/udgfZDRiJsdm2iiQtsc4M23+CZHE2mfqO77w1lMclzmNMlJBpJGPRJtT7XRde01GGanpL4tbmXcSrNSp6AxpJE06FVus3s49ybFGr4Yj7xOjK/iwCr2nqwJnvVup8NOIQdQ0Prw0ENJyCdDNuZPaGYVoAjHTNWTMap/eCL5h7e/ApnaPiofad4phuc7xmni4h3kpGZBhu7Q9x80WUjXf3B8wrVRUfdJXp0XYo3teyDffHoh6siU56SAZK0J56Kyl0J3V0WpbtPONLc1ZAGSraabLs/dWjYfqv8AJ3D7pgP+k2HtOJOQTolBOz+8UTTyFAOKENc4dzfVS0GcgjFh0MiUYk2uEpIsNh3ccxo5ozGwf9VaZLsGXtpHHhVCGLRCiG6TfP6Keq/G4okt7HzUrpjgSorcbX5kH6pFl3qg/Z1T/qe5ROSOkLsWYHe0pscTb3jEfchDEynR6vo3BnvplhNWlJBwmE9tQbQyUxlpF3SMQ7Um5BBlBTTrQvzdEPv/AOkWGxEN+y/Pcd/3KQ3m5WNUeOSF5puxPFT/AAhBqtUb3lWdNl3EKVpuR8joLmTHVrvlirFQbTcvZB4zDvNcw8ubsEVGSOAn6K1t13CgTRuQPeuwZbkW3iU1z8KTrxSfDFCVdoGR022goPEnD3CfyV9sHvwcMnK2Aeaf5JjqbJydT44hCZRim2/9Lez9elboVJS79BOBGgAl2J0FsjhjoI3q0NNqhQZcp9EOnuQeJFFp5uJ+l2e47/uNqbu5vurTi4ngEG6JqXQlZO+Sk9u+ekOM2mwTheFzTbM56C267L2U9JQLCDebkWgk0tGiAdE/N8l3BGNubnnwVmQGHkpqYIUVlxtAf5fVCOCDeLwix1gmbXXTwOXxbImbgjHdbdcNgfPTNOH9RyLbza0gzGXwecG8UPSkpdCtrMaA6YROo69uPaHxp7InJONCJZmeCBo27PDQemHiRQhmcyctysy3rMeFUHXKSJv6TAZ2aoCp/wC0X6z6WqyTG1lM+KsieSsN/E5SI0UmtcHGs94U4kPvPgPr8XnnWOo3a3nLpy0Cc8elaLh2dIHf0p6NaXgg2+icKizYxM8EIlRoqpXLnBvF/wASy0nIKQCNBmdEugGI9nzT+yPH6KdLjpDxIqJDu12+am4SaQZqejm9VtX+ijf3D4CSijsnxUSIbJkw/l+qfjEPcAj/AHHeSaDaM3HfXTMcU6essVbpgr11s/RNfFiVE2ACXxLA9OKs99TpiPMgbLc8VYEtJN2GmiJbW/SHiYRYXzxdMdGfRmpK1egymCpSiDtoud3qnDRzThEwFHDcp1+HMSzU5jFtCtXeqInrVxXa8dJMi28KILwnHFTdd0QrMuIVgE5J0TWzqSmAWnm/BTpDb4D9hOBtxDXAZdKejAf9KS5w2B+r2XNMJxw4p/JniMKy294N6EQBwqHCY+Hafubdx+JLSGTl1q6BdjomjIyvXNtrfj0HEapkrAkp6Jb0cdM9FmcI4Vb+X6fDnRviofJ9W84oPbMYhTAQduOafuKsCXQabwE1twlolompK007q+C+zKkAFDnOw2fBAbgg6oqOhLcuy0u33K0SCLJAnfNc5uCayk5IuoKeqsBEuYAJyqg4blYnByq38p9vhWGk5Iyreanv0TElYpU8dIb39IlxGDegVZtEmZcf+tElPoMh0nM5CpU66GuuKtG02jh59JxN0gi2TxeyvEYhB7Q4XH4PVGPojsM8cgpLVI/EehKgqfROLqmY6NlTqVBZS1PhVQsnf4qC6hm3iJKYpUFW4fEJkIC1fK7FB4BFxVprhmCubkeo6/cc/foF4pgZyzUU0ozhrFGGJ53k3o5qdMSpaLipOIzr7rmy1/YPlip/BtvazAax+XSM9yGiegPnLqmR01l0Rn0mM2WgaW5D4ElK3D7NRwP1+DK07D5BWhb7WiTScyTpwF/ouboKkosbW839G0eCc99ieq3DNZIDep3IwT+HrD5rV4LXO8L7OWLKd2gsJkLTX+RKk1oxAGkuo3vOSDOOZvRldOtU+LcLIQHWdPOafD6xI80QJ7QzxQeMwVzbmHfZPfotQpYwzZ8Pp8CStTf2j5YK3epBOvdjhl0JVvKBnuRBdkdFhzndqVNNSc02ELTzZCgO64TYY1ddxuAUSP8AzHmXZbQJmScyrHOb3qMy+TuIl6J39sf5fRB7rDxYJuxBU9JixZDZh37zlotXOIRnu02hQlvDofbcWfP4Flh308Va1cKe6sgDILnDZHeVc0fsaSZgCbyfBWKmrtGVfRAOk6mmnefVa3OdzuGay025rVbwU5eCMM2m35YFNjXarsWnoW6C4Xn5KXSMOrDTJEFze8BTadxBVpo8FKI9vaAd8vgSZLF1PFSEstOtZ/Y6JbEccHevTtxmtNzWT0cAmZz4AlMH1BTTcQVNDBESwIIVE1t50CHdig+o0kCgmVGbe0OG6/S4mbXlu68JwbrSnuQ/ibOJhn1+BqD8zfVTexdUXnyQhhWjM4+Q6Nrc3zP0U6Nom2fVUkcKaGwiQXAVmO9Wrqrm9YXdYfPQ1tJzOQqfJRn7MF3F0m/VPhixEEnCudCrNmhdM4JppccjQq27Vv8ATQGVcZIRqMP0ClRSInOzuzQ6rpd65wTP/fRsvb+b1VtpGYUQEiyU6DEa8iYkQZJsXZ7xiOnaisb2QXaC430y0S7/AIclKIx2Ys9+CiRav+ybl1vYKDCuYCczU+alohRL2NPcpfynEfhdUe6LXWXiw4Yey597WDAzceGCpK5Nh12jmU1lCZT0WHO7Lq9/wMFLlNvsvDfkfgThndXwKLomr1RflNBnzKEQ33XD59G0CM080QF6lTFWdHORTwC5vZ8M1aHFOjgOiOkzBrcRvKhwdhobonKIBMsvGbUHj0IQibevvKc/+U0S7Vze7NPhVe2mYr9UeUPJ6o9PqrDd50TU8FZ6P2g8fDQGkkmQUK6vgrBERpu2uHTnEiHKQ0WaATJ6BbhMblPQ8bAB4p/Wl3aQgplXbnNI8em1zWiWs52qcW5oQ6DS19CJqWmTTpa8zN+aLItl2y8avFSGisTc9TA6cwVJhOZ+itGwML14+iNQeqZT6ElPRabPEabUzmVJShg8SrMNg/D0GkzaTDJyu8F23l4yoB3yUlZFkbT/ACGasmwepXjlpAQOjvT+yPFHsHyR7DvIKzNzyJ+QCAGeS5zWN/orRfxXOsacZVU4TOHpTpGIXkuMi40H3DnHsZmZng3p60Hi70VlBA6Dof1ZSUxrSQDg3E6Qe5U0TMQ9olThs/KOnRCGyTjLHirWucVZVgbzfpc42GmWZT4eLuM5qoDvFTUlZMsDcrLHHdoLtUT1r5ZYoxSBIhjb50nLD4H2xn2RL5rm3sdnqn5KSwuUtkV8069ykrI3mqnpDrTjssoOOak1u+qxHgqu/MVqy/EfVfZ8C716Wp49GWmXSZCvNchUp/KBNkN0jcXSA91zMyavdefkOmXw5jahm0O5B4mMdFekLVrGUtDmibW2ty5wTqNxVFJjju0Tgw+HToVOGx2Q9V9mz8oVpXsPV9Dp1zwCmsq7lhipq0JI827ROI85NA8fgti7QmobYUSyNayampVoA5gK3gg3cg1c7+XLPovJk7Z9Vdo13+PiqPJwcV9mN8z4no0K+zCDamml7jtyG5SEibWg4GXmEHSnWXRojEMjtPfI95VhoaLgJfB5lr40J5hyqW9Up8V1h0rpzClo5y1SVlxHh8Cq1H/lKoOC+xZw+BbhyzC+zAN7Zt8NF7u16aKkK54vF/BWtGKczG0N9D4oYzCbGaROYKMM2Th5ha8Tg35/B7ILvTxUR8xJrQc6otAExTcnDrN8PqohxHcrF4PG/wA1ITvmg0Vosh3mn1XOT/DldpmNEnzzHojFttuZa1j3XKXRoVqBF1gYWq6HdUjvUTrWe7Q8mbqDsoC9TuRMUnACSsi6ac69sgpOa3Fykg2NBiYc4LXyPwpcncO2QPNT5x/Bo7r9Nlzndr1+BVWGWes+g0fYw+HwNXgSrLn/AIqq1tTvNENBvF481aUqslwT+x/snOvpwUOHU+aZgD4JrTrNc3fJMjjPIhcxFrsubKe/D4Fp1nC8+yJmIbZy6xo0KJEfZbEnLaLaAblIAX8Ving6spKZsuFk+qsaze8ZrXxIkLKix/wNzxQhiQ0006jzm8+XTkOBPr0w69S6AtWsZSU1OhU9R+2P9hn8E8oisgM6us7dP6IQWhowQnZxv0y6ANdEtH236FQ8FKGz8o+BIxB+KfirT/y3+yvkJp4OYyXOXf8AWjFtD5FWdoWd+HimdoeKnsNJ33BEaziTmRhwUMZn/JOi0smzjaToBtQyeCHKBI39YItPNurKrTmPp0pIku5sWrUtbAd6e8WSbLew35lWMJaJKap6cVZC8j0Z6JDvVmAz8Wt49Oy+IN8/FT0SBRc0HEhOvdecMtIBkZj0U+jNWrqEXHEIs1Y1Mn9U+yn0q2WVdjk3ig2Z6zquOegtc95vddwCMta89A2iSZ5BFnULuC5wTkW7jottsgyu0faB2BbJUl2iB4qXwLMX87fNq5hshtH9zU2tniFKIcr1zLrWGKnoA9l+GSl0a2m6rhj7oSBOpEZUb+B3oPxkONUw3THByMPa1m9rEcQoYE7bZcVa/ltLt5o1OifzHWvwijfqpqWkm6c+Cd+HzWJ1j5DQ4UpMXhA36p04Iu2aDPNG8Ez4oxoU8fZCy2V0hLp2HNfgdU/JSUhO9TUtAYQDj4fCnejDrCcWbr2+HsomMO2M2H5FMxbEH6CoeTz+gpztmE7i7V+qixdt9kdln/5IMEgJBS79FdEtAa4NN7rlJT3aJKejY/MrcWGMtbw+DbdD3TKtxX/hA81qN4KrT3LVK1W8FZaTkpbNTiU5xtOU1ImRlYGGatNBzGkNqTJNyJHCipQUTT1QmE7N6DbmgKoGatTBvahknDZd3FYO1T69IP8AfFOwfTeiwSNUG8VNWKeG8Kao5uR9VOEz8vT5xjm5hc438TaO6M+gSa0Hqp9BxGrQqwL55nRzc5GhM5ZdB7atFrMYoPEwre6Rmi8mlBiqyOKmJTI4Kx1nO410c8JXEXHIogCd+nyRlvVgbzU8VsDfPwCmXv8A0ju+DKyd8vFfaO/EB5KU2ZVHBTA4hVDTnpAw0SU2k9qZ8blZa0ZAaXE1Y9z+F3fdJOdWIadgfM6JMdwUnQ/3ho1md6lEO9um1erNL9Mr6emmWik9E2949dExEfmV9k3v9T8DmIpIxrxGPggai4/AazaMlPdpDDObvH4cla3S0Nc6wNbeLtEtJOmStlz+5n73rmmNbkPg2mO8u5c5ZcDL6rmN7nImbHZTBQitr/0VEhYW99xR/tu8l+A+SD7lMEJ0xalZb5yu0g3iQzQ0lzSMwiXTIlZ9dFLXZM1OIPylAY9Ka5v8vp0KS0TIbvqpDeaBCHCY0VzX2Te/1+BNtoXsr3YhSNnqu1mfMdAWyy438VJB1xnoDpTF13TIiNbgQekbBkpAIHSGbIloa4zMzuJposSyLpePQ582W7GJ7X0XORGt6sOp44fDfAAcw6pOtumpm0TNTkRe1Sr1T5K0s1ZXNP8Awuv3FT0DPRaq0yJvyVlrQTMjoBgUwZnFNIlegwzCsGe0044hFmyZjIq2Ac9E9MxLNAC+5NWSJ0bX5k7lL9X+n6p90gwYmcygwAC4fB5l0uybbOGIU9IeWm4t0Btwl0Q2+mHQm9jspzRlq3q0LpHIo2myuxQ6EghEE1NTVg0J4aJLnGkZoyE75V0W/s2GnXd8h80GC1gLlzcOZ2n6x+GIjS09YKU2G9hkVJc2fwu8j9VZ2ajL2QcgVIFSA4Jrbx3lN3dwWqJ6LGE1mPmp6LeKsiXQZfZCkpXqEDITPkPEp7sGjvn6J/aHh9U9t7p90lWegJvVBd6IPNmRacFZtfmp5LmIYHWNXcT8MPaM7Qkcp9CfRBuI0c4wgX4cQpG04knjTol/WLeCkJTnxUkWCYE1aAOegRBMcPBCGKXXoOMgD4ackXXqScaQpAdo/IKI/ae4+Q8lNc/EA6kKp3nAfF5t4i4O1X/I6LQkcUWGye49r6oOvTBWdngZKE69z5b5yRFRrBTUtIfQreVLQ1lBrHdh3rnp0lZ77+iIYm4yCPKKDVZ6oIwnWZ6pu3HRPROimebwFXeyAX2rJY/Jc7EtHZhnxdh4fEmyYvaQ7wVoTzU9EuhOiay4SRa6HLF1dMkH1FVJGJhq56Ay8yRLCWGu5Wmg5jQ+y4NGF6+yZpkrWm2eab+v5BHholJjKvfQe6EBgaO85n4oeC03FFhMN17bt7cDoEQSKii42h4FF20fBNR5M6R2HeR0PLiGGyBTOac0yi3HrD5o4FToaHLTMFOuJAG69CEJD/voNgtJOCdF1n9w7I0EVIMlrM46GgVvRN31Q5O3Nx2WrxNTom8bgV9lPtOJ+K6ATIWoZyvb9FDb1x33+CdyijNVmeaiQ6h7v3uXONnlf0QXSxHQDbsegHUImmwjqzAywRaNUTOS52dC1wvBU1zTQ2c5aZ008y2eOAzKs1NXOq471NBgmbgiPtX7b7h2W/H5wTbtsu37lbE/EZHoh1CuZqDq4jcvtTltIAKTGzyCt3bQuVodELcu5HlBnWwMe0fZFxstEz+702DVxm70U6AKyTIXotvYe6qYL7f+JU/5TJfid7KsybTjif3dokrVt/cO5WIbB+H438S2Y/mM2fZWr9WV4xBTcl/Dvne03rEGY6AtWsdAz6BtbpdOyJ5K0aMdxVnTKpMgL1z7rXVGwPmpaP4p1t38pmyO2c+H3EsPOsE+23PfxQeJi7RJT0Toplu6bSqsb2j5BGG2Tdp125PbSJrDPJO5PrtFpjtoZHNMN4LfP0UP8Xgmfi8FCszt+/gmYWnd3unu2WgeaL6vJKJ+zbj5DNN5O3LM5p7v5baZux7lHN7pcAov9zyCiH+ofRRW42uKnUjm3Z4FYGh/dys1KLmmNF1WNE2s7WRKoxvaI87/ALgT9rD2xeO2PdWq6HQTNhplgmna1PTQUdJbonokstBU9MlaKChw+tM5CpTo21Rg6nupKSPLKnVgecT/APqg0SFAPuRhExIYmDts+Y3oPEx0bL/zVHEKtt1JCQCmbbrzcMgmvwlwVmcJ1Wkavt3KU2kVbjmMCskdA4rIeCddifLeU3kzZ+JxJTuUG0+gwb770G4IG9NQ0hkg6rT4hBrw5451o2d2+WKEcBjJy65IldgvtGE7z9xM+chCvWb2t/FBwponcnw6tJZwu8Lk5v8AMbP8TfZQouy4fPwTW1NAnRTZg6oxeozbopPFFplFH6h81ijmp/AiRYji1xa24EHJZuc/iVJTQhiZonco1oosw8IeLvzeyl90INuFR3Wbg76oP3OF7TeNMlavTRiSd+m0N4qOK5wB42m4eoTX1kmoZlNClqtq704oQwSTvJRjm06jRst+Z6boxswxaOJ6reJTYNTrvN7j8kWGcOrewfkgP6Tp71Zm520fIZfcrevC1X4jqv4796rZIsPF7TpacE04JuSyQU1F5PsHV7JqFDNIjTCP+vimPuNobigmtUJtGtc/hcmf2n+Sh4hze72UPC0e5PjX6jcsTxKyU0Ai42GC2/IYcTggw24uvEw7LOA+f3dsWuy4XOF6fB/mCY7Yu7xgp3dCSOgMda6p2vdc3rdU7W7foKMSje92H1TYI9TiVzh1tkXN99BR0gUvJuAqSokWsT7NvZG0eJwTYQstFkD7uzlA1hUXOxCi8mv+1Z2htDiEHXGfwAUBdNvAyUXCM9RMXF096OSOSzUlNSUvbEqJG2vsmf7n2TIAssEvU8fvTTVn2bt1x4hOhbQ7xcg64z6XN0Ox6buCc24izkcF2jTK4IXQxP8A9oWLjaPpw6IHE4YqLFv+yb4u9gmcn2RXFxqT3/e4cWsrDu02n0UWHhzozbR3hcmmlqycnapTlL4RQCtbItywbVRom0RBG7Wd7KHA2RXFxq49/wB+hxKykc20KiM2Xh+51/iEYf8AMY5m/ab4hMfsuHiiNLod2sMJ3hc4ZvuFzcOg1t7gO9Oi7DHP3ykPEp7v5jrI7LfdQ4Oy0TzvPj9/bEo5odxTOo50PgaeBUbNkTjqn5qK2+E79MnfVAXzb+YEJpucPHoDMeKZ2p7m63onnYgxD3WR5qO6+xD/ANj7Jn9RzonkPAJsMSa0NG7/AIOFE2obT3KH1XPZwd7zT8I3+TQfZRu1DPcQuUf+V5rlOcL/AGUXGIwcGk/NHGKe4Ae6hdYvfxcflJQYezDaO7/hgVBdfCYf0hcmP9Iea5N/b/2d7rkw/p+Z91AbdCZ4JrbmgcB/zgQQ/wDl1//EADcQAAIBAwIFAwMDAwQABwAAAAABEQIQISAxEjBBUWEiQHEDgZEyUKFCUrETYMHRI2JwcoKS4f/aAAgBAhADPwL/AHHNkIVp5/fVPslUnp7EaJ5udMewzCO1mMUQzMCQqul12F29hF5dpEtuX2MWjoTaNM3ccySpHcTvBFmrTzY5SjwTynyMzzMmbYPnkTy5ehcUzox7Cb9dL0+l6Fp68xvbTE6uGdM6ovJDFUNacGLwJ2jkYs5eqEVVHlXXa0ueTmzfXTjRBPIjTjTgxaaSHzJHbxoxaLTz50Yu1sJC68mCel4fM4tmRqUcyd7z+rk1cmHpnAljTlctEWwdbvoPrZRfuxInmycMIVkiTBi8kcjFsGIs1sSVK82nlyRoQrSPpfHM662ip2W7OxPL66UrN7XfRj682NEaMT+0PRFKtBHRE2nmSRZe27DVp9q9T/akIXs0I8D/ALTwL2k+z7FVW94EJlL8FdJ3J5sXZ6Wd9D6nnlwVVFK1O9NRVRsd+XFmzhxaKXdtEKRvlwcTli5cknR8mNHE5KUTaXbC5kmLwQKrkUnVErkTeCFZZG9jhUIhHpMZESRrhHV7C0SQJqyIFo4qcnDVy8mEdGLuKIVpJUXinkS9M6XbOiCfUY1ZvgyYJWhnCr9ORLIEJiOHYySIR20q08qD1aoJ3EhPK04v6SajwKztNWt2XU7EL2qe4kTpwRbN+hD0yMd3SSjOnHtsEMjTGdKFo72zyIMciXeCdWLTSrRecWaGs6nbPLnQx3SJtm+NGTEW76GiTtpi0InlonVBOxGjOnqOnYlwzGmSOfOha3bvyotSKrJUMS3F0JI5/XXFs82SLOkVRJBBNuF6J9pPNki0VHChPpaCRew7e4aG8PQ1bHsJs/br3KEL9qehr9n7HfkMa3/Y2yLNIlJk/tkqDgpydnrn9jxg+oPrZTNpEtEe/gl8qbo6fscaoZGhL386HU83VVkrR+x4wZ9hj32dWP2fIqdEkftEErk5j9l6EC0O/wD4i9xHNyTfwSJWc+P2bqRpTtTGjOjHvpIvKIsrInAl+ySRyOHnyR7fsRecMYqbz+zqzKx2S/8ARP8A/9oACAEDEAM/Av8AccDiYKn0/I6hk9YOF5yjh+HZrm/wcXQ4bx7GR0Vd0/8AJO/4I8Wwd9iTuKIt+Oan9P8Azb0/f2XpkxJw/Lt5ENZX4JHVaThKv7h9av4I5UW4PhlJxE3jf8Wgnflrhz3EcTPJw24rIQx9ySDMb+DqvuuRCn8X4fIrRan4ZxE2k4p8dTgt11NmMkbfcjtbjIXlnClqySjMvLNic7apZNvtaZ8LViLYrIPQ78L04JpFEu3wdtcWXcyKMHEn41RT/wC7RgifN3xId4HQ5/Ih1Wg4qZ/t0SLYghd2Tgez/NpJEt6inudiDG9smJt/+mXHM76EyN9Mx4Jx308fDHTcySyavizTXY69BvbCu6RfUXm0246B0Z3joL6mxDp0ZRD7jqJJI82m1NJ4EKrbTCv6nfJT9PB2pf4JIG/6iN3MnClT208Lsup5simh4W5K++jJn7aItk4VHfRwnEtP8Gxm/qR6sWdNUPE/pZKIJfJk4VJT5/Bgap/W86MmxNnElNa2g4HH4tMfGnCt4RT2vsZV8o6kIX1FnpZ9OTI095MGROl5PStGUcVN5Sa7EEsg4iL97OdWb5MfJg4duX3wJvBBLln2IxvpnHdGbOj4J8EE6cMUedct3Zx//FDRnsbrQlZztfsh1HDsN734m3p/g62UeexBxS7si2dcLTwv53I+HszJA4OK+NHDuKzfW0L51QyURr7k8iX8ap9L+x2VnUoFt/JEngVQjxbuR5kgiPLOE4nr6fg4hq7dlddRdLsgjHI4o7oXy/5Et8EE3yerhv2ckoxnocXJnDt25UWjkwdH+Snf9QmJW9bfSnH3JcomJ3Q6tnjwKN257kCoHVy4EySodvIxjOEg7cx07EfqKK+pTBTT0vw/D3KadsjfjnQPrrS6nYdW79jV/cVdyruN+0fcq7lXcff2TYz/AMwv7jyP2/gT8DXO74Kaeg3aRoa6lVPkorE/0jp35s274EvIuOnGD+3+TtuIQuikbzwweCOTIqfLK29E5eyFV0Ex/Sfi1VHlFH1MMjKyuXI34QqTjlu01rwZdkmcbVKF9NYU+RKJ6k5RPIk4VFP3Y1p9L+SfBBlXSIP6lyZF9jtaKY8lTOFTaFaJgnAku51/gSXlmJ664MvBIz7E7jpwzh+5SUpbnG5tjOD4K1/STg4X88lLFpOJ/BxbboqfD5Yqdx1ep4S6dz/UqULBFb8szjoNbnD/AMDr9VVofzpz8EYW420mRsdziQ6W/kVSHS4GMkqS4/ONC+n9ROnE5P8AU+nPI3q/Bju7uXHQ4vXR9/kr24clXEqq1M/wPtJwQur6HC0+7t5Jrz0HVv8AYzHQw/GmF8n5IfwTZUL/AAZfkxvZC7EMj6dPxoVUR0I9ET/wcNT1YPTB4M2fFK/Sz/T+pH9LM+Felepj+tWuyMkfY/rW5xfJBKIbV5ggnqNeR0/9Hgf1N+hjJw4pKn1Kl1J3OhxUfF2SRP8ABs9eYPP2JPSVYh/YiHZLdnbJVXucOKRveoqpw8ruYJzs0NowRV839QuFi6VFQ2RujJw/T8vUxO1S2O5xVGORuZJ6cMdzu5G0z03bW4t7R/0f2f8A1K6scMHAjc/TfP2JRBFKfe0nBV8EpaYELePgVX9Io7CZw1HpenNv8DjbdW4oTzO5FXZGDfRhk9YJeDhyzi+wk4MH6b5OLAnjsKFT/bZUqXiDirbOLRIxidFMEChmdyD0/OvBxJ4IZ9jMZJcdEOnN5OBH6jIqvscOxxb22vlWitjRUOv9W3YXaDhzakVWNmKlJX4PgSXyPPm0qWbLXhjnK+5L/wCThexLfwTiMmcrAn0EuhxeGdH+qkdRCU9TELqPhj7kO2fjTlPvbKjqRjtdMg9VM9GZvxbbnfdEjqqg4ISJer+CDPF0RxU46lWR0k7ek/Pfwf5MzOBPwP6hwbnGhqT8kNnpnsidHQVahiVM09CKqX5JytnedjhpbrcPohMVah79Lr6K89ic36a4t0ZwuO+xVVshdfyQpnBJ5sqciezgnoR+mrbo/wDg7qCn5OJybLVxWqlwOj01LiSPpP8Aqg+n09R/bFP+R9SCSqns/kq6JIe+5NuFk8jpbvlCZPkTx2I2pwhVrbhHEJlXC5G1I3h4I6Xgl6oONWpr8Mf098kEnEQQcV/scKJ5U2gjcpe1oq33t36nA4f20RknkOnYVfh2mn4ONwcO1RBOSBxJkgVPljq5nR6GhdhK3ERveeW1vkoq/wCmU07Le072TebcLkb2xz3Sd0U1al8ngnnNdSofZD7Wb6+0fcq7j7j7+08Hg8e0R2O6F2KGdmOndc7v7pkjp+9u2CBdmU1bYHTvyp5f82kjkyU0+WTdqVBDUqJ6k0x22ZUR0KKvDIURsKrwdHlEbbciefxYI5EaIaZLwTutCWY2OtWJE9r452+mNHF860cRBLPg4bd1an6SzllVb/RCtxHCybSufBGuCHPfTIkp3txXk+4+xseDha83qf6oR5xeH8+ynTNL0ScKRiLcJJFsXmn4FV9tE42KulpWjPJS8j7Ce5jXh6Mq0Xpp8nEu9oEtsjbzalvchWRm84OG++qbQn8aPRzImp/YlWnqQRiyp6k2fcmokds246mu2nD1/wADq+NEYfIy9Er4Zi/FhkHTqeurTG5PUVKF1wSKn76cPXKI0ZRNpfJwcZB2GKnfiq+BVZXpZmevXRgX4M2Uzvoy75+eRxbj+R9hkWnTjTxRPQiomCSCfsQUvdlAvgppJ0UvxyP50xypvjSqTqcX2GQRNqZkRkxyc6Jxpm+129cvTDRNoOKGMgnNsebKIas10vFnL05RPKnVH31zjtZdxPZ/YdRBFqp8WkjLEyLx99eVIoM82CdcE3g44GsFXYfYnoKgq+p4RwjtHJjDvHQ8ciCDi5PCTaNU6EhPJPJ4cPKFVtpfc82i3bJPLg72kQhEisqdxvbHNga3yIT6q8CXU7Dq58DXkRQUdyjuLopKn4J9k+7H3f8Av/8A/8QALREBAAEDAwMDBAMBAQADAAAAAREAITFBUWFxgZEQobEgwdHwMOHxQFBgcID/2gAIAQEBAz8h/wDxQMTJrnDr8FaHEfP/AJ5uVseStjzU/wDjxPNEu+1WyNi53Rapfms2ckTN1vwRUUluBJdJD0yIUvzHqol+6xi/mp2iyNkeT/s0mWBRE7GHrFThLNC+4t717jX9pooCb1bRPUeJNZJzEe8+yswuCveD2pe1IfYrX3V96/U1/Tr+nW2dF+DQext+6sQ4ffhXvib2hTYXgK/e1T/2xSuUQsA1X2oElzepTlw3aZXSAHySV5rUHHkguqIxYhwbSijJIEvFfpKokjpPveoUx5unBl5oEJ7sz5rC2Kx2dThq5Rb7Dhc/NFhZh0dE+9KTDkMhhpoMDTye+V2q5QJO9MhBpJNDNjSxy0bytRs7a1NJLj8HCY/5rhEEnabVbJgWS21yeKe5OaTosH3qPjae8NPnhNpTTcqNZNClF4PeiixqIGrEWf1RkAloA9Gmrj2N2j5VXTT9PPo+iU5Vai2CX+u9FYCSSaNJK4Ru7rUCUwZgmjkhx/0pAztlotIcBvONNNagKTNI3B5dOL0SCTDcFl8OhtesAvM7Ek3jcp+0BZ2JoMyLW8vNQROzOFwbjaaZABpvycU5/OrkNXL6B+ClN3DtUWYGbl3dFEFqDdky2f1Q0iw7v3y8lTmGKMLI+5Qqbi3FRmhBeN83Vf7zFTAMrRdsadb1BEhAzMauOh/0MRGpLd80VZouYNi4SpVQmW93q0nbRLo0q+r/ADPzJ8R9GKSUWnObUB5Ca/19UgnJRdOsXe9Ri1Jm9DSTdi8mGrxfUid21Ti//OauXkNu1XRKAQIgYtkdaKRdCJk+dGr/ACpAEhk/b71HcDUS/F3lq3uu7xW8tSvXlL/g6FRhAswv5rYd/wDUpV4sMQxh+aZgkX0HVzxQyOiKdKlg0dqcZwlsWrqdSKwe+e1GNKbmJPOdNaZkSb+OaVlZqabO+xWBoO4VGd60Lc7Gp1M+FCaQSPX/AJ82cHTl6FIbQ/3HVrcU+HP3VPhqaisWDKv2QW3tH8i7FPAT4PWrfcZofRsNamajd16PtU4dFE5P+FCwH3oSSPpAzuG8cPevFMWEQO7zpWEWu/utDmJkXIak/fRUBuVy79OW7SMDoRTTLWuqCZmNGJyUMQZXh0y/DpShbQhuY01aJQpd1T+aDtVy+nPDaecVMGnJlzn2W5q6mxscH4M0u0iUt2HHE1IElQNVs1ngBFvNCs8B2RdzbVpPPMZ/wsVoJw6Dw+VWH2FIJW4P+qUAnKYm6HV81D0A2vnT/lW+zPwf4SoGTdLrutTWF/Y6JSRKGgt2aNDhejR9iZXQL1GJrD72x71aLGn1lOgUyD9CGMSWcRSFhMOA4jKDHHT1mmkLPNxw7nDTamq0t385f8He+JVhs/dPmt1i67Pf4qKIo1I6xznxSEhPPD7VlQ7496C5Akvw1RzrgqHtQQa8NjzSWj6K3tyNWzO7d+PmlvS2J1cEYoSLLoOhb3pu6Hi36/Na+FcRtd1U6RQ8hYuYY8571I7BI57QHxNJHKsHvr2mjsDQhVwYPLLQ72kLy7rzEFDRHnVV1e9gpGb+abtHfx0p2xic5Iz4WoUYZBWmwvwhV6Op0nrTRNGWFH9j2p6eQRSgWH/MxyKFIrw3kNR/41lbBlat8tFNgFL63C3y4aXy4R5r28AqNSNzQI9G45rtc9j6BkgKSJDjW9iOCktkIMA66v0Q6g8yPJSf2q6HYt9LeV3uJbdLRpB7CcHb5/z/AK+tCJm57RdjmrxEMxNBLx4AvViseIXe5oAF8Zt0nf5qIB0R8mtNHoiTy0+2lWOzPyT70iw9/wABUITJ5uwLq4KT2oDBWYTbFs0thRAvQXxLN6E3U3o9196+Rx8kq1AOkHtZRMAkWPemD8xP4BUxiwaPbZ2qZm7Wb1aMCS/TgoLR6o2DXQ2z0kJbcMRsdVq6U9SG8Kq3yPioy2WLnARJ1tWUGGOAyluxNLAEXnEF5pivLu8LB70WUWtIyjTY61JfcBnxapDjVbW+KxQJC3DGj/wriXD/ANJrRyBgKxAchSz0CQ8SPb0ZjYrMSXSSl7vrRyTWdH2abCQGcodY/uhEkcUZtMkJtV8NEwnUpQFF7Foi9/VQC7CmRxmqBteGc4vM06syJZ++9DkXN559IpRNTSiJCsoLtx0j9Nx0+606NDfSpJByY9SsVtuIT8R71fHkOjh7UsYbyB+fakJLHqPI08LONQYHJRSbn2hzGf5oL1ICWwqIoWETa3DWrIxsGpvgvpVhGSAU5S0frUK+26y/XakjjUbn611pMbC5B01mr6toze8C8WoxPaEjqAb3Kj0KTqW+DVC6orROtj8rTiyUAg1tUrER3UI+Tl6e/DWOTipwdBS0iKgYgkHI/fNFWpxZt/V9j3sI5C+71eu2tNVos2GnQ81P3C3OWvTFJBPug4N/assrYKvh7HilQIXD+y5fFcAl+tW/SgJZ33XPvUYi6A4+7FGsy/LL0g/xJocufN8jJDcZ/mvlrPl+05qyXb2eB5jPLU+q1UtpT2cvMGvd1qaWQ1lB6hQGVgmn9VByKXQ8VCg9zkdGiFM6pRsMJzW+fU4Q2SamkJuk97nqSL6Bqu1Kt3D52OAqAq/WzhNxqTtLAOTH6tUk8s31tCx4pYxCWbRN4qSLE2aiI6u2maXPbCZ0ThKipojyYmWM/hUptY5tzh/r+W2zzBbSMMHUKxEv5kHiMRRxExhL41CMsaURoVobjm12d7tQTzrF89qldOjgI6aFDBFloESUxkRRJGDNf1tVyQ8LY5cvtWghCHoNzBQMtH46d4/UNitST6PuPjWuO1lZU96Wo9ITS4rWmHbptJavei3NTAxVnBG0O/xUP74oLLeMo5mhGTAJrnBloWd2joCb+9dgBo26urtS25P2FEAhVJtb/KxGjq17UyYnBi5jstn+XBZ8ugcrV2ItvUfGTzU9D1i7gr2UR/iMmK2fNLT5odZ9IIzSjW1FDFoeoj5SPFCQXL96yDUtlQqeEPtHz660QsyOPsFDtCg9f4kK1lfBSL992DicHLTpr1ec/LsVcGR1QyvehpQnDE5rAizk4tEuzJUoLYaspE7FSzkYvOjXgq782yPveOtJKnAfapjJLDltpKhA6I2BkaZGLayiGMbnAtL0lexUW29YvSWt61uVrQc1/oUuzbcvR91/UG9WMfMvLWauEI671E3DWimE5bN7h5qAXn02fwikCGYNJqe7GrMcFMLPbO/64rOBd1uKhtFgy0EYiLd2LfoaWZIOoP5I8wQdGexloBvlvGXmo9RlcSGnUvMdl6hMxK/cVMSLSdPTIYstIB9/WKGLvakSwGdA71lMHXPq4qUmbXuVjHjX6EHMCpFuDQ5o3qQbz7UQsId/8HrNQj9IO+O9SNl/Z+fP8Mkb0akZ+UL7rtS1QPDgkd2zTvVtxSsGn40OlTlJHkqPBkFC+LXabWK9kdySrkq2AGoOX4NMTdIVDmZdLNFQUt46dWi7s9kzSyHCCXtSKsrTSS6tZ07V/ZWxSrVRTWQqG75MahmjaAR1dXzQWWokSRbm5G61aAsxGjD3ipxWcmzSzW7Zs5qYQ2bz3nV6UreFDgjP5plE9hx6xg81NOW+vr+7FEWxHiubi6xajio2H7P8YnosbrYPNI3udbj7EpP1QaGXMYO7SMFzpsehzBubj0BLTl49ObN8Xiueo6WPmiox6ab0z8qsOPvQZPVhVeQXk3QcvxWTDuNZJDdsV+FR+zarF/pPWoHrJNJXcH2OHSfmtENmxYdn+HgyWUB05XXSm0WhWvbDohNsUyjDKLF2N2K1AJu+DmtXTE78FKLxxkDZcHOauzw4HQiJvqzahizQZSSS1hF6eA70MlHZB9596lqaBP8AqrJZU08I0mA963LXOjRa5KTNaft5EzJyVOkdA7P90OzVObzaPvWsQb/eiVmEOLn7UJcYHX2q9LXV4zeJuTeNKXBptgG7d4ptonkDQlb9mrreBx0HVdWokR8jrVxbGauuEZdajliLYP0D/HtJ4rHzep8AUlfU/XYc7B/hXIAWNYYvcek+kJpc+pF4DVcVd4IKwEA3Xo/DD5p+a/OvhB8jWtH/AAIPqkjQZ11PQCJI1NpqL5w/akGUd75sVHogPSCRTeDQMtdwq1+6Leypl9pGHcv2/g3Fg56uxQaGHbBy2nqo2KiQaxMxKShlON4AH3psJVg06rtTs7ph0Au0gxpqJfbpWSvBVtgAp50uE4XhpQvYhC6KH2dee6kD94qaDL2KVL6JvGgpbQFC17q+FTl+H3p0mPxNbz1EUOs0jOSbTaahGcJdt5+2lXavJRSkjK5kwdN6B8KHBpU3RDtBeatHEkxca61CJJdrGEcvw2rFMSdNkpbjOtW3JKjxtFxFzSugphGdTvmpyz5PV3If4uBP2dlWi4Vwx8P1gbrju+yyKUI2KAHCkjdCbuCeBisbvSLtgpKZCzh+91pO60dgj2UM+1q5Hegx5UNmpzLtWQ7kvuuUseyLPVfbPoVdx39JtHNXInDiTR8ek1cT8aGjx/dcjd9be2PJ8X0FgCPRpabwvQZe1T9SlrNaHZmYUq1oJ1NrVaGVlJuq1hG5m4al40OaAnLpteJV7BQdb3oA7m+RpWX3UWOx7tMW7Z4vUGzBTnQKuxawZ8oLRz7UyIXQuT9np0tPTFswb/1UoYs/dftmswtmx6FCmv60KxmftjTNzH8LX79msRSWDwvQZfqzg0IvTsp52ajP2A649jUhwR8EfFGWY0dh75qZ3q6By0oiEBaQfKeKEhhHWo4o+T+KA1UOkqc5bHG/Zq456fipoaUHGEWLpeBoFmywpbX7UHc1932aCJhJPr3UcdWx81y79YPkvT3oYqSd/oQcolMwrlMrfFbjeb1bIOL3/qjpllYleO1S/RdYeIaX2PmpcKEjBRNvoij+9ZOz9x3pc9h0TR4e+aSTKDk6OPUYQatihCTCMnpPrHqt4OJZj1Rog8iH4qVw96vj6zIZIiMwuvShEg4q3rPXI6VO8sR7HS571fMQtrHwSSlCmTcwvacN71bTiOX7fKgSZblxkv3WpunEsw7xPb3oe6QNxT4oCYF6YBAnb9azYu0U/NJYC72P7p6T9DXYoTmu8T0RUXG0n3u7xXGWD4eoIQTZvSfqJpZ7lbCyCxwYdL8UgsHs0ynUHy5PQRgg2GrUBiQSFO5n4Uks5btSOY82oE2jsj8lRqqFsMB0GntExFkzG16ZWM5iB7blRWRhot8ou2F+aaxvNl5FBBgsfXOwb0ufFWHXOE/igkhAEJN108s7n7JQAwIO1Mb9sxaNpMJzZ3owoT6ARuNKacGNwvk2pJVED3F1faoN2rGedeCgqBAOCpXWovY6rD5qLUGMR81LuVNYTqYr+urMuieoie1I7udhMJSFkSHOvqiQmETKLiUpYRs6lt21GbFWmrYvgffpUO6fZ+iN7L7Cr7b9B+R+shqae4+zSQS5eJL71k0RXGM+9H2XoINzvgC0gWzDsHLhrNM4AaH7eg61I4+5lpkZYlYKwraY4f4pcutRUrcbQ/vSnwh55MPXWrfOY/dov0oO4LdlfZQ+qcu6/wACrpkcDXYHv1zqxJdh+w1e11661yGTa8+cd6IiIWNHg2CpTWE4aQ5QPQQ/FIdhczc+5Txi5anYraKXIzxap+KhIzm35HG/6U2m40aMo8Ga44f4P0WQ+9TsvqC5UdCtNwU9/wAUB5KMHTPqblDPE1IUDJJHwclWP8U/Z6yrCz7xj2JaYLv0NT2rIHZ9yokfpdKy7kK8kPvSuxon2rvFGeP98PyekJ1KXNieif3KZmlz0bCO1sLSyGxCo0sH3+aXlk4WttUQKbBkg6bs+e9BDAigMGA/fb1lP90/dUulvLn4X6zMEHBD71M5C3cduilwR+6wbHmv3Kj+IqQ3pl6/QufaoNuth1+C3mlrhyGzO48NhnXajsNtEavGxihsm0muuKG3O0aQ2QkojFXQAhoNHcx2pgqPO07mRoFX6gWnQwfxQhEY/uJnmo5gnm5RaUOOSW2ld4pM6Q26u9KtQtSbe1LC8LI+ajYDxRcKk7XLzPilU4NKrpXyFtqeWpJg6Kw/e1KgWCyO4MRzRaSdAMtS+JamWtHQHtb+DtP5QqA3fx9C4kAdlLNEXG4zDhr6r1P0a6N4R0grJXrLzsaFImm5ULt25B6XhREbPP2GY6UQlsBAfVNQBDoDX73hV0AketQe4Ug8ye31hVYM0tczeMf49/WeFHwK68fe+tCSILmFNuP9qMAue87v0VDkhMw6hJ8xR4wRgMHwUWUO7+qghkHe3qPLXU2J/Q605FBgUQJra7babHXq+2lWjSil7EDWWHbzUb74NDZrm0Mfl/juEOd9HzTgZPIPipDU9Gvhvv4fio3QR8UMgFlJcZHFJ2UGNV+3erhHeJe5cKDoybH9XuVmSIWOhF7tMEmMpeuuI+aAETcAMY96IC1reK6GH8F5VDrfdB+uRkAVZXcDQrG8EB7/AJphq19ZpLxPxRfaajUYHJwrRSlurrz/AAx1rHoMXZmKlIxnijGw6BtO31sgFlEL5X9qs0lY6YvOfWOWHkVDbfN9ZKGZd5/qrHsex/cUyWxpIPBBRwHQioiKwsn617UN7syrGelMYZkNm/61ELK7q696dFmOvpCgypw5A0bSeTVjaMdKk6LLo/3RuFD2CP5IrE3j+X0U13/Vx96V5hQiLU4qKgZgWR0pGfjZbBpEbVbS9zfJ9qgvL5f189K7R7vw1dHhxB+WgprtH9UCfGDcb6HNMAY2ZkPue/1xuD8JTyfAp+KgfRz42cpn1DKgKnOxFh7dVKRmdDDuJae01A6rQ9r0NwEia+k0aMI9GkzfVCXkI/i3m70/1WWSt9QeIoIAiMRWmRxMZJL0txz+6atIcaQbnTOb7US0TygvY33K5ep+YqWBiSotPSTT6COZ14mxNR+5H7Kj9+36xCI3Ft6FhwOmazdVxY9+a8hEe+XsUMEK5Rtd6DtRoM4TEW6LiNYoI+wL3fb4opJRtRc9DLxq4+a9rVPpNS5gef0P5NzY5Py0utWregOxKva1MoQESzoF44qyZiYPJu6tmTGIbF70zKLkyc0tE4ypV96gkTZ+80qQWoMMl58VPaO9WTr89KqDlAJ8fXCbnsD9qZjPy6vBJ39LOqP9dPVauFvPPBtVvlpjJOhY9GY2U+yHDnrPrrWbRpoYPBhoIkiSO4/wxN57tLLqbHFBnAKy5juOp9Doqz0JzBgpLpuirU7sj6O7fr2ru32gfNSe/wBY1w047dyLrnTjnXk9+ujWLjAdtfehtSavkdaBMk/hdVA4RicBZ5XtRyk4HEWtGHrpmmA19I+RdKJOSWOM9mMTNfjjuOzNMvJPMHPpFXOn1iw/daFAIMak7n8RmkdsfyeCoC6u4Z96+5UWoOhuWYOOlXdqdiy0SUSRNpab0JGBe6WayhRgichirgO96GWzSkRkN7j+GuDMjpXcn/BR0DwSurjzUybEdrehGIYfS1SLK3qr0W01FbsB4I+1T6XliWd364ajHFWvPLilArQ+t19t3b+BsYFv8Hwa1AMuXlcr9q1k6uaKyTBWZYANF5RCM8l/4WhC82vdja9dIO/+FRdx4J+slcSfT8xWvCZMbZeZ4pmpjwkGDjanIKOo1cbeaypxJq2lR/yGAesmmt0RyjVbceaVwxC0sXPLUdBksYAc27U2Bym0eyH8VoLO4G/+tOY2SlrFphmclBDGkxeWfFXchLiw4L3aVebk7hjLZGCJKKA5uBP4AMeUsBzV8kKYG2kdMNC7S8zXWpdry2q2WMd/u/pVqzKUxJ8Lfwr9Aj7xWSyG26X9LnmKx52y+CWigANVvbNX9rh1J+SrEuvvW5melQHWfkv3/gl6xe0/FXHBJ66e1QOrfA+Wok1PodAT5Rjo+vbUQ3jSZbsy9qyLaLWUDm09NaG8E71DS5VpMGrE9FrGzWBoNNAalp7fZ9EArVRVlVzouW71YKiwSzmu6+1Bu4raobQRphNzUvUBdkUXiCDQ9MqC4lillugL4+mKlXTh0sfFTP1A+frkMADMTJ9ppT3+WHzV+o+KGrh+0fCpTELOkEUcTekkxAlsNszKKVZhqHp9yreF5P4H3rflZmES8AGxTDLCizCC+k8UPzFCmix+mKwOOz0a0rUJuCdj9GnqV0wOA2qSNKeF1KON16vZqQf7QZ6kn1XzNuV6aHLSCIluLGoe1RBFvl+sUXOalqOpN8/1vUmiQFnUDXY74KVCVKquusta6C8i9JavDOtAm7inJy4WUhmL+4VoB5/t5Ws47l/tigKgBVg8209DLQDUMAIlGO7NDuQJbv1z2oeSgcwL4s/atsMvP5XqJfU+iLqB5f7o5rtykdxZ71uXEr4ighNccP1u0I4PK7q6tKISzMNxq5YMBh0N+fSICxW2bVnz4PY/XNIAwAHQoYE4SnRr2QtCP3VfisV7E/0b1IU4lz5ZqMNlEVMmWCOuhPxS5zIG0rFMggKO0nqSIUE6tXJEsJaL3joUktuKC4jxWooSoQ7N4+ghE2h80pMyHWKiNipbD0D+X68Ez7gHHnDqUmZSDDBYe0cNHEMzUwL4moAlcxuYfalY5L4Jrx8qE4QKrSNdLZHNFGZbLiJnbikTi5t98dB70ZGBEddDuk96weLEDdGqE5pVzmC6EJNo1olJ7TWPg4IqGVXB93Paa5Z6x5h0p4ZjQMzO7EefRUqDCQnio7Dp+C99HE8sezRZL0RQ+7p7APmku/pTl3aRCWZSvdr3daippThE6GS82hl8UWIUAXX0dM1A5YqXVXKtSu5J+bTkqwBO6xrQQF9NaXLuujuUES4kjxUwgIHu46T6oqbPungqxSYzzP4qEgaBB/DpAj2r7laIsB2Fx8lTRCLGy5+rOQ7lmswPFJbJMR4Rxu1FN/hWA9lJArt6WABsEF/Q73MGX91qyRGY+mYiyFrlb+aUtSHqU/asHIqNJ9YLCygOQPtFL3cv7qxg6xzT5ouxZ49J9LsAu0TNvl0qVuB7Pia4Q99KmbI9wfrmlIgyLEEhpZoWS2jlt0fPoOEPG9r1a0EYABxo/ap5ihAgBsOTSLRRzAwGbfalxC+qRofczSg3MOkLHtV5shAkYiUT2asnh3qx2Cm9XvcjAXlowSv31Q0S4nQmKkE5P8dyl2RWLnMpaA+airCJ0m3t6RVph8VProg8BQyocwcdQPmguxiAPLNWgfmYYlqBsP1eoGsIJgYC6DukUQWzSYjtmgg2YNd/XLpNCvsLaGr9x4rhN7fBesR1ps4Os3+z+Jkol489mpd8PepP9AUjFiVGiZqfSD4J7POKLi4+l3Q9iDj5pmGIR+1ff0lDO5nJxQQToBB+fT34Yr/VWXRINQ22b0ACwYPWV461KlqjN1/36lkmyLacZNz+qkUOHB0OG2lQ+BiYgDKvFJkwCWNTO+n0RkNSJlfAM1GQum1poWuPuz3frCKMkAR90KYmqg8EgLuS6DO7FQDSt51VzPenRQxhqQYnGg6I9SkQRMxcJEYWPxQvl3CkSMt9KZWaANAvJfZ+K5SM5TW+jS1ap9tzb0O5gI2mOnsUVkEpAjZbzNAYsTKndtH7NKMME639IJIUpaoy/jFSLNE9r+9AlAZBpbebVPxU0R3uVITN2x4prqdnhilj/FX+4/akfkA/d4qAERo+Et0IpeWj83yUFitgh3CWO1RYoaW7Me9SwMlibfCCv6yjVaHLTF1b/CpD+7X8fxCWGKOsQuT8l6W69IFObUDZf1GnyqLu3oXkVpyJsNqAhdsFQ8/HpAEWseiz6vZt9GFsGwkcP2p6Pb8pUQQ2U1bsu9PCeGfyqQCymu/pYFJAZe7iuqiMAwOn13BJdV/FEjtWfahUv4PWdL9QfgZaXkut3V9EDZXtPyfWiJN61tpLPZU9qnB6JwDQPdpIz7cfv4ahN7N/8bN6DDWpojB88VBcgRp9ybtBOCQfs1KYu3vr8UQLGUST1irAxYW6L+9KNtvgcmvbxU7GmYdNdPzT57DIrZN43w0KEYy+/bJbpQy4wMuqOtYEsnRb+00JwzBy29imgsIsMkw8NSoP2LJKc3xaNa1hAM9Zvbmhh8kVu1oJrfXQ+KBOKKcrmcZqxLW1dH70AIDyuq70Aea0KFFvLN0ZOjfenbcGVxJqRVuLnIPWsk4obIRfqr/BP5G/8lowcQy70gOdaSjK5usPFBRIBE2ajfP06ofrvxSyZLw2l+qYFlmFtPSgQEFKtgyftVyp7mu/ao9bCEUibae7XFT9MLB60jqw5svg9IzYpGNhdNT1+FGNZY4X9S1CsAHQ/ilFrrsfziogfkGe5QF+9D9f01JluJ8UGeeptjd7FqGyug6DY3eaJM2fgN/BRbkxnPW/wqUMQ5UmctWJCSDrFNzydl7FfJtR+dtb1nacs3dabi4im1y3oJqVxgp2AOoogY5SdYw6lJWCM3Scj3qESIn2PmkxA/ZD0wKhyX4F0dc0DPbEy5LWnZ0mrcC3ZnWtBXBPxUV8JUY6W+WjgnXsWMDeM0JV8ruwaJ1XeggxagLGX7HNSQIgHNIk/Wm1rV8j+60AYtIW3uxru1GTJLA1/FLE3csSLxdt3alsToO5qvofpYnQanBTPmd5wdj+TC5jps9mtSn4XuXpVQPdu3vg6c1FFsyUkM+zs1fbcwmyegzXVtrCTDGsVIAeBk3lvyNRRpX4PLTOMJunu+rIBx3Xi73osLB9AGXnPE2To0DMkUuvP0ZVKhSSYxxU1MH7L+lBgoCtgJaQCLQc6P3fyWHTPYO/DTL7IzttNBGTGeY0dvikkLCWDjQUNnjKGtIbMfz71YNw8l+tKEbWwp1dKgWkm7Fjcfd2irGQNidOTbDpSkpI3S0h8O9I8GwcF+absouTSf2g+9KwCkZDLDJvend6LTND9CZCB1TfPtRCIacrflPu7VKIiM5sC0zrWHvzv1GBdnIqEENw+zT4A/eHutMU0m/jIbGWkBHiSEc6vho2ChJwMN73b1C7hXxj4rJM6BHvTBeqLuIF2dQ3aGNsyN/2b1ewBKXRqcudKAF9m/XXXmKtl61/aGn8ygMjAftORQEuOGozcasWMWxxf1NBgBqN6ugFk2jND6yyu1zhpr/7WZooMfL1fWKdsPCJ7+ugUgpClzb6EERJwFaOwfs1gDlD4fzQFwuPXL6KLAFXgp1s2O2nv6c/nS0hSCNv5AOCibjWX53U1buUYkVfdF+S/wC60QAd84nJ3mrwuy69WGogDOUvA6VDJG4+XSd7tRxBIeZqUpggdyptijxRZnLTbS1Tt4HgFSd/bY+3ppNVLPjZ1KglInEViFi174qAP6yXnbYtQowXw2aHHNBFQwfmrkuIc3bjuZNyr2x1JZg/PzTYRrldD/CoQYLfYMFKsggjYT21CATBo73woVkaDTvRxf0ss5J/e/pdA1jXjzvQnBgbB/NNWDUcv7cNTzX4GlPMfXaOGoVOu51Mnon8A276XsdD6Qwkjo190Pwr5gmgQWDHoZ08StxlsnVcBy+KebGhRHddpJdZXF7rVBAWYIzzq1FB3LT11zsoJge66ry/zLLOHVGE5K/R5SfIoSXTrmp4qGUOiz5qC0VkZ5PpM1aJKDDU7w1hsjAuwQ1BEU9JF/NZEKEAYowzCXPaaFE1jyYfSa8W0n9bTULwIMPJk/YqdtQKQ3GY0lfFTW42Zmex181OCQdi8JzpNA2CmR3LDpu+1bPxIWXt1KQ5BYT1DkePKoW55IE+9BvnWgPSomZEep+KwV7VCCgZ3Wq8v/ANgwjqVNS+5luvts1HetGryni15yHFLASjINt329JRv/wFhdpuWamr55+ezy7VG6rq3VutatRb0iuFiZ33eDSstuJ3T9jT/gzGX7aSkdZYT0H8UMbEmI5W1J7pC7uvQpzlZK8iLxV9mpvQVivLPD05FR2Of7rfzvUxB5utztj3ayAlgB380XeS5eDM4pCbBq6ouzsW61OIUMQOHgy1YGQxnQy+fNOPNnUw/J2oEN9KgreCyWWna1QhOzDwNW/3NaGD+/igiq3tIa6nhqzs/dPx6GM1tjon32FRTlO6f+IbEhHCU77p/P8ACgEZEsmvooywR1pbKQ/u/h88d/RNStb6NWngUlGVvoMkqbS61oVJmJYLnzeWnWu3vPfej1bJ0JP77DzU1QZW6nK9f+II4UQndZtaJp5l0QngUpGgkDJwWsov+rKqyv6jnu1Iol7NBnsp0VI5rcWBqnyUQl5oLizPkfeKvELEjFgm2l5qEGCYD3m3tUaGSGA56b0BdQM3++slAJkJLEzf+9s0qjathLVro/8ARrDoyRRAuwcpoudK6wRTKhATbGfdrJYDWoXkqxcdDl7URPfcu7/yTShkXNaTK9XGGgb9gG2SozTS/R4pIcEP1T9KOd0NHUzQ61zWKoqjJmQZfKpx5iKiiX9OFBIHAaHDWJ963PmsnzRqzUAegt3QutDcOVYemj3o4gDHqMsH75eKjPshfvzQSYwIP+QEJI5Ka/oPbTqVIWmr9DH06NG1Sk0q5iLd6y7T9azSgnytTcOdlSoRi3f7U70ZNkmWDg5e1KZLNx7l2shzDK+Vo9yklDdSxWIjJnSbTQcOo/urCzF38ozHSac2bu03DFZhqKlDV/ohRLunHZDnq/8ARqtoxw7nDVnazn5XuKklFxcqSKbCGmwdy9W4uw9xPlR/Pmmz7nuWWvdJ8BE18mJ+a/rPxWdOytrrfA038XY/e1YTN32BNWVXRfZPivg595q3FdIvsUs55c9/ok7Vcex9s0KFYk/S3b/9CGjIJKv7udrR5rE/6CXO5QSjoZ9FWCztVgRdi/msLPTf75pbTxJOg8Soywg6Pj+Wr0kY0Oh/tN21JYTzrWN6XrOpsvsTs0fvR3IxI7PD+6UXjAWKC+m7SdVhB6ukdn0z5XtFFAdBH/W6yufyC9utaR8z3b+JrHozgOtiVwo6XiuKNqKK4rj0awL+VZHwrMvFcNLRr2mF7L5qCw5w+V6EFBOMBB/1zTOSZAeSfuVprcHth9qmGgvGZYzWYr9mEVgToZoUYxjv9L2qHai8HM/YqZkN3oOTE2TNe4DP0D5NRwnV5cGPKaCAAaFj/vvC6DZ8DWgdn448prK+j4Le2njYBX7KXJeifCtCfFCm94p6q41uK4VGS9wPmhTjsHeHyrRHK9vyVm1u/vu5og1gEHt/3N2LVKkc6PdQ0vX5VLbGJMx3r3QBpZ5Yr3le3LHsa0X9DSt79ua2DinUOh9r0ZiLLaSVjS28btQHlV03Xf8A8U4N4D81fXbzXlleCviH5Vmnr/iK0d5ekGRtJV5nSXN4/eVHhAD4J8089QH72ggBsAH/ANCG5Wx5o3/8gyQ61pnpU8Q6vxVsHYx3aWR3j4rCXlT38vzWjpP7q9qE/BrzML+VRkvUT8TQz0x/8H3BafxweYU8F3m9vyrMHAHzNfMx8Ir5on3r+8p/nrVPTfamA/prNfexXkn4rwA+Yv7UEi8M/wDhWpbH5YrUBsXfNZN291RWm9qNoM1eWTB+a1fNaWW407hQZBS1K4KBgcjKrLHN/i+1JkDcz/2FCG7U5j+3N3xWNHgeaC4beXmredk+7RJsGvQ+6juR3FTh2vYb+Gs/aTx+FGx4rYeK+0EfFfNi+FlfqMcYajkX6WHtWBykvJTySbUnkhoLPwfKXO5QgEwjP/akP3M7VmwdI770WgB6Ywo/gKNiE3vNKjZ81oy6xVyEedDgKZn+qmudax2zNCQOSno9q2XZr+xWLzvTaXRfwpSDuFzo3ezWhelUanTD3KWGThHvj3qf+UMrAatWTbsdjWknfvW7H9Vis9jOlrrRezsXuTVqezvbRpoYhqLeo27NofnvTbq0wQ4cPF6NIj10RqzH8vjKoS4s3s+YqaeRwZ9ce9BBT6i6693mgyMjr/0hVQFW5fpDbrQwH3fNGVqsTfh5xQTtGTu1MOTXM1LItAAiZuamP6TRIvHf5q1E3EK0AROI8UQAQiH2qEMPW9faLU3sUWBG4IvRzD9F38VeIctWvZHm1OsOZu5U3XoSlobujZ8VZMNePDvUgn7cf8fKYGWpzkMDHru9aWwOXHpu8Ukk7eEK4G7xXvWgexWQfFQiSdz5oaKCnWlM6Hdpo6wtx7UIEJm/WxJVoxCXDxmOl6TaGghys3d6GdGTCtk09DMmvwNWB9g+DoydKtz29/D2atIW1KeVOvN+5+xRaLgPyc/86P7Fp/sA5d2gy2KCwnux/PbzWc44HajM6H3qf40q+UdPSb62RxVj95oHBvP0KLzlEvL/AFWpMa0sAS2BzQS3dE0KMns7tJIOx2Kh9ylk8Phoha3aNDcms539evc5qRdihufcfFAEuP8AwttNppLVpL48LfpSTByXE2sW7Vlmb3njPtRr3q5z8NPapqPRPQCthLRezN20eK0Rkc0TEri1GEJjQqcphoPzUo1jYu/JkoBCwkdIcUlZdF6YyKMrNylkJtVhH/EOTzQtyXZO1r+1TibyQr3zzQADwM23D7P/ADAbxGxt/dWMmBr+DmsqTQ27t6ipQ3Yod2W61deV/wBq09q0bUrOwxzzXJT7BWIGkPR3qTITrl7VbdzUT6I7v9UQx11AYl3aseLA5/cVrosNv0aRSaNT/VLcE0+5xTl/Q0C1xpbNHBvRBn+wH4/4En9uH71DIT7qvtzSSibKfepSFyJ4zQIIjhMNYB6g1FRTDF00x71J9/ohb1beYeUqEbUMAyu9NrXOGkLNjUrU9CoS0mMXLy06Y6VajLIRDw4ezWpn0lElsE1puT4MHfxV7yj8KK+PjkdGuUX1+B23pZOVmb7E22dMNT/xAUgKdIO0b9aEycDd0pJWUv3Sg0Cxcv8AN+lFF/Lf0FhrsZrEFTu96LLdzxUetEwYtXz6OtjSv3rWvBmjiHJZqUmd25+a65e1qVyCeC1Q4IYdWtF5L46VEEO1hiIo4FoLMeauJZhzLQMllU4FtU0zs3OKL0u+Iik+QgluclAeQkf5nW53TcftTFKEuycptfahBhvp5x6FqTNaxd2lmPQTsw70RGFmMlJJSW/c6G08VhBDUb5eJTitQHi9p/VqKZsJSxZGna9coD5qWKZ1iotmfS81sOthUnHgf5SsBs3PFYk6vYVXovUfLVjpiKWp9AXYeNmnVLeaNe5Sy3P5c+7/AIup/twVFXPBtz16KGJmGJqe9YWNBq7tSYCXOtELbDpQ6S7Sxe60aW6tOS9nx+agjOKgKUssefSPuaTINXutx2qTuL5a5Qvy1kqVwHWnAK7VoAYO9YMCY59CLXTrSnIeNijoneEvzV2vdzp0/lGHD3moKZO8/gqwyj2mD2K4q8F66nZk+KxI920fNEi4NktcM4liaQkGLhYzpFquvJm5Dvy0pwhOtjqcc/epo1nf8vuKgCzqlT3jozSvQSOz2FFRpD5lvxzWTLzd++qgOUcUtt/SahU+w/1e9AU1X8VNY5po4hLGp2L0/wBf9zWrytQ3R5KIahIx0AUMiEbtC2aJHUTImE6Urs/FoeuvP/A25F8jQQMFSk6+Pypm0iN1YC2lXUk3NOvogpGmRD3avn1iiQXPA3/cVMpncv71AmU3NL1EC6TOo9agVFzNSNuX7VeYtnBq0qNh2bf3QxykBuvoDoSh0/tWEhxdoCXcHVmpWYLmjV5qLfamWbyJ4wUsAldCt9t0/tzWOGxzb9KSqRz1OtErA/Wlct1DTuP44K2Cl8Sztq7vRkSJkGY7Udm8HjTzSptxm56SvPdOagwQzaG+XtSZBTEsTzjpW/EBk2618CTPXaoMnJMyYXgJ1tUgs0bGvSmritkdP0ud6ULkWKfmtQCLafsetmp4ozvOXSkFx5u+HiilVv8AIp8vl7F63TpPDK9cVYFv0870MSjST81a5PJRFMBLOxSwrajwbHLehK+rU+c1qTvRRlsoKOzDoKr4HarTW+xY1hnyNG7ucn6aU5bcONHpNvfWsjY9/D7nNLMiI8P8wVcFKfwJoUT5Vhu0BN1LiWhRcL9BptL0UHSdO9fpisjVt49rfalTPkdzY7UbQoIcTmN++1JBBcM0JklB91AV4K1fxVlitbHVUhEw/HvXUo1KZVh2OetTxkPZSpB1Q9H+6M9/9/arBcGdqO1ZGtZpn/TFHuv06UNteX6XpiysTocVCdqkc3m/pUHg72p2aknf+J1FhbDPnFAAwWO1D3ig4OrtirSQJsstjFJstsup0qIEgLq7tWBgfFOSBlzSDwqtS4xQlFsPDo9mGmCBLXIJZ1DqTQkEwjI1po3h6x16vaixJpKGIZdE7fDU+72Dh5KGFDbxQEJJk0kuPtSqCIWzFqkgeSZn8c0+6EqbbLABR0j4VJijao0qdKslXTaiQE6OvSanDFxNDragucfipYHl8Oz8/wA37IaejGwn7igwZnfer2y0sC5WevzULZa96VGyfdqJC1bhqVFyEsmvLh71CsTqFPgmEueNKaFeHu0f039b0k8foDtu9qN272raeAz2qAiMzEL2fQkOe7v7371F5e16QhUZOaDBgpEM/R+lZER6l3qZMrHYpBoBvnk67VbkHlpU4yMn370wAlf29StbuzkrcB+aXzcuTV4/isy5B3TNJsvjG6lVBN814n5r8kvzQOLCGH7US9uKssxuoui7Nq1mkZzJUEmaREWCxDkZvOZpGdtxy6NWxtvWLOEybNYNxyaNXBOJyrd9moIZvOwa053GUff+oq8N8oPFymwDIgx1Yo4lmlCemKitYUBmJyfc70rsU7H8uKhFJjHqFD6TmiIDEqQ3fetv+bPvXGR435VJO/8AJFTTXboxU7Vt1NDAtra5/NLM4MH+1JJG5SnL80Wf2dKUNta9yoPN/LWD3v34rEaZ2dGo5tAX625zmik7rHzWPjM/1VoX9XZRgdigC6COBFODQ2bw2jvrUwktH2CkkucV2i4lketD1iebZ70sApsHSksnVXFQHelHqdassWNUR+aGQHK57Vas9pgnrilWQWHQqJWl+6p2hPqXX8Mg2nwVEbLvu0zrCunZP3eoLfiArAnRGlxlHgk+1ETpWpM2oYi1Zn0k5sdXFXxbxe+ouTkvQKLBMhsnJV0yJXs8NqaG0mw9Js0GxNsxFsDy3oSAFNYOatJmWg0LBYgbSnTFQ1e75rvRrPCalcoG0LUuQvLw3mghe0mvao+tsZcDeoL4tXJofBQOQPepcyPft/kgDNnmoRtW1DywfekYXzO9bZ0n+a3L5TWfascGnFRbHtasHKUmM0J1jsTJUiWiRN/0Ui4O5z3L0kvF14O+9QAFdUxRzrLrB/dRU4oc+kMJjSpVgxs/umNj2Dbq0Q7Y3Lb70maEkUyjsj0tSxS80xZed1BHwu4VNKheaBap5WrRdtBUoK5tyU7YdDQL0H+CDRy/toVwmBcwKD7VacSXxFXXFZ8L1F5m1n3PmmONEEhwJtSWzLi2J3K29F0Wo6Uxcs9FpPGm771srIEXo095pkSHSiMLQmWW2Lt7UEea2zG7l7z6ReojRA9ml+UewfY9qnIB21+zrQgRGE0R/bUUfTNw/wDkndKe+fDf7dCic2TsVdOlYabzG0fmpLB7hb7P5JJsT6PiXhCKtVgTUjVZs8VgrRHenMpRiiQRcfcqYL/q9NBsd0a0qU+9Ij70oueyF9hoh/ga1kVwRzSYZxwbU0KjVpdazmeKd+IdDdoeM9+VqRy0pjRO1W9ZVRDLmshWNX6eKOSV0L8n91pxtDDSzRbG2lXzKXJno0JYAs1a14KncPY3Pn65lomkJlvPHtWSUt+WeakiTmxrOGuaFkhuf4vgoC7pRj3/ACpAl4POkNXmLT7mvehnE5R5LUCJdtvtQsm0FxyzUaoyMkvj9mgKWFnE+5rRCx0MS6tJenbAYD95rdf/ANAKu8JTPY9mjnk/gFD9m6lYU2PuEntV0fW5dDag2uUOxc+KkBksuwoe1Sjq/mUwekV4tW/jNEI2llvmmhk4L3M+aLSbyi/ynyVfWGFITnXvip0yVunJ8lDy42/NSXru0ric8B/kluMePQWWaj3t6WCBc7CrPM60xNivs0G6GPzV9SeRUgxSSg5bqHRS4N7blQ7IGdha3aiNcWO5as2o6KmjOipm0bP+d6cwHc/TaosOwAKVeHbA/g5owOSy+7+3opYMqxeKCB18+ks1r3Fzs5pYhjrxRAF4uH917ljXRpwTR5u+H+KM2H1EavF1j7Om1MsCcRemJz9lQ9K6y9/6fXy7XeoGwFTyzGEkjh61hK5PkmvFcPir19w+1GXTA/mD5KQE12dJ96BA97HuUZ0GzFRUwZs81qsCmFGJtagkWKuzoRZDMOnPWjhOgR9LBNkSSpVjV9yavah4Nt+o6VhQRBxtWHMnigEFoBF39LH5rIpwvJf3pcgq65fNWJdYplBmF3mau91t5WoA4GibjJvfpUPUQCS5SXbM7HRadGgXIIeP6qI3Vb6M9df4pHYruX81DbDUC9Dz/tLh7O9SBl+NZqw3lE9vRClLG080ymZHWghtuZHIdKNWRnGNGuRZEx/O9SUz8p7c+xqJOX59B4VU++3eroDueA1oM3z9oyPRqePYn+1a2LR5ftNJi/QdWixwfp/Sj2nEfqA1afovxjXq1ECU8tPN6HKhOwbJupHIs3CbqkinwmDOHk5q8EzsBdjtmjEEq9+BvtW4xpUx2a5iXsj6+YqNUXtLhr3tUWMdEfNaA0uP0u8GT4q2fL5iT3pZbjDk61lDIsYGjuVfYQYML+t81ci4P3Kwl4x11Ksw1+TROtSN5H5qJ4ZdzT73FAAAgCwBp/AwQQTOtUZKw+Lm7U7VMSJsIyZzUKHAX/A80snUfK9bnT/mn3nJkeZLHaijoIH4mp0iHlbRWOLqvhAq2d4/Ax4pImiIyPiposaC9RT4r2NT+hM/xR0Kx0qFuNCHmnhS0aiO2ab8GHVxXQXb3oSdKuDT5pSyZGFznmaw49pcqpAOBjominPWUu96SBWtHyDeJ9qCVeB3KgF6zljme1DANsvV1fS310H5ppq4Ae9MzFJ6SOjf3ohF+5HPNPe2m62OaRnWDTa/PNHpALAOJ2dqV4wOyfrQuqy+VVz7B21pYInL4rGYI175X8URjlB8tQQ+aM1rKgdJ+9dYPZU/VB5/LUKgCamf0iKjfj3l81aXex+jeowi73PD8UvV2Cxymz91TeR2otiSmSyPWiCZhCyGiacUDtQheV+9TqkWvAxj5qabs6Jd3HS1BoiRiYMRo8VYoXkBw/Wr/CP4R8VrwLQP4FREc9OTmpbZW+EVZ52IUaemzyYPE1oLlz7U0NvGPazS4LfQk3vHaKvddOwyfFHRT3XqdQqALGf9NYIqYgCMB6L815/ieXyFX9A6j5abSkJmGzR/tQD9QVoXiNvFKiUaxkbVYK/B+aZF0Hm7WieunaahRsmTapIAOjb3osWkhgtPvTBgynA2eKUbOzWcdmPps2JNh0R6ilYJPAJ7ois9sNb9ww8RUEdWlMYnFKq8qA2fgyNMWgKn2W2W8lWDGnMfD7NFMF+mlEu1mHdpaS8Gg2KGWG5QaqT0Ky71fxHtXBD7fVPD7y0lZC3XShAYCd5Sr1z6BCUyQVqOQYvY702WhNE4RKXlaScktqxOYxtT4BksB3IqyWnydLTMDPNCe+otrL7bV1p2iX/pqdKRbt/D4zxCfaiTSKlmmBGuQTnNkoe4hAB21aYNnA+KmPLVyw5mrIwceRGpw0OSxIYWps70lunQfY+GuQWvLvp0auvHzXs/FXa8H3/xWfper1apl3qJqUWQFwXbrSJnUC2Cdmkz9jpszMWnZpQmuFaS8E1FiDLA3de1Tap06YjFLAiosa3vWt9mBJN7M9fNOkRCMA055frldQ8N5U8p+KQ1Fm1CgVvsH5qZOi2Jd40t6APFJu1fapMzOw7FjyVgE6LV0PVv81CJdjvTfuryaqBe7ViuK1Ydfia/e0+r9neoG6jteswA8jkjpUZcdn+256W8W9/6+lxk4cUwnXx6JQ4O3QxC3ZqQIk2jVNi1LmAi8FzqOeKEUJhLn8IUbjmoHiEmRMEjTaa/WnkrUTcAbd1owAFgWFNLYKv6C3WpYbgHE1Ghf0y4v/D860S9ufIZ6nJSrCZG49qJQE5WPcjpikQVaz0/blZq5x9/8Xj8hV2sGzVqCbE0JWyOOtSCAQpi9TiXVrmkAIabA671GaB8laOGXrpS6JS4sO9mm3AdnE804G6tqO9eE+1Dza8Q/g446yj4qPgHtS539qilYYlmgd6st3YzQFEsTrSGq3CNaDWku3h+9aM3VDjsgvy00stbHsU6GEhcg6VAKle4+1fpafVCdz8tTakyKW5P5/RWWH1ChdP0x9j5pZxGDuQ4ezWajdmpqaihzWAQZyHrQzL3TL1wVGBtQSoz0+nvg02PmlqRk/gSo9x2KulLomDsUCAgMVY4raRLrOrUmtEwtWFSV2U9+gs3/wBD2pwWxe3hpQwpsMYPJ4atV9wPH8Tw/FXneKkav2L71NIQkcVEKwU71EChYsIf3vQw0SdiieuK+5O9G10YxH4oUTWX5AaYLyCF3eelQaIRDzWWjyeTpl/AFF1YdMa9vu1PgoRx79bVLUFARuzCQY6V2SCmzMOqenNEyCT7ve9Qs3AagydrUKwFKOVCSkmQjahWAjx6dWJ4K4pe31Sth4Rqa6xWq69hybvahzJlt1j709I11CwlYidB3+406UsXmpra9AnKsbqW5l72gUQ8UTjvrSkIJXLqO3xRAhRFsU5LHeh4nRyJkeT6QSsBmgAjfDoP1NIGZI2Wry4oz3RGJarKToelF2RiZB2AqfkbnR5v3ogbJQ7enmgIwXVx5oUpS3Uuq0dvFRgaOTsRN/8AK01FHATzVxuUR+gMHx/FF3VdCPRgCiYaH+1gXuPWjJeLvs1Ycj8VeXN/FAszIeakhKLSrFRJuj4KVwAEDh/NMQEDILOxRP3l2ND91piLELxyipz+om8aGKDK15Wp77/QhBIA3X7GWlflFA+Hmm2BieIaRzQIwBii1C/tWur9U2rX0dfk45UHsIpOchIPEsUdGfcxNXMEX9G1LRmGOsUijcbt9anoKieKjXh8stR9Utubtj5ioXX08ieIUlnbiVDVoVpIHW0NQJP3DVU68XHeLdx4pbvWfNaJdV7Cgk3GFeCP8qCk3vJ1jFTJpanIcPzQyLbzilDuMpFIsW8tLGNF16b1wqRkLUP2fFZE3CPJFZ47lvUiahRynSjGuvp2s31qBCBARFSkqVsajZ3/ADUZiEyslbHZobH9iaOGv0gBOHf0FLV2BiZuferJh5hsP7rUDii11rx8m50fzUxV43P3Wl1ylerXEH8cuz7pJUqBXAGrf+6mO6KCeYG1ZVmMC5vSDSbHjFK5VG5p1oG0LRuVGGwaTmpBvJPFqhYoEeIa6OdKgttN7UGam0MK4bPSKsEsWfvu40f3XyqtpuhraLMssiwWPNOkG66v5KfEcvId1G53rNJ6MPh3PFELUNhGsa0wmHcfHao0IrAUlnKOmm8a1YDqT+gVujLwUNSwDhljmoY5TmEl7npMDX+WknLHTSuUb9C9bIF+D3frYGRDqpqA4A1epeLuUPt6SRXISMcRhq1aF7Jw6PDTtGo22wbtA60jHNzKOgc1Hk2NiokGz9v6pW9HsQ/Y6qkcKFgLix/Vq5WeHbQKkSBiw+RqEtd7HfD380wUyL8Y6NRx7SpekvkaZk0CITl7VYx/ZvUVPpb+gAmpVqBn5HqUoiuOeD7VMdJ/SRw0oLQUI9lTnAybuv4qw+5+B2oroTCzUjrWuxW3l3bFLYCa573B/JxU9rNQzUpov1VpXJpmhvCRY2ZjtQgQdNmkgqaaOjFKSMibgjWWjDVPRvV8B8BvU04eBRa6SdGYgB5ZgKQ6AJZm9cGt7i281PJjNcDHVpuNKGQ07fNOzzS0D3pAqNIMj+6VCIjZ0hq6Jt9qmEWILjq91PhhXJGkUN/FBsippAJ4TDRWaxJsSqeEXbIGoWTRBF9/tRFgjshfMPol0WdnRqANks8JZrL2rYVOl/b64JvW6dlz7KXFQce+F9Mqh81Ix+rNXyPlO7JWW6tauUYPNLZuHqmtTF9w4Op70aJNrhO+OjTcxzH4rbQ2xG8OjxptSdEBbpr0Fg4vqExc+5SPRVvoKBcwWTcaheD8HF2NpoN1Vur2I9qavQ1J+RppRx+S9FIbO5ybV0GRgbnFZN17UXbRdqRl3GxorOXw6RTJoR+49/5JDseH7etb5L/rev3EFYzCnpaoqO1Y60KLSC8jF/FSCBazx270LKForUTSzdqUItG1Zx5BO+tQOZum00bkyjjigLdW3oFn8XFJ7bs4pb6GulN8pQ0usncG3OzSJIrtX0mPwvtTun6Ojx4pkFmYxb0CMhTQe+9aXP8AClEyutq6gzxS4DVal/uFj8eizpH8/c96kjMQdWx713Q66+/8EP6xPJQKd9L2qduH0nQ04wWeW1dn96I+kMADo15IsnU/DR2YdS91SpgQhmR3p4EqZTIbTr3oGBLcLceYqxkPioqfoIcjaiTVf/B07lGXkLT7Q1oaB8fIm5Rdt3KhDa5rr8blI5HDy36Olf7M0S5khOpQRwJ/NXdET2Pt/IMYEUhlcuTV3PSfdjhqGNJ6tRodshYeMFENCY2pxlJORqfWBWzqPzSwKWNot6rpb56o23oATQKyd+KWnbq/FDQsAyWR1q5tnpz5pGF7yL0a0OKNoGHhoSJeCwoZvbihhWTJLyRj3oxoXosBGtIcDbcomM2rd6+OclM2Jm15s8D3pbAkYQZkyPo0gZtLDtacRTbK3o/EUsDQ2nFPI7XNcFdjf3PerzXaXzX97uj7/wAMKy7bXCjAzk2GTzQWkgzQlc6G5WmtYRHar6mMmpUVfSEDJ7IKj603Q6bPfc60LJzYlNE0dt9KEpTpxS/uCOfx3oiURR6DOpu2Cr3AxzTWSSnhhue/Ssp3RD4EZ/JR3671OkrYX9zuZKDQVFPy2XyiggWD+WD/AFo7GtamowbTvw1DHaddGj0GF7XjeoXvavQpi2yWdK1Yopr0V/Wa3VgZ9EyEQg1nV0ii9mx+tihTkeLL7zUQ3kV0k1pkbCQ24rKwU8NCbDbvcPmppcBw+NmeSrJNpmz019GpnqDDtr28UDp2SPj0QSRUyQhY1pe1HYZ7s0FVgMtTbXw/NSman00eP4uBpNtQ9ENXC27frSyQLyY8vRGdTqXrQMfsVJZkqaKKGtSWrIvSy55qZyb3cUslGEzOi/GrDyddAikE/wCdNKnuvBwf1NJB1GlrUM1doQyiVt3YpA5H995e1ad6J54elB9TcnK4aRxc5Z46q3iprStnGeihe8Y9dWopze6/zAhIIe9K5G3Mvs+g1sPlUEYQzqUMEDAxG9NkI28ziiiAAmbFMuU6JnWlBxdHpTtgZKUW4LMMHF/akpnrKnnNKQlcK+O1RrucGQ62mtJ52HWC1RY/DxQIId0YnxMcVFYgbGVZoLB7ZpIQ2bSfDVqwji2Xg27eaQQgu3iV2qFwoc5xqdqT+4WSzpV6zux+PKtPgfirs1zbw/NW57l/RWwdP3VkZX6aBDAg7fxa94ddBOlGwZttI9dfU3Y7tPeuwBsLJ59GdpoKLZiyqiSlSTvVyEUk4G9jy0MH+jLBTye7a9637m7SXpDipL1a04fD4/6q+iY6H9VF00R/fFX3DvHT7GrER7inkptJeZfis6ckPGanK5SCD9r71BBtacj8VJzWDjTioTxDRLPePNHo/wC/Fqnni5HMd3/gA3Q/Y6UDifZ1Hk9Q8CUUuGDUpTCJsZ/pQ4ZpBcNzNBCxt+i3xSKpyUy7hipxLoYDofrUADjD+643LHzE0NGt95s0bK4RcfDiHat4G67B8dbUJ0s5ePvRMhEBMXWYpMUBKbR06OaXlw65y52365lc4Wtn91McCEMjlgpbJkxU7nl1aCx6sVG8781qbUV7CgQAO1CYb99eWlgw2h/Scv5IGpd7lw1Bkmyc/g29VlxLyxv81NKODCTimY6mT712TzWudVHAHdUOU1BnmdKvIrd/x7VhEjp+KhS57PI6caNI6+fxfs8fQMAWi/Pu3eFGGRYw8Oz7lNEVWRLWd/4rIuqzPG9QneptrUmjsj3q3pHQ/n0JZKeoWn81fbUwy6vGazgJwNtGusg7vxRGXW63X/hWzdv7Y3qSSoqaGH/KcXJWSjirdVil0eeTp7XqRSog6JI425ptgDyN+WKAxeH69/XBVDErE7FQ4BFrI6z+KvNTuyfelb3gDpJmsAeD+57Vmsl2w7fer5ftG5rQikjbpUjuA+W/poBl3/qox3aInAVtT9NIEQ3i+33qLH8uHpDsdn7USjIoNUZH1CcOtI9mbj1/Zr+0Hf1yHRQLWQNziX9FAN/T+1aE7ze1St6uTh5P0c353V+jr9Gedccmzz2ogjQamvcqK3w/rWk6eb++KOFfLitnatF6Taa4nuH4oFkOI60PYNg01fmhJcPZoQkYBuLkhxtSi4yg9l4/4goSJCcUlnev/aHt6RU1NDe57VDIblPwP2ozxcuWz0tXPxQ49EESSy1vuTehDiBOJ09NDX70gLV1vLsUgTLB1U/1RuQcQufiiKhIG0ZqEDBgWSmSHGx9vSKbS2t34KwsqInXBvRSYxy43ahCa5otJaHGtBAAIA0/nA7a6xbfqcUBP8dnZ9S1JKkexkp1JNm9Rgb+361GdnWguNzvXSBfc42aizQadKtEnnsuWhcPTWlpJn9q5rWha3TrWQNBFRIdj9A00yj34raZX2oXzINe9DFnXZ3/AHNCSaLAjHilk05qb1hKglgU8GGbAF+2KBOnv/yHDIKIqiG0+/s6+kVPqME/NXrG2PwalDK2bUupJKiOS7s7/ilAb5jahqaSBwaMZZwtE8+kpLSfu+6rFK/yfejtu21BZOQ6ZEUZKyANn3qzUYJXBu0jJAn7eFqxovbY/WXGY/4Qju4OU2561fE2C2TZKaFt6BgSUGEEQ6/2pNjXvtQywFFk9mgLBbbaLk0365amAy8TVtKv2LPLiPKkNhOeg/b1BHHw1lFp4sdVCkxIVFpX880UADmXgt70R6DI7AvPfY5ahIs4futR/wAxmJCNP2TnravLNCIiOpj0an1OC6iayF4ueGtHmv8Ay8TVokV1Ue5mpSpX9itO6iyVvX2Bd9q+Q/lUxghkZuJSMALPkV03nD/FKewJ70YnpsS6G9Ny+n8KLktGlqH2VFtv+NZYsa3A0VxQHtOjw+kl8+kOnE2weT3pLYk0nizbTr1rN2P9pZOBQSoKnRf3581OKBud2bkLTE7rb7sumxqA5f2N+daFkXkvxtWgabV+FGQMwaf1vV7AsNmru4eBXdQXbctPbuI+OvWohlZcnL9v+maUUldP9D2qIL0OejhOlb/X8cX85pewyPeadIehWuOZ9sViOgj0NqhcGDI1GIm36YGtXHPHbasnYs8lNAjlIKK19zmsF7aZvyfFAOBAf8rCtoklT8vLfa6NR2JXhw0NaABkcOnRNKtaAX3NKJUkl+339JKi54qzN1Q6anxUPIQJRuzO9CgA1lguLysuqtRB0E0681q6ZbrPp0GHrcNQi2VdNnh1wq5ArlrqUBAQGh/2RGeTHRyVd5fudPzml9FnsN3olb0OtG/oUVP0ghJK+/nyyVImooh1UB5rD1v4lfMonqr/ABQDYAf9BQjgNF/6mXs7NZFH+Jj4rCrtqds+kU/Q3oJ5OT+8UJQXh0/tNDUrIn7xRf1Ia6D2M/CHf7UYKwCP/ALEkpZd/APXJ4rtW+WSvatEdflTrOOJv4z6c0v0xRsUxcPYmniHvQ8JVZ8L+Iu92ghFoEH/AHZL3j5F6Ph/hTr3915TWfpv4FfE/sNYo9/2o4SqcFcBhLit3VYsJ70zhOizXbjTmvZgx/XWrgHce41FS7Nnuo415W/Uf/F8gonzmjl0seFSj+2+1DD9YfHpY2/Sl/ZXzNHwR9grCDtY8V7Xg/8AIC5o4yEsDmLNSMuY5fwcf/FTJCrEzsfhNL5OfMU8d9H3aWl1/FV/aV1digZ7SUPcX9qxL3/8QyYq0K+H+KjeOUY4N6Wo5f6aARHDfm5WsciZ96P9/a195/NVw+ifBDWQ8v5UHkoH2v7VhZ3XeGH/AMG10S/gXrP9T43a0HsR7pazEub5VgdAKGvqN6F6N3o2HitQcNvDJSFw9NKwu8/nH/flXcC69qwua7wxWryG3jFLjwpfS8dHPwM96jI0DHc/jUmFRqvqanasx0LeResrgse5Z9qLLhlWaCxTPB+vqVZY/wCkYeKjF4Z/64qUYv00UzA1YXC/0orZ8+c0Zz3X9Kn6EehJG5SzZgmoQ6ZyVBd+iEWJQcvo9vNZMfp27U4CbfD0cf8AWcroavarMi6F39govUWrleq/Faj3P2rGe7W6cNn596WORJfmvZx/Y96GD6ChoGS1XXO+HzWKdjD+m40WcI+cx3KEg6qudGlgF7AeTd7NbKjFEz7il30ascbQeuvtUR7jHUy/6EEytF3xUiVHpHrQICDYqz2s06/Td5RHb6VHtkNutIFIXJt6zQh92R8UGSCoDv6QUGTraormTJsOb8NSlMZVk2TJ/wA8UtjRlfsvSiwZsreOXY4obJq1f3Qp2Om3l59AqCSIzs0nQtup+tLQrKJ2KONYjIme+1FwAk9cjNXHpYeuFDCRstu0/DWx4kVq8mvsZ8hrAWyL9pPakgTH9wdqRROjD9rqWoAglxLj/wAgVQBlasdVy9H3aw3XKuur9IXnqMPmsxHVz6RSWQVBsT6azrU+pORDMegpapDmo9JSwYmr7MAneKWweBrwNSrD+xL+2f8AkvlTLp/asyNSHwferu+q7w6Ty1HP9xLNDbLl3rq1ufwPUpAQTic1Og0m07PFSKhLM26PwlTSWJ2jM8laNzWtTXydOl7eKz7o+mfY+kVKC7YfZSkrsEt99CtM8E/P4UohFQNhdk0fai1ZDIMDontQ8zgfejsxtd75peiG50OvRvU0uPPU0dSlBddXqaJ4xuVPsZLLsn/E94DyuxSEwX+9v6YqPRMnRoMwnCRQJbFZQU10a8nRpJhTo0ekriXB6RUuPWIroC9Xaggh6Dio5l8eknqMDo6rcdGhzsMB8D5f8Vo2Py7F6QLG+xq8rpzScLTPkWV4psD5f6oICn/MdOaABaPRasv+b/dATXTyfNG1QC6kEy0CL4v2pihMzm3N14161MsbsHihlhJqMPTShrt1j8vBTkf1O73asB0RU1h1c1dYDrx2dKyos4eifu1SXl5Jw6sUFC46h/V6nShlMjZN6Vc4XkYq+xo6m40K6wR6KMO3tSLfJRhHSW9PJdslPw9n+drwHldjminEdIbv6j6g3ImUNYosLBUgh9Esxd9fSAc7obGxUVDEy8aItQyHRUDiaHT0hcjrHxQQIKISDGOKn1ikBlwlLCRoTTo/6Pl/w8H2Ne6lRiwFoDnrtWIDnXz6a8UYVNRUVsYSepXYT0ift6sfcMJXeNO1IqyrMRn03PZjq+3iticJHolDmtKDunPajxuA2sAT3qSdEHbU/I1EX1cHh+VEVYYNFHKpAkclBCY2zr+mjjQTT4f3ydBnWSvdqRj+URICVoRRmdt/Lpt6wSYnUrB8lF21oqaKcMuEaan6oqSSEQ5Kj1mpx6JFrOv0A9QD29JDDRt3F4D13/mWmgKsE7FlfFBYHBLls1Ypwfsb06Uqj0moqKmlXhrB2wWjGEr1sUmc5sfn2oJQlAV0oJ1XjY9I9SpkO7PzQ4AwaqhmU7Gk/wBVZQNX8qGovt/kfsU8pu7zUX2qDuu0RbQH3HekRor0g+f5VtovtOzLUfWmsHCJ4+qI1RPb1RQhy5j60U3S0St4zQSgbtWCC6rqiKKWQ4igyx6G5QmKNq0Ofw/yckPtTGUt7t2rpWEa7fQmgvrgMtafMH5pUU5GpEzJw+sAt8dGv6Ufs1LgyWItrO9RNlPSUc3g7v4oMzLop4Wqxf4Je00FFTEpmM/op/AX5r9L7VLB4XZ00OxUFTU8WhVzIsbUN+japuhZd3arbIr7H63zQA2+RN182/ku6thusUBjUpuuX1gZs6nFESXluvqJO6nr6sozFqE26pt6a7UJJGm8O0R6Q+pKGY+kqaaAgkclCi8rDpxWHQgx2pJ41geCKsDo9E6e4nr2zQQMiSP8YywE81zXvH9VowR8JV0Zi1HlDCCz0qMI4Y7mSh6elsXbOGa0j3rUHSoixhvMv0rSiR2PNqldC+KlWX+F9qviXE4I53rU+972oCZpbkzV1fj6I9IRV4a6ur+s0EDBWwEK4+914rtI7qxUvlWUCbCJw/xprjs569j+U0NMrZSvaenpKDZng9IVwpjrTBkv1P0Qgm3eNYoEqxqsrUKhikWJbULq7pt6lNGrp81ad38bPBh29OaDLJAlXVay8kKlbhSTfYWanEjyJ8VDKfi+30ZV2pZBehXcijCjm1smA7hqeU+aCNCKSmK8sqHQOwUAgmEufQCVAZXBQ4DoPvf2rgcIJMafilS9nL+KexsJrKh1KEBTFuWdj4oMXRCeyNXXX65A6v4hnR/nvQn9wUUgqaSSRJmgwdSVLf1gnVB1qdfph1gvuufVKVLuATxo7es1fQ0v0xBNRLibw2ajNWxXakH9oNmt/Tf1xXLmlzeH6VylCRk7/wAKkkObtq/FWW2L/ou1F313etdF7l6g9f8AC9VMAg2iH9n6YcuKyLVcBbD7fzQx51JkNXHmiRwbIz71EH9kUsmUoE0UpETo1xq7xQ9lD2vdb6AbGCSxCbT704mbS56aUi7cZX4rIQb79Knq8nXfvUefS/YrTwh+PdUbuPLsfF+1AEuJJ/DAfqw+q7OOOamCk6ehONLePRyr9w9fHL9DQ0eamo9NH0VUHLF/PrKb2Zipq/0yTXZXARxy27S/hNisfJ3aVRC57Fiomv60KkPRN5rs3/FA4VurQJze6n6Zow07maRIEKNTvU2FZPKi4dTespmxok6OSrerxNDOTF4w0m6q9w+KnNHutgL64eFvNLjIS8h6rZtbKcDd+NaxkrN5dWscMIGYqzyznxV+B5yNFIHnYdHPmgNNsWHw/NSxMBrb59AUJ1KieQ/h8P4ILtV1mY6LUBEonAxNYtC1IU4bH0CUyatKBlUNLLMCekO/eGvpeozfhUU6E69qsAPInukViswyTuuAq4DdQfvetN+8v5rxsfw29qts+s80Bqb4fdXVnPI3qPT1kcXOZ6FT0Go72Hl9WKFZn1SNQuWew/P8C8zAdVFQ0yHUiXxWzAVsh2jbq/FRvNOGfxVj0nJCbW0F+KLubXbp6aG3KYd/tWZXDMn9VPpd+t1WDb+k4og0ca+oIWU80rTkT2qT6/d813+WHZ+zpWfBsHtv1KcNR6LnT/Cc7ulBAIDB6kYqGppm45eDpFP8W4zmO+SpX9E/hplZLu1bcJ1Lvt/BaZQ91/aohoDx6gLlSWPl9IHEPZ/X0Wq76N+RBpKs/agwHig16jFan0x7Fb50fyVc4wawb0r2O2lSNCeazdj4qAAXEufSeOSuqrQSa+56XpjtRMUk7MaDzn1mU3fDWXeJ2/ugNpeD8fwkjdX3PtNJ/jN37Vwy66rTgnRsYPu/RF9Cs12zH4dmtNtAtbBQwl1avemTStlxp6TXkCwxdjrNAlAdS5V1vLd4bO+9TfNNL9JRKtPaIPhfhTAOYDCeS/k7UwTLYJbcUl0GRg7NWNYZMc5+DWjarfPO/FFdOrCcl/aggwVsDf7kaRWax7PDamySKSYhqVasek1KMkO1sVEah+KV6TeAKNgAOW/WDNCqxkt1D69gQ+D0FeHRZXr6CUIcnf8AiXFKhq0qPYLlItvULyaYX1fyNYEf70qBYDpQ6V5MgPkhq5U3J+Jw96Q3VNTdalJiQtEF3dWDRnaknK5vtMDWFTS0dhtq7NWPoMT6yw0pOduxJ9z+DsfgNJOTo+4xQLObpl61OhGou8vtV/o4QnmmkqcEe9DFy+3SkK/tzXdMrSlSHAT7tLlt8tt0bNHAKSOroStObsUEdGLvVy+iNCRlsnUyf3RkbN0QjojkpxuGIZPEWqzC2l8Qn4c0cCOXgdSwOb1KNLodDml6IuxsaHb0jFCx6xQAKtWPWevLoPzHoCtxYKDe2YmcHn8UTwKOTzPTOKm+Z+r90xL6SNNjSvPr70/CoTv6FctZRSMbtL5fXdW6pmpHr1gD8/WvKQ2y6nppVqgDy6rz6jCHNQAwelilxVjp6RizAYfaj7w8MjzUzU1Caq+EftUjcH64jhGtxaXp+BWweRdOhRF7aIt2UhsvUDJ9BQ9Fp6kt0e2D2rJsFSm3YlSl/IJ65+hV/DbN3naekUT2YV7j0mggABgMVy6fJ+HNThldtc/zUnT0ysUls8ifPpZi7av0X4o6nRX3KeJuYPMtZoF3GyJ93X4niTMLzTu2D4xvu1E3VaAoLeLQ74pe5t932fUJkU0TDF2o7es/waHoekH8Neff64bSDvRQ0qwPpOZtt6W+VM02UtjFaBJtsesMgyk4a95UpURiF2I+Spu/xH13dGgAVzLEFfvUevO9RXitSbi3fXFEnUvgpL94D2ZpMg4OF2TR23qFS65qfkfh2qG3e9qgDpUJp0EocoqTWJB2QnN8tR9cbjtRbOZrRT3zK81OavoRK69qLL7v+utSmu2DYoKuCpmLsu+PBTl6uy6jojPlY6UqdPuZ+KScrnQ89ayZ8FYtBpYbL3/TZqx3V5X6S5xU+hkh19YKn0scjAdD70HXtQt8qO1XPtgNOA99frhMgLfUdygNa49JHrerekt8vB6XQ6yhjiiEaCEInFRDek7P3WfagAMR9v4B8DVkm02mw/NfoaVB1p1bGHfFPJj1DdU+1BhKgcXl2pL23I680UJnZ2aAuQnqCXqYqU0juV+P4TC0xonRLlIZUIglyFmMaVyw8lGcorGHRWdilCkC5qW7+K49c9KnIFlvPYaTrNRaWLekFungKiwHxBpHbT7KJ7fT4GvD92gkBu+qGekD/avDk0BBYrJ+DRYReHio9LekKLunWryz/MwPtQUgQ6H8I+Qj3WYxo3rL1strMmKnOfTeGT5d6l+uYbVP6lqn9mK/du/XZ6NAvEFOsKd8fFQNZy7t04/Pf0uOp0aYucLdZ/NAkuPoLZ/TvOlaTaX4HmuI3PuSPmowIjHNarwfE9d6s8v8IZsOpB5IPE0MEEZKh6QUMiAHR3q2UGnGsIXzNFwnd/ZRcC2MlKUDdtWcXTdi68FMKEoFyT19Z6iv1c0ccB3LLeuvHuAAgLB9Pgas8feoUlHpCop4m8JqWYi12agnMV0Qfk0MqCg6jenEkZyt6ZhcSlu7ylBErsGwZelNjQW3Q5/J/Fvnlw/BSlwy/L3eodtU4Wnv6R68+rB3oQbN1y9iotsfBUdD7/wXGw8LUAxA9Yh+CoKrCZWsz8UvSzpGzb8UCS45NuKUrdl4fxX+SP3tWQHa58v4o4A5uff7UMno4qN4GfFGRCZFx66Uzs99rH3/AIODOrt+VRvNCkr5Y4qRBgJmy6vN6nVgZUr5oMDirE9jZomC4HHQ4av0OgPzSXXEQkvl2md/9TDPd59KGdjyu76wqlq07NfqUA+qatbP3fXhTFAgsbfQhpwbQs1GoJWf23NZ0Dn2n3/hv8iTTAL0k9UrH5jq6r1aysbOPSah9CmCalsegJWA1alKlmwjvd+ahdlUXb4P4OP9iNIRYue8lvupBWnvUyTixHR/NAFdTVbPozNu/cPvmsG8i7PvWfzmm1Hdb5lv4KgcraY6QvBu5rAtxJpCRfbt2m9QENR+3KaZE6pucUplCVnZ64dIfqLmwa0EkVhiKR/W9EiZBZk8r2oAA2BpW9AqU0EnInK60c11GrI6gdMnz9ES1h6QdFKHMl3r8R9fYXoPzUOnpMzAtQ3IjmoS6mwaHreDul3fFeVR9BlVklEnZNyrLPA+7u62ouGR1+olF4hv+FPHK7lfunpcDENMR3pytvRsaFRdqPQ3KtoBTWHvD/a0GYRh9GMJU9BmPRNeOUj+Kk6vIKgGwfwXujz/AENBX8PXVUshJLGJoJqId8+9JD8h/VQHf0tuXRde1QjALrE+I9R6RfShGwjrxuHWshlzEM6CC0Z4oy1sgPdg+a11vM/NJEuF4DJydyhMESML9Kw/crd7FXeBYO2e6sNKMKCkMTQwdkVHf/a39UL2n70CJBi0dA/M0s76VruQsz1NNrd6gCp3Ho+ssdM08Lc1dGxzrRkMayZ7Nq2dd7rx2oHj7SLfX/rPl5t39FsaLdWKh1oEFg9JhNDHhP0xUvH0BQCOjUvJfzsdxQBLk4+B92h7j9iaWOEfhrJuQP39lYJdwnhV/EVGWwUQFjRz6XVrUKmmSOwY53ravS9RmHq9Iz6J7U36WPcrYZv2Hu/wkq05ehEe9bqEHc1PCK87yJ+1dqk6SfFQRcUY18v7jihL0KtpI5ubncHoac1xY+T1OAeaZcvK6Wt7+1CMwEgtDWTrQfajGEoZbxxNfHlMG27pSsgh51Gv2itU7p5z81DBLvjofqz50Fh3qeTYL+T8VIZmtBa9L5vOe9KnJCy00KjU6lfFJfA8W+319oOHR81fdg5P2av9BkT6TUVpBg16qKR6xWI5dDXvVqTbpq1FF8lDkzHe/wBAh4OtI4oeto2TegF1AE0SgrcVAFhw7VZSdVDV2Rvs9DXSdooJiAlMT6xK4o2xcWPiatt7zuql332J92up9nL3/heKl+uSobdfCpa3eL+6nfo2qdTF9wv9qtQ0kwqavdr+KWctPgrgF4PTbOlSsPZsXCtooI6sfn6AFRS8yOoG0/P0huj2rox7ilT6AQSUm52TmNvUwdb9359J9RyVeoOK0UdGXpXbh/BOGYdzHqrlQtISfwDNxjddg1qxi7epqTrUWkaLTx/FNGiCgEMkI+l+q8hIjd9DJA5t6Xg0rU9QS2DWknDa+/det8udW77/AMMAzE9Vx71YqNybC5ROL4J3dDoF6O4Xkv8AGKL/AKD7lWmPQNjkx4oZB5fypMx8K9qMVI+3WuYE81HuI2Z6bTf0DNNnt2Ou32pHWua2a3OBQEAxfVEeluy7MPzVtr7CVkE0UFS0noUz7z5nG9RU+gbj6BN2DwC9Lx9wbUpEro6XqOSXlfwIBLw5+4KIzZ6E3+59CRIAJwHbpQFcFXy6PRkC5tunpJ6TUU12pmp9E+ltVtjOb0GdAoEqCJmKmzrRwBND07/x7KgtoVeiQJ23fQz8Fjcmhw13qGLJ8Z9/44ZRQk8xqE5p/EtQHqHJqeKLd771a9N6B8VoJKbi5UDqx7B+1RqMsVtefSToIbr8VbQQu9G9G9FJbS461MkujpSlY2SrwWIJcFKIkTql31jnTWinlySOHJWwiai9Jj0ihlgR5oQhhCzqUNZ6VaKLeoq+6X2pAoIquF4PFPiVwHBGu9WKGD+CaUNrh1fn7VAd/XJTImps8ejKCcxrVz1iop3IJ3cUUb+idiLuKLiOmcNXlYnINEZXyyoyXo9ZGJQxvUH3NnUooWaNqJIPKT0i1pOQ7JiuEO7X0E8afN8u29JRGFzTrP0Zwdj+PDyFJ/bAe5WLiuu+T9d6b+R+3tWsdGz4awf1RpbNudPenonxWpvIj3pkA+JKbSHbb0UBc1mPs1unI/0aCJcbnokwRmghp6zTcisDFAWwLq4iriZiYl8BV4Jy/gino9Pzolg9z5q6WXauaulLZ4r3OQeTU9vC4ppbXtUXllDdbKnd23zeMfxh4YeY7RUAbVFB9KKeEOwz6O0D1ElAA+jYeno70+kCPPLrUSXPJoEFquRNOK0CA+l8JL1SjxToRctetRh5YHoFGLmrirJQDLtSodTL+mtDBuofFCrCID4qy4tn9Rf5YzS4P7LPoJeKSO/ifhr5rAqdLkvsp4xGMnVjFaq7XpElbKiz6BB9mji2t8xNRAwY9GZDzZHUrfNbvDXc1g+iaiYt6a6Ojnmm3FYLQimVloadEoc01nrS27n8TSZsFnF8fl6EPgpeypwzv1dX8jmBBvOX2oIsgkqUekpqfUKrjmsNQFQRciH1grpRSwoKtgpFI6Vl7ekSYd2KtSXG6Yqb0H0YAJZ3xeChg2juZ9/UMtLlx6ujEMf15aWY4V/a0kEiHnVcFXSc7zl/lGJGErkAP7GjUVG/yO5zVktBXyWpJj4u92o2UfNazLOn2Bq00VF3RJa5xegANgKIdIadace9ceP7qSEfkbjqfr6oBiRJ2mnAVrJXnHvURzdW6t19Y1pDsJpdZ6ehHO76DAbkQqdwl2BH59HVPFhpr/SjT7sd+hq03VlJN19OrXmCo/QmPt/LKF2Fyuba/CrqPFnkvT3heD/Wl9+U7q1X1mw7O5w1P0azeOPoRQDlGtTRg09BgB0b0hkN/wAWmsFuiaIHFVc74agm9b+b4yrV59J7D59Rc8N5wfmoNwchXrJxS7FAJQF7tnVy/wA6Fq98y4aNI4TIZGtq0fUEBHSkykxLeNw5tttXWHut81NjIyb2rfAvaoTvXzt0dahfPD9I5qMUQmCGVbFag/sOyroehpzsoYbeOgoFwOZpaGy+OOlZhyj7h9qwRxNSMF/eMvlKVOyPiNuHoFWwZpKkGHi75a48T1bv8wYhcW/Lhp3ijRGSgR5a0xTDJtvG58VYlFzaKHNqH0QugR1oK2qn1HL4P+fWIpTZdpIgOURFQjV9IqDCEpwFOXg+R8ulZOajiKjK9c0fg03/AOFHCWk0Gz3oDyqmnL1BVhIe9RHK7LHwUExcnkfxQosWoG/4pRBckhXJt8VEJmSJMB2deaC9bR8pV/pp7O+g4RdG33K+0Q+yrfIt/ix800l2cHYtTnXWtrL7GtPhDl8rdaWx1S9jFeyxPma3u/4aaVe/wCtONrvchoXuB1/7jrTMHBv91AUgMtByu7KCeDODzS6k73z91R/OsFjpn2aPaow/sdRobNysgLquuv5KsFW+X3/NSSMnDW5rfS5fTA0a0YX9DJo5c0t1oa05evW7U8j4oF/OK/VZ7d6XogZnl69MVCXOlAlYDLTwIPSHb9TQAAQBgD/iziQ6/uk1oyyPpGK3oaUBi2XvncimfVCznu2AqQf6i771vG9lanUnbXq0cdKHLfoD35rd5rhTqnzQzPw9qm03RapgjbzDXg+cU9PP7roUaw9M53fCsIKwih/tAjG3oOb1lStv7msU5sAQy8H6tQlKihapDOWQmrJcjNiIPn/hCvH9Z+5qR3bjsm9dyj7DSe6i60WY/wCk/jWQu0x5L0CgGVbUiw9R6bfNfdD83oxgel2fipAMjcRs1vU5M/RGKYvTgrWhIVUAlloby1vHOniaMLVk4+amMPedg1dilHZn8nH/AHQYCAsG3/IiNLrb8fLzUhDtInTbk9WgI7XUdxppgsLmOnritfdh+cPWsBmFe/8Abs0Njxc4aW50a/yVnJ60OETBpy2HzpVwmXr/AFtQJ+6v2sVHoGtbVPpa5/VM8F6PHoB7DAUyFLrRHXp0agR9sI8zFKuNnBYH5/4pMXRPsNnlV7uQOpucno1yqzh61jhtLHiaBgRXKgZnhK1bV7bqVDujnwfegktyT0ArAGV2pupRHYsTS0Oj+VM7Ey+TQwfhnzVu7yWfiOhUECxtTwrkoK26HLEKEx/kN7y/54exIfk4atcCz8j3FBlCOp6xTg0Mk0bVlCydtD7XzpQ4i6DwPw+aHBNPimybmHTd7VKWJyXX79KSRFzed/tKdCnrS19VLsJdkFQrPr/pNDzRR4QH7fn/AJ420Vn4ftirwR07Hv8AUo5IcfQ0+uUppabsvZoaDln3pTuSWz2bUcrxT1UuUUYlQmo0RFu4F+gF6vybT9D3tQydXKbrK/8ATNSJJ+pt4hqC8amvcXSgkBwzU1HrNblYX3vh4aW+0STLQTSpJKGj3NX4oaTacdz7FS9Y6dD9fpUF0AXTwZr5vdOD5JaLX/cL/rNFddPUy7laY/8AT3dmk7DvgftXDzTn/CuL0soVoS7tXDPIJE76Heruyfk4e9ao/ugvt/3NLn3vH3rFOzH6tyrXRH6HIVlDwPiuQqKmzcc81YholHBN5NqQgcB7ndqLFvX3CFfph7J4mru0Ze7Pirxt273S/wAP3ntXGK4/5DhWwGhdvaT3x4iiQG4PmIe1Xe7D7J7Ktzf1ZKyjs/P0fkA+WtZfJ8DXlF99Gs4e/wBr5UMjsv73K1xkAH/h5g3hPnND3LjxBWq/WuUOOr+6a/2/Glo+VMvP6Eil+/uafYW8QVlbeC+Wo/ih4o/ea59Isf8APZQTkmv3o7VoPRHw+gUmPdfmmBdrXsyHx/6U/QfSUvUD/wCHvpJpWcZr59PmWrV818d6+1PzVqv/APhj/8QAKxIAAgIBAwQCAQQDAQEAAAAAAAERITEQQVEgMGFxgZGhQLHB0eHw8WBQ/9oACAECEgM/If8A0anGwpiYFyxHWNEKUpI99rAWxBOkKTb+iQJw1+SMUTedHNshch0hjmkMaPl3Y6EqGQhaxkTw+43xLbPgN4kbZnKBmuI4i8sQawckUbtfmT3J0gp5cauBKtJQMa7Zh05ZCghgQjUyXI8GyHSF7EkQoQ3gi4fYuDgbyc2mIzJSEEPDnR+0SlMwWWNqqZkWjw7COCc6SoTGLJfRBOkNNowUEzZXVBGiYUipbvrT6G9Z6WoLDEnLMhN0xHXLSV4JpEZIcdXwdFgJ6qS36Z0jREPpbaJSTbIFh0Pg4HJOsBLS8EZNxqddMe3RLbHPWhYFLoseWzfoshPmtIS0oSRuNONznVMbxtrBrkia2K2km9zKhNWl0W6CoyRw0JbDz0bPOjWtrofA3Ausamz/AKkLREN1QukSitYLFJOUENrpVqrMT1I3RKJc9Em4lStYTGpPd9Nx6EhoSET208bnj9li49Fihoo50+hBK0UdPJKFyxpXrb30W0lwUtElmWM/DSewSYIsb5GiS30SmWTpD0hEIDFdMieXTHRWjysmdNGvY7NC4FUdXI3ixFcLSoUUN5N+wTop7ClCI6HMsF6bEVpOelMs+zNxB0om4YneRGombXpZN6Mm2CeEJyMELSF07k1q0hOBeQyUnIuZOMIhoUjSznVeB7daeUJwIExIIh2DxoyKUS/gbTjIvBoSJUiSRJHnrgS0cTpNbwSidFkQiKkhZnRQ51j57OzVJzI16FTQ5pm8UDGUmBZQeTIJn0SyOvYQVT0kwLSCUXq7kN6e6pPkY2ck4HwTkhSY9ZyQNP2iOzuhomn2p0nsp5ODB10Qt3ZCsaNZTN7PZwS0Yjt7BjnQtULSdOe4nkkZkNDb41eRsS7yYthOljbHIl33zouBcC4I/ScDhoX6JMs82PZ2chy6H3/RJDHZs40a3HuJ97a7MgSzIlsPAbJsJmGxarXgapRWXdQbJxYzikPJLFuFOa0Zk0CVdsksZwhFZI6aXglaW4ZZZE1R9v5Fy7YyCKTLOEOVuSlzqE5xo2zZ9lJLOJWBi9HEq+mNXQgX2SA37LLUI8KDgMFpk2KcCchFobc6NsuOufhFIew8SPCHlZKUIlDkaGbao3Ma4j2diU7DzInmbElig5It4PqGhZBszuyVjbQ2aVRaSun5CTQqUTkW2iTyNyQLDHUHCh4SXRIhP1woMIvhEMkVPgSDMIGXZkiTgh/BwiAjBUkPpp2KXCJVEaNqKRZUDWNCaJfoaOcGBwT1J9CGYsS9iUgUE8ov3XRghN5HglwZfA161lLWE2ZN2NEowN4Yw3NiLYZMTYbY3DTsvVcoi0yjRt1WySUq3Ek6EbaM5EMsB1JM2hlmxHSsNHge4deShcslS0WdSiIsS2oJIwgnkOZl9NPS/kdexxBD50hovWxqtaBZJLqybJwTqm2GSdLajMZw9fUL5+pbS/kUzO5crBEuSUX04IKsmtG1Omdb6Dg1hjmdVCtpjoc9ECXuWL1cUo26lMhl6JDThlbECdaxYytFDsyRCrTL1ltUmMRga3kdRWbMwjciemjKEoI36s6KKZA0ISPojAow97RcrDLCVbDm+wQxL8GSKHAl6cHkHsohPY+iMmSwyBSE22R1fnSo3ZDsoJCFd67QM3s9RIWkomHTUBsh1Fkt6IrobUNoZutZIrYhjg364NFw9JEyzgcwNHguxsSZRAngcMZFGX0yT8EORkpyUMiCZOQMsBFvDwJiQsEaSiOxs040gas3bslyKcCgxKhK9X2EkMb+NKnaE0INoY38EJE6Y4CdNhsR2otaTo9JWsJQ+4khj9NMm4pDKE8GBCSUEKhsbI7m4az1wTa7yeKHyLTMaNDyIokmBHfWSOGJ1P8AQJ7aEI2F+kXBw0cBf/HjIttDdNCY9npcifff6bYTYXAhIno2GAT+htef0ED4R8tJKPQDRtF6tDzI0bqic/pn3px6AmF9EqEbsc+P0s9yNGm3D8EOWiwU9G9CM30JIXcZfZ40ck9UCRda51g9LEwJOClzpUkrrfYXdlwW3qshO1o0xk1oZLWVB7BbmxDjuUPW+5KXgnGNeJRDgixEE5MAmQJfUurjuRtpfYougnSoHE89MEOEpY2pa1hH3I/Q2P01i9HElepaNkDee35646H14FBOr3JDo4aElXYaUJa12I0ju303fJ8I3K41aSfOj2Q9F5el/pH228FSyKcnPROEiCELGsebrrqi+iX0ZIQpkTexJz25TGrEJWlNcDTgQTaHROnwhO2rXUkV1V2lot+5DhoXAsQJWSWNaJS3rshpM6z2FUOSV2Z1knsQhjfWREXImjkLlCGAy5ELtzaGjkTELsSR2UkMb6QycEMhysMY2JPJPQu0rDy6GLVvSSO2nnS8loyH1aPIxvRiO6nkTGPjoeiXfTyh/A9mKQjS93+lFx/7/wD/2gAIAQMSAz8h/wDsNKef/luE7mQa8GCPsJtqVsnIhKPtI17CMleAbqBE9xPA3L2yZsb2yVzeDwNj3Hn9BfNcCE8bxwYkhG9lw9+TD4Ilw8kQSgl2hDNNRtgTppXCifggW1+UYqI4H4lxt3OaFGln7QyH+y2IXnTBNvWXWSMqO39sGRTOENb9BV75b/3Jbap7PYYqozyIpx8eRl/Q1iClpNocqjzs/kZt0+BoTYnZDZa7Xy440une0MpSMOC3jSSMtDeN2kJHDLt0epclIUQqW8j9onCb15Fi8iPbYeyIXkVyMxN3rOmGM4EkyP8AAr/U8dizvWjzkTQqbvyS3SYpcWi3lRokOIflMcJSlboywiHybfnwTT/IZNSj/BUN89TKQluQKKSv9ZHPKV7gSzLNmfwVTNEISEbaLSSSIYnc38KhprBv4Q0oZ5EyhLfqiW2/ol4VJf7vonl+BndLcfyWknLFyNDVEaJ8z28FIUehQPLxosPDokX156cvA0NuZsRsLVaN5w5yJV9kJDeB6woiSMupJoRQ5Pgjh549jJlG4292nq937Oh1S9+RxYxJIGYrUWjiPiBPRCXOH+7jJRngy40cHyRbsvXQmtwWgQjYUjsW+3pFZQ4mfIr/AO4gkPBfJiR8L9nKS2zHkjG7IRm9wb7CULbYNQKylv0S0uWYXC6IgohE2EsLT0eATPIsjDgby9FCsC2xCG1w3rFrKsTPSE+/+Cnlj8Q6OBLG3yFEtkyU1ME6b0rgnrAh+hjBIiJG1Fc7MrdEhNqmvro+K/oncLDJkisJKEJFUNbrcdkeIkTqCDdl8IWxbKgRLSSpILwKosSOWfkhojyXrK1JQ3d7smJN0w9kN7CVzlj9ieyRRUA5Wcm/eF8dLU/teCZjfQUSHDXJK6kmRPIjfH7p6Pwf7EeyPVukPNpzoknsgTP7T51byvohjch6y0iWksJBfsV8rX8xLRxke9DdL0Wv7JJzyyXochL6qWlvA3NME/wsJiRJLDx0V+TPwhM540ge5UwW12Shv+XkiBu/ShA0/XI/3CVu0/wKarSH930EbUjUo4Y5G7eDcG03sZSrYVKM3b8aJrpn4JJZa9UZBHsyguCj4GqlB47/AL6I9hC+CPGixiGiNrZQVbUiS8fsPy13+hx/wbKumfgr4Wqg5iBSCaJ+iThcc4S2P8+CnwJTA9GM5FEKlucCBCzgcBMY3O2yEqVN/InUE0V46YvyERorTngR3byZTLY7Mb3rgbpXwjwvrROTOx8r8dMRFlErVrSGvFCXnkbaknO1T5FYlWXz5IpJjVEiMYJljwVeRi3fwRS/Y27GsQvfcQxDwS5dQfhOlRDp4emQnKZILk6Zb+BZKR+APGk6V8nKWS1tuS0ayRpNsT/PQ1hl7dU9BtDc/wDAGnXLklDyq/wLLjkVGrWHyLy42X8kqJgh/OjVqWN5oSNt6E2jyMZElBeZK98OqJ/Yo5lPBJr6I0d+RxMaNYcCmbEuNHL41mPBLS5IooWP3dSThDzJH2NOd908jEPnCSHwsZ9seTwJpWCdVH5JrAapKSYTCqgyaNqIF9iRt7Dkfx1xdhLDqMMyqVzpBkfxokyp41XDWenJ5IQy+uHKpj42X5N8fYEcmzySlFXHslzgaxmPsdNyGbNOdnJxTN2yHsCKc2J3RJP6G/hdlWb2fJ8kWmj6pNkiHnTFOWS5eew8aEqYnbkxWe7sZLE1SHMTWzJYdAXMe7FM0bqLHJMyEp+KHMVy9kjLS47bo7RuiwcCcM3wLk4HJM4obMISQJZbgmV9+4yWg2PlC4t7Y0KhiXEpbZHjRNKc4HAuPg2MdOCfPdeDgTkJ7iYhCEZ09C2/LHZPG3ekS2SGsNr5F3HONvMrx+ja3YuoHy36LAjdCFuiOP8A35JxP4F2n0Rmv0LfgXsS2yc6cyMTlweX13nl4fkwy8mBje4s/sw2YGXyZBkz5LWh8MZCR+3dYSxY80eRSbmfA0EJKvknBKH/AKQ2lBcnsjd+DKVXIriT4H7r4KyT9yPLsuiJ3/RIhKhJ4JOBk2iYa5bwUO3jgXMTJBy1r+jdbFDJG69mf9Iu38CGAXKt8slhLCHu548LgqCLZTENbLwPCHkzh9p/oQzSvoL9iJHWMkOOttCOafsZvSSloph0/Oqll8vJHkTT4/o+JPJhzyT8PKF+6uzL9yk0mSfCKKcvJ5g2mkxshb+7EhewaiZ+Rt8XoyP7IVQuGJws2vgfACUTBX564+XkUDYVkvwcDa+D8keXI3IuTbayGy/vYeo/CG964J8jsy4rkd20bIROHKuBLOnEez1XX9djCWWQRlq5GsNVlDepGx8BpDxkT8cCkct2eOBP7N2MjylwEyBVn+BSMMReEOAyUkj5eA5YOGUmtj1dKQ5TEcOWWwip8jjd75FtKBE7Q/ZM80JdqRHJygknwR8cjaGNenkY7gUNkJW5pNe+uXPBC4lHsNWf7hPsol7kjT6XAXdbeIPQFt7ehFXoEjKZPyIUFO0sjMpwiaHOOY2MGOCG3hSij2XTDzZkS8sxpbUSzyJZmmJehttr+RLJymCZbti0/wAjK1MD01HEvaZ7q/e/RyFG9hxaBtw+DIHyuqPYTSGHfkV4RvyNt4ITlQVUyp/JIjlo2u2p4BUMMPmBWi1ggnyJijcuRJVcWNG8t2NDas8Y9ZJyyD4QmlZniC6tbtaG8Kvl/sZUvDglG0i3jW/DN6vRzfYqVfOwnGTV/BS2s0XlC4kfD+NhLDUMmrV7j9jqwJJhC/JE8EG8ckbcIlQQinKdkmMQv2BszS/C/wAip3uxdiYl22OPsld4cotDMcbrkhLKJ8lkt4TrTwm/wJNUjhPMofEQXXyCVH8ESnYXrpr1glmFuYHI1v8AmRkyj/diKT5EiOD69NrSXL4QnhtbE/4DRYG9HJdDrC4Em2R408E27Gt4ILwIbmKYnaRs4tPOxjUNplS3Ni7vf/h7dxDLmVrb2Kx1Zu0ZHMyRh38EsO/2dVSXQ9cipPJNwnPskTWniEOzWGxLs1uPxxnqKezBTFG5bf7fJGaexXUL0jHyNzUc+ZPwfpjbTCl9H2FHgV8x7MAhuYHJCQex9ivB6/ZNEPLHhkrZaBpkOWd0UNMSIRSTU0KjSRGr8Usv/dxqWORGrwJsN/YsREJy/Am8Qu0ySZ+DptE3wSjV0JB2VNEni/gqrUvZvOsvgkVbEjHsedW8fYkf7I4lXB/b0JhYDVwisiduxCS4Jae3/Gse4r0Pb22WT87kIlMTL+HIb+AXJAhsX4HfQYsN0r8t7+9NybW7bgruw7aYFrkfnDBsur8oXmlfglSVOzf4GxQ48BX08jjuUqoTYGtpIwkhjeS5fQst8yehhocWLBw0QLLfBMTKxKC1DIj2cv8AA+bJXtUS69Oik9mQpsIG0NkkO7018b/DFvcil2Ev5G5c/tGrstCZS+wg4yJQ9+hpiIbG+qV5/YS/ca3lVG45EuHwbErZ7of+5uS559mHUmk0x/kRLalUSXHJZZPlPZ+DJMHKjgZSfstCG8PZ+BJeP7Mht7FRP/RE4dESBJvnoy/wRmePA45zZrknMJJJRYIfIx8DeEl8CjQrK3/KLBKtKbka2+Rtkhw3xw4Y25tySJN8sWHXKdF43hiQ2EtsKdNxI9VaS4Jv+SZAStqVG7wTt+BxCfH1uQJc84Ikplsov+xpCRrediz8jGIy+WV9mSt9DkUQk/PTDlZQk8rKJTXI+yyjhQh5Rd8EYLW/FDuPlX8h3Zv2N/4ISnaKnCIZHhYGc2wkFNDCU9jd8f0SbfzF6EVQoShLGshyX8gIz8Aiew3mB5XwuEQUfyQ4iafmRUXyF8E4SXwJZG5vqbyqLFlZRHJb83PselQ8NEiMohi0ShjeU/Ykkiht4k33bCRs0PtcXTX50eDHSxY2c8kCqZ7lwU4HDk2JZobCmYIJIcP5G/jjsMlv6P2jR17pGv8AIbZPA8kNQ3hr/JYcTsTBmwoX9AyW+4n+7/ZPD9afB5PZJujJouTwLZD5HT7C5J9EvW3bop/J4Z8BM4nuIEkJIkoWCq8ojwkL0rKafz38D+BP95GBrVLXf8DiA+8xMhd0/aP9SG2r5G7mXsZm/SJhkf8AA/5DhvLf6CTlwLy9D0vDH+gnFjeTcLLR7NkT+DehhUfJ/QzYO63ixeXgTxSKSjBT8aRaN9MbsTyipX0RnuN5pCWKXIlhsyyPdBDc8ic2J5Nvwbp+MDK2LlotefGwyEjteiEsLWFmVqhCjNkGGHECz+GN4fapv+AfijbYUxk86rwJD8Aka2t/IXnQ8mgTCsE5pNoNiRb/AJJDbcw1lR17sI2whcwRvJOsirRo2fQkbfDG8PsNOP6PMkDZMfIiYSELxpyhiyWUCSfiEIgzL0UvHVJChE7wImiMFSSbsrBPR8RPGiRGVh+eq0TVD+AxAm4ROPyJRosSeSa5F4TbIkJPOh/6jdYyjxo3R1Zenz0SIbehtglzyTsVBDh1rwKGOnP+8L2II5TZDocFBFD5G3JtDbwJl4EmyHl+kiRar8NGk2lL45HzBe245urg2RRbt0ohcZ9lPSTIr/BLEh8D8IfhlWNTZbwWQkTvp6XRJLliSWXn4JT7FiSXngbex5LJLb4EqK9xidqhoSthN1KY8kIgScxI2goFHtyuR7qJtlvHRKeLJ6J0SE4ZWrnAYECcplCct/A14TIdaTtHognzLo+5EteFj2Oc5eqZd9vBLL8ByyY1pJr6E1BJjrEEKCYlPd4IanBGs67Q/AyXh6rJxC6ax86FVi4Sbo+zY+NJgqOCBODKLfR4n7HzY03opwjFl9jwZYhzZbbkm+XOkYlAlT79kfRwIcZLuK0SVVv0pe9fs0nLg/6RvpuZb2Eyx4fz0LznXiRJNb6XrL0+x9FPJ+S6e2NKT4o5PDNhTD7uhzRBzzjcwqiYrbEyCSVuNce2ltayMpLjVImKwNYomXKaG7T26J8VskyNKNYLfvoUn4THNrbYbwx5+SPQoRv0M7sJ8jbNgvl56HB0p5/oRJV5RDY2z2MJb7DzT4bCVEvSfdrEBfvSdIZOiSEnzubBzG6hY/ZBgiCPJxpEuF0qDBJfkboqZRbvuMSSTmMiZpBiKJeJs2fFk8jAp8nKDko+RF2L5IKLesNPgpPZJ6JGwnv0wTgeqNIRc9KLrYmuJ++SqwxCI/JZDme7G5hTBYt+diSvcmj2JZzhOSP+Ek6OfBZZgt76IP66LfSNDQ0J+yLjgeyERgcckEYZyXp8VdMxqVNoo1hYW0G6HGSCdxnj5G7hxsOjGirNn+CKlwzII3ONzgDYuTYpLl0NBjph2CRC1lwhxAhIkhSyhDaWNIybI3IQutCWcPRHp/gzcfBknG4dCPQdE9GtC4abLZy/HAnZnufnSHWoqnliokk09+SGjca2HsPoc3ZdUR8m70gi2/obtvfrbJrYSyvlE2iPBb0RVPO5+yexyCbvoYWVX4KV/aNafu9EPyJbJjsePs+BPymJ4fwbhOByo9D2ZGbFwjgnI+YN1iu36Q3/AI7LaULFxyhPJsuRrwPDfrwxr4EzhDzpfuPCpD08rGpttiU9l/5gixtWJ+PJsPI8iEeBKrPwO7c9t2VM2X5QnaciyG2E/kXyPwRwkS2M743KavyfPcbSm0YgbLgxfdqsnBtRbJ8mZ/G3feDaMw3JobePZxi8vRuPYw1Hk2/0X+Qf5w3lt/P/AL7/xAAtEwABAwMDAwQDAQEBAQEBAAABABEhMUFRYXGBkaHwELHB0SAw4fFAUGBwgP/aAAgBAQMDPxD/APiiAMMWia4lU7icRQux+mP/ADwqDkLBUV3ghQQdi/8A4YH4QFguSVAAck6AJoKZAHtgGQ5U44aOoADagUOLE82iHhBdxCB7o7A5ERepdDKGURLZgbQTUrDRHHkmbRvYNCJCB/6mQCbm3w4eeZsh6AHJYC6Eo1Fm9hylQXIAbzLRpj1fDXel0d31nTkUFN/uyPlxsmpPo3THzLzm0j2QfKD7kV/iv46s3Mdgrs4PRldKx7hdlQhuH4OpTj/4YAXBKFBB2/7QDmAKopp0wu9wWOxjdAEBBAFwRkHCj7rOt/IVKCG9C3R6qnCrPXIMg+6azsIfC/0ChQrBIrfQQqj4yngLaIwdKOvcVWJFkcwmpBNsJJ5Q2/umgxByXmpBVmuwIGFkpSUkXhRtBRCCI0xHyQSE/ReQIaA7kU2bY+SiiJEwEaOm5sBzbDufYwJF/Gj3FGdI+djUHJgf+ZKo6qwXDUOreKnEL7u9ANa1suoDURlG5RM3GYOsR2ZAUABoYgOy5gnjhFWAiqEBQZQ0HBJ8BHVAUcoqQjugYxJMCqagCdjmx1vUsBkjqtSKoPwtIEcFMO6GMkD4EJgaQcGDRAzyX2kXOlkTqgEOBKyoiTtuKjn/AKW0Y36AcodykD54tChHvrYCppEFvmOZx0xKGUqcnHxEZNJDEmewDOWVWrbmBqA7I9a0eOQdShUbyhgBvj5jtdOhecH4EuE6DXIQ5dEzBTqkHKfLqQDpAM6vFOiNMGSPChdQsyKN2JQdntP/AGuWXYP5xIfImHP5yVGp5CQhf54yild0PSlkOjJJ+QpgQbsIgRCUCjL4BLrA4csZ/wCj6bXD7FOAt1TCfpOYqg6amo/KfmfkVWGFOdn105oi4uQ0vTOoEgPTVSEnkDfUDGyMOS2CSxoFgPf8QcI7htCdAITRyytxToqbcPpUzKdoWqOlJ3REC6HE/LrCAgkANCJB2P8AziiHnt1id0nD0iEx4eEY5JX2VUjMhQ3yARvy5/A0ILrs7yUOLaXQjJBzvZGFoAEEWAgtASq2y2WdZTsfJarhASL3AADxpB7qF3Qx8G5YcGquoLCLBT/VEcrXJTOTcwYp6DB6k3gUrpUKDtkHwr/EKOxOqxiGfsPkZTdugUWAb62qgCkZIO4cj55AOhmg/wCcHAHjjxR9ThNBJF3CrnUf8wth4KpqJlXdCpCVcsRTuo4GMF/O/Y3q0DgLjQCbIrOi8Kg8FSUK1EBkMYIMgvYosD7swfCFSG5JbYN7BuP+GImcyZJgIlySpTKWaQWIIMgghiCgASYAQp4QJHxWwfYzgAujSJ8EA5ZCHTNY4blyb/ZU9CLSq+hYg1QOca88hNKggNYvYqZjCG5iKkkAd0aDmmQTSpgMGUFW8Gccg+9b0PobnVxyqniL/EbN0B1uF2OHZbH10TwBlCBt8nAeAGQ9q0P/ALfICH3BjxTMHogwnfYhxQaVIENEFSU0sEmAq8aSacGG5LLINDZowHqUIb9hkaml4HnRNwsImsHQZUqhaKUGAgCXaGP+UCA6LqPMKokZqvnSpJPgVAhCBw1uCSLEGQUbBkPmchyWugAjLMp7M4Dqi7FcBw9tf69EGCSAgMIDcejlr/iFVfj4Efg1ootAJlM3xTUCm4EdD0O6EhGiq0X1uQmmdFMuCkvu5D/gIDidz4T2HfD3FPFpSGB1q9gKDRwGqZ5IoxTBz0UnOW91YLUXckwWJdLxm7kIvs5wWUWMwgAc4shbIHrOwCGfNdoKX0BhYBqmwQMoKBvQGxJXcO5ehgpDogqKGf8AEAuFReEZkpUhNE4YpRj21dAEtAMJzBL5Bklv4ASrHSaCgkui5uqAZpGqP9AJKf8AgQ+g2KxW3h0GBqXjpbumba10dnJQI4lA2VkXaDyoV5R9t/aQMCQOArgPO7P/AMLaIpn8tJtoTiYHknJPKLNOiavoGNtnsoTO3zgF1fKHlkch1jYVQQCAEycZBX+SdfwLCAr8AX2CinME6qTUILX7pV2A6no/o+EhjirdwFbXhHqreA3o7Ho6J1RYpkUNGSgkgzwgBMFpcYbjh+99L2aM6ZuY+8FPJhSK+UVHNOAO92U2El2E9LQYSR4S5DYLHDooRnwX4Ea15GCQ2UtRZNTgIP8AFR97/tERzAVZqY2xzk7i5LQyHHgBTszj7kUCqmhB7AVIBlAxyc02cxGG3slGHDynkCKZCJ3XiCceTqtQe+ElxIejdJ8Nv5loicEHzoIS7O6GjwzRUNh7i4PQtmIiH9R3TZKbMiasEPcUQAk1JpMzgXKOg3egclcIkoACWhuL32O6f/gZZcrf2Vg6YmxxH3lWqVCTwGkII5jYLl0CMJktJo5UvQGFGUUoUZfn4gGOQpNHnKLN6FNwQxbQxq4DlAkM5ChR9MtIWqSL2DlEMoLgEvUkeMgWRtK4H9egVoVYl2b7RZ4DZ7CG1C07lXNGT7MIkLRNwDhXUD0jboADOe1hlAHF1f4r6EarKRdkcACg70zq8SgACCV3hs+OrZqHNgwbTuruQ/CJrADtMQy8Q8tU+xMHvQrU9SEmbFQwsqhUEBHrgsRpUa3GuS/kr+4xjV8nCWFAzyUQOTKstdoNFKJgze4eDhwXJgZmgAg2QOzWgmurwKe6FDmdOSUWZyWjGhqi5g5zjQISpUDL3gLD+ljFAAq1FiJKslBqfiAbkoPA3VWK06JRuoEyCSDGAHpVAIbMY6lkRGJuP3YK13RRXwiJn6ZasHLBg8tusoCvC4fMoU4BfG3yKedZxINhYKV8wsHpaFqggjz/AOmrGgILPBL3iTyBrEFw7dyaTkuurluSdErB1QT+NkMyllhfZKYO0c2HZxQeT2QdQSP2sjXFLfIs3ScC4wZmEtQq0B6BmxHmBN3o+EQ1YIKsXJ7nq0AQgVLiUEBw0BCnMNyGMHQiCTeBpKQFNZLlYbdi8rUC96fDbRngxuzosIBge8+pZHsPchnIDgAuAbsu3oWB1FV0DU/aqQCKeCFSgMLABNIIl/QHIPbLoPRHhCIRibIZuY1EbwM2O+0dPMIy4pYFL0RUdRwiFobGq6hHtZMowwLICSK+6IrwkhfVuo437UL/ADL/ALRpxzrWNN2kJ3tAYH3RWp7EXOiHCRk9kE1NaSkqt+RgwFCKLB8ZB1CDIzAeBBbxYcaoMrclElBa32XhjRNX8JfHAFIUrDZhPBL8Et3ZdDfyQbvR/gKNPk+J7oxl8pWPqBCsoyx9imlIMVOjndI01THWrfzqhuCb3pT3ADuKTBxo7fCqCbbbT30CC6V3iDwFihQoW+TtMpv32/MexBBoPtVplFrwKQiXOrJyAdzsRhuxLq0Nfik/P7DozxrkjUAAalRD/wABtsNHsEN6ASQADkmwChYK/CFP+mkboQJUOiUgB2D6TadYcwVwZX0aZ9zf1c0HdxIDo6BwYF9Tu87owO9n4DDsjqxFc3TnAKC1M6/Advq8OVvylDroBqDCmNl86/paUMGCSbWBcnGtEdRn3Qj4pgnAf1YiGYCRkkPfScogO4CAJCtaYUGniGYdgVbVdYo3WhKOaT9F5ll382FiIyaqQp1CViYlh3YwbERRHicBF0Hf+YRwasCDGUTgooSP9MQAVi5AIIC6WwHROSQnhH/L6Q8ABX+8fSNwEE0QWRrr+E0ntwOoE0UycCAo6mhdN7sOFNGr0CaXvkIRQBmsYOlmsrWTOLLUao9II0vVmd0E/PG3OaIUfNb7AdBB3tA+3KPtN2daFQ4ntHBIIAJfj9cKjXTPONJIy1LiWXckxuvqFXYGQQyqxoc2GPci8MScam7lgQBih0TJc0iz1A9DLWTgBilfqJEsFDvPsjmGcnYC5sHKaIw4cwg0IOCPR0Z9oKlwwHYcmqG/aTgpvWceaAP8LTQ6fF0AAmKCzqhI1egVTI0oOFjQOO/qxkRL7g4TLRICnNj+oJH6AYqAQeUwmYlfSHMqjjnkp7xFqLCxuxQoZ6athNcilyzXfCIRlOUNF/oZax5AHxvKHOn20QWqqV6QPbh2BAV60YDQi2nVhcD7GQhCCCn6TFFcsC91sZuhWAMSEcysSU1BmCNUBsriYzCiMFWEHssAhQIN5gPYKugt00/O8XFHAAJlvNU7ZIvahu+ibWZAEakxmXhOOhR4NA/6DsnlLXbazXsTVCbPwgDgv81NXOYszkbI4BKo0QedASpKjOrQ+EBhcjeBQsqFHmQz1o3/AFzbvxzLUkFJ58E8A5Tn8j8jJgxPFPiURIIZDAex7k+k2ESYbow0TpwcXKNh0ejMWDX5jMhUW/DYTBAfRJKQjYIgguALNyhMtSjlPlx3Ho6BzMJk2RfIGyEAf6BFFQFSsDzZcSZ1o+BCpsEAmLC5JeSNyMkp1p/vq6xYbQXv2OiwNuso6h/SBAkMBrQzTSahEsr6JNgPui5KIgXkAsOpuqJIhlfvClFy7voOizLjBtgZsG5AEl0cnii5DR2GIuwTR0blQaCodXVtpQpMaT6HFFkGSaIqfRCDcCOShTOB4CH6QX+qtW8qkwZBRWA7FPjCxBNBZetQ3QTB133NwxXBFBwNiI5IwcAhhpBhBIRyGrj5RKrnbOluTUXHqvtcMFCA8pOosCN/5V1lSnUVMjm7yiur4qXQCxAJLDS6BMBAzAoMMrCD8Y6H/ULru7HlCGZSgC8gVTfkW1zxgsO4kKEQuLEaFrh6NdFYRCwDjNAh+PQEKAERZYaLHoBE7kMy7kwmzdGkGAWUsnx4f/yVKNPkRxEjgZMFUECvKJvK5CFjum6A1mPoEwDEEPBRhKWdo2HKHFgguDdiDAAA1hAGwRKJdZgCd/Spg7hO9LugTCPEmD1OqIB0xBwcn5sjMcB7FlMa54dG0fs4GYigE2joE2QpOFjxLuTVcwym2BcdQPEyvBWk23mVSp4Z+g52V4LtcNXyyJPDbXwgDYQEkJMrYk40YFQqmJ5E4eLAaJ0BgZBD4CZBwg5NzqjlkFg9gR3Q9g/cln3IITLTbnumibm7qd1KA1u6A4t0bmaIcZwDJUt2gWBalVihtRFvnVYKDhFocx4vkeVQXyNw7olMEK6SG7jKJE/YB7hB4BWcEEQcJUPsSMyit4TY2oyjiB7ioYOkgUZQbu2IpLdqn0v40e8Y/wClhNkTEpdRUW8eqOh1e/z+Vcwfhw/ApVWjyQ9yfaEGXDEQZlEe65UA5Jk1LRUNR29AJIAHJJYACpJMAJ26AHfegdxhotYmJQEctgBFQKVIbH9mVPhLHujHnO+1FjGmzjsghAvj/UH6DU6xLaws/wAURXOLDnSDBgxLHj0AMQ4MEHCI4TYTwBpwiWlMkP0DYUHqShPfueNlDYXbZAIPZNsB690AOJBkfkQCcBAOCaHqhZrVZYH2AMBBTvJGXB2tRXp54OuRh2biRuXsgkBAiwIEzSHQkSqOFib1uBR9lR4xVAAqr1MKrg2nVidXV1zIGMO0Ri7lQBefNwLoM5tJOgUwpjZ/UAWqUGyLd5Ojv7np2AZ+IhP/AAor7latkGOx3TJOsh3Sh0dfu9kQ8RnV7iDFSFwd8J2LCDNPkQgGK9gVmXkEEkHLxC+4oBgCyp3S6kIWk8m2ILEnZZ2Q+wBnUAEGHhNwBuoSTCgCNCfFQifqaIFR8ZV+yTqp0QuF2oUJvOqfNHyUBiZ/wECxbdeIl41ukQOuWWzQ8WKIThEyDT8yPgJ56oen4ICHA0hBcbEiA9UBAQQDgiQR6R6BN7sTY8O50CMRgSh/pDQiSVwoB9gq1VBwGWqjKhNjOAA2MGcJziOno68+eH42oYQkio3smLBA0QVG/Byog+FV3IoOgEjU7hNLVUXncNKBW+a8sGcaElBg1GHobWYdjr5hUCKxBuCR6mj0LaYCAQG4QeTkn0ggaEK8qqE6cTm+oXc/k6L+PcB4TBrt06DZ0/KsyISzQGpQdHIJFlTwZWIEmPbhnDYQJU1/e3J+yAiGFdOdcagndZxBcEkOEto7QaguBsrXls8boAwAxIeKoE3Ajl4HK0Zk3wwurIHYHsQtoh4dotm0Nwq5nhZXJ32guqgBBQY6APU4tVAAPBRDZbsuvvBBke8ccjKjUbxv9BHUIch2a5vA0TyAxUZkh3SzGihxAhwMl0S1gtxP1CJK8EY2yF9aTzldu4FDoo1110QzyFCGGAQjsxKnhQom4NUwwjJWuAJqUHTszeULWCAYAgDt+elu1PYRpgWD+B1UFgbLClDfRmTCprIvwcAoPBuQDBCh4NwyNlooHCID6+gaABBBkEGoKdIndN1DyFExg/hwQ6jwelTGglAFDWoAME71+6J63Uv7iaBsAAhHXHyxQHYynOyk2I9xHpbuivlG6dLldZMFRiQI1a8eYQ8nYC4sZo4jRMA2B6NKQGDe4A7oFdUEVdaGaRUh2QgRO7qgYqE1gHsSkVLRdEuADIzsXA4eWi/p8KQtLeQarQoO9P5x26iv7gVwSNHcVaJrAh2N05SHzI2XaycoBQ02Bps5vuj5DvB8Zo5RMZVfsfILUY6ZO1UTbW5Pods/0RBncTynIjHDAVBcGE5kN7AoW4U3b9CAoeAvuC9U0y7riT2/N18KWB0qiFIScjSxsUERQQhgKOqM15ZuChsUMZg3hCUQBYypr3B7juqMJxj/ANrIz9czLYsyB4QLvIcOdDKAMHWgE6wiRcjgwu1eQoxIKmAT2C5FaJQLg2j3TEfAq+CH9wAD+jzCBHhBvt+AMEAjqgAAAALABkWYzJJZ6UCyX+IGSdQAdcv4D1Mi7sNjtct/Hqi+0bsJGgzKPTpQ+AmA9HxpM6u8OzboJTvGnxe1Ub5J1nRNAxgCQZcD9G4OEEfhcCnCGayIrZ25GJ6F1AEHYSic8ADYODdU43hkkyPQGqb/AHUuB1ICGrLmtDy5qg4mzAoUc9M5VgZmQUwmBy7WjYgiwgDQKp8h7lhLMHMZFGFPT4Wu7pJ2X/NLPzMyZC+wLS4H3gLlOqIt5xz4LULpLghHzgEwetQ9hW4qOgctJ9Z3WkjyhbEoIl4HNwywS5Tw7C9sk5XDYlwtTUQVeTcnHJo4b9gm49pcu3B+l1sIpIgMJFebYHvFXj9PKZBBCdr1AcChDFhlpYBceFdh472BNmU3gqLsXs9xkGaPOUanBFpMygbPcawVYJIAHaN0qhwPBCTVBuw22DBZA6J45I7iE/VZO83cfofw5vZeHD+/hrJi4FyhQF6DpIza2Z9AFABwPR0S7pF7YoDJO6DXTVeoAjAMubqI4AiJHPxREcIeaEEIyMIegLGD5dwF3WQAMAeZ/KgsRqil0uu0WrzIegLyBKnZf5dptfcH3/FgvPI7KCGToAlRR4EFXJ7wi52CkWLdHCHbAPdvzzqcODpGHJTgSa8LsROppArYdW0rYGBAHh116hqnUM/y9iq6qe/RLl6E8AhszQ8QRNFByhU4WD0BIWLOWQUDLWdKVw+JC/PBT2+/g8J/WKeAyHUDCvmkQOqvFVnafPK+jq6ZH4nVi8rZS+ShsmxQgBtaJeAIGgbEprr/AFIz0S7HTXZBYMODQGUxuvbjoSUmMk5gCAZB4ZU4FCw/gIMf4v0Eni1eGxvon/FlBGwaN3uEDLyjbUwufkh1TRuPq8MT0TU442aCJ/amvevkgGGpM/oBBBkEMXuDlD2MgTokP+mNnqimAHKqtUA8TBhkX9BT0cehjQ3BJw0hzcpOCATF5wMmeu/9Dry4WqfyJYTNxgncgHyy6YhY6AVdwQ8IVTuLuQ2OWQdsoplKzljQYDuYG624QaGzQ0WRqep3DpTeKQlOefQbYUzg5YP8UcRLN/FA4QFY7AU+C0+cP7BBWkbCwOD29SenuS3sQydvTe8KFhhglEDBMGQzthZRciXH14dVkJdLbPkbk63WOZi7uhIW0KEFntOCnmoujkF4mImsrihkBFH3fmLp1RoCrgdAfdNg9BBKHKOpbkRj1MEGckwAmuH2jLOgKBkuMHiBdLMspBF46E+9zOAPoxBC6DJBXv3QFJv0gOwQwEi5aA9x7CKAeAAGA2AVUoncgFRAByF36z0imb4Fz7PtCFKDECA4EbFaIUN29kJGr8HoukCSJy/CYRnAOBqFnOhWRF7pNh+cHmiSdgoTYRYPKAVOqGgAAgEXBglZ0Sz15qCXhRSAD5LGGbj5qVDNOCdhMdfwTLLADsiBlXN1CWhG8KXTEUyizUPD9gM6jmCxIOnZ3ZVIFW651UERbKD+zY0Gup4WJPcowoxSh30JDN09gEJxuIQt4UIGSSckLHg/kBlGgxMpzlAzbNlARdzuQU4OD2qLD3VcImMyQBPP6M6LKYeCyAsKA4no1+I5f6EiioipcAeAunA2aQI+UMZwgDsFKI0EqVoGn1LRuvdzhXyGQ4DgJADgjQj9LghXKPoaTWywGyeBzExMmnbNU/o6HLOHIOSXYB0+dTuZ7j5QiElIC7dvwnNTtv8AD1Xh4PcUwf4X5wlrqB54ob101x75pMkBY9ufhAh3kkqaEEpBDwSVbqrTYGctJIasg3aPQy5btJZ10WgujzcGuathEJr/AIUSTymkZxA3DOiir9+6G5RI8zhx2IYbcGzsSQf1BXYM/g8gve40PcPKIBZ3QAwoM1pUMTL2KPsOEXTUClbSqKWKgYTti9iEA2ZAK1XmBDyEdzbU7fKcoAwsnA6IMopo4DcJlsCNNzbpjZdb9E7GHt76yJAV7gR2KJnsZfROjVb6K/ff0YtkTB9cnBOmCIgUcunK0ubTqIlUmRa1gElIBYKy+pZQGtrdGv4SuI731guekj88cdUjphyE8RjNQVvRYIU1F+VkXWjrlZjnoAERh2zHDgBnBHrb8jydPIg6DlIppbmwkkb7A89vzZD6PsDwJvqqM1gEQ4jeIsgosRBygkwRoQPZd9CWUQJQrvhPwrJli6GdJLWIP3oJYjGDnC5x9ZS0tWqWz+xWiDAifkBJJ8AJ4UTvMjc11QPpzJd6qUY+sDcFEqWLEA9lAmyF+5p2uD436D2gRYqkjCqX/wCRt1DiCRL3GqqVVTEHAABy5NI3RZrfcQ3a6moCBQ9KeJtRsllXf+hT1BMQ1+Po9WSDtp+UNrSEv+ZRPQ7s9WBkdbKa2QTKxIwbCCAQRjDww/oMQl5Q9hVzeGz3JefZvQCJwA+rppEYtMRuqIFBndPYclWrl2bbwHQS1NciBpsmFntJVyzDUcQAUYU2wOphdAYHCtHfP+JoQXgsml6reYhYifqT+jIi3QdL1KHPQMXRi6e4gM+zt/a6BAUnxEIFAQeNzl+BwECHU8OLJBhZB6MCnADuqkFRHrVqePR/VhNhPROk3K+2RSxR/f7j85eeAs1VbtToT2I+E95N6oosOhgeVaajKWi5ihq0mDFfQpZ8grGV5rE6A4e0o/ZeK7AhCdZpCE8+tetG6C21AQDNfvFNaC0bpYs+0n4yBHYMAhBTx+qP1L2QAzR1acjD8k/uz2DmbC862pA5q6JyKljUQ17EKopMKeVXmk/zc7IRhVRLoaU7OgeELlQlUOUFrXizeIlnKnBeX5Q81pu4UURuQHQYiqnKktxhFDfESrs8BVhASwAa63MRJf1ICKoRKYQf8IWTFMYABz1/MSoG+h8rlkAj5oSQlch0XtRKF4MPwEedcvRYjMFwRCchAGTt2A1VDwa4xVdCHmgfddHCzQXLg7gGpQ15ET0FLWKLmCLA+o76npawtRjsLSmQ6kXxkhibwTVsg8sMPZeDDACeiHAumKHshw3/ALpiqy+YvaCmvFnofdaqGrypwIROjwKhPWk1I6IOgtc2IHEPV2cPR0AIAYeSxIeWNR6viXm1zW16C6LdwB1RA0PmKBGt9IA0VF6J+LAlDpiS87/gMBpuiBVsHCAzjzB99FocObpyp17vyHVc8/ELX20hJbuNb0XUERWP9IgQaJkBvRl95I1UZh+TjYnuVB3XDmvYEs6OZsOxyoRsD6wCt4HSOACFPZG/PEXBIqVVUdyQOOcJgOiPZlaEHwnsKgl7QG7Tq6Jqfw0TzU4omhQZ54kFoScIFCa0pExP/VL3QeUJJDlEZXdcD6gE8iveuIRcc7uivzkOlEFMVaRaUIYF9B1BKPHIzGwYnXL7uxBqng1bD0eUByZi/olEv9zIpaBQSwxDKQhR0jyT9rYJo9DnLc2pV2xciYWJRwY+kjuQ1BwQOB+n2YYPZWUAp6DoB+An8pPPz/XRzvOXKMSNJJOa+N94E40DZCcBqQl5LKeh9A1YhOE5LACX9HIybpAfgC6yFOVyyf1BGhUiRKoUCzQumOCWNGggnBgd1HgLScFY92ufWAN4n30QKpdBknKG8yoD3URTsOSO17IZQQFP6EEtxErkqOIdgal9jhXJ9uzuPdEW6jvaduPzAEEODBBlwuK7JKhVEVoTa8LpQVRZFR4nsDOwDIkMECE0RaqnHdhoZJVF1YmEGbLk1F2iuJ9upQ6oFMqoOjAvBoGLIlT9I5eyP9RTXHJ4yG3svMDVmBxAAOcEBsqlW8HRIB5njMxF8D+h8fcI2Aam+kEaUco46GPmqP8AjvRKairYzxGaIqKd0HPsyddLVysnirdsK6BhMkYBB1jdixkBcS5QH/L34f6yLPqMdpLU5PprwMNBX6ToPhiv1JyaQSScJRO/sYgjoJjSoN3rq6AGCJlZOEBBF/SNAYQWFAljKXKACCQCJBB1TIjKc1SCgqCPOgIP4wBh30Vk5EYiK2ZMBEyE7DHertr6TutGncEofJ1ZkK8AjsY+QOeFfcNgMAEAAWHg9ZViB1IDauhilohgG6IBT8BS6PsnMiTlpBqLFgtkJnyGx64gyOCPQGqqAeNSmrVjgpzZ7GAn2TeggLJhv7gLoUdQ5BR69kLnSKLA6MhN+RUlSRLE7AMpxyAMg64VuSTuToSfaT1gWqTq0OoTZsFaVMizkMlbQUBtAayiyo5MmhGErKkmwAeCekmeYdxdNNh8zu7E0QNpnZZVqjppiHuVMgO6bVedGEe43K1Fbk/jGixlwmEWrRHsbl0m9NkyZ23BQgiO7AKQX7igmPpSNEMaoO218xgNwjtzCA91c7Ddz8BMlgufaRwy83MyWmFQcUq7JsGTZBDO3bFf+NxghekAEgDdZu61FI8Tq7pgSVc5MXuMAPA4RWJg0COjsEGqOh/HKNMhxDJdzZBNg4D2OaI0f673afo/VW/Oj34QTdj/AMQNCibglocJabsycdYL7HgdD4G3pSoo9Gp7hZGYQ6OG7EIBMixOjKyAB0yfi+ZDNQ09H9JIoAlGLkEQeYxyUfiAWz3KDYMiSbJ0ZjtlMajEodnr6Q1hERAwGs6GQ5wRoBvkM+jIBPT08KJDzIAh8hpXCZQyCzsCeKcM5N7HuLJvQMIm4cFSEETkkkyT1DugNdzTy6cAb2Mkdbj8yq5AHcYOqMSoqB+5NiQRYZjMAoBKTuHhCeZaXObyAOwg2lR2VAHUUQArjsaxGialyCQeEWICgkkaAMmwQvQQOqRXimVkAjwoyxQNAo5gnTpBB0gQcaFB/wCsOADqjuAPRNhGST/gSohkmPBKHKCNQJYZRSZVVi4o3RA1K7pl2cIQgEalQPESKbzNExO+1q7n1s9V5maBuG+xUKwf4+ceDsyG7l/lGv1WRcbAA7n5FEsjS5qoZCi7PIMMT7UEZ1OQLialEgBJD7liahO+GydtIa/YGUZQMSBf4AocfdKEkylVSym7poie6NDigqr6z4bI/YQBUVruNLhAik4DB2TmiZqsbWk41CHY4yDID0UEA7/jsKEuYDtDgMydAbAYYyjdunoyygnRtWiTXsPKCABQAMArPCgDVA3IuaIRgA3kKMgaHL2/AQk2mFsGDjATYIBhYcEiRwYQb8CMByKA6nogO+6JkfQASTAJJwBU8BX9Ng92lANyNyujRHPFQmyYcBYc5/UPhypnFRMoYm6FlizojDHBkhnsHwQAYcDYZbILADF/Uy+8RWFwk+RXqKfc+3pNNkGAkeQsrsLxk1uDE+6Aysk0TltootFNPms3cLMNS1xN0QtJIGgpUOoyRQz76XARMPv+gtARCMKzFjEyfHr2KdRTuK1qMuXnoylQ5U+fYAwpUPhv9chaVIYOoe7oE2Dm+RfReG94orZosOhZiFUJGhItwoKl9gN7dWmRiDw8FDaRFwFQRkFGa9dF9Y2Jpp78Fz/5ZzP2ksY1KGm3sNhBR2MmAJDmHcImqPmWpMIFXJKDurx2GLd/2Cae65VBqwQmE3OrekRMiqjZ6878vjDCMgZFCrtaHcQ1RkQ7G6pTg+Swj2wfRmhhwhrYBEocbQyBKQu3DudyIAOSwHZCSAK4Hw3R0ZEPkmICIE2/Bk6eP8RGQ4AHsSCAABgBAA2/Bjd7acHAcOCsorBV4ypCzmW/AASLMiZFAEbkQH2FOhBqBkWqDq4cgAMAESwWIaACU3NAJD91XRk368KFBkY3zTwAshFIJQpc1Ej4xpnhNKmm5vymAY9wvDDVlXugDWPdFXR/IHBYBMLui/3Dhwv0EFnp/nX6FSUVeUukY4V000Hd3rQ53yO1M8jPxEFSWbSIvbFDKWnrDlk3EjFIMAGqeRA1x3EZnYF8q6UQy98UwinyCYjZ8LggMu1xxmQK/Qy7u1AWRRAeCHHUD8XQSth28CBKHsgCes4PPSUuEoohGZOAAeOVTxhO4QdQIicMjEDJc3e5dFwkS4Otx1X1VHeHh3ycoAObSTgXKISXICZmrcnVsm/Y6zHkL7DyWRTqd1ECAyNfhDp8QgHoG69SLMdAAvY86oJg7E8XUDcQ9PwSJmCiwLEXBZiEw5wOBdk34mpqXNQn0HoMyhSGGXIJhEHINRx+AkzN4MPNJNBITeUQ0GXZOyh2ZOZB9QDoROsCnoyJwPtQAmUIXFnNVqqd/QuBDsnOQBXoQEAYAwAgACjD9g6lWkAMQpY8MzxSuEIt7VGCH34M9kZJV6O9kQHp6/IQX0RyzciOwA6kWwOp6wn/ACKIKB0Qk5OqvdBSx2gqQBVtcPcOkeFXaqvHjdRhBgGBQ0/iAkAzwSgigmoKaRuTQ0AZQ5spqtLspZv6i5SozYLoNdYUhGmYmrpu0Ubdy/mQHdKGkKegB6m0QB1T2rUPLC4xvedCOgiSExwDbNNU1YPWdTqYRQhHMcQ0xf2QGjpOw5fVM82qrIVywDxhcJ0Bx6Trm2IcQgtAGAHH7gE3TpU3D54gaBHUFMJb5UNFrh3wkGgcFY5gQc2PJoQmVWQgLj8WTqqxJLiJDUkgfFk34EDVgHB4MIryn/IJuy7cHRo4CEAIACABt6AcmRfDzVTneG3lPoEijK2bNhJuFYNad4oYpgYoShcQSxh2TAML7HgRlSo6izD3Ul3JJOv7oESHkirEVHyNKwwJQ4TR8hsmKei9h7SNFpSgHWArsrugyFwIIDWo1RQK3Rrk7/10SEAyNmAqWLEgIzcfDHgpO4hATNbKdDM9hQSOBm8cgpvOU9hAWDr5u5HUQKsS4nUUJP8Av5lIDDAIyYDxAYqdOTDrOfp4VbMqO3GDfzKifjB8lUFNElGokbLLJrN2jQeAIR7GUz3w6lZAeVEWJFV9IQOKU7F2J96JquVgr5uuaq9zpT/gMZg5wRBFYyiAuasJQIgINQZHRBf6fR1kCDQ0OYiAC7rOxTqRT3KP0A+renlU6/iiI6d7eURAllwdmaLIFxcq7HKCSVTooCz0IVLpEbm6DJLWU2O6jj2ID/gETAIVh/VkQqoxob6yPqD/ABCLM28NMqfa2B9ZH2XPgBb7BMCWTGe9hXCBQIAgDo/KanogwHUzBuiXQHnNIA+qAGZxTAiWGK7JuuipCiwAo3T9kkcXYqSqV75ouvhDpvcmRu4HNWoTmyqnrzSFCYhDhp5Ra7hLF1XUEoXHRlOkMIPt4tqHsIXMhodLlrXUL/RnFaa6H8z3upIMSC1ULC/lUteT7NABOPVkfXFv+IxjBnIyEAuhvx5qgAPEwBp6CSxowFVIKfTplgLEFhoQajKpFxgoK+4KgAubGCgfTJQJcTQVJK9oCvITG5OILo+f6tgqQ2MoDSXoUgJsmB3Rd/fTI6KtGbcSSXES5JKSRkkqiJz680LArp3xH6Sl1cXkvof8LgjK11hZOou4ETQ/CFc4Hcj1Xmtr0FE+R5Nr9sEQhi/oX5CZgyEOYMngTgPY+1FeB2z0TpDDUGitATHIA4Os3RKYDgvBUiBgLF/gAJ9KhO+pK7oPwAfNEOhQjA0hqRHKgQXCg1vguh1ltMbQ3fuQTwhLEqIhYlit1HuIxWii+4DbpxMiLAJJZAJgBVKhIJBOpwollIuqKAAgDSRojygwdEvigohQCSuSpLn4/wCQCxkGoq6Km94yF9EjpwQnWmDixq6JsDEVCG0CXjkG7BQmQHDhux2UOhsFt1geFTIdE/8AP9Vg5KG5iKyyGJUfaYU12Af9JuFUIjvlKH2gr/SCxOjECVQeSQVjxb7WA8B2HogigwnTKqoGJQBZCjKFqaTfQDsHKIS0j/WHWgv0AUBvnUym/wCMwCAQOCDYgwnebknJta/IFJc7li7DKAPyCC7oMxRNKEUBJwnDcD56E2DHQGO6vRVMgVWwqz6dWjZdJfRAtHA5y3A7ca6moPnJIcrRUSJsiEGEDIHySUQ8oTUATuDoKyswxwMZjkQgbe4XIcQzBsj3MR5Zg6j5R3R6QoAGCY6IXyOiL2jH+n+BWzRwbE3jogGADAUFB/zOjh4kj4gOOVANQYsZdYparQABtW9kDFIPdR9FyDtG08jPhIi9ye1AYPrM8WyFIX8emgQAAGwn1d6Te317BHIIz7bI3Il7nR0/3wEUM31C6huz3NAHxgQj3TVPqQ/6nKMdJuvqAjGSAyYbG/3UH/OCZsEJwUTIunuG/dKUbr1TtimTdD2IgwH0WsMXg9FGPID+lrdhfe9lm0Gwm5K02Fyy0XVlobwEGA1gjZYGpko3R/ib8UrlTGF2MeJ0ZrIDuAXbKn+wMMliFw6F6NBQaI7AjebO6GXABUjBPwU82DVa53T4tHIqQcElk3J1JJ/6gQYBdW6SOT9skkI8cHI4WGaOMbEzrcKry81VQGv3CC5AtfQIKOei8FEoTZbEOHQgPtTCDBl8+6p/V3990f4FYK5agCkisQHVWHyhg2sJXpRa4C4Hv/1gSCAQavRk/wAAy9MGSzMRoSrIBq+BMiiti3kDVSjMi9iOpPNgy6oegIXmiCBQhK9uYrVTA0kJohWCk0N9oCEwrnsBtOQIwE9I1g+iQdSgYBoAGDcf98CtztDd9Skss3HbS0CF4jX7303X8hLvEJ0FUcH/AErg7Sg+8jRyQjsG5V/VP0qQSO5UTVg+xGke0H2G0NF96JLdRTwIS9C6YQ0TKgtgA9G/7G42oTuWUcmu6feJT5EqRnEiztKGw3HvgKMMX9Wi99ND0EhMNjugHozdL8Kqe+k+3mpi4n0JCbk6JJRIaFZtqg1rSXagYJv/ABHgFgvYUTwWBFcEgwWAeNdV3rxU9IYt2VoHrMyW5kcKg+bdHJkEaF3ymzIQb/SQDJv/AJcIfg//AIwyOqGoOV/CRWdf/IG4kVJMB1Qw81D3gd1bmyejkZgzT5BXQofSTQUPnVZ6YT5agkF2Qfq3eVvrp6ED3CFyrj3DTJkHQPXH/gMgPowQeleyqpq9ishvrNx2Ehe/6Qz9bQGn9oipJFk2dgkRhtJb+ZX/ABgwXokM9lyC1nQmHBuDof8AwiFpajb0Oqq/6SlA4QmTME+MIAwAG0IsAgkHYdP6MkvkopKomCRqVgHd3uVdbiRwDf5DcIzEDIchQg3IKlBcnY0I8jwo70CwA3AUHNYBcaWM8On/AOskD3AERLK0zxM0kJ/9Ch9UXwyhfab2vidllgk09zY6DPjQDLjJdnpuJPbae0Z4dHoVw3wd0VemPwrodx7CpNB73JTkrxcHCTR9iSitrztr8umNzVZs0vzsmjzN2zoCBLXBAeR/2znfCNSoCnd7h5FUEyFgGQCG+/mei6kkN7qCnc4qEDRbMuYQhCbA+55qhONgxw0t7Iil4Bjlw5TLIFuwWq2qPAGLiejqmXlH94/BRhot3yq9wCn62A1E24ZDT+sJ80BUmvq92d0W7j5BU2SLGD3K4f8AKYMI5IAAAo/kKPSPtW3F8J4SEJLIAOF6neIuQG7AhIgeLZ6j2DwtBTlBcietUBABgKDT18SJPQNBIRmEZACp5mN6yYCLgBgN69uH4NeOUxtMW3mdUckaHpdgcEMg1sUbfyvdpawOqKDLA7yScggIwjgJBGR/0jpOJJYBGmEEhBpNGpAssmockpKASQAZgBE2CLhv9xU42V5rBCXGYkSWBczRkOCs87J/J71IWX1FVQBiW+AQCUWwDs8jqpoNj2QS/PgLaKPuhAOtMeTJUwcOfsop06h1rJgLoyEL1XkfxVPhe7BPJkozBx5CYgvBU6IOyNTsB2lFOKUjd/UXVRcOlucFBMhrYlchUEXH/GNj/qxgalSPH6x99DRSwFfpx2GZKmBywmT9SvXRAgESAcEUY/CrbonwgEGPiXb6RC1KAmhh0tuTv6GrlQIwDLGfbsDwvbRlzVFvpVH8Ku8nDaZXhMEoUX+5xmXWiWVzMCTsiiVMcaomJb1r6AYQKCA28H+qju6/vEBez+H7CA55gd1NZJR5EnsIwIgvE2fYR/zlCBQCbAAZKACzorFP8RQAGYZOW+83JVArvH8gY5LpnmvDKDHumdU6pU3PSF0NVbhgTGzgLdfJQRMZdNNxZOAcrf0u2mXi5LaBmZTjBNqJzTV9kR2W6fADkrVgPjRWo/SCD2DPVxdFWd7ODsnERitHYWyKnnsfAmTToeDV0QCkH+Q2ap8UBkWA+CqEAAOCKEH/AISWX7k/CfkCUAJwAyQHSSRlNUnQKLoXAKBw2hYcXgqrw1M6nQnIalqi05Rch1JZEwBdE8m9tHAg6bWUs6I+skCzeya7QxB3RPsQCWI3NDYVUgAqVTcyfZR8bQGSA5OMiUFMIAcwlVbGYVDaGyfAfUQSMmMfhUQWn8iu2VZzMrLoI/j/ACjEAzCYUDmM3jNZ9Aun/wCQgjAWuSaADKGzk9UhZ/cmupbd7hGqOiPc3QgW2o3gWk3UgCIR7O6F4jkpYgf4Z0QTJABnBomZk4dPQyAQzH8VSEZ0gNLsRqzIAY87lS1EVigADE9TZe6FB+8b91lRbKqFlomd86E0CHq0D++F6mEeA3V10oDopYFE7pR1Ud4nQqOFvZb5T8gNuCESRRPiEunSRbLsyGg/ey6pD7gdgiU/TZ0R/VlRAf4wRYtho5dDugwlch+S6A5PwHCYyA4RHHUKsGTJ4AYpatF/ysLa4jVGSKI3Lsh8pjEJ81VMAAso6ElILkRcLID7Bp46fZklOdXYfxR7rMoS83KdTT3aAtxGsbSX6OgEAPGhxnohVPF3r6pBtV4RsYcBH74qXQFiF3AwP9V70dDZzWLkqGOJBx/xDgGSSbJskfYAZdkV9wcB9oqsZ9tlgiTdisWtpD1apBGfJMHAe5TYSPsWQZgkxE3jUsEBxgBU7B7qRxzRhEBBi9inxQIiq8E+yJFdkBLJFUPIRFzYs9tQdUuHVaOgMA/EIlGbCH6sNncSjKVmpc5yA+VfnAohkMsyYAt5xgRZA0Su8PPsmKVRjoEpwbYZwDsg7YVaTBZwsoWBL6shGFhGe51MoBmGvQ57IOBQFCDT9xgf5QNbBHUiFqHwK8BDAIBz036iodQykAybSQe09gO3CYME1NwW0TQPWJT7Ff5bwUDl9KsCI6d0hDbZ8bskGs5HLHBGE3X3ob8E0U6YdA9+UEEEpCoWLtusIm92tRjutCL4I4YxIB1EKspwvQheajlQ2Toj2WgtyAjonqNnuVg5BomBfXqHf9k7HpS6bLrI/wCFkWx7IB9zuhIlgL0AVV08IA/AIOldVm9nTCMPdCBhq81cLRp1RdAsCs0JRFt5Md+yFBALGufqqedKAKEOwGqIMnpmMDCnZ4F4+fJUo0DdEWAFx6EOKoAOKM6LqD3X8QU1IEs1ZAb5RZ0zv/YODuv960oBIgDSNVCLAXQMPmB9kRwUE0n4UBDnEO7IFtJ4UehpCFbOdHKAA0H5oFdUQcFxOEKQtKp4lTBT/sCIcm1T/AEkovFfaHsIHICZsXNA4Q4YuBgvIO+if8wDrASRtwD2LkyGYAArBdqNZCcgXCiaD9wDqEogwThpdj/sKJNe6NRYKFGSTmNMjyMrf4wOo8GAn+DHx+UjT5P1XB1MCr0L0T49jQpMx/pPVIXnqiTlDxCTdzgiU70nxgJ5L3RCGhFmmLIY1GL7D3YrWss9vgRa6jzdket5+5ErojIWIzmFpgWTN1Sb/wCI6ChK6FaqJnA1rXSDwAj/AIAdtRK+AAgUwGHCMSEEWVA1u0hOAAiYx7DhB2wkiVA6FK9fgq2qJiEGjVU9ELT11A90x0A3UomT/iA+clmnIUSH8Ao2rwgAS/V6BAU8kSjJDPYhkRGu5iKByjfjBX4gU1Tvu8GZe9UrMeFgmGk9SSvgwyR0lRelABEBUsJYXUvxLjQtyEBoBneRYcA4k7kKLoajF2BmVbGpt/CzIMarDsNUDNEXyaLp0hlTPkqBa4A6VCIL+Ar7P1ggYEkmwFSrjBWxuexMC9GUKECoXl+qB1se7TwBRoCMQNwNmMhKgTcQ8mrqqywUrAQTUYm3Fm4VytkUQAUc0k1qJ2UQa/UEoTjQOIoHsFAn3AT8fLkAU06UI5eUjrezIKDDnTukuXHCUojHyHVMR8Mtu+ZGyJ4Ax1LojpnDs52IwzKIadcAAkdE8GSlAxOMduCBlAQRNz5ond4QwAKhfRUhLsua1uAE6sfUJTl/yRmQF3fH9KJQVhFNQrmhy4ycRom2pp8sUv4FUIacnwcJ2l73J5AiWKTeS5IWAge1wOP3FtgknhVUXm3QRfkA2FShxEnEtFJgAeS4jqERpxBjQSgMVd03NugGJmBLCaDZUQHF0NSPa7Ib4BH9A91UPXFY/INwhyY4AFCPDKGS5zI5O3yrEim67ZADj6TDtUU65wQGFC758JkHhLALCCBICTHxWcP0WKPvC1KunbiY7hXZ03HZhTGQR1CMxA1G7FWgO6ojYZBDQwYLn6HaFAEOCpHsFghSPEt9HVGDG9gfSyj3AoyAAJHoblGyNbTI5TiZAQSJA5H6n+oDCPOhugmwQAYgio4CfW9Qy50dDBKSlqP5BNuE67PQxM70T7OA1fm8ZX5JqSH2izUTRS11QrACsM8lswq5F6IY+A2X+Ym4nWiEfXDPJghQBVr9IrLOgjZPHZS6NQfMKgO15Tc0NWuCGFH13TyQ4VJ3qqAVE2pWDgUSyEtnYXBTJwudRdEzZPw38VJvitEWPBkGCWxDMmAGhBAEuggIuFc2RNiDCLyxAc13sRABAce4GdYsX0vXhREq/hr1xp+4wGDRwo5PYJvKKu8B/XbhYFD1HCdgE6pJPVT06CDG6h9SROhcUQ0OgaN5Cu7+50RVDLHwlw70hR+8jvQ+SEuAFX51CKYAjkw2Sjn+XAG0AEKKrnbe6HmbBqF7AQAY8lKdVYHeEANLJivOkI3evK9lXJ2kt4Q3q5/giDQEaCRLoOg7k/ZQdYIOFy6SoABHbDQN/ihGZNAeOnqsIhw6hqogKkB1HmxyiVcEJ7rfBDlnUY+CEwa3fsFUAR8OCML7OZ5P02CH0w+djCBsANLwMC2StzRQvtbP4zMav4dk/DO+gGrJwQQTOHBFiBDJ9uUJoCogWw+FYUCg7IIiCQTUA9qOvAJ+RBmNE1NqQ2nHwlTjYkNWH2NDZACIRyBwGoIu6qpTyV3jsVTC4zct8AgXcpNMupQXmrvPYIsO1yhY6yZnAcKHDn0OAU6huGxsFIiAbHL6eEIoXMeTChRqzkynqPQhZVZACARNKMOfYHqmaxxsjPBHysIQDvuhSAgLiQOQafsYSaAOjXnAgTEzWYh7qiAwc5T8ky7AdyEqUposN0/uGfoUnVBgask3EB4NxijKK0tHXLFuQlDUGHfywnB8QB+ab6zVBBGjohUNjGHPIYxQusL1juVlo1vvRIKjARABuQqHA5ZGoNZOLtXDkdnAm109UEAgeLOqA4BhnXqGQIdyUgYBBAUKrMIZ1R0JWtggh3DgGcIPQ+yfa0dPpP13HmkrZaO20uTCizNgpAPZMAwE5cLE5NpPiIkCfGBcFitZeGbcVH6cBcwjdFeEDZh3Wq7u6Mfg1Qfqo8DixGLWQ3eaSnQoGvqNjGdSZfIA8GirgSWiYhCuqNTZO5wnAqzUpOSU0GAA848BUpoBrgNbxFVVZ19dmQNEzD+mmcBRkBUHIbJdk6RIUL1TwgWA2SzifYpyXbM7YgoJnCLDG3yay5TA8QXHpsxrVBhBWKhbAu2NChGGdYmNwKo6UCF8NU0vlOyf1dNIT55HAwgjoXTWj2FqN1R0LEohIYJTsyE8OLMDPfdgef2GmYDo5n4DoBwMOFlke72/cE/daGC7BhiLKFaKUmZPUjW4BDANqcfRAXQVCCyjLjPbtUP0QJyNuqiFN7J3ggwBouAoui9c9UHdA2HIKOt0AJww9wWzuCd0KBwFS7GgQZuuxWf4QCzItE9VMWUPqiLCeV3820QTVDl9RNH/AMKfA/cGn/AKkHQkQhuWatBQjBwjzWACQJZyXJmNlLqqzrmhg23utQTuzo6YcqVFobWQB7HydcoELuzdUueCdn8oOTIZSXCLsMx4FG5VBHBq3X2dI+/0NpoTI4TKhhA4mALlxQAQQwADGoGVtPa7n3ISbkOdDYncJKiGXuz9TrwXGUUyDwiSwbASiBL1UjDLFkyYuNvQAICH0g7GATEB7xrdG0Bt4Cj3iD9lLtRDa4dDCBbFX2AYa0KxcMiYCGQCS9UdAeQFVeRtHCPUwdVS/hNJzWU4NqL3cHCE4IqHdWMg1fVk+6BG3TD9NaT0TxAg0A8AYcbOg3R0MUNckB7jZjJ9M1vIr+xizFuYHZ/RluMtwPSSTNrC2Ie6YEqAAW2Rc8DGXsUJLIawYnkphCNS7CYoy1RtfYnw8uFKg2e6IRoSGI4gV7wOxN+Ioi5Brb+tUSAgbgwI6d0+TnDFRDIkS1EFvhGgA0KNUSgYHDd7B0CAcNYHxLD3HbVTcr3BytFjJwDT3I3dESuqZk0KMEDDfyF1zaW/ngmDHoXNCFC6PS0kv1HQolJek+wooq1SNIQvzp6p7woClPoSnouQW8e1+YUoQtgFVn2xfEinKaGAGpACCAVCI7NF04H9hC8fq/NuJ0KkBBO1ZBVxkaBJBocEKu01poKG7CpK2Ah7hKHvCfksUHTQ/jdBmaV7shK1QABGkni2NqrXwDxyguQ4TFmGXxtvcoz6/oJ65dCAIfZomlsoM5yEA2CIADzJwj1DdoTe4KcU1UYdvNpQhJz55PupQD1vRFCYTCwB4BGUmBufgTjcAHdErNBclYAnsMuiBlQuOi/lUt+cLeXrKSnY7Eo+/gcXDQJW0ATvavJLDuomOThswhMhCCZkDaO6t3mPy6cfqZeMoJlPZVkfR6MsVIBH76IaZGocutymSig+u4EHZcKA7k0lSnk1TTnRasUy/wBiEku5h7vZcpQHSjmU8JUyDITrtlAnBxECzok9ZQBRApCHJ7dkCmC0juTTcSji5pjAJbI6kzB+nxBEF0bLe7dbKY9pJdP4BDZIAPeOpKCJ1g8kIAPN1zSg7oRFt6GlscjCKRItoNum0bAcy2oRL1/AWXQET8FAAJTKpLydmFpFPcMeyDHMx5OtDDopeBjqVj3dvzYgszzwD2dD+Yg9kWYu2To4XfBNDX03i0QyNGEPJT2UOpUR9zoq7S5SxVpsj2lvc/LB04NIW5Z7pzItRwCSYl/idIaIWgqlCfUalE0BU2ZGYc5GarSzZEqjFRuRuSbkkn8QHlgxhqDCovlPmsVdiKHcFbK4vhLQ8HBDZlgd/seia1tmCtkHyAQh2M5FeHCcnKUdJ5wuHjlNAgMYvIwnzEnc3+qv425hHw1oWclewBRQH1krYtwaqphxwaPZMrPiDQ27pzLubQG7h+rUg9AmzA7uWsLoEB9SZNSNkTQpCeUbjbkDYVGmUHrHGDj4OrIaBEgh0NwoiDShoO+2CnW5x5iDYqwWGlHCpQr+B4Ex5TofmsdpjhbAfQgoE1WolYeEbiAUiWJnkVRGSgCe8Y0EWDql/wCpcko5iNAutt5YjCeh77F8voEA4QYz56rE4xch2uiAgswNx74W9us1NmQhMTXdQ+FWAREBZTjnCMF7i4T/AEG4Nju6EomwLhokTX6ihy0Ft1VgA6f5VU1V7tkHNBeqJEAm1gYULG6LqScFMcdEP7vzIUO4Q0D+oUqiQ84HqOCFcjM88J4U3TA9KqAFKrA2bvh5E7ChiW5T020O5VwgiJRZcj2J2cAyCk1M7YZggOdBIPs9E7VAm3HuCGRISBDiSCgeM2ZTZgJ4xd1CaANQAACgAp+gbVeDOxQT7K9TqG77hzBQZRTBkGjwqXNnzq57hPM1oQrkbAEKi3ATam6lTwYiPgQoN1DY0OdyNGP+V3gUfWcc2ZZurUs7ftDD5Vadw367dTBUZ7Cd+Ms12P6n+zrCZmATFUIchENKBwnxloYhaBQ7bnW4QNRJOSiSflAAZX0QMh2QRbIGzIqBOgmFgZ7CY68dJAZMGnPZi+ATyRuNgwSUp0ULCOtE1kVJ/dTHRHYeEuWQ6nojR0BHSnomqYZB5KmoSfQLAwN7CmbxjJmgAggyCgmj9nVXgKrAjx0Q/q/wZQ8RqMZiKGr9ksVEHdzcIAtRUuIDQ1XZZYaPIKiCHjUXyVqu09DwonC7nyzuqmnynFsI3SioxVix9n3TFIUTdBzTumi57kSw74YKYDkflhCBu38LcToHEDqGFT0EFmT8h70Tkb8CkDNx7dKJCxMaMjwKsZQGwBxSU3T5H9wgk1Zy/OUB9Fvz+MjRsgnEGhiU+gT0RgoZpDB1VLKjlqX0XPQbaEHTBhxs5/SAGYcCjTV/uXdhowAnlZgXcqOW2coT2Uh1dzgByumkOdDLsnJ7gYkDuTvckAFzzE7IKzyQx/pIaf0TADx66kB4JbEH4Rrsq/DX1ZazBjdBkhEBMGDAByVVgH4TWA9zd/1MzAU5aKCsDHsgkLzUrowDgZQCBrO5o/cQUY/7RAPHvCNQLaOhXGHvobMVh2NPLQLKLk5fwYREiQxKlqLIotybA7LaJmFH3MBudDdF5g11QbFcgDxw1P0fiUJnNeHJWD4sgjWo7PT3Mm2IV4RjHsQReDkMXY07KrQDp9omQORVZQzCQVJx0VCTzENyTQbrjg5oDdjhJDqz3XGA34dnTk72CLCOLBJLuP8AUye/X6lOc5kYqmzk/wAIB6BuQP5bTo1P/JBNoS63WRh6gH0SFg4UogD5M8ieBpA0+GUHIjHUcqE2E1NRKYUCAkPcqYYo10uCFitsZfau2iiawLwY5VJR8baEgEgSLIAcIGn6SDCxDs7BzphlgjXCJCRcCNQM4YCvVR5+CSL2dbOhjY0Dd0YQA1jSyKNDEg6FA3H+bAzQIHs0zJo6zaim2sh/gLcbiLpm2WRHANE+J4dkRve2ugizr/qt4cU5bpi2W6E9ST8q8sZ201ULOs04GIurnCbJ3qc55RrYA7XOtOF3Dze4jogykuYA+DI+IJkjagZ+U4GHOz60yCdXdIAQYyGCm5UYOxvsgAXcwBIZaeBg2Rdjggdw1cdpMkTP5gUa13UOQnpueoqFtSJ5MZGvjIzYhhQGqlHQZL4z0cEaOE7EncQgFxgdpwixA+UbgvZYRJYZfLhTcBzFAtDFiiGj+KEI5lyEo/qEIodWlNvcEeCRz59n+XnXSzHloO4QoGbY5QViS0T0WM4Z8HodIyAB5qiRow9xk8Jy6SWgsS6M4ivS8rQQci7AtVPSBRRXAhWZlZCkRRsGCAvEkEGhEfpBYDYDQg1QKMG88VAYcFVGXqB5m6iHrgEUXyhuNqAILElNII1HZEX4Gx8ICRQAF7G7Io/aDp8UZAqxDok4Dk6oZQoAANiUIrYmT8hu9Cf63CY0h8EcBKlG0X2/VkcjorqFF6qLdk+sj2dELF3pGdEIzEPcWjtKbNGQQsWGAMA7ghZFMF0+BATdGkg5opopbR2gThNEMQhQilAAU+UShR2M2VC35bSfspOHWCLuP0M9EDIHaRKABZuiAnK54gkMFPCZVTeqYBKpUg7QTszFkysHxXVwxBwdyt0V5GY8VB0HAFZRN6qCxjVEQ0LuiDsnKknvIIWhtlpgC/3GHwTeTH8vCoU11GK3YYp3CaVCAs4QNY86qguVvLAhRa4rskdRFgBawRBPmUQJsJO3llsRLTHui3BDgbAdNRE35ZVZg0OrvuFQLtOHyEFUY8JND8gwdfzATQ/zayE0CoCcFRaJCCjAGooHkFAEeAVo7K6vRopVAsg4bG6LAqFEvAAFDm5h/XHqd4wQIZjRPHiKA5OCmT7Jgc/JipQBHZHA90u5/U+m7qBTBgLsm2QR1Ws6ZHMA5MNnx0SSQvDIxAgwgMEE6LIEJRxYu1iQkPdWNSyHz4sSPEqYSsBDUOjiGesDF+obRERAbs/ojTThOBFjOCilXWV1ERg6f8mTp2UVhkQYeRPOBasYvB3BMx46ZCa2Djxo910MQVWY0e5Jb+IpwfZGY6nyrHuIfKNxdehaYMoJ8IGxsmqPvk5dFup7BoJS6pfZDcYmh2qL0fhOFtH6Huv8xA/LAch7QnHdkHGitUjTUII2NVz3HkE7aFBuG2hwnfqKO2Y9aURhGhMjW9/XgKJRM/VE5NwWQHhWyL1dSX0Lqrp3M7q7TscICLQcITM2SAB07GQIWun1rT0x/pOcHXgKNqAEH8ShAHIwABV1cOJIhW41HTiDRqaf4NRF4TZUcgX1VY6AFi1QPcJzGiJv1E6RKEogTQsmjS9U8ifdMQLqA65RKP0cANwT0lPKZkP4XQ+zzGp0Qgm6UOAZhJ7mfl1PyUagGTG/cD9IiL4Z3Y/UyvsU3a3RONlLBLHcqdpIClgFsC7IRAbg+xj2QNWAO9ScEGJwetdEzQGEV949kF2ULQ2On6UNHBCM7tPn0YLoGKacMZm8qDMdqujJoeQXEVK02U8k5X947IQISf4XssT+pQTubZROB9AKuGw2jKNxKhAnEa+cHorTuWGOb5WKs2LiSpcSdC0zRENs7D0bGzfAVSWLaqTDoAPcsn64SAcj4N4Rc5fQ6TuUSMBzuY0hcD+8Td1vt4A/dOnD3QEsCs93zKOmACgH5fQ4EAi49yMK7rGmcIPdWrAh7IIMLPU8NPBWdLuWL0OqKXkB0CMFob4UKrgTNaHUoGzNpKm9kdFIOBp/MYQUtsMLhmkBcI5QvQZUopE1dugEP3qWdoPQr1O8Og4D1Z31VQh2N0hyQj3ZdHR9esGwBmodDkAVaN/fCdWR95a0rdkBtTEACiLhvr/dUGQ0HoDQNYsEjsm3MYEFf96In4mx+09BtkiNwQXD3RzFSds1oFkoNkPRMUIAgAGNHhUr1g1mqPDqLDgiW5dkxM4duTkDSGFTQO04bczawpcKXYv05K09ndp7/qBDZhMBmNo/sFEgNkMAyMuoh5x0/wBXIojfLRzCJB73ySja6SxAUZI4pQ1g2+E5qiOxgY6hwXRE4nOeg4CDPJ8bKgcIIYkDQcaE8IEMDmoqCKO6lagOYVYAGkuNjUh82C1sHqGV3kM8CyguNQHVCAVBaShVQxqU2T6ytzEqLiYc3gAGR+V4/Et1NF7yHzCyE3cZnAImXJNPhBMJJJZkFEMaroZKE9toBxHQqpJh6zDkDVHTDqIXcnAeDIR3UwyoymRAfgnd06UPcNHgrFBPUO7K88FDyMJvyAA4myh9l/BMTO2Khs2++6AUlSajuFexf28ZI/kR2Y8ntGDZHNgZZYVQVLsiSV1MPCOcoTIVDRdsU5v4Tkqg6yQazNi2/wAyg/5O1iBsVxpsOLYAARvjQRNgAhdBL0VNW/gxG1+Nqsu3TqHYK7jnbDmOUjVAKRn9lwmegOEwg9IaOdke45DGUe/hoA5h1FwoSMVxC1svKl56Ac98nuqnGEXkh5Tj9s/ufw60pjB4ULFOGfP0iMP8K/EV4jvmnBzAB0WWAaEruEwH68BuD+NbhBqFUwFn1oUHQHcPNUxpLoUjyIDdCrpLme5SmwRbsRPhAXwq8UQw3TUQogsYCEZSgfMgch1PURLCTkhDZnmHugnS0NzI1hPhOtz/AEIrgcJFVEBaegIANR9KKBTQWUfJkL+x9L+4qHUJRQtrNs60GhRwdIf6ojYh+Nn4BsClZRALh2BnUo4k5FlUyGAyfgW5Qo9SJ7FWFYYXRdnYcoJV8YZmA6YhNkw4MdarlsoXdCBgdGmiY6e6g6DBzxFEQpXYHDJhExIbbnlZ4vI57vzBCgEHkJv7lD1BEkNtk3Ak8He4mKJAKhABugJCOWy/umA68xY8Wo0TumxFqARHATQvc6+hJDIEu7osEwDjQ9LAp6uYckx5/qV1TrdYIxVwarOIp7k5pyCCJFMdofFltU+cO78AnAshsoU1Hb1YIeUORiA5BXWU/htgBOP2Qv4BqhMSHKszXCkm5g6gSHA1Rm9ke7VUQ8wgiE9kalYziolqF1HcOFazrMzbQGkqd4BoU+fZ+w0t0sIncxVKbhNBTI24y7oncFNVCc9Q9kAYd1BHKKPkCMN0rrAA30ETUEDdY3JCQBlrCnRAhsSBizbDkog3XCbUPkbuq0voSA66ocLVIYrHv1T4MZG8L0dBW1ObR76LTe6JhNJu1HAtcIZSJsZPogEATUAEhuaBELqRNhGqJkAu8QaENUyskANi0MN4MqctE4XMx8Jj6l9CCxB1BdGrCcbGnO5soUQh8jhVdmiN3sgTCZoBxB/dAmA0wr1MGOUTShuZe5QEZO50WKLceB7xR3UAeyEcgheQbzk+o/osbtgSex4TA1soyz1Y/wAIA6doHz6EZFDXUII1ogPbUFwB7otBIUUMz7oh9GTq90cIbEDg8FSuHVv56bZFbEaYHy4RfBtMIxn3Qg6lbRL6CyVF0q4UPYsitAfkiXkprg/gLQEDEpcGzFUUCdP3k4o8oxX5qqrcEDzwGBCAnDZ4TcmYD+kkNTYp/oFdZpHwt8L6pn3lDqhv2f6R7PdmcG5L9gLc8hoUU+hidn2U5cIF4NTBQ9VdspnyEIhCQVsqNDurohWNIHdyq+EBmhkyQ5u6iQxai6bYRYXYACYfKAgugU6MQihIznMaYZyOiO2rU8hDZOe5xwTkoRmqrSeidpsAy8kpD5qS+rZTtSASE9lNJXvdDBQSVZ9OeFhZlGIkXCe0cWQsAWczsNSgYAZ1xBonD2MLzj2khrKS4KDYXcQFUUYGM3MzxiNUDBonPonNL7zJZXzT2HoWd8Kg+EOFVzaYFj4RtDgwgCytiTuobmnn7BMM7O2Ouej9Jo8eBBpygCQNeiG2ApyDwgBGWXQkIZ12vaiJGBMgDRDkOZBmyLWK8S0/CBFR7Amejej+u/tx4s0AKEH4/dAf6IWMcfSABLR4dOhjgKSDcueKyazOaKEo3wVSMp0GQewTydn46DypgZb5AWvkcHgdieFL54i+TCGGIYHZTAhtFApakQe+DcnuLqtCDvckySdXVX9VzezAE02Oa8OgUAAABgftITKjl/a0KDAJceHn0AQgFsPY9qrhBLTVAc1J5KFTyVBNMHuOybd/IfY3TqCEDHI0QB3EOoOyF4cN2LpfVQFIeRoguINChK5CACfgozOFRiZVFx8ogIL41HUfQhviveGIfsnkLhJXJR0pwCdMLwdhC1bRPwMLMh48sq5RPYFxopqIdpzThFpYu7UoNCWJnU5AzsVbgFnyrF2fcYY3CJUpQWxHyoE0Z2w5BIRgySUCowDA5DfLlkAY+gY7Em1/S6dyPhcGGrp+UDEXQTtbsyRuUyifYZ7+klFuwk+LqRDqTRFaQJroSASHQ3CqsReuUbmAQ6ySIpI14TjOBrN0YTqFicOoOkSd/wAFNN4gfcslVZBwtiZbBdCaY5k4/qIGBzqgYDQyA4Fy54VQey3gEldJax7IgeDR9fH3KnIQBhJhpfKKFtUUyNnDHP8ASo2ZKwDX1GOU0Bu5IdKcIrh7/iQBqVGMY6cjcBv3P2YGRBPEWXP7EIlBYsVMjIpbQR81Va7Clxq0OVcARtAAh4hDWD7IFK6DAZ2vsgSZEOYFfGmiYM6Yt8gP2VMLyUL4Nk5wuOg0Q3ShU08ADu4KXmpzNc013hAoUdkVEgB8zhQ0joJ7hkAclZzVuZHmzBBys3WTIBp4ylhsA149NzZA6oDVcIEw0dyA4LGxOyJYGNIsQK8NEJmBiE7Q7CCXFILdKULtcRFYMMFo0QG4FB8oj4DkU5t1K3Z3UmHQAHMt+yO3lrtDuVkR3o0NzaiDDMdExdPpBVhAYAMP1Q41x0ElWJT2VlTb2V6B9WPNzhv0J0oD6s9apyiHEydxQoVIyZjBuMFOHAZBdCaCx30woxDJATUcggkIs6MOsLsanp9aIXkhd7hUfEQKCBoHBDEZCMIJU+JFlMzEchwIaui6cKbDODgpRPcgHN4OiRCuCOoGQtEuziU2hoHjopktofQaiQlD8BJT/SACUJvS8Xx8oh4RZ6U+bNiecrQR5G8v2K/nEDuNh/wByvqtXcdSOEFDUVBYkEKydUbL4x1TQ2s2d1WEgpM6kB+oWoTxB2yhWEGSeMh5I76OTMIoAMC1eqCEWvQ4U3XQcH4TUh8gc0yW9mPVjvQ7ZDR8hV4QbDnhUIdCdEC1DAW8TqgUOJq2ECnQA7NDYdMgmpyhzq6mqgIyE0eyD4HduoQtRkl9R2KqRMJbP5GjCmAR1dgbwEJgRUj5MqYELCSGzMgNHrcZMmCIAsaAdg/Kvwqg7oqDG1DtYChb3YNCdSXH7H6Ni18/aqmWIi1eV1/XIPEXAqZ23KGVhcgeBFYx2T+5fIoHKCAx3v1CGwDhdCZ9LRh1JmsLguAYI7XXlBwimYYQCobuFhe+nfB+zvV6h3V7HgB6JwDiqyoXywNdRO8eog80XfAG7jegy7ARg/CPuRgMaaIAsD/QURCGT8kzfKkKcIH1qL2RKu84XJHUB4ITAsxEChFbyeBkNQYLg7qOAWyHYufIIS4bW8P/AAgmw6Yoy+6ACAgyCKEFOdMTN2NyyE4HHD3Rk96Edilj9qcQHqGATM244CQ2EifyNbs8dljJaNyCQbQ7YGI3f4T8dy8C2U1b69CAcc8T9RoPra1UTQ2eDRDF7lkYkANLXAT/ALgtMQjtW1p7oBhoK/3+AuMKMrHv3ac3RpigiJLLtW87JkOTTBr0CjlADQeOmfJBRFFG5UoCI3B9kcwEFED/AEbqiUth8NvQEAAAgAWb9oNmWjoG7XVCzDWCTAZf49WjAH2IT04PaMLocyMJQOIPlVt52RmKaH85VfUXvKTwUgLkPsdDasGInHcacLBTxM9kIEerX+AOg0ow9Ct228AjkTSo7qCjIuL2CI22BQ274gBuD9FYcPJQYDJLy+AXOpayQjUHsQhmeIH9myhhRwI6gbWqGFUmlzjqTIQRq6BKb53yK7myapyyAWMLyf8AiHA8QHBKoO6fAzu4qMVfIQQQIcHKfLpXcKAm4c5QweH0TqwUwEyNUa0C4QUAGCmhAcgQvdGKiCCn6jOCs7u4ER3UuyZEtUIAE0cmc9X4Tqy5qABZ8BfGckeLrJX+Iu3KnEm1ogOoTkSSDsCnQo0gqGsD+gByjUZx4zc8IgxqIVQSSa4Wi2JU+BWm1SM1XvxJYjcRAwAQABt+9x63pcY0OCHKDFGYhioKEG6BpPoIhmsQCEKSN8vyEYY5a2NxNqIXLZDVUI4BBuiFFCLuh4mbhyiWSvxOeupQwicMdUUxIGrhKyF2A5GJRL7kxqaGhDgk6SsEcm/qqIRcHo6EYnmj5JQF0O08qqS6U31H2Nk9RhdDP8JPVRw5rAbfIFCqIVXNz8qiDfOVFSaBCEA2YE9a90Wwb+V7rUrpIHZ5qSpEbXKpPJ/5AAdieQQZBXa8wJfCygUaEN/o6Mcl6dQYrqiYHsiHAsku/wAJ1UXFkBSAhGG3IDsGLnUE9in7DLCN3VHjXbKYlRhc8EYfQ6o4X7g9kL9vQFql0/zo0LJ23lXHn1yiEO50PyV44FB9k4KMGxGbcqQBpMOV/ZAAB4bzCGkA62Nt1WMF3JQAe4UEDxmW3KAAAAwAjA/4QIElooBoER5Eh8QUNQ6bGR9DADWIcLZEdDQ7EgsAU6gy2RuRqkk4FVeO4PU/qgFSHbq/5AwTMOVRBtiSfWh0db3cvIA9ErD/APQ/cLryE1EFmJ2N6j9UG9cW4MHbAqyiKLMySz4WJrui4kQD8kPGb3zzc+hfNEhZkYTkCPQl8WsIBEDH/MxIzOCE7G6cwN2dBBs7ggJcrCBMT+jA+l7lNhBe7DoylfrfUSDZoABsxAGBAl2HxhgYVkxgalfcIN7lAwm3sTihOQDeP5JpAzjkAwQfHj7gaWRzYf3Qp5GyeIAYGYDlAMAPW76kmTyfQ0IaAByWPvFVcTgGNWSinT2r5QGAvKAgAAAYAQAMAf8AE6cAFhfgtycIB/RK8mjVCOCPdAYIQuuVZbQBmcbCMOhzUQiGpGpU7DBBpP7AQIDiZP1QYLB+UGDqu4YrAauI7iK1aHOycjUW+dKd0K7o4oHlTV7CafhjAVp4qTWqhIEmMfRji4qNFIVQzkrLhD2BJ8GxwiPOi7lCA4IJKAFSMAm0ox5uSvVCv+J+d/gGE3/QAIIcGoKOd7jdR/hQu1k/4kej0CxQQPo3pWvJDo+xOyH8IKA9Af6/xSBlfAuxQDtL2J6orOgTA5rwdJ9UVOSD33Yngp4D/C/pEYTUfI2BW8NhdZ6AqIcr4GGifMGY0Lu53PuoDIIKwH/KP3sRiLOhQO70CDY+57ZsgwZQSNChBUCJqCyoancw8PFlUZXQUPuUBQCIdUMGqDhGfcH6ZS4K2qcKqAEYQJgxcW8pKfmTp53iOxQOEGP2ZQTjCfcB90yOMXzBCNIAeb2PRkSFoP8APuqcJqC+VdkMMIwAAAMACP8AsK5vCzUNQqbLhrFfbrLrkIdwDnhHMGjLXQOBVosHVDKuKC4VhT/gUESCDKtw6VtQcpntUWyOoIXe/wB9Gvai2ZzxsgkIwDAD/of/ANmXZw43BT2DdoHgYT/+uJ8woBar2NqTB0WUaH7hZFOJFUC8eiG6kXI7NDo8iUyer9THCHJuVkVjU21FEfmkxKFliQaYTcSdvtJZKQEQB0H/AIAWRqggEd0/vzBqOg6cKD4AchN0HYqXgKIloDqN2I1TUSwjhD1AOSAMkgIAf6Z5eSuE6nmKJ4NNfnN1bZCgQwGBwP8Au2OGIDZoeqc0yL0tdivHyUTsuqXtgVRTKrg4NRu5MOhx9CaDbqZFw6LAs5oxSKyY7IIu+BmhoVIbEzg9MHTrCgzKXRBAQKBkUaQQWsao8Rk5zjPgP/EBXWwux7kQkufKQ4VlY7wAapPqoBUo2EP3QfdKiPLkrk/kLbBsjBc109RHZWM8kAJv/G1TZIxHyMEWNljf9kQctN06/BWAUBYP/lRuMySB7ojgF13QU4aIGPLC7tXlLaHoHvLOq+dncIzcBOoELGdAD9KoZ/8ADA4BySwRCALG7h8lAZNpIuLh2Aphrl8x7EKcsMO7iiq0gdn2WQc/uIfTPbd1MlGr4e1S7n6/VUfub2RRW1tnx8YgaEHn/wAAzDCS63YohHwvb7K5ED8pgJ26u0kR2QobQeysFn2WR6IXuCYILG4evCO/oZ9kRdwmCak59cSAZpwAZ3luUJBOhB2rdUDQvfj/ALoHaQ4QT8Kh7gexyhL7gvgKAAFgCqJ9VunJPu+QTgQKNUe47KZGJ23BehGqpALk9bxopW7HxHzXVI2gaC6wQsaAWeLjUOiGLUU+QjuD/TB+2VuEHPQOSAPdxM3FQdCn/wCphJgC7syAL8uKWh9gOUOfi1VitWRtr7OW5S6omlbGMjUkrjJQwtB6PSMSLoIREWNpgkSiGD4PAcg3CIJCAxNJ2t+BBRTeB2HHoUEvgYdC4R3ZZuT4k+DIlAQBeasWKeRx/wBUBk6mxUUcWjgWfdFPkCUYIDlS/RANrRk8oCdIR32RRj/DMCLdUbJuGEjIRqZDualVwD8IwkqtdHFBQYOEocB+stJeaymXcm1AM7n4KZTFxcEBm9Siw9EDej2Q/wCWABBoQqT8Teb2qA3XGCMHT/osSYTvkJA1K1lALnZJ2KacVAMB0QhptGsVZn0FFx6CIgG0BmA0/EbVzNd7CiYEDl1x6lVp9B4MshrA8YaoCaA4tB9AAbu3BC7d0IsjPlEvIqZUBNScn/OAJMDJQLgPI6XJDk+obsU8EeHqJJMIIybreGXfATVjQKgETOcnSAZH0gAO0E/cbUKgyHvWxxOySCDBNkHJmJkFiD09Wf6EXmWp+/N66qGlkrFzcCqbYCDYIQh0BsFys5/qkSUq1/dvaVNiz3bdXSIcxBIAG4Ij/kHV3IYADJRJ7wOv+VAgFlQY5ySvXhP+DZo5Q+DIi1ovyPoHMAHLlrlBt3gGWkjkQgHcADCGM59HZgE2ooOiaqrkM4CxwW9DkwawsBOyDAWD0Ho9S1GOx5hPWjgsM6CK0b6V3sFAANkP801of8hMaoz/ALaOpC0TvrD4dOPD5B3TZYXorq9ka282xL6RG3+xH2NZsgHoYyYiZC5h2QTIMQcWUHREDsCEviTEaYJ/rADUkbgjVQy5AIG/3ZdVT6I/1sAoi6IOgMxHeEN5NyQgSbUy6HUMklkIkLEdxIggR92VaXZdCKdAB0ENzBcwiAUHKQey3vUhIUpBZx4I2StGIa8AaCqntzd2vB7Gxb/itnw4AKkmwCCJbUYyukhABgPb0f4gzgWLXZM8ti6OKo4gAHJNAgiuuxy0IsIhzD4d0UVpWHQsmSgEAmJ+QOWrF07ABrAK5OISiLJgiBeN/hJuwYvv/UyqHbsi1+VamRYqAn9J+YuCLQKQZV9wxobOrTf/AMRvvzGuxzgpIxPP8VBdA3TXHnI3AUQh7m8f0oaArqcnKK5FmgYK/sQLYDDYJ1pqcuDdSom4RncUFCR5TWBOs4K8FdIvkUHQoQMLdIfJF7VUCXdvW0EoBnqwHuZLk3UoXIQbgHsmiGAxwADsgMGoMOpRSqp9RTskLUkO5qv8iXlHlJPHgcmYPwnaEgGh6gEcTBXAsIu70OigQ4FCUR2LOtFNiyrAdeq8XGxaK84LNlJr1OmAhiZHEgJm3E/7rD/lUBcjQJyi5foAmKnZ+Q5AaINpHTRCAAAwAgABA/UMbPg7pg/ZGB5XAjYQfhTIJDO6cImLzmx7AE98KAVlxBQ42K3CJNMW1QYSw7Go0KsEDRAoHKsXcQPdHDmLlrnXXVGIwbkQC7IwUKqerXKuskGOh2NlhcNbEag0Kd2Ozb3Yfd/wAVojihyP8GievgR3GReUsTpKGtRbk5KFk1nZB2B3QWAADCKhRcyDaGgUXcInA0bIyfF/UrkqjVokjdydAoQDnIAsmWq7nby2DizE2GFSCHm59KMKoyDoPiL2gQF8jZQVEHSEkbWTD6IltYjP9IvgIFZz4QqDBQD5aqcAIICQCCRiEG3hcv57ojSMABZ9u4QSSWrHhc4nqk3RbnpLeo37RtMEUACIR37Y/wAjVAehAEYNcGqqLdvcEQCuMiDBx6QEos0iMQdsaoKAFGoM+fVvR0wtZHZXh9glGjoiVlDEoTgjUER3GoEscba+rlAxIAW5wd29GG5NiLgg5BR5LPH7JoPN/wBwsP0bqsFBeA1TalgCgFiawDQ6o2wGC3YhGGFSmEKi5VkUbRNRJBm7U4gLiAGrIoMwJMMHksZLQFQXMPiVnNMabioO6hACSdgH9lQxNjKlBu3ob0TqnsFgyKqsDDn6k9qYewAFSUeagorAD1gB7oTHWL3MjqABJ487raJqB6eHKYzLXEF+vDIC6wnhNPvJJPsqOWjpZswgrs0MjuAP2l2lK59vk0QBhAEDT1GfR7LQimv1kuaDMjH5AYgc1TI9H9OUFzB44H9SPTKA6qWERydbMkDs4ZMedASYRKakQm4AmiPIMZyXKRKom4sqhcAosxOWDqiiWN0dhGhIPFf2EPJDbgihkAJnUOpKNhmkWgg4aEYaGmEAQTpyCLiYAOTQbK/OvsSFlVZVQBkB3BYj1IcFiCWagOqOSHaXbdqmMLlJa9hAL5QV73ymHdRAB6sdj7XLKw4QodUR20fQXvXHwU45ieEL2EfdyMTwkfZRqiH4CAADQzBNTWKTQ5/iJiQFgO0aam5Tt4A/PCsffQQ0EA8oAzgOvoFBKKdOWHLoU1AmDp0C1H7AaswvIIIZVyhzc+owZRl8wCyFOKpKTcklAeh9gUASwyBRYPVvTV7lZAQ0BBzgkUQRDgHqIvCBL3AqDqDVMDKBeCfTlT+kScYtLHHqQgKoDG6gFDscPKao2JQolExFmQB2U3QBNRZg22hRK09kpQLMADQQyt2R5ZMOmXJ+5BkOAoQQ4I4/XUQGwMovRrNjd2dVKBC+R7KgqSo9k8YjLrQLR/Uacd/yGRqgggglIIkEG4KACcN0WAyHzCwnEFURA4ACTEpE5WU3qR2PshUB5Js7oU4kE75U2bCCFEiMR+45YI8ff6vsJiDWUATgcR+ChMQCUDZIAgO2id4rAQ6v0CATAYIFkaPoD/CjQH7KnipOAvPwWXroUKwALhcfruMwGtVnAF09H9GhPPqbI39CAa5WSrQU+kFk5UigPdkKk0QEMQAg9QwTvYXRJTBUe5tSW0TZATHN7k/AY9A+HI95h0AHkgS5JJ1Q2ECOnDosnJABPOOBoTCUDQqShTPqAg0IuOidqn3PabEJ/wBTtAB6sFjPVQIB0gT2SXlAEduhfVExUo7kJlYXYca8oAfFzDazHYImXASTg520CyI9Au+AOtUwPSqXNggTJ3IDkCNEGNheJROgRZIUQH0I1MnASyxcdlZi5gCDoFUGDBGqzR+BQwuQwMkmG5RBJr+DW3CAyMK5JNBexR8YgXXKCC2qg7m7VQCaAPtMb8hDAa58vvqhCxbuNwmL2yjwByHgVBQEgtXqjqttiP1UGcbJoHJAIIpJz1IjYU4ToZ26J7AmDSiDmEzISXB7UdvSUzNjSndDcCb0Ev6R4JDMpGpdYVMoDH/VJTmn7At6EtMIYLAhkdfWTyAEv8z2TIACACw+QaHRAZMKk4RN1E95UDXNnZFR3R3XWESIIBBPphpSGYUlmgFz+DqmFCbT9ISwFW83NC2w3lg6p5Urp3F1MtBpBndAYaPpALRUAuTyfSqAxPieoBW1xO/o3rLoIXsAqTdvYIzG3RdpCVAOBeQQIhhyQmtOQBiDLKhVwR+G6MkFhiXFp7wnYC6PQ/qIaojdDuE4tmqLwr5WvqDeHDMajcWQzhAi0cABgCrbKFeTQNAya90SkMadW2yoAe77pwzQyZejsokvhChA9T8QHlGohM193KC0xEyDIP6Xl8B808KE4f0ZOYTTDLEn6KTkxNXQUw7iWhggnrlAoQGmGTIANdCBiXkxIA6ynp6E2PRE9gFmdiqE+g5VKZofQhEJBITJy9BdGEaQDDvlcEBuqgPQelOGEIk4Ej0T3X3pY8Dq/Q3CdjV8V/gqAmGo+JRN13ZOlBPYOoAKdZD9fQjsTmoZWuFzoE1idCuS18or1C3I4p6S3oy+wCdid9MGYvwVLDVt3Q7p4dEJsDwhpqgvYoDFrjVQY0O4Oybyotj7iFr5acJ/YqiqxREEB4Ie2ArwiaiP13RdNoiDA5zQVB/HoIOvp4S1AgEkyLPn2RNkLt0CAeU4FEPwG4RAsvIEOsBDNiYkXhXBYUbs2gocAHDQ4ZOF2b/4RYMgwOxCJq+sgKfV+gCEACSdAi3ytCI6ShTMuJGwWqNFRG2EwLdk0Ak7Tf0PoHTBGgY+BBMxeDX2XDBgy/x6CGXjYAsdxUJyCD0SABtH9CCL5AIpPAByeNyieET8gp2iZoG/uEfCWwhavLtVQTcyhfDSoTTkqepB92VQWh3IIFc/NYgGw+0y9YH1BIlAso1ACSqa+6FNWYiQjRx8qcZLB6Tkd0MLNEIaAgToXsm1+VDPeiDrChfwF7v0FFuJrtdXcPo0XYUDY6IRon1R8AgEJnhwt/mDdNoelY4LJpCiFOyLkY6OtiNam+AyBJPOqAbpw+hygBYBLzHUAgAIn0JIVYlWYATp9xpshiG00avWCngXoj0OFuBihdewQzsT9ACLw9XqNIIjtJOuDgT2KZQGqBRpiMOOXwGqgmGYFvSU2QAcekIkOC4I3/iAquGdV9HQoogNAUd6Q6h0zCg8Mo8Zhv00oIk9t8HQ5COAJwb1GxDBAZLX1hWTAPaaRU1l+DFt6kIv/rAIchsEMAAEbsAe7dFX5jCdS17heq4UYBI4qgBAy4IThdRPAKolRXEaHoiyoXLSx+6IR0AGCRwKpxuhvA6yagMlSEAQOQRiE4GybcgCuDHJQBFr1A27E4kN8ehJ9sDD4lO2lwS+TA0LUZRWZDcGHQTx+jiP2LHqQnLWv/EueqNctOeQckmiMFDbUOTuwregqwQEkWA5JgACqa6sX+s5BhCaMtRi10wmVa5zUouMKpC7ggJ0T2IHUi1xCUDFBORVOBsugUIbGCAQBYQ4bBn2usOjZIeYhu/I0KdXjhBRChQCBtKNi+qEU5X5xEHo6Lg46yZMbsgAgiRc+6EC/AdXAKnhPiarmEQrTXshywGH91eSclEwSK4jhH5EzXYOfqUl2Tcqbbglio6KrdN6HBC79sl+EWYSx8fJXAhxTr7OoYmlR6Nl0+EtABMNjyNDQ2/O9ADU/wB/QmZPLqWGyYNhCZIveh9FCn8XB1RyWK6BjVSIO4UAA1MgE5kD8my2wmiOKL2/0NE0CCwADoFAQL6Ic4cR294QAIpBWgH132rvtrsE2VCP9p24Wm6YyEiQZUqOHvh4yjiTxHTsOELEuBh7VQBwYI3hCgSALzR2ifa/ADA+HD9K+rFAn5QZ+gvlyP657Aq3C7ddyga8LUYPIXmyq15xg9vKxoPwm2lMMZa3IjhqZhEiAclFmHGGxEauZZBKYCChyhkkRd0U1lWxX9h3ingDimEXWg9EGWb5EzrkY1KpufQxhCNIULkj0ICEJBzABNsSnhx4cOI/JV63F7g1yAjNA/dw0AjsCq8hydFOBiXDf0V1f0fKpumJ12KIFMAE57qN3qRwIbvP0sdOrGcp8kAXTWBujfObOMHKJZICALABByDI/Iad+PcH0JBzhgySFAewPh7oehHJ5ByBqgCFAcOGPQ+gM7gcQNGBeUQRgM6A9zp6AVhDDUx2IDqU6LI9YBRwT7pwDn8qZjLuKbiLoDLmesCufQGq0IYU2NQgJMAADACkelUNmHJAVSrPQI8NOw21Sld76MlmaDcpwJkk919sFa/2cH5gKcMeQy7k4XsSXx2mDGI7g7oZzkZNVVvc4OAc6sZ29WV/gKEJpuJCGsH2uXTTa5V96Q+EEAJAA5OAjuOeACDLbKIO7n1go6DMoRUgnekuvAWtC2Abug3cAAAAKACwRHam+eGxbUCNVHy59GQGLx9KWWL9BKZEWB2INmAj0YQEBdnyTRPYsguAC6qUIE6D3xFW7I3otgVDQwcZpHviUSOTD7otqjXYizM8VmqcKIeHwzI/IjruIOii4AfP8QyIW/QIFaJoAoDDYIO7egJ/RlCr+BJebK1hXEwgCWRsyZuATR2j8z9uqPsgWWMjRVgQqQU4hMkLLApCCAmS8HcQhA41cPcmwScDIGT0lEM6IpDkFxjhPtJ3TrBQq6NbD+SInamneb82Lj2kJuwYxnugrBeM2yTfkz0elcOgyXXXg9hb1dJqHwmFAT05CZdk3LrRN0HNTboQERdbENi1xPZnn4NEThouf6LYA6BdvEFxOkIJIzGj2kGDShdn5mgVu/Agg/CBQy5dgYCFhzqiRB4jtemvVVhyRyb9SdeC1BJ5gIlMEkk4CNV92osdAIjlW/q6+2ZqVz3RQESag8Hcj+BwMe5EtmYEHYoinuv4TY67D7fxYmhTqMn/AAC6wVKAgiQaJ1KB1N9J6T6OFOJN0yffgHAINVCNCrOBZ/4AUMZq2GCupHWKfzapSVv5RuycUJz4OooRl/RnZ0wA9HBABooQULSoAxdMnJEYBzC6CdHBQRqSSCvAUZuL2lUlGxwJHBEqjCKONI6Ej4/PyrK6Bzg6EC2gAiGMxGhQkzev2kEtGN/SVDgOu5DHsZHBEGxlOKHY3ZdWU2BHDOsK+xVNkTjKFXL5qEB6ApMgeyHbnfiDoh+gVRNyck0cocBCovjcZiXAX+boU01mcj2ZBYVoZTjDU/6TsAniR0IFA2AqOpGxHrCF+npDIJJjiK8IE5pQ/wCQKh8qJgTLM1OyYb/4vK5HuECb3WQUAHNHiBD8fIsuqQeGWcjAOWHcp6egU5Rrgak1I6spSUEAAgAYQGXz8AfgoBXkmWZfaEPSfoWBwH4O7K8jE0CECIoyw/Q6gwYCoOB1i6OiJdP2ATF5KDwut6VpbjmUcE+iwUqfwawoDG4+9OdK9X+e+v7CrnT9l72TP3MPKBhIAAJOgUsAGoOgeQT6BuAbwNE1JIBVszhkBOw29BqBvQ4gSWoVkLIPudG6sXDhbwDJIQUcsE6jlHv3fxAoQN0ew/QARQvpktZ0iBWwCUH+hTptWCy9NXfRRaytkY0XqB/DIQ9eHakKlqQAHTghMaQn6b/1TZSAEsDSpw01qJqo9GdwHG4VBqIWgAOQ/BToAvP/AGggJgQBQABgBx+L+FC2nyBDJEJDVTp8qjCaMGWFcbSCG7oDF5JpXBFGRMALDgCp2RphbhO+ZFAiuYQxN6gU60QgA7AmjxRGH43ymxdWC4UIqDNLK9nVHPDhfT4gmtBKef04kfKJDXSD5gJj6FGDtoA7gZ9k5dMTlOgSzCcPPT1K09yKDjOjgfR7lNZQwjUlNNbuPz+bg6hNk/4rI2oLH3Zu6fm+ZTNIXENEwAR6Mk9c13+5PV010rk93Q6gTvwTIIkuCqCL6F7gCg2N6/Rw4TcqvcFAeQlwE1Ybtlkpbpwiq1BbeIRfah3AGif8yxjDS8s9gsTsZWWpU4IeyIHlewyIr2JT4cxBlyS4lTBbAizBazl5AIQP0SB9BFgaoYgVYUbYoIyJuL5IQgcj7KDnWU0SobqpLkn1G0Tm6DWTAcPCbAw/J2EZCn/4J8L+fkYEFoGR0QQQCgBgFK7oC6mrsz3RGdUNSxQPTNRFJBLAyNQ6I2DFADTWxsdP0yugElHpMIA9h3ZJ1Eh3TdYegJAc80F/Ry5U5T+jUdAuOLnlOigqwjAICDPyyJWePBOclPFRhRrM+WfoOEA2+wRvjiHkLKHA4Ah6Je5qAw93YooGCcQyP89HX1TX5bCAULwOyodCDLoABOBKE5Vk6hI5EOZ5FGEp/hVRG1k651fnlFrq4TXrKbjrPOFC/rJPJcFOVA75c3rs+of1ASCoIsByU36DKJLr4IdA7nBL/ToIYIBh2H9ap2K7JOAqkYdYHIKAQQ4qKnd+OwGcfgBJAATiBRRP3+HJ9l8IcT8yyx8FYt2HoQoc2bIlsJkCWQnI+wnYVN/RkcMAsCxsfcgAIIICCKFGhGpNU0J1Hw0TSdtOpnuKEVRgA4weH+A2QQEI4AuDscfkBAPcRczis6VQZIT15wLWejGmN/RK5VgiQeQBHoADCqdECwQHBZw5lBRySNGjEyTrgRg5ABpzUH0OfBAJe2NlTRuuUIs7XshDDCH6liPZMtp0/QcSJlfKGWfM69KE/ZoTOBYGroBCTOBtdfWsHhAIXAO/pOvS+xG7KE6DsT0fJFnb0Gw6D0cQEuyJVlOQB7phBTd6uleSgiCVB0NBt0X6sfoPC2znnh/cVsYkDg7ldF8i5PS5EeO8C9yoAGDEAcIeWfQKwQKFMWMhiVS6ABX2Klp9E6L9CMW7ykE7N3NUMgZguNHaEclYqdZJJIsKAeUcMdWT+hKWKyJY5a7XD/A52z4AqCgAek3qeoWXxwS9n52SUxUbrQS91ISBgrB2O6ElAQQWDACw9D1RnJxpDAKcIXAKBCeyNHKLn4BERiBwRghGuaZtUHmrbpMUKe1PcAVeNR9qixXRUo6wz7yTxUQZPBc3OTkmUcQRMJuanT0JJYgAcJy6iERZOcl0cz15EllmxMc6ACXRF40LAVEZ9HHIk5NSg4AgmprJgzUHkHjssw7Uf0sMocGgg6PVECAQI6FoTZBNsw7qPBWFXXDZJEeAHOdhXgoLXVLOd5OgjdgvQ7It4EhBpgvUtAPQalrX7yd/QENlWjTk3T6EoqrlGamhG8LZoMDgsylfaI9WFBNCi2nPRK64ifWT3RlK7skAHh/oonO5QGYR1QR1B8hy6ggqQgf51PwyATYgBAm04O0HRP8AgypyAqeAEt1QWd/WGPKCk8C2BsmBOUH2nFI/chAwCHEA0HIRM1Qh/tK/afp/NQXwjsM8QBEJZskRvyjsqHUeo2EODPkplQiUJ+T+DqFjRUEbVVAlEB0GeqAnZCDsqJlye+iZNEzeVKHS0GhqvPG9Q6pnkYuOU6gFQHAgCDRinOsQvgEQUPm4GQjhp0R8mEM4bp4lwTyx9kQBqWdsLD5TTVVIFxAdtEJTUQriN/QCpZACIniXbRBAAkmyRDVlMlcHkHgUCZql+qIcRDe9xv7f0kp8QGOwhRDyrux05AyXgWSOiB+IAO4ir7KgXuB3dQQhoAUYG7J+Pq0oACEyiBJbA6fg3uLl7DALOmdwD0LGDAZUdofR6qQj3SXcCyycSWFL39gQBgAAKABm2srBCdWhAHLw+RPCxx7v8pkPGZsUUKfuWPwag7KCgMpBYRu2fSC1bIjG6ge0dGicOibBOINkETAAApnIapjSALcFMiGRFQutYov8X6Abx9OeUt0EUAIKMZj8gPQAQCYOiEloAmGJl2Y43ZwqE8LAQWgzsgipzS7qLHn8jaU3o2g7eiNmww+EXYZ6hjPUQndy2uAn6LVDClF06nz4md08ihCIMsIBnIASH386I7ogwEclDAV7P7qy1nB28qELOH5mer9JnI869omiyeirGduiE/8AFZLLiRhC1/dJkS1aRBY1BE7iZ7pkcu4RW0A1nyBKtsLqxZ5LAGQdCnCAYOADP3UFPjTTFc+ydOGQAogQ4WAuraLP4FOBZBQH8I2OiEqmGrI7cwtJG2ARKNkCx8VPRhDQ0gkBWN6EAUpEJlBUXGUTAkkyBXcTG5gLVCJuCpE1PpdOwnXAiQN2XaLXXi433wjGDF4abqvGgWOx/RCZLi8mQFNjs8DZyvPNPURE4DLHegotMEkmrAbILB1UekVCZEoxJA5M1OCYoAHoENEoLJ/AGmqOvWI9WRQ9UD/2M+BCHDqqAR4ACNA4RE9YJrygJkAMRkFD2tDeconDaIs7pqQdnRBsGDAGGEKXIOvsOpMZ9HR2sP8AdJUvCnX9aR+qmKSLHGB6lDPu0Zs7lzc1UuFaF4Nz9yYx2qXiG1coe+X0UC4ORk4P3wi/tpqh87hMm90KTcW909p8Nf3QNCsIRk9mdhJNcchRudCGYfRMoQwxFcJg0W95KDrWnYQ3VCFnAqCjxXqtIf190+4HHMs7EEf7aWfcLJsdkAw/0ibJVoR9EqkFsDJgINEgY8ojAtYOBygClOUWZK9AmggF73eyZwt0e2IQYtF5I0zcoguwi0FOdf0ACDRUAPmJngjDQAes+jo7JupEDHWX2UNVVCSBixEtiLpvQqEggcUGm5RXHVFQOqBwhT2oMDuiYZRkSObIDC0I2gsRghFgH7AAIB0eqMGA0lWBk8ZR8KIN0EUOAgOgI3i4DJj2lSuUAkHA4ZBRz9v9657+gKNWjzlA+Xsyk59VRxSpERBAVUIEexubGyUCYOhwbn3Qw+U/rcCLmL6iqi49+7fCe6dcGFJV6MVw2IvyyopzhOcOxCaa8RvIgkmz8ktQXuAhh5Lm/wDSp98WqVDiFsuUv4gfGCZOwkkA7D0iSEuYDWySiKJhM49h0QmIILgyiKFAnMQ1sysIk5Nzz6Mrk7PS5hn3Ag8umCAIZmZsIhAegBcS8QiSwySdO16IIL9CRnY6Cq3JPcUwtvgEESDfEEK7/COR7BA9gLkSG1EoCRpkVsyT0ZO0nlEwkxu4izcMcB5KqVzdDhQ2/WRwaVIm5HgjVaYA6IVQFTLoG34AHMAXwjhUHIDBwmTdtLuIElqKTvOSylgYepmiblFzQxA4GqJCgGJgdyAF2IdGktHuyMSoEwAhiHDy6ABJsiYTiQwkCKu4QVUUGDk5mHwpQLgG5eOfQLksyCDWaEboEAIxEkLABk0HKsBATqMOO1Or6oE3kDR2RYi0IagJNMknd6sob9bpnsLAlOg4UJ5vNcHKd5u2HwCqUonr3qgM6JgQ0FuirbE4jFHPcCYJUgyMcZXZFCiRduS1UGRa2QMgqhju4JBeCJFk6veR8DdACYLBgCB29A8VYJLFQ0DhdBl0yGg0EMFPwMAHRtaRLsBUnAEoasdE/Ra3IRBwRRmDdC4QxeLuochrHeAwlFZtkRDlklJoZE+5lEdl8JuJQDdqeypo0Gpl2gliGwdTJv1twggqwANS5C0FNoQnAMBNTupVCgDguPUMs2DITk8GgS29UYjGCxEefUOJhJLSWAegcoMGjFiKgioIRCYEk4AlMynddHBOgEsYEQE4D3VCI0MlIvZEAIJAXBI1lMFWZJSlAraqbrARahBdyALX9C6ARJNAwgKD0EfLiuvy+yFUdx2TmKCi9lGkFX2BlRwaytuaYDftdVJ2CpTb6KNR1Anx4VNRsRFgWo1LZqI6gPC13SF8HAUTUbwVMtZ+ZNR6ICgxFUdQ4YRtgIMjNqDDcMcChsgRMN0xsUT9yRfwxcH0AIhjGDVggG1KjUBGgdbCDpI3yUROdrI6kn2oI9HjKIAkDomCEMueE53OTUMo/oOrAV7r/YVAR7psPBo1BTCMTshyBoipY0D+CQCEAz/okBLWVqieKDDenhshfKb+hR9v2X10QIuESZ4F5dHOxPBtXGuAIwMgsKHIwAQxBs9bLE0N83p7AUQEESD+Ax5IKiHg5av4GSoLTOGlExiAQYINCCgDAAgwDADEeh9VwQHdNKMukNQ8x2QjtpwrsaPhCZIgnLig1HKBigEHYwUAjMBiVk0dOOj0hV5S3odh6qY0lo/Q6JC6b2uA7dE4R2DKPzVz9bmgXwnJH/ot++ew/b2J7oEAREwELrgYRd6k9k+o5sxIOCnv274+JYLG05TIZQDwJLNufa6ZiLp7i0ITIkQwQRwU6Fp9GmypHggch82UEbG6jBEyDmEB9x1MoMjaAm5b3NgiKjvarHcpkhGIS3RUDDTR1tAyzZRYLGuiJ4jxZ3zFMcwRHP8A6RlVp0BLYBGAQBv6GNm5HAX3W9jqVOkHij3Cf3OGQ8Bs/MBlPXttgLeyY4EeB8CfTQBYPYICBUIXL4FMAEoEJ1FxUIEGD5g+MFKSAEVOogDgg+psOFNwn7dvUCCQgUNPQJAHIFzYINJmCDqQZaempV1YdULAMWQU+MfLvhf4EAqlTAQAkkADkmAALnRGthEi+i//AA5PQPEldEIQRXBHtoRQjPohkEAg8egdcoGiO2QL+XUUzDPyvksgg1IxpZdMhIOjYoOtGXxVKA+qDQKc3T9EFDbw6I8nf+F08f1KFnfBDQXVdyS8rD2wTuUGtkT4LwHRREHiL7wkk2J6ucjHQKP3wDUgwzckqi+Vl5HEOoK8BrCdLHI8FqpA926Pc9wA4Rs1lZ3yr0OeScCqsBFgQI3ueBOAACAIGw/eRRimLLTwDMAlihBgCgsQbILLllBXssFjyJjKORtpwG6AnYHBcB5EIICivVUOjp9UeRsGiJmkPcIDkEdAcAAypBxdAR3BKvfdFYp9QFcNivj4H+lIueD6RGOLW8RG5iDqjzAjGBToxqiAJhKBql6MEPVSqLLg6/FBeoM0AAAKN/wuvGgmx4ZWjXwQbgioINRb0rJNCUS6HiVUeQN01gM0r0KkQaljItP9k/A4/sFCiPhhLqKFtSgKuDToFCrOk1n1n6RGBw5TFoUQfADomPbFwRAC2QZdn93E2H0PZAMluIw2yN+CC3Eee6BK1oeqsHZyLgXUuyCwADYhx5yn4cjOcj7xspHzuin1XRu3rAvokxACdkgwm65P/DdZMOAI6IDwU6nAgDAEGoAGxWQ4JGU6TCiiUS3Ul+wFN56Oeb5cIEqvZbsKKkuAADUmEUiS1L4bu0Q+KAfN0KASAfyI7MIsG5cHIIqqVV7cfVkWkmIui7KIUHuruT7qe/0MxAVwr+cLIdVAADADeyMJsEIHDGSKlQSgKp5REQxTH4LIAYIABgAsAIA/43X8eAHxjVLCXlNdhB6OjQm+4BBBA1AJB1QGQB80A6iUGhjt6V7gcEcS0CRHdc7+OXYQNVV2GvccFUBui8D4U3Jv2ohKRmAZh9iAi6He2CgCF0gSvyCNhAQAGAsmwnHDZO46zVGZqbomyLv5OOInB5Iy3Mh4M9nGTdOmh3VarYwVhCxJ7Xxk0DMEfSDU3H/iz4k4HgOQfA5YavpgVlSENQj2RHPihCRzVPquglSHAaggIqlyOBYOQE+088gfcHdCEe4AnN7A2DdPdKCD2JWPcoBgCSYASSXTFNG/IUVVHoHj5f4CAdHSm7UE2szGrWGZdUw1AwAQAFIYa1RJlr9LQGUOlodZNkBrnUf1ClogP+au+3rNsyi6MO3ZjZ6qEpGI4OxHoTROR5RooAcmVx8MixDDkqPbootUn+gHw7hgndeGTsjYnjA9x/Q3I/wAGrAcJ4uc16V7NS5Q0OSrAbKqhNZTcqUMx4zHyoTp5UHgNGXSlH8MBuc5FJTIf8oF6E64OfcuE9/WaT5WW7iORoRUHQh0/oA5EkUQGXQa8It6UEuv90cQn6IbaQD2FDUGiTc9C1DpspAaBJ6rPZMlEAGqMjE+yNgPdci9lruQI/ZKfvsgHkE/9IBiHBrdFLzCQBJqT1O4QHDNVegz1L7rXLA6moUFM6hD0AkEAghiKgg6Y0UbQnSy9SyCAZ5xyJ9whTFUkN78DjIITE4A6y7Z5RCRYLp2d+R/DqnykEt0ABkigsN9ODIgZqI5ZPAYafoGf+J0eYbnSRSP8SIauE5inPxFofqWBDIgmx1iiZD1n8IQ2BcoXKH4j2VJWHgUBncBTIYij4cRFDJvs94G0YNP+11uBx/Vl+pPH+b2JiniO5k7IGfUk6pM3hqjYRuEBIAAwGQBsU9n68VDVUWcU7SKFPtMLIAAABQAMw0Cf07AA9HdGbypmOCGb3D7o6Rutc8HI91/Q5bCAOnQYq1Bh3dEaGcyE4dm0/4zSH/pQW4RSWPHPsjTD+/V4KmQqeDBRLsxn5GO6uHgqav0RNlt1CczXhOBO045FUIAg0CJ5rJtzZI/SblGiH/41QAE1i9hPP8A4QKdJNgPywB2roj6WT5SyGyx7il5M+FuLFm2nlTst+3zNoggF57Kwgvbo8JZSfckMEvqhQG/VJdVFLxKO8J9uq1FNEABnP8Azg0aAHQorlDcudUKSTD5IUd3RQICNjehgjuSy+7goDAvBYFp/wCgyCDz2QQm1pQXu3KDOh090KxCCoTkILa8Ira1/qIw3/8AjiRGGUth1ACkPbJVkmRgBIiGd3JE9ExL3I9RsoIyG6BEF2yBpTwIxLPNo0VPt2Txsv3e6ksK2QYr3QWIOUyfhHxDtbRdg3eL4zP/AMc6aAgah0E3/wCjf//aAAgBAhIDPxD/ANFB5lA0iN5Mj8LTXI/BIpEofDJFz3OB0NHppZGW1JGUITm2EraYerW3f8lv+zTbmhswdKQn5Qs2rRJHdJzpVA5a8aJ2BigIWtXOBMydu4EnQviOCXEoZY8P6IzcBmhuLPpnT/kBK9Jd77MCYWVP77i9hzjQnVoiElLMBnbIFJwxCVo+z7NGIlgUFHQXCPDoLJ5gtUjPZcwEaFAB3MTBgyRJ0YhsDgmrGFxoBCkqeBpX1opkh9PwTJ4iSzoyOUFaAcE7FUPLIaQvz/AjZWxqkbxryQzBKHoeUQ6ZBYQmy6J1Hn3ohC1kqlpmFSZQcurydHJGseDC0yFp5UKBaSQgYtDNpO1npWsaF8rQS8a2BIbAQcBBcCPgDjRhsGIJGJU6wm+FrLITfCYr4n4JIwNjGNCh8rGkO2lkqdHAwFgSlqmieG40AnoRnQFvq29GVPQ7SX8tA2He9mNbjoj0FNaxttYS0CYcjYWSbdaGsMyLWZFXDcduYJYJaqhOYZKK1ldy6Xs4RHurWbo+sJMjA4L0thGJ0gtrSlNZF/w2MJVjlRoGFjC6EkCdhELlaTEthjIFPoQbhR8wkq+D7dqyDGZYk4NN0o6DDSTfwJ0sSGVMSuoQUCx40dxq59lDomQrphAKI7BLhPQi4rdPsgMdNC8ERElqdGwbMmBOxnbRuGJ9G49gJZE8arArVySUyPWs27I55CnVQUjxwsaelKPsK0QghLH+ZC/PRmFpH6aNt4paiZyhJT0thCegSo7Mui3HpqAlj1CGwoJC0NCILPJOOoaa26ErRTKX6F+GN7IpsSAvD8jG8xohR56MqQtSX0Yxs8ISPQ0UoHSaoyjGxBWwL5HBUM0jRVPWlQ/STY1FEtbSShoyZBipwN/WA1pyI/YfU3XCCtI6zh9AAwJpDFqTHewnQNoNhPwDKHXIMp6CDnUIsJWK+NKy8C6SBab9aah3qBjWCoDZBvUFI0l6kiUlNHZTWjhnqCN9IFqy7OEblQNDbJRQW/TSJY04D+O0s7lWD9Dci408DHIWiSL7ilNBUtgZhik7BsRiM1acd3IkxxsDWV0JoH3w1hnIJ5SOLWl+jJ5SODS4ibfosKhMfAhrRaWP2opp7E7TT/Q1TL8D4SRNQROjAU2MXT7sCmL9oug8LSMQ8YVVIVvDfaCzOPIuWe7ly8Gdwiyu/AwnyCTUBKcTSwupGxLY2AF5BcyJ9mQwkpnPD8joPliNkVoGbJDiZnYqH+KBdsiVpCAiXI2fSyWG5JHihiTjBkEyRxLbQuCV1tUEhBUwkWh1psDwMl6wk5RGEZlHsH2Upt3gleWN4qOhoVnmsLjoexZgJobmALI+MbYQzwOviyncLzKD7Rki5oxdiWNhnBlQIfHsUxbG8DZZGWDNh1pKXhEjYYHrBFCywZKdWJphhPY2JtFBlYc7JEwFNYOYRMhZU2MrkpmhZ31UqmHREcCY8smZJDYNxDwJ/wCCz20kVkk5kGDKdItZRAqwNDaY66WWJtmJE4pCkcIcGwtEG72DDBWIGzwIlNAlJQFDUIPPT4RpFZJsplDaHnSgwfBqHBHMlj5PkazQuhKxSQpgifVTwHMP4BWciwTNlGmG0N5OGMXONCRtxDM5G2xDoleNfGJkYHmuiIWiVCy6REOMM0PhnLjQW2EQc9lPpQm+ESzkYiPLIrsD2uJeqthsI9DBoEARqoNj10JtJ9NY8giSe4XcMARqDXgdKN9K4Gi8AWExyR1Y9RY0yQTMQMoJIzWi0WBHAgLifOnI8m+GDSmtb+xcYK2BIiS9ER+lFJItITRwselGRVyKdP06VHgBOVKyuMmSnvpsLZJHnJQGtyAWl6pK7ZwKEe1pLSW+oAKdV7C5iEE5aMtJc6alD6dMq8anJOmRJPwUgnAZPVQJG2gTBRWiZNBL6CP4L4tHJoxUZNJ1gk2B0Y8kRBttJGNktjUmZ6kPwZRnBKT1kXOkauRBNr0anoiHeASptHQlEEapUEfzqQS4owEEcGZhAEUP79DyAmpxpCzBkeqHOyGUe8FHEwGcVB+w8Y0Nn5P4mgnGIckHooEKOid0id++CI2EVBtLYQiFYgsdJMGjZDezOKthjFutNBptg4Gje6eiPJZIWOhoeNuhWSH2c3OmRuaEovpUjTtNGARps0yXwdlY2JIcRiYSAVDzzoBj0oFyTHuKLyQ7EhBuHNjEG9iYW4LGFSQyW5Q0jRJC6mMDPwhxoBIa1kSM6AKDgQw4AyIWSdAXaS2yKFkJ6GjZLRDUbadhZOkdmASPlXoULUsDbiIsLG0FAaGjuNxy6Cx0hY9vnSoSNU9JEY8iA9u5NHOEBcbrohBnottOWxyBd8vQs6GtuiT1/QZkH8HNi7sgJhfpH2aHAQJt+hWiFov0KSWgTkNoLkFDzF0MD73HQnc26H3ktxjsSzgH2E10JEcsjeBLKfeUkljgSDQ27wSW+4kvQK0JTF/yRDGwJAXJNHrMLGSzyh4IfYjSNhlktocQiERL0T6JPjtJkYS0gXNIcBWLkbk9ETWgRbgc+3HarSpJ9l6OtI1aVkaz2pEOB4icR2z4GUpzc6jLCDdNSaswNaJdVdDVFGRPRsQtEN3bTijrKQ9USJE6QRubE0ik7G5utE0TpCryxXQCesMUSp0VZPQuRaF0S31xega0Mi5ZITJK1HJjsJZ3G2wS550k5FuQ9HOyCTqKNG4h0Ja2jI2RcjWBhokrSCiOinohaJw4JtGHiCWWBoOzwuhI2LZaMnXLp5GHv2pRJCDInOkR0U/RYWxy40a2k2EqUQmgKjRaSLoCcJ9MV0+OiCnnqm+mWX0U/T0JT21xCYydblMKR/A6kNoeUNFSVrjWx7FOyNzJJ6KZDSjY3EF9M+89gSSsa26JFAw7JEuyelXQkrGiaIejFuIWsF9lTCl3sIbgRoyY0Rs0sa7RfSaVE56KLjS5HK40kclQbkIUxvwKIEWzZJL8dF9KYHnFojPATh5UidqJlJtQd6M2emyLl9MtFCY2KKXRYsHvuCY/A5iCZ0pig2XVAWYJOSFoEsC0sWwBIwYn6LYp+Q5KbDjA9tFzrkJoR0yyK6IV8i1W4jol7GUBbKNIWk32AeingL0CWjMWYWCFPoeQVtI0SnW9C9+i31tE6QR9OdIJDaCOtMwMb4eBLJwPeRhyFoNgMjHqQtpLIXY8wbVHE3BNxt+mNGx9sQ9KlckCmYlg+sYRyGxkll5PVq9u2oZKkHsPRNHA9BjyF2yISUb/AEHw8g5aQdxUCxtemLAs77uBJiFxYuWHxo9kPszn9AYRmEITpSxxoHz+5wDyEYr9EuEcAuF/77//2gAIAQMTAz8Q/wDYCIMKNf8Ayu6CYUvtpugMQZZwc9EyRADgJ3EMqWeMHmqKXDgdUH7hZmwUDkP6RBuNQnDKteqOAkRsEETMcfsBLqhkDNHc+USZttPqi1oG1ZWgbogAMmyKAQJZ9vRsVJ0x+4TWC0CXOUVAEAGK/No6T5TETazJQok1CDFeJNCSoagJeoCeKhFCBuQhNMh2RLap0MF3NBA1BpogKBDghqHYOv7GkmWydkFrhVUridLkOGsiLsgWzUMs3oTBFQiZkJv6MngxyJMQkd0d/wBNye0mIik1c/VUY7CdQE1qqkGgQADhIkTvqjqH6AhB8kOx/ioYowIspyoQcEL42JTjcq4EJ1QeIp8Iy8cIvJNh3oQNvr9PeEJGSp8iesk3RMO8wOUwbkVUcyYYhr7+hIASTQCSqKz1C1ayiU4Fbbq8G6elx0WBNx+itS4FaENMa7onpJBus2mCn07gCcJDqKbD6lagF12uvCAsG5NEkKr/AMWuVKCdMug+RdEOJAPdTAGz3B8kQWIY4P52BzOTnZZkmqAIocxOFF75e5tEe6BugkZFSvdSp3VEWC3LGqCD5xRhlInAD2QI4ZNcp1ZyAu9kywLgJ+Cr9BxATmjMkKfQ/IIEGSU8AWHTAQgB/TMgNkLu9koIkrR6A0TtjKAcsZ2VQgDnVawgOUEDMWQsBUyNGLokqi+yvmy2ktslkBgbE/lYAk7APtaeigBf0RvtDgolwFygTBYEPg+hoBKJLAGl1l84UgLtZdYLlFDCzgB1PCgYEAOAIAvc5QDnY2EJugTjPTWDonaCSsBuPwaVImBBN9oi3HzUGy91BKxqzpqnIuoUQBwOqkmuUXUr09h6EwOnqiH6RD2ifdNCSEiDBU2BnLZO2bllAtma+Qs1EfjS3tPh/BpoCZN3ZQgBgOJuB8FP0CEAnDcC1oWygafdMkkgIRlUKjV6wI8QiwOySDkHdOUJJZQEFGEyYsvwNG/vomUgDAphsIHCkkBQO0VW4j8ldApgTd0YC+VYBcxCvHDqqkIDssX6osNhdCwg9Kodo6JqMoWDB2DlWVIsgOcmiJVLiGFdvVoqADlBx0AyIALFjQtB2TpyBlMDRAzqmGv8oAOkqShoEDloyCWYhhBAgCzoEoYSjWFh1eF3qqAD3QA9SFpA6H1LgOBgrInuhIKFoRePEoDAjQoWLkKdi+PlSGLDhC/oHoNBynDGMAqd1cXy901IRwxgqUwiIwyLpos9wK0BhMSKGgSxurpho7+ycBctQ1CLyBjGqdbnPq+o7Dq2RjYEIoiFgAwoHWUOClAALksoCTK/lB7GBCAAUYKM8wKuOT/FGfXX4TAhvPRQ603RNACQZJgmgAUBONbMhYkzk4GEQ0EVBxZc9Y3qN4JcVeGVgcNYHNAnExwDYhXHQF0IVVbOhoeqmgyOZp7rv0b4D8QWhiwSrCcVElY2shiaBXcX4ZYAYavOoKZ2WYDOVB4uDvb8e8ycekI/yMAgjQAlkyIs1zIlLXhUCz+6JLkuMuZPqKdmrYUDysPKIvhE5KplPxh2JOqFkJt8roFN6h0iHdPtA+RjmveVVB0U+DLgGw71JPVcI0dcpOtk6ct+LIN5Cf2XQBDwG4L8BBIvpZZNE8kRXCgfCJxrS7ogSX19Ycs7KNE6LwAqulE3cqAYCQ750Rr5IVAR3RLIqZac/KfViKIliI5/EjncrU97VXGy02TpwAWRxrLAl25T7lBrJI/0XR+fUhAucHVWCddVLBWR4ESwC6wiVoNxZKADVpJuURkU/Em9pE2/1OewUUChJGB64k4S8gQwZ9XQ2JM8dAZBlpZThIkDDMfgfIKlRyiRYlKIqAkBuGKwAAsIVSEsN0+TUB+VYyTQ2IlMiaBzhAEUh1JvYkxxCcun/Ak5s+k4PCfUinzBHBRUZwmzPjumJHEG/oN05nfUQkhL69z6HoD0WCKgRLUC4VmEtLaoQVneKoheqYRIUqnadw5kFisAEKPAO6ck59WY4IQs20FOQzEvv6XkO/4KDDFZOH6BMfUd3R2CeICIJADyRmHGgi7FwVucLjZACaBd3VGz6CAwgo3l06MRxMjCkTD10WsGOPUEgK3bZF/wQkIF+cp+8dgjXxC7pKjeIPKlQmynbEexFV/AFckEhPuTA5Xa5Tgn4wq0IVMapgOLCVYkjwsI7bB+MhLd4XdGHCfqnkIhNBGEQhOgD0KIQwLgY0TcNgiAWndEUTGZYFPDgaszPygM4ZJywYWQtAiKet6BhA2QItEJlgwG/wCFcARD7iFOi6JWD3HKahIaMKk2HkVQqAHGwP0RLyLGQQcPVaqrn2Qggu8BHOtWe5kx3VJTZTsfmqrAsygkDep0EiVwACyy8EDBh2Z/K/h2DIQABknRIZmiTH0jpS2ymMCBTrjsQhIpISIqUCEBhsgq7SPf1no99/QDQELarf8AJV1woBsr4Ikb3Aq2NkSTuQ/oILSldKcEjUQbHVAD/Wmm1HuhoGRHzqmnQ3aiAU4+OoA2GEcp0GjBSMdJSCB1HZFcTA/PWqjQHCrCiY6ACxKc+PdAaDAMPRxMHVqtG9IMkhZOf9KeisknlEHTjLYpjNoq6/kREYoQhBYcQaqdAOjDoKVLMEm9mEqqgVDhi2uqAhImgqkOksiCsicCwIGKZmzK6KAyajdAuE1zhUIMhbT0IpGFN3kmFLWf0MXBYiiB5KqgYLAdXDIUTIRNK4WCOETZOMFEEwtOyJIkyD2QUPkIVZxQIvDlf9DxN5uhsDsEKSorh1R5jMnVDl1xlmPesUSBQ8ldEhhGbHag3V2B7w5QQBJMItFU7PBU3+iDnAkhnTB2tVPwi2FB+f1cJvdEGHOFK9KjDSqIU2ZaUV02ID7yMHATRJTQBd/Ko2ij77ImTJ6/rfP2lUDbk33UB0MFMmwITBE8E5QgAxCrCLHC90AkQ9oZKPZkSckkb/tICQgoORfHMegdwFmENwswn9s5UOniTo2Fj9wqAKobAMu2hKh6Orn7IQBSz/joC5VAtvQzDhVV2Tvfn/hqJ1aEdW+UPn9wv4Ago930JQ3YOp+1UaBIWI/4OUByGaq8oyA80I3NoBRGxfQhA0+BB7Kq5AhEYje8x+02lEGuO5Mc3LFUBtgq0lfOkhEfZVxGpMMAXyigCMgEhD8JUT44G79p4ECpwqJ+boA49S48I/xS0AxWUKXFSAkv4CypQG7Vq/2mCLiCwM91SZwMUTYr0L7yE3QTHKpoND+krD+w3QaEIPYCJUAH3QAEioosAESuRSI8ewVts7Jk3lSFZS6Lfw6JBA2SacwXGyDE0UvjovLWj2dP1mREa66IIQr3KOA32sKuzNmOOExhMo8EIWKX2nhEtwNUNTsgzgk3OTlFlmCWhudAo6eHV/0WAbD7uiG6CCHdVtE5SBwyMp78wUz1NgiMBsKCM55oapwQxqinNquTKCrg+TEIBeJRQMIMucNFACXI8gtsT1JMEIckQPIpEyxa9x+mKgFWGQHx62SmigdB1AcS7oRYkwyMqjSEI9sCKByVYVKAAgsY3a6IAg86gaHZN5yGPINLJ5tvG6eBJCY8JwAWMGIWxYaZQDagMPyoKvCDVpy1wmSSwcOFVpsLlAkg9k9x2ChowLls2RzhjKjVMsF2q7tkQB4EFkn6WhIMBFgbSyKWRPJKz4CEECRegTsnZ0CSVLMLoQIoDxwypwLxj8zxlMBnYfV/pP3FTlEBzjVshMRgq4Io1HymsnMJQ9AiywUHROjD2rJoMFOHO1Qaaos4j7fggciLd4WcDQ/1MKG8t9KzYDYa7qIHxASNFH4EaaqUZhvj8S8zgHKJZXsm05olEQngs3KSU7hqGiEBBLmvdM8EgDomGRqOtRNoRZQh2T6IUnYapoYiExpZNUSCoUUkHeUBfuim9CZcJwgBG5LDVBHYpVWxH5OFQe6LY55lBPAKcAq5B8ppcMQHRCbB3M3hMeYGRfhlMneMUqshT0pdRG7Dme7GCbWi0A/AQXEUUCOqHwNQgY4AG5T3NxKBsAHtiBoRhECypou1JWpn/HQrr+GgSTAt9p7zkdlHknAOEM1WcwO6vsRg26oQRIaVRwpEQfcKlyKENNBqCCDnREfC2AcVGqIoJGBEFF6KEQQRQVwjm4i+gTv4E2PKwRPAfy5DqHAQbSgDEAyUoBwKBbUScNogrghIgOtXsrsELB/6payap0QFE9YeCjwgtOfsMlNA6ER8lNUhuSIGoO6Yax5Mo0Ax1lXPcNUyIILYKsT3Qz66LDh0CaBjZHTJVRJRKYQ4m4rgKSTBlg02Wzn+qOEUlTEjzoIBHgtM0cDeLM8MggZwBEys6L8XhYiSi4FiUGjkx2VZAGNC4LkBMwuiWqhxyfxeMqAywQQ1AMwc9k83VgCMcL3NWUL0DmjtRE2OVwCLkZQBmBHM1REOXgKLlJQRvLOnTUz2Ag5xRlTvRxosVck7iGq3ZzldlBwE9J5OUWogCUTNe4fHrJXtRIiYZZ98KFhswmA1+tVd4VJRNjmyCmXMhEA0kVst2WZJvc76/gXY6D1TjY8Q+6qJbt3QPoR4MVBrynwRigVsnTvzB9x8/i+sUzaF0DiuPhwhVhpCnFSBBXGmqBvHVSFFLICD4YYcbppMIZmMKrZAQm4SNzlUC2IWbDhVgc3T8BJANEDJ1NINspttJAuyGxx/A6CXWQROU43Sn1nx8aLSMfSNJF042h5ZCUANTchRgxJcydyNBdyeTHz+JLoFPOdOSyDUoJstYCfVh8BtgIVwIZWNVN0buqfg9/yUhllCztZdhCGiDGYodBCEHOlNcp0g04vPkoaRmZbbSiZNNCgoh+BHeFvlkZh4CEFcBY6BRAInIuUBOii0+BFkHwsjwSCwtn7TutTqoso7T6sY/wAZAtBAv8KojVwW4UbYBkU3RDixREAMw+if0lvD/SENKp5uM+rh1DAD2GdAlHf3qnhEiDE51UuhZUXKUGo/2hlOGIKm66DAKPUk8LvZ+LEwQmdThVgmRuHCZhxmjp+0EwWDoTurjMhivJT8JsqKx0IhzOyWJ9HjKBEgE1Esw+U/jQQkcwETuFVYky6kNDI7GU3UAPt5UgqoCbF4AP8AHq8tA8qsSjLVvHKYsNh1JndDVSDSC7yqia2h+eU4RbcI7SntJDoLyapdAhMQKjnsjqNHQncPDK9/pFmB86InZ/uNlEPEUAVle4SpHI3IMhNj4Q3wd/x+E5Y0EeTZQpmaCAUnqIma/wBKYmx4bqFWR4XF2t1QOQKQcWQxtxhYIo5yUXkwi15GjTVHgvkyKAcGWOiY7AawfdV9Nqu+ifcgS2dPOQwAqAnqSMxTRIRdy6tzBAAmeCpfGfb59W4IPRPYM70KFFVgnMU3gs2hMqFrbIa8r/FoNmhEcbbt9DJwkFpp/oVZnbjFcIENwLKZUxJuycyEbJOKFgogmWEoQVF1VD8tx6owbEQy8IKTmEnYQJTsGYhdMtbnkmE7DgltwRN4N73ixWZGbGoXbFdFmPCksFWhXVoWBICIBy8KvupOYnaE4aivttDpxPaAKMUSgYDhVxLC7oU0auHJtyiRqZP4TQGd+AqJDIQdhQBJ3J2IGuTa/CthKyTWN1KEV/unktAHJQEG0XwhdJd2/wARxa6EMm6O5yYJBTauwdGMlak0n0i842TQaG6iRkaUwAou/wCTdlCMhBnFCI2s2iASdAP0goxTMQoHomcYTkEBDclESVhYkdRktHyieGTUzekqoNmHJqwe3KgLIXAMahF3eEY2Icga6ULMGWrnPREGAak1KwRB3KwMbBVVhsgB3KLqKutNPs/EiIxHCdfMHKwAEdQjDa8jfBQnBDqDkIbXDJIndbhCWHwzQpoutg9SMD+ScFPAXBRrZEEIGNsDlODNEDyQ1BnonDu1QtwgnDX4Tv6F6pn4osKcJmFND+J0Nox96oFEMEUWPTLeQhwJIvsypEOTYRumcl2lbCZRgA3UdygqY606op51QH5CyKIrAHJAGIDBRAuVTQu6lJ6bY/IA7h3Q9wIIm4IeUVNpaF0JkNGDuP6sQGkIAOgR8BGkEfChLB65QIS6JuUIhRYuyFVHQRUPDok7fpaRBFCmggCv4lVhHkCYA2+yeBm4OzkdQWSGqCKYkiI2J+kxkbuo2IJ2f+oXQfLOQgDk1ohoQKRYIGTg2FO2YfoDaG4uGCDCGHamTodQmo0JwHtH+EExM7FFAR8NvdR+gI+UUwaiCF8DQnwUBQoAJ1nscsqQsYHH62kQRRAEGPKmqY4IbEnRFkQctIV5qPDqpUqapGPSGQDRYLR6a5HqqmYLm6L1qLP9/UQQRBFCLJsKQWcFUxVYPVFGVDnbZOcJsPcmxqGiafOpoDMY2V6AoX/q6YipPq/7jPzqKw8iyKxIBV3QyqHowwMoQxbE8IExD1UBp+2/yunjv7r56Iam2J+y7yd1R/rCqDlHJP8AxeAr3ydBlumJPqKsuf8AgNAf4TUNJqtZpAWDR3dEf4dGwu6CxRH7ybAS0WNoJPUQgYvKuYWAEJpQLgByx+yohaIQ7Rx9iNJqqP8AP2wA7CAguy/pG6TCdgtBaqclId0xBFrIkYCfm2ycBwL1a3ozRIASN1QNYRl16kSIBiKj9kuZx8IVnW4qhPZMY4CqYBmLVatFPZBx7grDFOI2KOaYXkjC6nA2myAxLdUcbrnFY7fqM3Zv9KFgZuUQHsoe2UQwwYQJZMJDXdbkTqaWAtujIUyoeuJGykUd2Q2gUMitDYjT9L/OqEPKo21UAjqnhAorhRwgu8Mo5sCixGKq7FqAoqrC1yiUCouU2rB6uhAkmQqWMoWx9CdDaZGhVU3fm93CsrIKAfKITz/xSoZTSACQKsnayD0UnRUSD1dEEhmI6KkUQKEoGhdqbJ0GA7qvLPcCLExHf8ySyMieaoKlzRMwisEJCAYaGCru42c/4gDC6bNqgAAQYDZYT0J8ugEiQAubNl3NFNGTBJqyZqVygRIBwqEQVfxJACpTVAV1KcxDWbMnEAuMoECoVKh6tdPuMyJNR0AKDDM5RoRJOVkdUDZEpeSZOCDMiAu8McJ2QLvosuGg/j1A6AjJCMWZrMokhlrAP2QmSC7qyIIIhsWTKkGH2UAFUD2UZ92HLpwBeTurCBsCOg7IE2BpZkyBDRTstPP0UkUYsfxnDA3/AMWqDlikrqPQFPRFSFUPqgETlOA4O6JC8BE2BEomChoqy+hNHwmDQdUBeU4SL0W8Q0N/xYdhrQZ0YRpgZhxoic/wjMOE8kNUFCGxQDkkbmSrLhhupUWRKXH9CIF0CS4HTJHQ4oUfae76hMSgSMjQOU9KMkCMFCM9Ad/TEyjf8HpU0Q0+SSPdME50KoMNqmPJBAGkm4TG6auTTUqgEH0RhAWQ8DahFBwyMouCADk4/qyJVQ79kCliIog8q0jcfgw1EByVXJlkf0jSDXR6BpKgF99EWYDnby6CHAJglCoNhBATp3JznkJsMq/KCAsDQhMheBywY3UGAqr2Ti7UvdQo2RRS6VGM4iKimf4SqOLhAi5ZaqCuycMgAdPQrksiFYgXxqjGFuAG6olREPNlACCCimEYBAobnIQBYVANdDRRYTQkmd/wGKbG7oT3paiJQWCAXTpyzxqncCiAvzujWguRsgGYiiIMJ8qYvcEIH4Nh0JBoX1PwnwBQa43Rpok4lcmL3sm5qUxRhAhCxTAGh6k8DQDUkiN1Pt6R6UM4SiYA5V5snaAGrkR60TxLnsEFSjCLMS4FApHbdPFJEnZGgsiZINoN2TAwT7+sjcHoUDCcUMv4mSZJcNNl2Qa7yJcImwwzUbpxDcP4T8YTSMk+wtTupdkOjGTjpcZIfCYz2ow8AbkxumHamoi5BmUMAImGeZWy4PV0Xz6DuJlCgluCBS5/RgeCBFMQ9lRXIEH+X4clckwB4UZOKqARA3E6hMQTIFkIBRP5ovAv6yEQFfcAFyA8FQdiiQDPtJga6h8IyKkhOdAd0ZLA2zD8BAmxFxHdEVYJwK0RTaEEmYzBBEcC4TJqctVIQItj6tXuDwsG/qrMmDMJ0WR8WQeNABtkRxZhChk5q4ZQ2SrkWY3/AA0x8AXiomnULYBQYyDIiRdMm7pz5L1bqPdEXRhuhwNRmCLBRAXGdEIGqjayjAoamabIII0RU4A2EefR4qt2BKQLoH7DsKLQ9gKNxf8AJPE0aCZCGoPQYjRPM+oEKADfKIgILogxiXqicIGoRaTExiEwTKBAIJiHBC/ij/EVg3efZBatGHSqNRMJghyZQmRdCBMINkwZb0hV39/wPXnkMEBqWEALBkjVqiQ9csOTYLYk2ONUViLjqiO90QCBwO0WQOeAownk10B3Aukp/YshVx1TMEJpq1wmTm6iQU7AWC+UB1TOTbh9Wi509SwaHB9Gp6AqV6plKGSWGwb0jdeOfSqwQiDAhn1QAw9yiC4DkIwVZnC0WV9v4mPlg5aD7qMcgeoXBPcwKAquEGrBKJGBdiA6uU3RDfiMkVnRCTvPQqYAK4QgCAEgwhRHSEAgE6wrgojpqrJT6IJJaFSqNZ6FdV+DzVidO3o4h4rIzbuv5sqkxxVWyqgeCgNDGTfXVAlgPLa6o4Z1KBKgmRDugfQCKzKokZZb7hSTcmSpJhP4i/EBQQOBwRsuBKolvIzBYboVyjCnVG6l4HLUXfKfAXSf8WqnFIJwGqAkLgHLHdGAbUAA6AgGBQKlByZhEqAgDlyBs+ynKgqgjGFh9pySZJ/CYgZO6JBRpKoOTZSv6g8QxOKSrFn56rBEZqowDPaFqBZqF9k4BDmXiETar2oiYygIMjhGggA6VZj2D8/6iRzs9QIAgsQ56IHuh2RAKCbImXka46odB2RYmpR5xWQQCDAJIWDINI61n9Iti09JZCQDnoEQNaBdFpqiVk7/AI9kBIBg4yVzBZ9E4poVdHDAzsikAnYLMaIHhG0GxRAXUKoLE5CSxAonL9k1zU2QoqzpK/hQY/MpMS6jChj9JCBuESyGIRdJ+SdYkpKEUNd6FT1lUUsBwUMPMQOSAHLUmEEtdI6L7oj5BUiGbo6kbnKyeVW5FHOk0FSVDmf0OFbWuVgAbqUXcrXcB31T2Y4YIGZV/krEjWCgU3YsmzApdrJwKWsBVE5PfKE4MAUs/T1ALEIYLy7UfxQ9SJOTAYhQh+xRJIf+DdCA2GVWfo6ep7BV7eEKE4Fe4TD+qIbYNN1MByQF236WsN4WQ2Z0cONCEaQgtwws54ILm6N8nQwhl1UhlMd2ZNE/8I1dGlMWG36yO9jqhHgrhMhbS/UKIAXysV0RxwrCph2Kqz2kQagqTEKE6G7Ko53FCSSS41P7HzRcGvCgAAvQpqpq4ZMkh7VIGhB5Wo6qk7jCFMFhLrKZU6L29H7xnKaFWo9D1QfeBVBdYCq51RPaL97IX0KhlG3Sk9URzOSf+EihbaENBc1/QXeQj/8Aff/Z;" vertex="1" parent="1">
                    <mxGeometry x="620" y="60" width="218.47" height="290" as="geometry"/>
                </mxCell>
                <mxCell id="3" value="&lt;font style=&quot;font-size: 24px;&quot;&gt;Welcome to the donut shop!&lt;/font&gt;" style="text;html=1;align=center;verticalAlign=middle;resizable=0;points=[];autosize=1;strokeColor=none;fillColor=none;" vertex="1" parent="1">
                    <mxGeometry x="200" y="20" width="320" height="40" as="geometry"/>
                </mxCell>
                <mxCell id="4" value="Select how many donuts you want" style="text;html=1;align=center;verticalAlign=middle;resizable=0;points=[];autosize=1;strokeColor=none;fillColor=none;" vertex="1" parent="1">
                    <mxGeometry y="68" width="210" height="30" as="geometry"/>
                </mxCell>
                <mxCell id="6" value="- 3 ($5)&lt;div&gt;- 6 ($9)&lt;/div&gt;&lt;div&gt;&amp;nbsp;- 9 ($12)&lt;/div&gt;&lt;div&gt;&amp;nbsp; &amp;nbsp;- 12 ($14)&lt;/div&gt;" style="text;html=1;align=center;verticalAlign=middle;resizable=0;points=[];autosize=1;strokeColor=none;fillColor=none;" vertex="1" parent="1">
                    <mxGeometry x="-5" y="90" width="90" height="70" as="geometry"/>
                </mxCell>
                <mxCell id="7" value="Select the flavour of the donuts&amp;nbsp;" style="text;html=1;align=center;verticalAlign=middle;resizable=0;points=[];autosize=1;strokeColor=none;fillColor=none;" vertex="1" parent="1">
                    <mxGeometry x="5" y="160" width="190" height="30" as="geometry"/>
                </mxCell>
                <mxCell id="8" value="- Chocolate ($0.70)&lt;div&gt;- Strawberry ($0.80)&lt;/div&gt;&lt;div&gt;&amp;nbsp;- Vanilla&amp;nbsp; ($0.50)&lt;/div&gt;" style="text;html=1;align=center;verticalAlign=middle;resizable=0;points=[];autosize=1;strokeColor=none;fillColor=none;" vertex="1" parent="1">
                    <mxGeometry y="180" width="130" height="60" as="geometry"/>
                </mxCell>
                <mxCell id="9" value="Calculate!" style="whiteSpace=wrap;html=1;" vertex="1" parent="1">
                    <mxGeometry x="10" y="240" width="120" height="30" as="geometry"/>
                </mxCell>
            </root>
        </mxGraphModel>
    </diagram>
</mxfile>